<svg width="273" height="258" viewBox="0 0 273 258" fill="none" xmlns="http://www.w3.org/2000/svg">
<g clip-path="url(#clip0_130_50)">
<rect width="273" height="258" fill="#44C6B6"/>
<path d="M242.442 28.4037L245.533 33.2974C246.541 34.8927 248.592 35.4667 250.282 34.6262L255.283 32.1381C257.067 31.2503 259.15 32.6008 259.067 34.592L258.809 40.8424C258.734 42.6572 259.995 44.255 261.777 44.604L267.592 45.7422C269.497 46.1151 270.349 48.3575 269.172 49.9013L265.33 54.943C264.255 56.3537 264.34 58.3306 265.532 59.644L269.792 64.3381C271.096 65.7755 270.439 68.0826 268.573 68.6173L262.878 70.2493C261.132 70.7497 260.012 72.4496 260.242 74.2513L261.035 80.4566C261.288 82.4335 259.328 83.9573 257.474 83.2256L252.279 81.1749C250.524 80.4822 248.529 81.2299 247.662 82.9056L245.001 88.046C244.071 89.8436 241.54 89.9522 240.459 88.2409L237.368 83.3472C236.36 81.7519 234.309 81.1779 232.62 82.0183L227.619 84.5065C225.835 85.3942 223.752 84.0438 223.834 82.0526L224.092 75.8022C224.167 73.9874 222.906 72.3896 221.124 72.0406L215.31 70.9024C213.405 70.5295 212.553 68.2871 213.729 66.7432L217.571 61.7016C218.646 60.2909 218.561 58.314 217.369 57.0006L213.11 52.3065C211.806 50.8691 212.463 48.562 214.328 48.0273L220.024 46.3953C221.77 45.8949 222.889 44.195 222.659 42.3933L221.866 36.188C221.614 34.2111 223.573 32.6873 225.427 33.4189L230.623 35.4696C232.378 36.1624 234.372 35.4147 235.24 33.739L237.9 28.5986C238.831 26.801 241.361 26.6924 242.442 28.4037Z" fill="#2A2A2A" stroke="#2A2A2A" stroke-width="1.0582"/>
<path d="M243.297 24.2575L246.388 29.1512C247.395 30.7464 249.447 31.3205 251.136 30.48L256.137 27.9919C257.921 27.1041 260.004 28.4545 259.922 30.4457L259.663 36.6962C259.588 38.5109 260.849 40.1088 262.632 40.4577L268.446 41.5959C270.351 41.9688 271.203 44.2113 270.027 45.7551L266.185 50.7967C265.11 52.2074 265.195 54.1843 266.386 55.4978L270.646 60.1918C271.95 61.6292 271.293 63.9364 269.427 64.4711L263.732 66.1031C261.986 66.6034 260.867 68.3034 261.097 70.1051L261.889 76.3104C262.142 78.2872 260.182 79.8111 258.329 79.0794L253.133 77.0287C251.378 76.336 249.383 77.0836 248.516 78.7593L245.855 83.8998C244.925 85.6974 242.394 85.8059 241.313 84.0946L238.222 79.2009C237.215 77.6057 235.163 77.0316 233.474 77.8721L228.473 80.3603C226.689 81.248 224.606 79.8976 224.688 77.9064L224.947 71.656C225.022 69.8412 223.761 68.2434 221.978 67.8944L216.164 66.7562C214.259 66.3833 213.407 64.1409 214.584 62.597L218.425 57.5554C219.5 56.1447 219.415 54.1678 218.224 52.8543L213.964 48.1603C212.66 46.7229 213.317 44.4157 215.183 43.881L220.878 42.249C222.624 41.7487 223.744 40.0488 223.513 38.2471L222.721 32.0417C222.468 30.0649 224.428 28.541 226.281 29.2727L231.477 31.3234C233.232 32.0161 235.227 31.2685 236.094 29.5928L238.755 24.4523C239.685 22.6547 242.216 22.5462 243.297 24.2575Z" fill="#FC97D9" stroke="#2A2A2A" stroke-width="1.0582"/>
<path d="M247.831 189.425C244.073 178.18 248.688 169.314 250.245 166.97C250.287 166.912 250.309 166.843 250.309 166.771C250.31 166.7 250.288 166.631 250.248 166.572C250.207 166.513 250.15 166.469 250.083 166.444C250.016 166.419 249.943 166.415 249.874 166.433C238.406 170.349 231.449 165.341 229.104 163.784C229.046 163.744 228.977 163.723 228.906 163.724C228.836 163.724 228.767 163.746 228.709 163.786C228.651 163.826 228.606 163.883 228.581 163.948C228.556 164.014 228.551 164.086 228.567 164.155C231.874 175.772 226.322 182.319 224.764 184.662C224.587 184.923 224.835 185.308 225.135 185.199C236.461 181.2 244.949 188.238 247.294 189.796C247.352 189.837 247.421 189.859 247.493 189.86C247.564 189.86 247.634 189.838 247.692 189.798C247.751 189.758 247.796 189.7 247.82 189.633C247.845 189.567 247.849 189.494 247.831 189.425Z" fill="#2A2A2A"/>
<path d="M245.103 185.989C241.345 174.744 246.828 167.111 248.385 164.768C248.426 164.71 248.449 164.64 248.449 164.569C248.45 164.498 248.428 164.428 248.388 164.37C248.347 164.311 248.29 164.266 248.223 164.241C248.156 164.217 248.083 164.213 248.014 164.231C236.546 168.147 229.127 162.504 226.782 160.946C226.724 160.907 226.655 160.886 226.584 160.886C226.513 160.887 226.445 160.908 226.387 160.948C226.329 160.988 226.284 161.045 226.259 161.111C226.233 161.177 226.228 161.249 226.245 161.317C229.552 172.935 224.52 180.195 222.962 182.538C222.786 182.799 223.034 183.184 223.333 183.075C234.659 179.076 242.221 184.802 244.566 186.359C244.624 186.401 244.693 186.423 244.764 186.423C244.836 186.424 244.905 186.402 244.964 186.362C245.023 186.321 245.067 186.264 245.092 186.197C245.117 186.13 245.121 186.057 245.103 185.989Z" fill="#D4F34A" stroke="#2A2A2A" stroke-width="0.566997" stroke-miterlimit="10"/>
<path d="M39.567 198.553C35.1376 169.01 50.9232 148.557 55.955 143.278C56.0863 143.148 56.1746 142.983 56.2082 142.805C56.2417 142.627 56.2187 142.444 56.1425 142.282C56.0662 142.121 55.9402 141.987 55.7816 141.9C55.6231 141.813 55.4395 141.776 55.2559 141.795C24.2942 147.294 8.88351 132.156 3.62867 127.381C3.49798 127.26 3.33195 127.182 3.15232 127.157C2.97269 127.131 2.78781 127.159 2.62186 127.238C2.45591 127.316 2.31661 127.441 2.2222 127.597C2.12779 127.752 2.08266 127.93 2.0927 128.108C5.20444 158.414 -11.9082 172.711 -16.94 177.99C-17.5081 178.576 -17.053 179.632 -16.2409 179.473C14.3958 173.713 32.7762 194.504 38.031 199.279C38.1602 199.404 38.3266 199.486 38.5077 199.513C38.6888 199.541 38.8758 199.513 39.0434 199.434C39.211 199.355 39.3511 199.228 39.4448 199.07C39.5384 198.912 39.5811 198.732 39.567 198.553Z" fill="#2A2A2A"/>
<path d="M35.1782 189.397C30.7488 159.854 48.1799 142.814 53.2117 137.535C53.343 137.405 53.4314 137.239 53.4649 137.061C53.4984 136.883 53.4755 136.701 53.3992 136.539C53.3229 136.377 53.1969 136.244 53.0383 136.157C52.8798 136.069 52.6963 136.033 52.5126 136.052C21.5509 141.55 5.25408 124.651 -0.000758533 119.876C-0.131448 119.755 -0.29747 119.677 -0.477104 119.651C-0.656739 119.626 -0.841613 119.654 -1.00756 119.732C-1.17352 119.811 -1.31282 119.936 -1.40723 120.091C-1.50164 120.246 -1.54677 120.425 -1.53672 120.602C1.57502 150.908 -14.5385 167.185 -19.5703 172.464C-20.1384 173.05 -19.6833 174.106 -18.8712 173.947C11.7655 168.187 28.3874 185.348 33.6422 190.123C33.7714 190.248 33.9378 190.33 34.1189 190.357C34.3 190.385 34.487 190.358 34.6546 190.278C34.8222 190.199 34.9623 190.072 35.056 189.914C35.1496 189.756 35.1923 189.576 35.1782 189.397Z" fill="#FC97D9" stroke="#2A2A2A" stroke-width="1.24291" stroke-miterlimit="10"/>
<circle cx="29.2281" cy="39.8229" r="14.3716" transform="rotate(10.0741 29.2281 39.8229)" fill="#2A2A2A" stroke="#2A2A2A" stroke-width="0.684362"/>
<circle cx="29.8244" cy="36.4525" r="14.3716" transform="rotate(10.0741 29.8244 36.4525)" fill="#FAF9FE" stroke="#2A2A2A" stroke-width="0.684362"/>
</g>
<rect x="0.5" y="0.5" width="272" height="257" stroke="black"/>
<defs>
<clipPath id="clip0_130_50">
<rect width="273" height="258" fill="white"/>
</clipPath>
</defs>
</svg>
