<svg width="273" height="258" viewBox="0 0 273 258" fill="none" xmlns="http://www.w3.org/2000/svg">
<g clip-path="url(#clip0_129_27)">
<rect width="273" height="258" fill="#F0E266"/>
<path d="M250.539 10.9739L254.866 15.4672C256.277 16.932 258.567 17.0918 260.168 15.8371L264.905 12.1229C266.596 10.7978 269.088 11.7702 269.434 13.89L270.521 20.544C270.837 22.476 272.515 23.8883 274.473 23.869L280.858 23.8059C282.949 23.7852 284.337 25.9669 283.431 27.8524L280.472 34.0098C279.644 35.7328 280.164 37.8011 281.707 38.9283L287.225 42.9568C288.914 44.1904 288.722 46.7687 286.869 47.739L281.212 50.7004C279.478 51.6084 278.666 53.6463 279.301 55.498L281.487 61.8758C282.184 63.9077 280.447 65.9424 278.331 65.5733L272.4 64.5387C270.397 64.1892 268.454 65.4123 267.903 67.3697L266.213 73.3746C265.622 75.4745 262.974 76.1395 261.461 74.5681L257.133 70.0748C255.723 68.6101 253.433 68.4502 251.832 69.7049L247.095 73.4191C245.404 74.7442 242.912 73.7718 242.566 71.652L241.479 64.998C241.163 63.0661 239.485 61.6537 237.527 61.673L231.142 61.7362C229.051 61.7568 227.663 59.5751 228.569 57.6896L231.528 51.5322C232.356 49.8093 231.836 47.7409 230.293 46.6137L224.775 42.5852C223.086 41.3516 223.278 38.7733 225.131 37.8031L230.788 34.8416C232.522 33.9337 233.334 31.8957 232.699 30.044L230.513 23.6662C229.816 21.6344 231.553 19.5996 233.669 19.9687L239.6 21.0033C241.603 21.3528 243.546 20.1298 244.097 18.1723L245.787 12.1675C246.378 10.0676 249.026 9.40255 250.539 10.9739Z" fill="#2A2A2A" stroke="#2A2A2A" stroke-width="1.14048"/>
<path d="M250.539 6.41198L254.866 10.9053C256.277 12.3701 258.567 12.5299 260.168 11.2753L264.905 7.56105C266.596 6.23587 269.088 7.20831 269.434 9.32811L270.521 15.9821C270.837 17.9141 272.515 19.3265 274.473 19.3071L280.858 19.244C282.949 19.2233 284.337 21.405 283.431 23.2905L280.472 29.4479C279.644 31.1709 280.164 33.2392 281.707 34.3664L287.225 38.3949C288.914 39.6285 288.722 42.2068 286.869 43.1771L281.212 46.1386C279.478 47.0465 278.666 49.0844 279.301 50.9362L281.487 57.314C282.184 59.3458 280.447 61.3805 278.331 61.0114L272.4 59.9768C270.397 59.6273 268.454 60.8504 267.903 62.8078L266.213 68.8127C265.622 70.9126 262.974 71.5776 261.461 70.0063L257.133 65.5129C255.723 64.0482 253.433 63.8884 251.832 65.143L247.095 68.8572C245.404 70.1824 242.912 69.2099 242.566 67.0901L241.479 60.4361C241.163 58.5042 239.485 57.0918 237.527 57.1111L231.142 57.1743C229.051 57.195 227.663 55.0133 228.569 53.1277L231.528 46.9703C232.356 45.2474 231.836 43.179 230.293 42.0518L224.775 38.0233C223.086 36.7897 223.278 34.2114 225.131 33.2412L230.788 30.2797C232.522 29.3718 233.334 27.3339 232.699 25.4821L230.513 19.1043C229.816 17.0725 231.553 15.0377 233.669 15.4069L239.6 16.4414C241.603 16.7909 243.546 15.5679 244.097 13.6104L245.787 7.60556C246.378 5.50567 249.026 4.84066 250.539 6.41198Z" fill="#FC97D9" stroke="#2A2A2A" stroke-width="1.14048"/>
<path d="M226.581 179.056C232.806 168.965 242.57 166.827 245.367 166.521C245.438 166.515 245.506 166.488 245.561 166.442C245.615 166.397 245.655 166.336 245.674 166.267C245.693 166.199 245.691 166.126 245.667 166.059C245.643 165.991 245.599 165.933 245.541 165.892C235.186 159.596 234.573 151.047 234.266 148.249C234.259 148.178 234.231 148.112 234.185 148.058C234.14 148.004 234.079 147.965 234.011 147.946C233.943 147.927 233.871 147.929 233.805 147.952C233.738 147.975 233.679 148.017 233.637 148.074C226.837 158.057 218.254 157.989 215.456 158.295C215.143 158.326 215.006 158.763 215.282 158.924C225.609 165.057 225.645 176.083 225.952 178.881C225.958 178.952 225.985 179.02 226.03 179.075C226.076 179.13 226.137 179.169 226.206 179.188C226.274 179.208 226.347 179.205 226.414 179.181C226.481 179.158 226.54 179.114 226.581 179.056Z" fill="#2A2A2A"/>
<path d="M227.471 174.76C233.696 164.669 243.069 163.987 245.866 163.682C245.937 163.676 246.004 163.649 246.059 163.603C246.114 163.558 246.154 163.497 246.173 163.428C246.192 163.359 246.19 163.287 246.166 163.219C246.142 163.152 246.098 163.094 246.04 163.052C235.685 156.757 235.264 147.446 234.956 144.648C234.949 144.577 234.921 144.511 234.876 144.457C234.83 144.403 234.769 144.364 234.702 144.345C234.634 144.326 234.561 144.329 234.495 144.351C234.428 144.374 234.37 144.416 234.327 144.473C227.528 154.456 218.73 155.245 215.932 155.551C215.619 155.582 215.483 156.019 215.758 156.18C226.086 162.313 226.535 171.787 226.842 174.585C226.848 174.656 226.875 174.723 226.92 174.778C226.966 174.833 227.027 174.873 227.095 174.892C227.164 174.911 227.237 174.909 227.304 174.885C227.371 174.861 227.43 174.818 227.471 174.76Z" fill="#F0E266" stroke="#2A2A2A" stroke-width="0.566997" stroke-miterlimit="10"/>
<path d="M27.4214 191.371C32.339 167.612 49.6234 156.672 54.7896 154.129C54.9223 154.068 55.0331 153.968 55.107 153.843C55.181 153.717 55.2146 153.572 55.2032 153.426C55.1918 153.281 55.1361 153.143 55.0435 153.03C54.9508 152.917 54.8259 152.836 54.6854 152.797C30.3677 147.928 23.2124 131.913 20.6655 126.746C20.6027 126.616 20.5021 126.508 20.3769 126.436C20.2518 126.364 20.1078 126.331 19.9639 126.343C19.82 126.354 19.6828 126.408 19.5703 126.498C19.4579 126.589 19.3753 126.711 19.3335 126.849C13.2343 150.804 -3.32272 156.674 -8.489 159.218C-9.06937 159.497 -9.02669 160.434 -8.38479 160.55C15.7659 165.125 23.5425 186.307 26.0894 191.474C26.15 191.607 26.2498 191.718 26.3755 191.792C26.5011 191.866 26.6465 191.9 26.7918 191.888C26.9372 191.877 27.0755 191.821 27.1881 191.729C27.3007 191.636 27.3822 191.511 27.4214 191.371Z" fill="#2A2A2A"/>
<path d="M26.7205 183.124C31.6381 159.365 49.1892 151.502 54.3554 148.958C54.4881 148.898 54.5989 148.798 54.6728 148.672C54.7468 148.547 54.7804 148.401 54.769 148.256C54.7576 148.111 54.7019 147.972 54.6093 147.86C54.5166 147.747 54.3917 147.665 54.2512 147.626C29.9335 142.758 22.6136 125.143 20.0667 119.976C20.0039 119.846 19.9033 119.738 19.7782 119.666C19.653 119.594 19.509 119.562 19.3651 119.573C19.2212 119.584 19.084 119.639 18.9716 119.729C18.8591 119.819 18.7766 119.942 18.7347 120.08C12.6356 144.035 -3.73397 151.702 -8.90024 154.246C-9.48062 154.525 -9.43794 155.462 -8.79604 155.578C15.3546 160.153 22.8416 178.061 25.3885 183.228C25.4491 183.361 25.5489 183.471 25.6746 183.545C25.8002 183.619 25.9455 183.653 26.0909 183.642C26.2363 183.63 26.3746 183.575 26.4872 183.482C26.5998 183.39 26.6812 183.265 26.7205 183.124Z" fill="#FC97D9" stroke="#2A2A2A" stroke-miterlimit="10"/>
<circle cx="35.2963" cy="45.8139" r="14.3716" transform="rotate(-26.7014 35.2963 45.8139)" fill="#2A2A2A" stroke="#2A2A2A" stroke-width="0.684362"/>
<circle cx="33.7562" cy="42.7573" r="14.3716" transform="rotate(-26.7014 33.7562 42.7573)" fill="#44C6B6" stroke="#2A2A2A" stroke-width="0.684362"/>
</g>
<rect x="0.5" y="0.5" width="272" height="257" stroke="black"/>
<defs>
<clipPath id="clip0_129_27">
<rect width="273" height="258" fill="white"/>
</clipPath>
</defs>
</svg>
