<svg width="370" height="340" viewBox="0 0 370 340" fill="none" xmlns="http://www.w3.org/2000/svg">
<path d="M350.927 102.763L346.583 108.086C302.859 161.609 259.136 215.144 215.413 268.692L58.1402 200.908L53.6655 198.979L191.73 49.3071C244.803 67.1341 297.869 84.9528 350.927 102.763Z" fill="#EF4570" stroke="#231F20" stroke-width="0.57" stroke-miterlimit="10"/>
<path d="M350.927 109.54L215.413 275.469C161.497 252.223 107.581 228.985 53.6655 205.756L58.1402 200.908L215.413 268.693C259.136 215.145 302.859 161.61 346.583 108.087C348.035 108.513 349.475 109.039 350.927 109.54Z" fill="#AA2949" stroke="#010101" stroke-width="0.28" stroke-miterlimit="10"/>
<path d="M218.861 298.953L57.113 229.239L53.6655 198.979L95.9915 217.216L215.413 268.693L218.861 298.953Z" fill="#AA2949" stroke="#010101" stroke-width="0.57" stroke-miterlimit="10"/>
<path d="M357.208 157.772L218.861 298.952C217.704 288.857 216.555 278.771 215.413 268.692C259.884 214.084 304.355 159.48 348.826 104.88L350.892 102.763L357.208 157.772Z" fill="#AA2949" stroke="#010101" stroke-width="0.57" stroke-miterlimit="10"/>
<path d="M112.709 232.508L62.1543 212.093L42.5675 185.114L97.9632 207.033L112.709 232.508Z" fill="#B42F50" stroke="#010101" stroke-width="0.57" stroke-miterlimit="10"/>
<path d="M266.051 66.2536C260.147 73.6605 253.032 79.8764 245.047 84.6025C239.451 87.6742 233.71 90.4375 227.845 92.8814C224.894 94.1339 222.025 95.2987 219.262 96.3382L213.595 86.5438L211.588 83.087C201.695 90.2332 192.232 98.0262 183.253 106.421C182.32 107.297 181.387 108.174 180.455 109.076C164.759 124.152 150.639 140.978 138.341 159.263L145.425 171.587C143.381 181.663 140.081 191.405 135.614 200.557C129.803 212.549 122.05 223.364 112.709 232.508L97.9631 207.083C113.726 168.52 136.567 133.671 165.153 104.567C167.113 102.551 169.109 100.584 171.163 98.6178L173.973 95.95C199.396 72.1942 228.514 53.3017 260.03 40.1143L266.051 66.2536Z" fill="#AA2949" stroke="#010101" stroke-width="0.28" stroke-miterlimit="10"/>
<path d="M266.051 66.2536C260.147 73.6605 253.032 79.8764 245.047 84.6025C239.451 87.6742 233.71 90.4375 227.845 92.8814C224.894 94.1339 222.025 95.2987 219.262 96.3382L213.595 86.5438L211.588 83.087C201.695 90.2332 192.232 98.0262 183.253 106.421C182.32 107.297 181.387 108.174 180.455 109.076C164.759 124.152 150.639 140.978 138.341 159.263L145.425 171.587C143.381 181.663 140.081 191.405 135.614 200.557C129.803 212.549 122.05 223.364 112.709 232.508L97.9631 207.083C113.726 168.52 136.567 133.671 165.153 104.567C167.113 102.551 169.109 100.584 171.163 98.6178L173.973 95.95C199.396 72.1942 228.514 53.3017 260.03 40.1143L266.051 66.2536Z" fill="#AA2949" stroke="#010101" stroke-width="0.57" stroke-miterlimit="10"/>
<path d="M260.03 40.0641C228.52 53.2647 199.404 72.1559 173.973 95.8998L171.163 98.5676C169.109 100.547 167.113 102.513 165.153 104.517C136.565 133.62 113.725 168.469 97.9632 207.033C91.1627 204.344 84.3583 201.639 77.5499 198.917L42.5675 185.114C74.9553 111.465 133.048 54.0445 204.587 24.9717L260.03 40.0641Z" fill="#EF4570" stroke="#231F20" stroke-width="0.57" stroke-miterlimit="10"/>
<path d="M80.7967 210.226C79.5078 214.659 77.5371 218.836 74.9643 222.588C73.1697 225.193 61.7057 240.636 44.0197 239.86C34.5037 239.446 27.2192 233.485 23.1224 229.201C19.0728 220.634 14.2558 206.995 16.2865 191.251C18.4234 174.63 26.3691 169.783 46.0268 142.003C66.2512 113.434 85.6963 83.362 96.9715 80.6316C100.682 79.6396 104.593 79.9247 108.14 81.4457C109.527 82.1711 110.786 83.1457 111.859 84.3264" stroke="#FFCC42" stroke-width="5.67" stroke-linejoin="round"/>
<path d="M237.137 134.539L217.975 127.024L217.373 122.428L220.667 123.718L236.535 129.968L237.137 134.539Z" fill="#FFCC42" stroke="#231F20" stroke-width="0.57" stroke-linejoin="round"/>
<path d="M250.986 117.593L237.137 134.539L236.535 129.967L247.68 116.315L250.384 113.009L250.986 117.593Z" fill="#FFCC42" stroke="#231F20" stroke-width="0.57" stroke-linejoin="round"/>
<path d="M250.384 113.008L247.68 116.315L236.535 129.967L220.667 123.717L217.373 122.427L231.175 105.556L250.384 113.008Z" fill="#FEDB7C" stroke="#231F20" stroke-width="0.57" stroke-linejoin="round"/>
<path d="M262.993 144.997L243.831 137.47L243.229 132.886L246.523 134.176L262.391 140.413L262.993 144.997Z" fill="#FFCC42" stroke="#231F20" stroke-width="0.57" stroke-linejoin="round"/>
<path d="M276.842 128.051L262.993 144.997L262.391 140.413L273.536 126.773L276.24 123.467L276.842 128.051Z" fill="#FFCC42" stroke="#231F20" stroke-width="0.57" stroke-linejoin="round"/>
<path d="M276.24 123.467L273.536 126.774L262.391 140.413L246.523 134.176L243.229 132.886L257.031 116.002L276.24 123.467Z" fill="#FEDB7C" stroke="#231F20" stroke-width="0.57" stroke-linejoin="round"/>
<path d="M289.251 155.869L270.089 148.341L269.487 143.757L272.781 145.047L288.648 151.285L289.251 155.869Z" fill="#FFCC42" stroke="#231F20" stroke-width="0.57" stroke-linejoin="round"/>
<path d="M303.1 138.923L289.251 155.869L288.649 151.285L299.794 137.645L302.497 134.339L303.1 138.923Z" fill="#FFCC42" stroke="#231F20" stroke-width="0.57" stroke-linejoin="round"/>
<path d="M302.497 134.339L299.794 137.645L288.648 151.285L272.781 145.048L269.487 143.757L283.288 126.874L302.497 134.339Z" fill="#FEDB7C" stroke="#231F20" stroke-width="0.57" stroke-linejoin="round"/>
<path d="M244.705 167.642L225.543 160.115L224.941 155.531L228.235 156.821L244.103 163.058L244.705 167.642Z" fill="#FFCC42" stroke="#231F20" stroke-width="0.57" stroke-linejoin="round"/>
<path d="M258.554 150.696L244.705 167.642L244.103 163.058L255.248 149.418L257.952 146.112L258.554 150.696Z" fill="#FFCC42" stroke="#231F20" stroke-width="0.57" stroke-linejoin="round"/>
<path d="M257.952 146.112L255.248 149.419L244.103 163.058L228.235 156.821L224.941 155.531L238.743 138.647L257.952 146.112Z" fill="#FEDB7C" stroke="#231F20" stroke-width="0.57" stroke-linejoin="round"/>
<path d="M270.962 178.514L251.801 170.986L251.198 166.402L254.492 167.692L270.36 173.93L270.962 178.514Z" fill="#FFCC42" stroke="#231F20" stroke-width="0.57" stroke-linejoin="round"/>
<path d="M284.811 161.567L270.962 178.514L270.36 173.93L281.506 160.29L284.209 156.983L284.811 161.567Z" fill="#FFCC42" stroke="#231F20" stroke-width="0.57" stroke-linejoin="round"/>
<path d="M284.209 156.983L281.506 160.29L270.36 173.929L254.492 167.692L251.198 166.402L265 149.519L284.209 156.983Z" fill="#FEDB7C" stroke="#231F20" stroke-width="0.57" stroke-linejoin="round"/>
<path d="M252.202 200.858L233.04 193.331L232.438 188.747L235.732 190.037L251.6 196.274L252.202 200.858Z" fill="#FFCC42" stroke="#231F20" stroke-width="0.57" stroke-linejoin="round"/>
<path d="M266.051 183.912L252.202 200.858L251.6 196.274L262.745 182.635L265.449 179.328L266.051 183.912Z" fill="#FFCC42" stroke="#231F20" stroke-width="0.57" stroke-linejoin="round"/>
<path d="M265.449 179.328L262.745 182.635L251.6 196.274L235.732 190.037L232.438 188.747L246.24 171.863L265.449 179.328Z" fill="#FEDB7C" stroke="#231F20" stroke-width="0.57" stroke-linejoin="round"/>
<path d="M218.589 157.196L199.427 149.669L198.825 145.084L202.119 146.375L217.987 152.612L218.589 157.196Z" fill="#FFCC42" stroke="#231F20" stroke-width="0.57" stroke-linejoin="round"/>
<path d="M232.438 140.25L218.589 157.196L217.987 152.612L229.132 138.973L231.836 135.666L232.438 140.25Z" fill="#FFCC42" stroke="#231F20" stroke-width="0.57" stroke-linejoin="round"/>
<path d="M231.836 135.666L229.132 138.973L217.987 152.612L202.119 146.375L198.825 145.085L212.627 128.201L231.836 135.666Z" fill="#FEDB7C" stroke="#231F20" stroke-width="0.57" stroke-linejoin="round"/>
<path d="M200.655 179.365L181.494 171.838L180.891 167.253L184.185 168.543L200.053 174.781L200.655 179.365Z" fill="#FFCC42" stroke="#231F20" stroke-width="0.57" stroke-linejoin="round"/>
<path d="M214.504 162.419L200.655 179.365L200.053 174.781L211.198 161.142L213.902 157.835L214.504 162.419Z" fill="#FFCC42" stroke="#231F20" stroke-width="0.57" stroke-linejoin="round"/>
<path d="M213.902 157.835L211.199 161.141L200.053 174.781L184.185 168.544L180.891 167.254L194.693 150.37L213.902 157.835Z" fill="#FEDB7C" stroke="#231F20" stroke-width="0.57" stroke-linejoin="round"/>
<path d="M225.225 190.174L206.063 182.647L205.461 178.062L208.755 179.353L224.622 185.59L225.225 190.174Z" fill="#FFCC42" stroke="#231F20" stroke-width="0.57" stroke-linejoin="round"/>
<path d="M239.073 173.228L225.224 190.174L224.622 185.59L235.768 171.951L238.471 168.644L239.073 173.228Z" fill="#FFCC42" stroke="#231F20" stroke-width="0.57" stroke-linejoin="round"/>
<path d="M238.471 168.644L235.768 171.951L224.622 185.59L208.755 179.353L205.461 178.063L219.262 161.179L238.471 168.644Z" fill="#FEDB7C" stroke="#231F20" stroke-width="0.57" stroke-linejoin="round"/>
<path d="M208.188 212.556L189.014 205.028L188.412 200.444L191.706 201.734L207.574 207.972L208.188 212.556Z" fill="#FFCC42" stroke="#231F20" stroke-width="0.57" stroke-linejoin="round"/>
<path d="M222.025 195.61L208.188 212.556L207.574 207.972L218.731 194.332L221.435 191.026L222.025 195.61Z" fill="#FFCC42" stroke="#231F20" stroke-width="0.57" stroke-linejoin="round"/>
<path d="M221.435 191.026L218.731 194.333L207.574 207.972L191.706 201.735L188.412 200.445L202.214 183.562L221.435 191.026Z" fill="#FEDB7C" stroke="#231F20" stroke-width="0.57" stroke-linejoin="round"/>
<path d="M181.8 202.185L162.627 194.658L162.036 190.074L165.319 191.364L181.186 197.601L181.8 202.185Z" fill="#FFCC42" stroke="#231F20" stroke-width="0.57" stroke-linejoin="round"/>
<path d="M195.649 185.239L181.8 202.185L181.187 197.601L192.332 183.962L195.047 180.655L195.649 185.239Z" fill="#FFCC42" stroke="#231F20" stroke-width="0.57" stroke-linejoin="round"/>
<path d="M195.047 180.655L192.332 183.962L181.186 197.601L165.319 191.364L162.036 190.074L175.838 173.19L195.047 180.655Z" fill="#FEDB7C" stroke="#231F20" stroke-width="0.57" stroke-linejoin="round"/>
<path d="M233.914 223.503L214.752 215.976L214.15 211.392L217.444 212.682L233.312 218.919L233.914 223.503Z" fill="#FFCC42" stroke="#231F20" stroke-width="0.57" stroke-linejoin="round"/>
<path d="M247.763 206.557L233.914 223.503L233.312 218.919L244.457 205.279L247.161 201.973L247.763 206.557Z" fill="#FFCC42" stroke="#231F20" stroke-width="0.57" stroke-linejoin="round"/>
<path d="M247.161 201.973L244.457 205.279L233.312 218.919L217.444 212.681L214.15 211.391L227.952 194.508L247.161 201.973Z" fill="#FEDB7C" stroke="#231F20" stroke-width="0.57" stroke-linejoin="round"/>
<path d="M156.865 50.7729L156.299 112.984C134.174 137.524 115.823 165.601 101.918 196.186C102.705 162.227 103.493 128.268 104.28 94.3093C120.05 77.5531 137.712 62.93 156.865 50.7729Z" fill="white"/>
<path d="M281.813 47.2594C287.763 47.3529 293.712 47.007 299.61 46.2246L302.092 45.6702C305.219 44.968 305.629 44.9188 306.187 44.6108C307.539 43.6553 308.454 42.2066 308.731 40.5824C310.357 34.6199 311.598 20.1694 311.027 20.1694C310.456 20.1694 311.859 37.0714 313.385 40.2991C314.134 41.8778 315.269 43.2456 316.686 44.2782C317.866 45.0017 319.177 45.4873 320.546 45.7072C322.122 45.9659 330.574 46.6311 342.202 47.0623C330.76 48.1094 322.346 49.1196 320.074 49.4646C318.534 49.7134 317.084 50.3543 315.867 51.3248C315.623 51.5616 315.403 51.8215 315.21 52.1009C314.839 52.6962 314.574 53.3505 314.428 54.035C314.192 55.2669 313.336 62.6585 312.33 72.9943C311.884 69.9022 311.561 67.426 311.362 65.8615C310.581 59.4801 310.494 57.0286 308.731 54.2198C308 53.0607 307.096 52.0182 306.051 51.1277C304.858 50.5022 303.612 49.9828 302.328 49.5754C299.824 48.7794 297.213 48.364 294.584 48.3435C291.742 48.2696 287.559 48.0109 281.813 47.2594Z" fill="white" stroke="#231F20" stroke-width="0.57" stroke-miterlimit="10"/>
<path d="M64.2228 302.427C72.8497 302.36 79.3199 301.918 81.6684 301.409L84.0935 300.852C87.1609 300.161 87.5539 300.113 88.1002 299.805C89.5381 298.998 90.1707 297.395 90.6021 295.819C92.2124 289.932 93.4202 275.65 92.8546 275.65C92.2891 275.65 93.6694 292.381 95.1647 295.579C95.8999 297.139 97.0098 298.492 98.3951 299.517C99.5548 300.229 100.84 300.712 102.181 300.939C103.734 301.188 112.016 301.841 123.423 302.274C112.208 303.311 104.003 304.31 101.721 304.656C100.21 304.898 98.7883 305.534 97.5995 306.5C97.3583 306.732 97.1429 306.989 96.9572 307.268C96.5881 307.857 96.3283 308.507 96.1904 309.189C95.9603 310.37 95.1168 317.775 94.1391 327.947C93.6886 324.892 93.3818 322.443 93.1805 320.897C92.4041 314.567 92.3274 312.147 90.5925 309.371C89.8714 308.224 88.9866 307.188 87.966 306.298C86.8027 305.689 85.5907 305.178 84.3427 304.771C81.8869 303.991 79.3272 303.589 76.751 303.58C73.9233 303.436 69.8495 303.167 64.2228 302.427Z" fill="white" stroke="#231F20" stroke-width="0.57" stroke-miterlimit="10"/>
</svg>
