<svg width="454" height="168" viewBox="0 0 454 168" fill="none" xmlns="http://www.w3.org/2000/svg">
<g clip-path="url(#clip0_1380_7069)">
<rect width="454" height="168" fill="#15063E"/>
<path d="M267.72 56.8158C267.72 63.7998 272.724 68.5878 279.348 68.5878C286.296 68.5878 290.004 64.1958 290.436 58.5438L284.568 58.2918C284.208 60.8118 282.84 63.1518 279.312 63.1518C275.964 63.1518 274.02 60.6678 274.02 56.8158C274.02 52.9638 275.964 50.4798 279.312 50.4798C282.84 50.4798 284.208 52.8198 284.568 55.3398L290.436 55.1238C290.004 49.4718 286.296 45.0438 279.348 45.0438C272.724 45.0438 267.72 49.8318 267.72 56.8158ZM315.346 56.8158C315.346 49.8318 310.162 45.0438 303.574 45.0438C296.986 45.0438 291.802 49.8318 291.802 56.8158C291.802 63.7998 296.986 68.5878 303.574 68.5878C310.162 68.5878 315.346 63.7998 315.346 56.8158ZM309.046 56.8158C309.046 60.6678 306.922 63.1878 303.574 63.1878C300.226 63.1878 298.102 60.6678 298.102 56.8158C298.102 52.9638 300.226 50.4438 303.574 50.4438C306.922 50.4438 309.046 52.9638 309.046 56.8158ZM316.798 60.1278C316.798 65.5998 321.19 68.5878 327.346 68.5878C332.638 68.5878 336.814 66.1758 336.814 61.3518C336.814 57.6438 334.654 55.1598 329.902 54.3318L325.618 53.5758C324.214 53.3238 323.35 52.9278 323.35 51.8838C323.35 50.6238 324.502 49.8318 326.518 49.8318C328.858 49.8318 330.55 50.9118 330.73 53.2518L336.346 53.1438C336.238 48.1038 332.854 45.0438 326.59 45.0438C320.938 45.0438 317.338 47.8158 317.338 52.4238C317.338 56.3838 319.93 58.4718 323.638 59.1558L327.778 59.8758C329.506 60.1998 330.838 60.4158 330.838 61.7478C330.838 63.0078 329.47 63.7638 327.346 63.7638C324.826 63.7638 322.63 62.7918 322.414 59.9478L316.798 60.1278ZM354.686 68.1558L358.754 52.2078H358.898V68.1558H365.018V45.4758H355.766L352.562 59.7318H352.454L349.106 45.4758H339.638V68.1558H345.254V52.2078H345.398L349.466 68.1558H354.686ZM368.466 45.4758V68.1558H374.586V45.4758H368.466ZM377.021 56.8158C377.021 63.7998 382.025 68.5878 388.649 68.5878C395.597 68.5878 399.305 64.1958 399.737 58.5438L393.869 58.2918C393.509 60.8118 392.141 63.1518 388.613 63.1518C385.265 63.1518 383.321 60.6678 383.321 56.8158C383.321 52.9638 385.265 50.4798 388.613 50.4798C392.141 50.4798 393.509 52.8198 393.869 55.3398L399.737 55.1238C399.305 49.4718 395.597 45.0438 388.649 45.0438C382.025 45.0438 377.021 49.8318 377.021 56.8158ZM267.72 83.8158C267.72 90.7998 272.724 95.5878 279.348 95.5878C286.296 95.5878 290.004 91.1958 290.436 85.5438L284.568 85.2918C284.208 87.8118 282.84 90.1518 279.312 90.1518C275.964 90.1518 274.02 87.6678 274.02 83.8158C274.02 79.9638 275.964 77.4798 279.312 77.4798C282.84 77.4798 284.208 79.8198 284.568 82.3398L290.436 82.1238C290.004 76.4718 286.296 72.0438 279.348 72.0438C272.724 72.0438 267.72 76.8318 267.72 83.8158ZM292.81 72.4758V95.1558H310.162V90.1158H298.93V72.4758H292.81ZM320.087 72.4758L311.051 95.1558H317.207L318.899 90.7638H327.755L329.447 95.1558H335.963L326.927 72.4758H320.087ZM323.255 79.4958H323.399L325.991 86.1918H320.663L323.255 79.4958ZM336.169 87.1278C336.169 92.5998 340.561 95.5878 346.717 95.5878C352.009 95.5878 356.185 93.1758 356.185 88.3518C356.185 84.6438 354.025 82.1598 349.273 81.3318L344.989 80.5758C343.585 80.3238 342.721 79.9278 342.721 78.8838C342.721 77.6238 343.873 76.8318 345.889 76.8318C348.229 76.8318 349.921 77.9118 350.101 80.2518L355.717 80.1438C355.609 75.1038 352.225 72.0438 345.961 72.0438C340.309 72.0438 336.709 74.8158 336.709 79.4238C336.709 83.3838 339.301 85.4718 343.009 86.1558L347.149 86.8758C348.877 87.1998 350.209 87.4158 350.209 88.7478C350.209 90.0078 348.841 90.7638 346.717 90.7638C344.197 90.7638 342.001 89.7918 341.785 86.9478L336.169 87.1278ZM365.129 95.1558V86.1918H374.165V95.1558H380.285V72.4758H374.165V81.2238H365.129V72.4758H359.009V95.1558H365.129Z" fill="white"/>
<path d="M267.802 117.141V123.124H269.087V120.899H270.381C271.729 120.899 272.562 120.358 272.562 119.029C272.562 117.69 271.729 117.141 270.381 117.141H267.802ZM269.087 119.782V118.258H270.337C270.966 118.258 271.277 118.47 271.277 119.029C271.277 119.569 270.975 119.782 270.337 119.782H269.087ZM274.504 118.656H273.28V123.124H274.504V121.076C274.504 120.048 274.973 119.711 276.028 119.711V118.568C275.319 118.568 274.77 118.869 274.504 119.312V118.656ZM278.821 123.213C280.239 123.213 281.241 122.326 281.241 120.881C281.241 119.454 280.239 118.568 278.821 118.568C277.402 118.568 276.392 119.454 276.392 120.881C276.392 122.326 277.402 123.213 278.821 123.213ZM278.821 122.211C278.103 122.211 277.624 121.67 277.624 120.881C277.624 120.11 278.103 119.569 278.821 119.569C279.539 119.569 280.017 120.11 280.017 120.881C280.017 121.67 279.539 122.211 278.821 122.211ZM285.461 119.188C285.142 118.789 284.646 118.568 284.061 118.568C282.864 118.568 281.889 119.445 281.889 120.899C281.889 122.353 282.864 123.213 284.061 123.213C284.646 123.213 285.142 123 285.461 122.61V123.124H286.694V117.141H285.461V119.188ZM284.318 122.193C283.635 122.193 283.121 121.715 283.121 120.899C283.121 120.084 283.635 119.578 284.318 119.578C285.009 119.578 285.515 120.084 285.515 120.899C285.515 121.715 285.009 122.193 284.318 122.193ZM290.627 121.085C290.627 121.936 290.166 122.229 289.687 122.229C289.262 122.229 288.925 121.981 288.925 121.387V118.656H287.701V121.644C287.701 122.628 288.233 123.213 289.297 123.213C289.864 123.213 290.325 122.991 290.627 122.521V123.124H291.85V118.656H290.627V121.085ZM295.104 123.213C296.229 123.213 297.098 122.61 297.311 121.546L296.176 121.44C296.034 121.963 295.644 122.211 295.148 122.211C294.412 122.211 293.925 121.67 293.925 120.881C293.925 120.101 294.412 119.569 295.148 119.569C295.76 119.569 296.229 119.986 296.283 120.669L297.417 120.562C297.311 119.295 296.371 118.568 295.104 118.568C293.676 118.568 292.692 119.507 292.692 120.881C292.692 122.264 293.676 123.213 295.104 123.213ZM300.73 123.124V122.078H300.056C299.852 122.078 299.763 121.998 299.763 121.794V119.596H300.73V118.656H299.763V117.141H298.54V118.656H297.822V119.596H298.54V121.945C298.54 122.716 298.948 123.124 299.71 123.124H300.73ZM307.251 120.731L306.098 117.141H303.918V123.124H305.203V117.885L306.816 123.124H307.685L309.307 117.885V123.124H310.593V117.141H308.403L307.251 120.731ZM315.343 119.516C315.112 118.914 314.509 118.568 313.525 118.568C312.471 118.568 311.673 119.073 311.504 120.039L312.604 120.225C312.666 119.782 312.967 119.481 313.499 119.481C313.969 119.481 314.235 119.685 314.243 120.119L313.304 120.385C312.426 120.633 311.504 121.014 311.504 121.998C311.504 122.894 312.293 123.213 312.985 123.213C313.65 123.213 314.111 122.92 314.297 122.495H314.341V123.124H315.476V120.456C315.476 119.96 315.44 119.756 315.343 119.516ZM313.277 122.309C312.923 122.309 312.728 122.158 312.728 121.874C312.728 121.546 312.985 121.342 313.534 121.183L314.323 120.917C314.279 121.768 313.862 122.309 313.277 122.309ZM319.048 118.568C318.481 118.568 318.02 118.781 317.718 119.241V118.656H316.486V123.124H317.718V120.695C317.718 119.844 318.179 119.552 318.649 119.552C319.075 119.552 319.412 119.8 319.412 120.394V123.124H320.635V120.137C320.635 119.144 320.103 118.568 319.048 118.568ZM325.298 119.516C325.067 118.914 324.465 118.568 323.481 118.568C322.426 118.568 321.628 119.073 321.46 120.039L322.559 120.225C322.621 119.782 322.922 119.481 323.454 119.481C323.924 119.481 324.19 119.685 324.199 120.119L323.259 120.385C322.381 120.633 321.46 121.014 321.46 121.998C321.46 122.894 322.249 123.213 322.94 123.213C323.605 123.213 324.066 122.92 324.252 122.495H324.296V123.124H325.431V120.456C325.431 119.96 325.395 119.756 325.298 119.516ZM323.232 122.309C322.878 122.309 322.683 122.158 322.683 121.874C322.683 121.546 322.94 121.342 323.49 121.183L324.278 120.917C324.234 121.768 323.818 122.309 323.232 122.309ZM329.544 119.206C329.296 118.825 328.817 118.568 328.214 118.568C327.115 118.568 326.211 119.428 326.211 120.669C326.211 121.919 327.115 122.796 328.206 122.796C328.791 122.796 329.296 122.539 329.544 122.149V122.663C329.544 123.301 329.26 123.78 328.454 123.78C327.904 123.78 327.55 123.514 327.31 122.973L326.309 123.47C326.637 124.232 327.319 124.729 328.498 124.729C329.89 124.729 330.767 124.037 330.767 122.601L330.776 118.656H329.544V119.206ZM328.498 121.848C327.86 121.848 327.434 121.396 327.434 120.695C327.434 119.977 327.86 119.534 328.498 119.534C329.136 119.534 329.544 119.977 329.544 120.695C329.544 121.404 329.136 121.848 328.498 121.848ZM336.258 120.855C336.249 119.374 335.283 118.568 333.971 118.568C332.659 118.568 331.631 119.445 331.631 120.89C331.631 122.335 332.57 123.213 334.033 123.213C335.061 123.213 335.868 122.699 336.16 121.786L335.026 121.635C334.857 122.043 334.503 122.247 334.033 122.247C333.395 122.247 332.907 121.857 332.845 121.138H336.24L336.258 120.855ZM333.98 119.499C334.503 119.499 334.902 119.773 335.017 120.261H332.907C333.049 119.747 333.43 119.499 333.98 119.499ZM342.523 118.568C341.884 118.568 341.37 118.789 341.033 119.197C340.785 118.789 340.307 118.568 339.659 118.568C339.101 118.568 338.649 118.789 338.347 119.179V118.656H337.115V123.124H338.347V120.669C338.347 119.827 338.755 119.543 339.225 119.543C339.651 119.543 339.979 119.8 339.979 120.305V123.124H341.211V120.669C341.211 119.818 341.618 119.543 342.088 119.543C342.514 119.543 342.842 119.791 342.842 120.305V123.124H344.065V119.889C344.065 119.064 343.489 118.568 342.523 118.568ZM349.503 120.855C349.494 119.374 348.528 118.568 347.216 118.568C345.904 118.568 344.875 119.445 344.875 120.89C344.875 122.335 345.815 123.213 347.278 123.213C348.306 123.213 349.113 122.699 349.405 121.786L348.271 121.635C348.102 122.043 347.748 122.247 347.278 122.247C346.639 122.247 346.152 121.857 346.09 121.138H349.485L349.503 120.855ZM347.225 119.499C347.748 119.499 348.146 119.773 348.262 120.261H346.152C346.294 119.747 346.675 119.499 347.225 119.499ZM352.922 118.568C352.355 118.568 351.894 118.781 351.592 119.241V118.656H350.36V123.124H351.592V120.695C351.592 119.844 352.053 119.552 352.523 119.552C352.949 119.552 353.285 119.8 353.285 120.394V123.124H354.509V120.137C354.509 119.144 353.977 118.568 352.922 118.568ZM358.011 123.124V122.078H357.338C357.134 122.078 357.045 121.998 357.045 121.794V119.596H358.011V118.656H357.045V117.141H355.822V118.656H355.104V119.596H355.822V121.945C355.822 122.716 356.23 123.124 356.992 123.124H358.011ZM274.673 128.044H268.095V137.124H274.673V135.416H270.046V133.411H274.31V131.73H270.046V129.739H274.673V128.044ZM282.593 132.537L285.606 128.044H283.346L281.341 131.084L279.337 128.044H277.077L280.09 132.537L276.902 137.124H279.23L281.341 134.044L283.453 137.124H285.781L282.593 132.537ZM288.293 128.044V137.124H290.244V133.748H292.208C294.252 133.748 295.517 132.927 295.517 130.909C295.517 128.878 294.252 128.044 292.208 128.044H288.293ZM290.244 132.053V129.739H292.14C293.096 129.739 293.566 130.062 293.566 130.909C293.566 131.73 293.109 132.053 292.14 132.053H290.244ZM304.839 128.044H298.261V137.124H304.839V135.416H300.211V133.411H304.476V131.73H300.211V129.739H304.839V128.044ZM311.265 137.124C314.439 137.124 316.161 135.685 316.161 132.577C316.161 129.51 314.453 128.044 311.265 128.044H307.835V137.124H311.265ZM309.772 129.739H311.251C313.108 129.739 314.211 130.654 314.211 132.577C314.211 134.474 313.148 135.416 311.251 135.416H309.772V129.739ZM321.027 137.124V128.044H319.076V137.124H321.027ZM323.772 128.044V129.739H326.624V137.124H328.574V129.739H331.426V128.044H323.772ZM336.127 137.124V128.044H334.177V137.124H336.127ZM343.666 137.299C346.397 137.299 348.334 135.375 348.334 132.577C348.334 129.779 346.397 127.856 343.666 127.856C340.949 127.856 339.012 129.779 339.012 132.577C339.012 135.375 340.949 137.299 343.666 137.299ZM343.666 135.51C342.093 135.51 340.949 134.34 340.949 132.577C340.949 130.815 342.093 129.645 343.666 129.645C345.267 129.645 346.384 130.815 346.384 132.577C346.384 134.34 345.267 135.51 343.666 135.51ZM357.504 134.366L353.536 128.044H351.222V137.124H353.173V130.761L357.114 137.124H359.455V128.044H357.504V134.366Z" fill="white"/>
<line x1="355.549" y1="105.524" x2="267.368" y2="105.524" stroke="#F0DF31" stroke-width="0.736814" stroke-linecap="round"/>
<path d="M-129 -78L-559 -28.526V182.5H73.0897L179.5 168L195 53.9141L-129 -78Z" fill="#31165C"/>
<path d="M34.7387 96.297C27.198 93.5381 22.5146 88.0991 22.8727 83.0542C23.2079 78.3195 27.8913 75.2174 29.2908 74.2892C36.1102 69.7733 41.9085 72.5093 53.4189 70.1979C57.7148 69.3348 61.8926 67.9622 65.864 66.1091" stroke="#FFF200" stroke-width="5.8454" stroke-miterlimit="10"/>
<path d="M112.603 92.4624C117.068 85.7825 123.458 82.5176 128.268 84.0713C132.784 85.5206 134.681 90.8122 135.25 92.3938C138.013 100.098 133.98 105.087 133.492 116.827C133.313 121.211 133.654 125.601 134.508 129.905" stroke="#FFF200" stroke-width="5.8454" stroke-miterlimit="10"/>
<path d="M122.029 71.6185C124.757 71.5981 126.802 71.4583 127.546 71.2981L128.308 71.1201C129.278 70.9014 129.405 70.8887 129.578 70.7921C130.03 70.5378 130.23 70.0292 130.367 69.5207C130.875 67.6594 131.256 63.1383 131.079 63.1383C130.901 63.1383 131.333 68.4222 131.81 69.4342C132.041 69.926 132.39 70.3531 132.826 70.6776C133.193 70.902 133.599 71.0539 134.022 71.1252C134.512 71.204 137.134 71.4125 140.737 71.5473C137.182 71.8753 134.599 72.1906 133.88 72.3101C133.403 72.388 132.954 72.5887 132.577 72.8924C132.501 72.9659 132.433 73.0468 132.374 73.134C132.254 73.3187 132.167 73.5237 132.12 73.7391C132.046 74.1129 131.777 76.4497 131.47 79.6638C131.328 78.7001 131.228 77.9245 131.17 77.4363C130.916 75.4403 130.898 74.6723 130.352 73.7976C130.124 73.4349 129.845 73.1076 129.522 72.8263C129.154 72.6345 128.771 72.4729 128.376 72.3432C127.599 72.0964 126.789 71.9695 125.974 71.9668C125.095 71.9363 123.807 71.8524 122.029 71.6185Z" fill="white" stroke="#231F20" stroke-width="0.391986" stroke-miterlimit="10"/>
<path d="M11.999 101.399C15.1611 101.378 17.5307 101.238 18.3943 101.078L19.2806 100.9C20.4058 100.682 20.5505 100.669 20.7512 100.57C21.2744 100.315 21.5131 99.8069 21.6655 99.2984C22.2573 97.437 22.6992 92.916 22.491 92.9135C22.2827 92.9109 22.7907 98.1999 23.3393 99.2094C23.6244 99.7166 24.0311 100.145 24.5228 100.455C24.9559 100.683 25.425 100.835 25.9095 100.903C26.4784 100.982 29.5161 101.19 33.694 101.325C29.5846 101.65 26.5826 101.968 25.7419 102.088C25.7419 102.088 24.7717 102.215 24.218 102.67C24.1318 102.742 24.0535 102.823 23.9844 102.912C23.8515 103.093 23.7557 103.298 23.7024 103.517C23.6186 103.891 23.3062 106.227 22.9405 109.441C22.778 108.475 22.6637 107.702 22.5951 107.214C22.3386 105.213 22.3081 104.45 21.6731 103.573C21.4026 103.203 21.0791 102.876 20.7131 102.601C20.2829 102.408 19.8389 102.246 19.3848 102.118C18.4742 101.87 17.5348 101.743 16.591 101.742C15.5547 101.711 14.069 101.628 11.999 101.399Z" fill="white" stroke="#231F20" stroke-width="0.391986" stroke-miterlimit="10"/>
<path d="M123.327 31.1367V104.575L99.814 110.357V36.8122L123.327 31.1367Z" fill="#C1A1CC" stroke="#010101" stroke-width="0.192554" stroke-miterlimit="10"/>
<path d="M99.8131 36.8119V110.349L58.46 92.8827L58.6479 20.4873L99.8131 36.8119Z" fill="#855AA5" stroke="#010101" stroke-width="0.192554" stroke-miterlimit="10"/>
<path d="M123.325 31.1361L99.8116 36.8115L58.6465 20.4869L81.1644 14.9818L123.325 31.1361Z" fill="#A37EB9" stroke="#010101" stroke-width="0.192554" stroke-miterlimit="10"/>
<path d="M123.079 66.6107L106.063 108.549L100 110.044V102.797C107.707 83.9381 115.412 65.0791 123.112 46.2202L123.079 66.6107Z" fill="white"/>
<path d="M45.2344 106.318C45.3205 106.31 45.4056 106.293 45.4884 106.267C45.4053 106.291 45.3203 106.308 45.2344 106.318ZM45.2344 106.318C45.3205 106.31 45.4056 106.293 45.4884 106.267C45.4053 106.291 45.3203 106.308 45.2344 106.318ZM45.2344 106.318C45.3205 106.31 45.4056 106.293 45.4884 106.267C45.4053 106.291 45.3203 106.308 45.2344 106.318ZM45.2344 106.318C45.3205 106.31 45.4056 106.293 45.4884 106.267C45.4053 106.291 45.3203 106.308 45.2344 106.318ZM45.2344 106.318C45.3205 106.31 45.4056 106.293 45.4884 106.267C45.4053 106.291 45.3203 106.308 45.2344 106.318ZM45.2344 106.318C45.3205 106.31 45.4056 106.293 45.4884 106.267C45.4053 106.291 45.3203 106.308 45.2344 106.318ZM45.2344 106.318C45.3205 106.31 45.4056 106.293 45.4884 106.267C45.4053 106.291 45.3203 106.308 45.2344 106.318ZM45.2344 106.318C45.3205 106.31 45.4056 106.293 45.4884 106.267C45.4053 106.291 45.3203 106.308 45.2344 106.318ZM45.2344 106.318C45.3205 106.31 45.4056 106.293 45.4884 106.267C45.4053 106.291 45.3203 106.308 45.2344 106.318Z" fill="#352E7E" stroke="#231F20" stroke-width="0.58454" stroke-miterlimit="10"/>
<path d="M89.6156 133.526C89.5121 134.535 89.294 135.529 88.9654 136.488C88.8153 136.899 88.6344 137.297 88.4244 137.681C88.0293 138.448 87.4321 139.093 86.6973 139.545C86.3714 139.732 86.0209 139.874 85.656 139.964C84.7482 140.172 83.8102 140.214 82.8876 140.086C80.2092 139.753 77.6618 138.733 75.4917 137.126C73.2939 135.492 70.9818 134.018 68.5733 132.715C65.3449 130.996 61.9091 129.701 58.3506 128.86C55.737 128.247 53.0624 127.933 50.3781 127.924C48.022 127.914 45.6722 128.17 43.3734 128.687C42.3574 128.918 41.3415 129.224 40.3688 129.539C40.1415 129.642 39.9027 129.717 39.6576 129.763C39.2234 129.901 38.7769 129.997 38.3242 130.05C36.2428 130.362 34.116 130.12 32.1576 129.348C30.647 128.758 29.407 127.631 28.6755 126.182C27.9976 124.897 27.5124 123.518 27.2355 122.091C26.8981 120.343 26.7508 118.564 26.7961 116.784C26.8089 115.594 26.8877 114.406 27.0323 113.224C27.058 112.819 27.1114 112.415 27.1923 112.017C27.1905 111.858 27.2084 111.7 27.2456 111.546C27.7368 108.333 28.5477 105.177 29.666 102.125C30.6947 99.2925 31.9214 96.5667 33.585 94.151C34.6872 92.5287 35.9648 91.0997 37.6283 90.0953C37.8366 89.9707 38.0474 89.8537 38.2607 89.7495L38.3623 89.7012C39.4379 89.1827 40.6205 88.9256 41.8139 88.9511C42.1598 88.9572 42.505 88.9843 42.8476 89.0324C44.3688 89.279 45.8249 89.8289 47.1297 90.6496C47.7123 91.036 48.3142 91.3925 48.933 91.7176C50.912 92.6092 52.9788 93.291 55.0996 93.7518C57.9115 94.443 60.7897 94.8275 63.6842 94.8986C64.867 94.9368 66.0482 94.7822 67.1815 94.4409C68.585 93.982 70.0732 93.843 71.5373 94.0341C73.8688 94.3341 75.954 95.4377 77.8385 97.1846C79.6164 98.8348 81.0006 100.803 82.207 102.903C83.3629 104.94 84.3671 107.06 85.2116 109.245C87.4056 114.749 88.8634 120.519 89.547 126.406C89.8373 128.769 89.8603 131.158 89.6156 133.526V133.526Z" fill="#352E7E" stroke="#231F20" stroke-width="0.58454" stroke-miterlimit="10"/>
<path d="M38.3525 89.7014C39.4282 89.1832 40.6107 88.9262 41.8041 88.9513C42.1509 88.9575 42.4969 88.9847 42.8404 89.0327C44.3606 89.2797 45.8159 89.8296 47.1199 90.6499C47.7026 91.0363 48.3044 91.3927 48.9232 91.7179C50.9022 92.6095 52.969 93.2913 55.0899 93.7521C57.9017 94.443 60.78 94.8275 63.6744 94.8989C64.8581 94.937 66.0401 94.7824 67.1742 94.4412C68.5777 93.9822 70.0659 93.8432 71.53 94.0343C73.859 94.3344 75.9442 95.4379 77.8313 97.1848C79.6091 98.8351 80.9908 100.803 82.1972 102.904C83.3531 104.941 84.3574 107.06 85.2018 109.245C87.397 114.749 88.8548 120.52 89.5372 126.406C89.8326 128.769 89.8607 131.157 89.621 133.526C89.5167 134.535 89.2977 135.529 88.9683 136.488C88.8182 136.899 88.6373 137.298 88.4273 137.681C88.0322 138.448 87.435 139.093 86.7003 139.545L93.3291 136.234C94.1952 135.794 94.8988 135.09 95.3381 134.223C96.029 132.982 96.3541 131.561 96.5293 130.063C96.7708 127.694 96.7435 125.306 96.448 122.943C95.7638 117.057 94.306 111.288 92.1126 105.784C91.2686 103.6 90.2644 101.481 89.108 99.4454C87.9016 97.3425 86.525 95.3769 84.7395 93.7216C82.855 91.9747 80.7698 90.8711 78.4383 90.5711C76.9754 90.3779 75.488 90.5152 74.0851 90.9728C72.951 91.3144 71.7688 91.4682 70.5852 91.428C67.6909 91.3575 64.8126 90.9739 62.0007 90.2837C59.8795 89.8241 57.8126 89.1423 55.834 88.2495C55.2067 87.9545 54.6301 87.5401 54.0308 87.1815C52.7265 86.3598 51.2701 85.8097 49.7486 85.5643C47.9376 85.2892 46.0877 85.6648 44.5268 86.6247L38.3525 89.7014Z" fill="#4F409A" stroke="#231F20" stroke-width="0.58454" stroke-miterlimit="10"/>
<path d="M38.3536 89.7014L38.2539 89.75" stroke="#231F20" stroke-width="0.58454" stroke-miterlimit="10"/>
<path d="M43.1888 101.88L42.0586 102.643" stroke="#231F20" stroke-width="0.58454" stroke-miterlimit="10"/>
<path d="M89.8188 131.402C89.8859 129.652 89.8154 127.898 89.608 126.159C89.2631 123.074 88.6849 120.02 87.8784 117.023L92.1961 106.465C93.5966 110.046 94.6893 113.739 95.4623 117.506C93.5777 122.137 91.6966 126.769 89.8188 131.402Z" fill="white"/>
<path d="M41.9834 103.071C42.168 102.972 42.3833 102.948 42.5853 103.002L42.6869 103.023C43.4489 103.163 44.226 103.308 45.0007 103.453C45.2498 103.483 45.4774 103.609 45.6359 103.804C45.7945 103.999 45.8717 104.247 45.8515 104.498C45.8515 105.685 45.8515 106.873 45.8515 108.058C45.8515 108.246 45.8871 108.312 46.0801 108.347C47.2078 108.551 48.3354 108.769 49.4657 108.988C49.717 109.017 49.9474 109.142 50.1084 109.338C50.2695 109.533 50.3486 109.783 50.3292 110.036C50.3292 110.849 50.3292 111.666 50.3292 112.479V112.502C50.3388 112.614 50.3237 112.726 50.2851 112.831C50.2464 112.936 50.1852 113.031 50.1057 113.11L51.0099 112.477H51.0276L51.0581 112.454C51.08 112.438 51.0996 112.419 51.1165 112.398C51.1346 112.379 51.1508 112.359 51.1648 112.337C51.1862 112.306 51.2033 112.271 51.2156 112.235C51.2156 112.207 51.2359 112.179 51.2435 112.151C51.2718 112.044 51.2846 111.934 51.2816 111.823V109.377C51.3017 109.125 51.223 108.875 51.0624 108.68C50.9017 108.485 50.6716 108.36 50.4206 108.332C49.2904 108.113 48.1602 107.897 47.0351 107.694C46.9182 107.671 46.8598 107.64 46.8344 107.579C46.8092 107.524 46.7987 107.462 46.8039 107.401C46.8039 106.217 46.8039 105.029 46.8039 103.842C46.8235 103.591 46.7458 103.342 46.5869 103.147C46.4279 102.952 46.2001 102.825 45.9506 102.794C45.1463 102.641 44.342 102.493 43.5378 102.349L43.4082 102.329C43.3431 102.325 43.2778 102.325 43.2127 102.329H43.1492C43.1266 102.331 43.1044 102.336 43.0831 102.344V102.344H43.045H43.0323H43.0019C42.9889 102.349 42.9769 102.355 42.9663 102.364L42.8952 102.41L41.9834 103.071Z" fill="#F8ED2E" stroke="#231F20" stroke-width="0.58454" stroke-miterlimit="10"/>
<path d="M37.6094 106.888C37.7959 106.813 38.0018 106.8 38.1961 106.852L38.2824 106.87C39.3491 107.066 40.4209 107.264 41.4927 107.48C41.6705 107.513 41.7162 107.48 41.7162 107.295C41.7162 107.109 41.7162 106.868 41.7162 106.651C40.8679 106.486 40.0197 106.328 39.1764 106.171C39.0382 106.139 38.8953 106.133 38.7548 106.153C38.7139 106.159 38.6739 106.171 38.6355 106.186L38.5847 106.209L38.4754 106.288L37.6094 106.888Z" fill="#F8ED2E" stroke="#231F20" stroke-width="0.58454" stroke-miterlimit="10"/>
<path d="M69.2461 117.96C69.5361 117.885 69.8391 117.878 70.1325 117.937C71.3821 118.176 72.3828 119.417 72.3955 120.734C72.4082 121.173 72.28 121.606 72.0297 121.967L72.1643 121.924C72.2068 121.91 72.2484 121.894 72.2888 121.875C72.34 121.853 72.39 121.829 72.4386 121.802C72.4793 121.779 72.5174 121.753 72.5555 121.728L72.6088 121.687C72.6243 121.68 72.6382 121.67 72.6494 121.657C72.6494 121.657 72.6494 121.657 72.6494 121.657C72.6745 121.64 72.6976 121.62 72.718 121.598C72.7586 121.565 72.7967 121.53 72.8323 121.492C72.8679 121.453 72.906 121.41 72.939 121.367C72.9406 121.361 72.9406 121.355 72.939 121.349C72.959 121.326 72.9768 121.302 72.9923 121.275C72.9988 121.27 73.004 121.263 73.0075 121.255V121.255C73.024 121.233 73.0384 121.211 73.0507 121.186C73.1149 121.085 73.1669 120.977 73.2057 120.863C73.2281 120.809 73.2467 120.753 73.2615 120.696C73.2781 120.643 73.2908 120.59 73.2996 120.535C73.3008 120.515 73.3008 120.495 73.2996 120.474C73.2996 120.424 73.3123 120.373 73.3174 120.322C73.3187 120.301 73.3187 120.279 73.3174 120.258C73.3174 120.205 73.3174 120.149 73.3174 120.093V120.062C73.3174 118.735 72.3015 117.494 71.0519 117.265C70.9181 117.238 70.782 117.225 70.6455 117.225C70.582 117.225 70.516 117.225 70.4525 117.225C70.4073 117.229 70.3623 117.236 70.3179 117.245H70.2925H70.2417C70.1951 117.253 70.1493 117.265 70.1045 117.281H70.069L69.9572 117.321L69.881 117.354C69.8056 117.39 69.7326 117.431 69.6626 117.476L69.6017 117.517C69.5737 117.54 69.5433 117.56 69.5153 117.586L69.4569 117.637V117.649C69.4305 117.672 69.4059 117.697 69.3832 117.723C69.3501 117.757 69.3195 117.794 69.2918 117.832V117.832L69.2461 117.96Z" fill="#F8ED2E" stroke="#231F20" stroke-width="0.58454" stroke-miterlimit="10"/>
<path d="M71.751 112.223C71.8371 112.215 71.9222 112.198 72.005 112.172C71.9216 112.195 71.8367 112.212 71.751 112.223V112.223Z" fill="#F8ED2E" stroke="#231F20" stroke-width="0.58454" stroke-miterlimit="10"/>
<path d="M77.3378 117.619L77.0635 117.815C77.1067 117.789 77.1498 117.764 77.1905 117.736C77.2311 117.708 77.254 117.69 77.287 117.667C77.32 117.644 77.3175 117.644 77.3302 117.629C77.3621 117.606 77.3919 117.579 77.419 117.55C77.3957 117.573 77.3711 117.594 77.3454 117.614L77.3378 117.619Z" fill="#F8ED2E" stroke="#231F20" stroke-width="0.58454" stroke-miterlimit="10"/>
<path d="M76.9616 117.864L76.9004 117.895L76.9642 117.864H76.9616Z" fill="#F8ED2E" stroke="#231F20" stroke-width="0.58454" stroke-miterlimit="10"/>
<path d="M74.1338 113.634L74.4894 113.392L74.4157 113.433C74.3649 113.463 74.3167 113.494 74.2709 113.527C74.2231 113.559 74.1773 113.595 74.1338 113.634V113.634Z" fill="#F8ED2E" stroke="#231F20" stroke-width="0.58454" stroke-miterlimit="10"/>
<path d="M76.2218 118.035C76.1405 118.035 76.0592 118.035 75.9678 118.035C76.0523 118.042 76.1372 118.042 76.2218 118.035V118.035Z" fill="#F8ED2E" stroke="#231F20" stroke-width="0.58454" stroke-miterlimit="10"/>
<path d="M64.6406 112.189C64.924 112.112 65.2212 112.102 65.5092 112.159C66.7461 112.395 67.7417 113.639 67.7443 114.956C67.7538 115.395 67.6269 115.827 67.3811 116.192C67.4236 116.183 67.4653 116.17 67.5055 116.153C67.5055 116.153 67.5055 116.153 67.5055 116.153C67.5155 116.156 67.526 116.156 67.536 116.153V116.153C67.5741 116.141 67.6147 116.123 67.6554 116.105C67.696 116.087 67.6554 116.105 67.6681 116.105C67.704 116.09 67.7388 116.072 67.7722 116.052C67.7897 116.043 67.8066 116.034 67.823 116.024L67.8433 116.008H67.8586L67.9805 115.922C68.0135 115.898 68.0449 115.872 68.0744 115.843C68.0744 115.843 68.0744 115.843 68.0744 115.843C68.0815 115.84 68.0876 115.834 68.0922 115.828C68.1546 115.772 68.2108 115.71 68.2598 115.642C68.2746 115.63 68.2866 115.614 68.2954 115.597C68.3221 115.567 68.3459 115.534 68.3665 115.5L68.4046 115.441C68.4676 115.334 68.5211 115.22 68.5646 115.103C68.5805 115.059 68.5941 115.014 68.6053 114.968" stroke="#231F20" stroke-width="0.58454" stroke-miterlimit="10"/>
<path d="M67.877 115.975C67.877 115.975 67.877 115.975 67.8923 115.975L67.9332 115.947C67.9591 115.93 67.9839 115.911 68.0073 115.891L67.877 115.975Z" fill="#F8ED2E" stroke="#231F20" stroke-width="0.58454" stroke-miterlimit="10"/>
<path d="M64.9785 111.824C65.0598 111.768 65.1436 111.715 65.2325 111.656C65.1834 111.681 65.1366 111.71 65.0928 111.743C65.0778 111.75 65.064 111.759 65.0522 111.771C65.0489 111.772 65.0459 111.774 65.0433 111.776C65.0406 111.778 65.0385 111.781 65.0369 111.784C65.0204 111.792 65.0057 111.803 64.9938 111.817L64.9785 111.824Z" fill="#F8ED2E" stroke="#231F20" stroke-width="0.58454" stroke-miterlimit="10"/>
<path d="M37.3074 107.602C37.3074 108.39 37.3074 109.183 37.3074 109.972C37.2825 110.224 37.3578 110.476 37.517 110.673C37.6763 110.87 37.9067 110.996 38.1583 111.024C39.2707 111.241 40.3831 111.459 41.4981 111.665C41.6759 111.698 41.7216 111.757 41.7216 111.942C41.7216 113.13 41.7216 114.317 41.7216 115.502C41.7029 115.749 41.7782 115.993 41.9323 116.186C42.0865 116.379 42.3079 116.506 42.5521 116.542C43.3826 116.71 44.2208 116.875 45.0538 117.033C45.1643 117.066 45.2815 117.069 45.3935 117.042C45.5056 117.015 45.6083 116.958 45.6913 116.878C45.8143 116.727 45.8752 116.535 45.8615 116.341V114.053C45.8615 113.615 45.8615 113.178 45.8615 112.738C45.8615 112.558 45.8996 112.509 46.085 112.548L46.8469 112.695L49.4756 113.204C49.5836 113.236 49.6975 113.245 49.809 113.228C49.9206 113.211 50.0271 113.17 50.1207 113.107C50.2002 113.028 50.2615 112.933 50.3001 112.828C50.3387 112.723 50.3538 112.611 50.3442 112.499V112.476C50.3442 111.663 50.3442 110.846 50.3442 110.033C50.3636 109.78 50.2845 109.53 50.1235 109.335C49.9624 109.139 49.7321 109.014 49.4807 108.985C48.3505 108.766 47.2228 108.548 46.0951 108.344C45.9021 108.309 45.864 108.243 45.8666 108.054C45.8666 106.869 45.8666 105.682 45.8666 104.495C45.8868 104.244 45.8095 103.996 45.651 103.801C45.4924 103.606 45.2648 103.48 45.0157 103.449C44.2411 103.305 43.4715 103.16 42.702 103.02L42.6004 102.999C42.3983 102.945 42.1831 102.969 41.9984 103.068C41.8972 103.151 41.819 103.259 41.7714 103.381C41.7238 103.503 41.7084 103.635 41.7267 103.765C41.7267 104.726 41.7267 105.687 41.7267 106.648C41.7267 106.864 41.7267 107.075 41.7267 107.292C41.7267 107.508 41.681 107.51 41.5032 107.477C40.4314 107.261 39.3596 107.063 38.2929 106.867L38.2065 106.849C38.0123 106.797 37.8064 106.809 37.6198 106.885C37.3989 106.992 37.3074 107.225 37.3074 107.602Z" fill="#F8ED2E" stroke="#231F20" stroke-width="0.58454" stroke-miterlimit="10"/>
<path d="M67.9168 119.891C67.9168 121.19 68.9327 122.434 70.1569 122.688C70.5041 122.77 70.8679 122.747 71.2018 122.621C71.5357 122.495 71.8245 122.272 72.0313 121.981C72.2816 121.62 72.4097 121.188 72.397 120.748C72.3843 119.418 71.3811 118.177 70.134 117.951C69.8406 117.892 69.5376 117.9 69.2476 117.974V117.974C69.0664 118.019 68.8945 118.096 68.7397 118.2H68.7219C68.4576 118.393 68.2455 118.648 68.1049 118.943C67.9643 119.239 67.8996 119.564 67.9168 119.891V119.891Z" fill="#F8ED2E" stroke="#231F20" stroke-width="0.58454" stroke-miterlimit="10"/>
<path d="M63.3047 114.091C63.3047 115.414 64.2977 116.659 65.5219 116.888C65.867 116.97 66.2287 116.947 66.5604 116.821C66.8922 116.696 67.1789 116.474 67.3836 116.184C67.6294 115.82 67.7563 115.388 67.7468 114.948C67.7468 113.629 66.7487 112.385 65.5118 112.151C65.2237 112.094 64.9265 112.105 64.6432 112.182C63.8533 112.398 63.3047 113.125 63.3047 114.091Z" fill="#F8ED2E" stroke="#231F20" stroke-width="0.58454" stroke-miterlimit="10"/>
<path d="M45.751 116.807L46.5129 116.316L46.6475 116.222C46.7144 116.146 46.7655 116.057 46.7977 115.961C46.83 115.865 46.8428 115.764 46.8355 115.663V113.883C46.8355 113.712 46.8355 113.542 46.8355 113.374C46.8355 113.15 46.8355 112.927 46.8355 112.7L46.0735 112.553C45.8881 112.515 45.8449 112.553 45.85 112.744C45.85 113.183 45.85 113.621 45.85 114.058V116.347C45.8564 116.452 45.8417 116.557 45.8069 116.657C45.7941 116.709 45.7754 116.759 45.751 116.807V116.807Z" fill="#F8ED2E" stroke="#231F20" stroke-width="0.58454" stroke-miterlimit="10"/>
<path d="M46.8507 107.553L45.9033 108.271" stroke="#231F20" stroke-width="0.58454" stroke-miterlimit="10"/>
<path d="M77.0543 117.822L76.333 118.331" stroke="#231F20" stroke-width="0.58454" stroke-miterlimit="10"/>
<path d="M74.1215 113.643C73.8675 113.819 73.6136 113.999 73.3418 114.175Z" fill="#F8ED2E"/>
<path d="M74.1215 113.643C73.8675 113.819 73.6136 113.999 73.3418 114.175" stroke="#231F20" stroke-width="0.58454" stroke-miterlimit="10"/>
<path d="M72.7294 121.636L71.6855 122.374" stroke="#231F20" stroke-width="0.58454" stroke-miterlimit="10"/>
<path d="M68.7402 118.181L69.5022 117.672Z" fill="#F8ED2E"/>
<path d="M68.7402 118.181L69.5022 117.672" stroke="#231F20" stroke-width="0.58454" stroke-miterlimit="10"/>
<path d="M69.873 117.417L69.5098 117.671Z" fill="#F8ED2E"/>
<path d="M69.873 117.417L69.5098 117.671" stroke="#231F20" stroke-width="0.58454" stroke-miterlimit="10"/>
<path d="M72.5134 111.938L71.4873 112.665" stroke="#231F20" stroke-width="0.58454" stroke-miterlimit="10"/>
<path d="M69.6705 107.706L68.5225 108.492Z" fill="#F8ED2E"/>
<path d="M69.6705 107.706L68.5225 108.492" stroke="#231F20" stroke-width="0.58454" stroke-miterlimit="10"/>
<path d="M67.8516 115.992L67.8313 116.007L66.9551 116.63" fill="#F8ED2E"/>
<path d="M67.8516 115.992L67.8313 116.007L66.9551 116.63" stroke="#231F20" stroke-width="0.58454" stroke-miterlimit="10"/>
<path d="M64.9563 111.843L64.1055 112.423Z" fill="#F8ED2E"/>
<path d="M64.9563 111.843L64.1055 112.423" stroke="#231F20" stroke-width="0.58454" stroke-miterlimit="10"/>
<path d="M65.2616 111.641L65.2324 111.66Z" fill="#F8ED2E"/>
<path d="M65.2616 111.641L65.2324 111.66" stroke="#231F20" stroke-width="0.58454" stroke-miterlimit="10"/>
<path d="M69.2275 108.157C69.5145 108.081 69.8151 108.072 70.1063 108.129C71.3762 108.363 72.3642 109.617 72.3642 110.957C72.3717 111.391 72.2429 111.816 71.9959 112.172L72.0848 112.147C72.1272 112.134 72.1688 112.119 72.2093 112.101L72.2677 112.073C72.3563 112.036 72.4414 111.991 72.5217 111.938H72.5369L72.5623 111.921L72.6309 111.867C72.6377 111.864 72.6438 111.86 72.6487 111.854V111.854L72.7198 111.793C72.7513 111.767 72.7809 111.738 72.8087 111.707C72.8286 111.688 72.8473 111.667 72.8645 111.646C72.8821 111.628 72.8982 111.608 72.9128 111.587L72.9585 111.529C72.9593 111.523 72.9593 111.517 72.9585 111.511C72.9879 111.474 73.0143 111.435 73.0372 111.394C73.0977 111.299 73.148 111.197 73.1871 111.092C73.1924 111.081 73.1967 111.07 73.1998 111.059V111.033C73.215 110.99 73.2303 110.947 73.243 110.901C73.2557 110.855 73.2709 110.797 73.2811 110.741C73.2879 110.711 73.2922 110.682 73.2938 110.652" stroke="#231F20" stroke-width="0.58454" stroke-miterlimit="10"/>
<path d="M73.8564 113.944C74.1456 113.867 74.4481 113.854 74.7428 113.906C75.9492 114.104 76.9982 115.358 77.0287 116.644C77.0536 117.117 76.9243 117.584 76.6604 117.977L76.8331 117.921L76.8991 117.895L76.9626 117.865L77.0515 117.821L77.3258 117.626C77.3521 117.607 77.3768 117.585 77.3995 117.562C77.4299 117.532 77.463 117.501 77.4909 117.468C77.51 117.449 77.527 117.427 77.5417 117.404C77.5602 117.385 77.5771 117.363 77.5925 117.341C77.6261 117.298 77.6567 117.253 77.6839 117.206C77.7068 117.165 77.7322 117.125 77.7525 117.082C77.7728 117.038 77.7931 117 77.8135 116.954V116.929C77.8364 116.878 77.8559 116.825 77.8719 116.771C77.8813 116.747 77.8881 116.721 77.8922 116.695C77.8996 116.675 77.9056 116.655 77.91 116.634C77.9203 116.598 77.9279 116.562 77.9328 116.525C77.946 116.466 77.9554 116.407 77.9608 116.347C77.9608 116.288 77.9735 116.227 77.976 116.161C77.9799 116.099 77.9799 116.037 77.976 115.975C77.976 115.894 77.976 115.815 77.9557 115.734C77.9354 115.652 77.9328 115.574 77.9176 115.495C77.9024 115.416 77.8795 115.337 77.8541 115.261C77.8287 115.185 77.8312 115.182 77.816 115.144C77.8008 115.106 77.7601 114.994 77.7246 114.92C77.7093 114.885 77.6915 114.852 77.6763 114.818C77.6611 114.785 77.6382 114.74 77.6154 114.701L77.5544 114.597C77.5366 114.567 77.5214 114.539 77.5036 114.513C77.4004 114.354 77.2831 114.204 77.1531 114.066L77.0464 113.959C77.0108 113.921 76.9727 113.885 76.9321 113.852C76.889 113.814 76.8433 113.778 76.7975 113.743C76.773 113.72 76.7467 113.7 76.7188 113.682C76.6774 113.65 76.6342 113.622 76.5893 113.595C76.5623 113.575 76.5333 113.557 76.5029 113.542C76.4702 113.521 76.4363 113.501 76.4013 113.484C76.3611 113.461 76.3196 113.44 76.2769 113.422C76.2408 113.403 76.2035 113.386 76.1651 113.372L76.0534 113.331L75.967 113.303C75.9238 113.288 75.8797 113.277 75.835 113.267L75.7613 113.25L75.6876 113.237C75.5124 113.207 75.3341 113.199 75.1568 113.211H75.0882L74.9765 113.229C74.9388 113.233 74.9015 113.24 74.8647 113.25L74.7936 113.27C74.7488 113.281 74.7047 113.294 74.6616 113.311C74.592 113.335 74.5241 113.364 74.4584 113.397L74.1028 113.639C74.0901 113.654 74.0749 113.664 74.0622 113.679L73.9987 113.743L73.9733 113.771C73.9489 113.797 73.9261 113.824 73.9047 113.852L73.8564 113.944Z" fill="#F8ED2E" stroke="#231F20" stroke-width="0.58454" stroke-miterlimit="10"/>
<path d="M67.877 110.097C67.8855 110.749 68.1125 111.379 68.5214 111.886C68.9304 112.394 69.4977 112.749 70.1323 112.894C70.4784 112.97 70.8392 112.943 71.17 112.816C71.5009 112.689 71.7873 112.468 71.994 112.18V112.18C72.2409 111.823 72.3698 111.398 72.3622 110.964C72.3622 109.624 71.3616 108.371 70.1044 108.137C69.8131 108.079 69.5126 108.089 69.2256 108.165C68.4332 108.371 67.877 109.111 67.877 110.097Z" fill="#F8ED2E" stroke="#231F20" stroke-width="0.58454" stroke-miterlimit="10"/>
<path d="M72.5178 115.941C72.5533 117.238 73.5921 118.484 74.8036 118.692C75.0625 118.744 75.3292 118.74 75.5866 118.681C75.8439 118.622 76.0859 118.51 76.297 118.352L76.3249 118.331C76.452 118.23 76.5633 118.111 76.6551 117.978C76.9191 117.585 77.0483 117.118 77.0234 116.645C76.9904 115.359 75.9414 114.103 74.7376 113.907C74.4429 113.855 74.1404 113.868 73.8512 113.945C73.6707 113.995 73.4993 114.073 73.3432 114.176C73.0648 114.374 72.8424 114.64 72.6977 114.949C72.5531 115.259 72.491 115.6 72.5178 115.941V115.941Z" fill="#F8ED2E" stroke="#231F20" stroke-width="0.58454" stroke-miterlimit="10"/>
<path d="M105.854 43.1651L119.343 39.8773" stroke="#231F20" stroke-width="0.58454" stroke-miterlimit="10"/>
<path d="M105.854 46.4564L119.343 43.166" stroke="#231F20" stroke-width="0.58454" stroke-miterlimit="10"/>
<path d="M105.854 49.7465L119.343 46.4562" stroke="#231F20" stroke-width="0.58454" stroke-miterlimit="10"/>
<path d="M105.854 104.469L119.343 101.178" stroke="#231F20" stroke-width="0.58454" stroke-miterlimit="10"/>
<path d="M114.638 90.8191C114.59 92.2939 113.554 93.7407 112.302 94.084C111.05 94.4273 109.973 93.5169 109.973 92.0014C109.973 90.486 111.067 88.9221 112.391 88.6145C113.714 88.3068 114.687 89.3137 114.638 90.8191Z" stroke="#231F20" stroke-width="0.58454" stroke-miterlimit="10"/>
<path d="M163.736 138.189C163.888 139.389 163.972 140.597 163.99 141.807C164.037 143.618 163.888 145.429 163.546 147.208C163.263 148.663 162.767 150.068 162.075 151.378C161.326 152.853 160.06 154 158.519 154.6C156.526 155.386 154.362 155.632 152.243 155.314C151.782 155.261 151.327 155.163 150.885 155.022C150.637 154.974 150.395 154.898 150.163 154.795C149.17 154.472 148.159 154.162 147.116 153.926C144.782 153.402 142.396 153.142 140.004 153.15C137.268 153.158 134.541 153.478 131.877 154.104C128.252 154.956 124.752 156.272 121.464 158.02C119.013 159.347 116.66 160.847 114.423 162.51C112.215 164.148 109.622 165.188 106.895 165.528C105.956 165.658 105.001 165.615 104.076 165.404C103.705 165.311 103.349 165.169 103.017 164.979C102.27 164.519 101.662 163.863 101.259 163.082C101.045 162.692 100.861 162.285 100.708 161.867C100.374 160.888 100.151 159.875 100.045 158.846C99.8009 156.436 99.829 154.006 100.129 151.602C100.826 145.61 102.312 139.737 104.548 134.135C105.403 131.911 106.421 129.754 107.596 127.682C108.823 125.543 110.227 123.54 112.041 121.859C113.958 120.081 116.082 118.957 118.454 118.652C119.944 118.458 121.458 118.6 122.886 119.067C124.038 119.415 125.239 119.572 126.442 119.532C129.388 119.461 132.317 119.069 135.179 118.365C137.342 117.898 139.451 117.203 141.47 116.293C142.1 115.963 142.713 115.6 143.306 115.207C144.628 114.373 146.104 113.813 147.646 113.559C147.996 113.51 148.348 113.483 148.7 113.478C149.915 113.45 151.119 113.712 152.213 114.241L152.315 114.291C152.536 114.388 152.749 114.515 152.962 114.642C154.654 115.657 155.954 117.119 157.074 118.769C158.756 121.238 160.005 124.002 161.057 126.891C162.195 129.998 163.02 133.211 163.52 136.482C163.559 136.638 163.577 136.798 163.574 136.958C163.656 137.364 163.711 137.775 163.736 138.189Z" fill="#4F409A"/>
<path d="M143.641 129.05C143.641 129.004 143.641 128.953 143.641 128.905L143.656 128.795C143.655 128.789 143.655 128.782 143.656 128.775C143.656 128.74 143.656 128.701 143.677 128.668C143.697 128.564 143.723 128.462 143.755 128.361C143.761 128.336 143.768 128.312 143.778 128.289C143.794 128.241 143.814 128.193 143.832 128.145L143.893 128.005C143.918 127.949 143.948 127.893 143.979 127.839C143.994 127.807 144.011 127.776 144.03 127.745C144.053 127.707 144.075 127.667 144.103 127.628C144.124 127.593 144.147 127.559 144.172 127.527C144.195 127.494 144.22 127.458 144.248 127.422C144.276 127.387 144.307 127.346 144.337 127.311C144.396 127.239 144.46 127.172 144.528 127.11C144.554 127.079 144.583 127.051 144.614 127.026C144.675 126.97 144.736 126.919 144.799 126.871C144.863 126.822 144.929 126.774 144.997 126.733L145.099 126.672C145.133 126.651 145.169 126.631 145.206 126.614L145.3 126.571C145.326 126.555 145.354 126.542 145.383 126.532C145.407 126.52 145.432 126.51 145.457 126.502C145.503 126.483 145.549 126.467 145.597 126.454L145.703 126.421H145.747H145.79L145.879 126.4C146.1 126.359 146.326 126.353 146.549 126.385L146.651 126.4C146.711 126.412 146.77 126.428 146.829 126.446C146.887 126.465 146.945 126.487 147.001 126.512C147.01 126.51 147.018 126.51 147.027 126.512L147.108 126.55C147.169 126.583 147.228 126.618 147.286 126.657C147.315 126.677 147.343 126.698 147.37 126.721L147.456 126.789L147.527 126.855C147.577 126.905 147.624 126.957 147.667 127.013C147.686 127.036 147.704 127.059 147.72 127.084V127.084C148.518 127.3 149.071 128.04 149.069 129.027C149.06 129.679 148.833 130.309 148.424 130.816C148.015 131.323 147.448 131.678 146.813 131.824C146.467 131.9 146.106 131.874 145.774 131.747C145.443 131.62 145.156 131.398 144.949 131.109C144.919 131.104 144.89 131.096 144.863 131.084C144.82 131.073 144.778 131.057 144.738 131.038L144.677 131.013C144.589 130.975 144.504 130.929 144.423 130.875H144.408C144.399 130.87 144.39 130.863 144.383 130.855C144.358 130.84 144.335 130.823 144.314 130.804C144.308 130.805 144.302 130.805 144.296 130.804C144.296 130.804 144.296 130.804 144.296 130.804L144.225 130.746C144.195 130.718 144.162 130.69 144.134 130.659C144.115 130.639 144.097 130.618 144.081 130.596C144.062 130.579 144.046 130.56 144.032 130.54C144.015 130.519 144.002 130.499 143.987 130.479C143.971 130.458 143.987 130.479 143.974 130.464C143.961 130.448 143.921 130.387 143.895 130.347C143.836 130.25 143.786 130.149 143.745 130.044C143.743 130.033 143.743 130.022 143.745 130.011C143.744 130.002 143.744 129.992 143.745 129.983C143.729 129.941 143.714 129.897 143.702 129.853C143.687 129.801 143.674 129.747 143.664 129.693C143.656 129.663 143.651 129.632 143.649 129.602V129.602M144.977 131.102C145.06 131.128 145.145 131.145 145.231 131.153C145.145 131.143 145.06 131.126 144.977 131.102V131.102ZM144.977 131.102C145.06 131.128 145.145 131.145 145.231 131.153C145.145 131.143 145.06 131.126 144.977 131.102V131.102ZM144.977 131.102C145.06 131.128 145.145 131.145 145.231 131.153C145.145 131.143 145.06 131.126 144.977 131.102V131.102ZM144.977 131.102C145.06 131.128 145.145 131.145 145.231 131.153C145.145 131.143 145.06 131.126 144.977 131.102V131.102ZM163.99 141.807C163.972 140.597 163.888 139.389 163.736 138.189C163.711 137.775 163.656 137.364 163.574 136.958C163.577 136.798 163.559 136.638 163.52 136.482C163.02 133.211 162.195 129.998 161.057 126.891C160.005 124.002 158.756 121.238 157.074 118.769C155.954 117.119 154.654 115.657 152.962 114.642C152.749 114.515 152.536 114.388 152.315 114.291L152.213 114.241C151.119 113.712 149.915 113.45 148.7 113.478C148.348 113.483 147.996 113.51 147.646 113.559C146.104 113.813 144.628 114.373 143.306 115.207C142.713 115.6 142.1 115.963 141.47 116.293C139.451 117.203 137.342 117.898 135.179 118.365C132.317 119.069 129.388 119.461 126.442 119.532C125.239 119.572 124.038 119.415 122.886 119.067C121.458 118.6 119.944 118.458 118.454 118.652C116.082 118.957 113.958 120.081 112.041 121.859C110.227 123.54 108.823 125.543 107.596 127.682C106.421 129.754 105.403 131.911 104.548 134.135C102.312 139.737 100.826 145.61 100.129 151.602C99.829 154.006 99.8009 156.436 100.045 158.846C100.151 159.875 100.374 160.888 100.708 161.867C100.861 162.285 101.045 162.692 101.259 163.082C101.662 163.863 102.27 164.519 103.017 164.979C103.349 165.169 103.705 165.311 104.076 165.404C105.001 165.615 105.956 165.658 106.895 165.528C109.622 165.188 112.215 164.148 114.423 162.51C116.66 160.847 119.013 159.347 121.464 158.02C124.752 156.272 128.252 154.956 131.877 154.104C134.541 153.478 137.268 153.158 140.004 153.15C142.396 153.142 144.782 153.402 147.116 153.926C148.159 154.162 149.17 154.472 150.163 154.795C150.395 154.898 150.637 154.974 150.885 155.022C151.327 155.163 151.782 155.261 152.243 155.314C154.362 155.632 156.526 155.386 158.519 154.6C160.06 154 161.326 152.853 162.075 151.378C162.767 150.068 163.263 148.663 163.546 147.208C163.888 145.429 164.037 143.618 163.99 141.807V141.807ZM126.005 139.834C126.03 140.086 125.954 140.338 125.795 140.535C125.636 140.732 125.406 140.858 125.154 140.886C124.044 141.1 122.929 141.321 121.814 141.525C121.636 141.558 121.591 141.619 121.591 141.802C121.591 142.989 121.591 144.179 121.591 145.362C121.609 145.608 121.534 145.852 121.38 146.044C121.225 146.237 121.004 146.364 120.76 146.399C119.93 146.569 119.094 146.735 118.258 146.892C118.148 146.925 118.031 146.929 117.919 146.901C117.807 146.874 117.704 146.817 117.621 146.737L116.803 146.168C116.753 146.146 116.707 146.115 116.668 146.076C116.602 146 116.551 145.911 116.518 145.815C116.486 145.719 116.473 145.618 116.48 145.517V143.228C116.48 143.005 116.48 142.781 116.48 142.554L113.852 143.063C113.744 143.096 113.63 143.104 113.518 143.087C113.407 143.071 113.3 143.029 113.207 142.966L112.303 142.331H112.287L112.254 142.305H112.242C112.22 142.289 112.201 142.27 112.183 142.249C112.166 142.231 112.15 142.21 112.137 142.188C112.115 142.156 112.097 142.121 112.084 142.084C112.073 142.057 112.064 142.029 112.056 142C112.028 141.894 112.015 141.784 112.018 141.675C112.018 140.858 112.018 140.045 112.018 139.229C111.997 138.977 112.074 138.726 112.235 138.531C112.395 138.336 112.626 138.211 112.877 138.183C114.007 137.965 115.137 137.746 116.262 137.545C116.379 137.522 116.437 137.492 116.465 137.428C116.489 137.373 116.498 137.313 116.493 137.253C116.493 136.068 116.493 134.878 116.493 133.693C116.473 133.442 116.55 133.193 116.71 132.997C116.869 132.802 117.097 132.676 117.347 132.645C118.151 132.493 118.955 132.344 119.759 132.2L119.889 132.18C119.954 132.174 120.019 132.174 120.084 132.18H120.148L120.214 132.193L120.252 132.205H120.265H120.295C120.308 132.209 120.32 132.215 120.331 132.223C120.356 132.236 120.38 132.253 120.402 132.271V132.271L121.326 132.912C121.428 132.995 121.507 133.103 121.555 133.225C121.603 133.347 121.619 133.479 121.601 133.609C121.601 134.57 121.601 135.534 121.601 136.495C122.449 136.33 123.297 136.172 124.141 136.012C124.279 135.982 124.422 135.977 124.562 135.997C124.604 136.001 124.644 136.012 124.682 136.03L124.732 136.05L124.842 136.129L125.705 136.742C125.911 136.846 126.01 137.08 126.01 137.454C126.007 138.252 126.007 139.043 126.005 139.834V139.834Z" stroke="#231F20" stroke-width="0.58454" stroke-miterlimit="10"/>
<path d="M121.333 132.929C121.148 132.831 120.933 132.807 120.732 132.862L120.63 132.88L118.316 133.31C118.067 133.341 117.839 133.467 117.681 133.661C117.522 133.856 117.445 134.105 117.465 134.355C117.465 135.545 117.465 136.733 117.465 137.915C117.465 138.106 117.43 138.169 117.237 138.207C116.109 138.411 114.981 138.629 113.851 138.846C113.6 138.874 113.369 139 113.208 139.195C113.047 139.39 112.968 139.641 112.988 139.893C112.988 140.707 112.988 141.523 112.988 142.337V142.362C112.978 142.474 112.993 142.586 113.032 142.691C113.07 142.796 113.132 142.891 113.211 142.97L112.307 142.334H112.292L112.259 142.309H112.246C112.225 142.292 112.205 142.273 112.188 142.253C112.17 142.234 112.155 142.214 112.142 142.192C112.119 142.16 112.101 142.125 112.089 142.088C112.077 142.06 112.068 142.032 112.061 142.004C112.032 141.898 112.019 141.788 112.023 141.678C112.023 140.862 112.023 140.048 112.023 139.232C112.001 138.98 112.079 138.73 112.239 138.535C112.4 138.339 112.63 138.215 112.881 138.187C114.011 137.968 115.141 137.75 116.267 137.549C116.383 137.526 116.442 137.495 116.47 137.432C116.493 137.376 116.503 137.316 116.498 137.256C116.498 136.071 116.498 134.881 116.498 133.697C116.477 133.445 116.555 133.196 116.714 133.001C116.873 132.806 117.101 132.68 117.351 132.649C118.155 132.496 118.96 132.348 119.764 132.204L119.893 132.184C119.958 132.177 120.024 132.177 120.089 132.184H120.152L120.218 132.196L120.257 132.209H120.269H120.3C120.313 132.213 120.325 132.219 120.335 132.227L120.406 132.275L121.333 132.929Z" fill="#F8ED2E" stroke="#231F20" stroke-width="0.58454" stroke-miterlimit="10"/>
<path d="M125.706 136.743C125.519 136.668 125.313 136.655 125.119 136.707C125.09 136.71 125.061 136.715 125.032 136.723C123.966 136.921 122.894 137.119 121.822 137.333C121.644 137.369 121.599 137.333 121.599 137.147C121.599 136.962 121.599 136.72 121.599 136.507C122.447 136.341 123.295 136.184 124.138 136.023C124.277 135.994 124.42 135.988 124.56 136.008C124.601 136.012 124.642 136.023 124.679 136.041L124.73 136.062L124.839 136.14L125.706 136.743Z" fill="#F8ED2E" stroke="#231F20" stroke-width="0.58454" stroke-miterlimit="10"/>
<path d="M147.729 136.893C147.44 136.818 147.138 136.81 146.845 136.87C146.211 137.018 145.644 137.374 145.234 137.88C144.825 138.387 144.595 139.016 144.582 139.667C144.568 140.107 144.695 140.539 144.945 140.901C144.9 140.89 144.856 140.876 144.813 140.857C144.771 140.845 144.729 140.83 144.689 140.812C144.637 140.79 144.587 140.764 144.539 140.735C144.499 140.713 144.459 140.689 144.422 140.662C144.403 140.649 144.384 140.636 144.366 140.621" stroke="#231F20" stroke-width="0.58454" stroke-miterlimit="10"/>
<path d="M145.222 131.149C145.136 131.141 145.051 131.124 144.968 131.098C145.051 131.122 145.136 131.139 145.222 131.149Z" fill="#F8ED2E" stroke="#231F20" stroke-width="0.58454" stroke-miterlimit="10"/>
<path d="M139.637 136.552L139.911 136.748L139.787 136.669L139.69 136.6L139.645 136.562L139.556 136.484L139.632 136.547L139.637 136.552Z" fill="#F8ED2E" stroke="#231F20" stroke-width="0.58454" stroke-miterlimit="10"/>
<path d="M140.004 136.796C140.023 136.808 140.044 136.82 140.065 136.829L140.001 136.796H140.004Z" fill="#F8ED2E" stroke="#231F20" stroke-width="0.58454" stroke-miterlimit="10"/>
<path d="M142.846 132.567L142.491 132.325L142.564 132.366C142.612 132.393 142.66 132.424 142.709 132.458C142.757 132.493 142.801 132.529 142.846 132.567Z" fill="#F8ED2E" stroke="#231F20" stroke-width="0.58454" stroke-miterlimit="10"/>
<path d="M140.653 136.963H140.756H140.653Z" fill="#F8ED2E" stroke="#231F20" stroke-width="0.58454" stroke-miterlimit="10"/>
<path d="M140.766 136.969C140.851 136.974 140.936 136.974 141.02 136.969C140.936 136.974 140.851 136.974 140.766 136.969V136.969Z" fill="#F8ED2E" stroke="#231F20" stroke-width="0.58454" stroke-miterlimit="10"/>
<path d="M152.339 131.124C152.056 131.045 151.759 131.035 151.471 131.093C150.234 131.33 149.236 132.573 149.233 133.89C149.225 134.331 149.352 134.763 149.599 135.129C149.556 135.119 149.513 135.106 149.472 135.09V135.09C149.462 135.088 149.452 135.084 149.444 135.078C149.402 135.063 149.362 135.046 149.322 135.027C149.322 135.027 149.322 135.027 149.322 135.027C149.285 135.012 149.25 134.995 149.215 134.976C149.199 134.967 149.183 134.957 149.167 134.945H149.144V134.933L149.022 134.846C148.988 134.822 148.956 134.796 148.926 134.767V134.767C148.92 134.763 148.914 134.757 148.911 134.75C148.849 134.694 148.792 134.632 148.74 134.567L148.705 134.521C148.679 134.49 148.656 134.457 148.636 134.422C148.622 134.403 148.609 134.384 148.598 134.363C148.535 134.256 148.481 134.144 148.438 134.028C148.423 133.982 148.408 133.939 148.395 133.89" stroke="#231F20" stroke-width="0.58454" stroke-miterlimit="10"/>
<path d="M149.103 134.907C149.103 134.907 149.103 134.907 149.087 134.907C149.072 134.9 149.059 134.891 149.046 134.881C149.02 134.864 148.995 134.844 148.972 134.822L149.103 134.907Z" fill="#F8ED2E" stroke="#231F20" stroke-width="0.58454" stroke-miterlimit="10"/>
<path d="M152.001 130.761L151.747 130.596C151.796 130.619 151.842 130.647 151.886 130.68C151.901 130.688 151.915 130.698 151.927 130.71H151.942C151.958 130.72 151.972 130.731 151.985 130.743C151.985 130.743 151.998 130.756 152.001 130.761Z" fill="#F8ED2E" stroke="#231F20" stroke-width="0.58454" stroke-miterlimit="10"/>
<path d="M126.011 137.463C126.011 138.253 126.011 139.044 126.011 139.835C126.036 140.087 125.96 140.339 125.801 140.536C125.642 140.733 125.412 140.86 125.16 140.888C124.05 141.101 122.935 141.323 121.82 141.526C121.642 141.559 121.597 141.62 121.597 141.803C121.597 142.991 121.597 144.181 121.597 145.363C121.615 145.609 121.54 145.853 121.386 146.046C121.231 146.238 121.01 146.365 120.766 146.401C119.936 146.571 119.1 146.736 118.264 146.894C118.154 146.927 118.037 146.93 117.925 146.903C117.813 146.875 117.71 146.819 117.627 146.739C117.503 146.587 117.442 146.395 117.457 146.2V143.911C117.457 143.474 117.457 143.034 117.457 142.597C117.457 142.413 117.419 142.365 117.236 142.403L116.474 142.553L113.845 143.062C113.739 143.105 113.624 143.119 113.511 143.103C113.398 143.086 113.291 143.039 113.203 142.967C113.114 142.895 113.046 142.801 113.006 142.693C112.966 142.586 112.956 142.47 112.976 142.358V142.337C112.976 141.523 112.976 140.707 112.976 139.894C112.957 139.641 113.036 139.391 113.197 139.195C113.358 139 113.589 138.875 113.84 138.846C114.97 138.63 116.098 138.411 117.226 138.208C117.419 138.172 117.457 138.106 117.454 137.915C117.454 136.733 117.454 135.545 117.454 134.355C117.434 134.105 117.511 133.856 117.67 133.662C117.828 133.467 118.056 133.341 118.305 133.31L120.619 132.881L120.72 132.863C120.922 132.807 121.137 132.831 121.322 132.929C121.424 133.012 121.503 133.119 121.551 133.241C121.599 133.363 121.615 133.496 121.597 133.626C121.597 134.587 121.597 135.551 121.597 136.512C121.597 136.725 121.597 136.939 121.597 137.152C121.597 137.366 121.642 137.374 121.82 137.338C122.892 137.124 123.964 136.926 125.03 136.728C125.059 136.72 125.088 136.715 125.117 136.713C125.311 136.66 125.517 136.673 125.703 136.748C125.912 136.855 126.011 137.089 126.011 137.463Z" fill="#F8ED2E" stroke="#231F20" stroke-width="0.58454" stroke-miterlimit="10"/>
<path d="M149.061 138.822C149.061 140.124 148.045 141.378 146.821 141.619C146.473 141.702 146.109 141.678 145.774 141.552C145.44 141.425 145.151 141.202 144.944 140.91C144.694 140.549 144.566 140.116 144.581 139.677C144.594 139.025 144.823 138.396 145.233 137.89C145.643 137.383 146.21 137.028 146.844 136.88C147.136 136.819 147.439 136.827 147.727 136.903C147.908 136.948 148.08 137.024 148.235 137.126H148.253C148.519 137.319 148.732 137.575 148.874 137.871C149.015 138.167 149.079 138.495 149.061 138.822Z" fill="#F8ED2E" stroke="#231F20" stroke-width="0.58454" stroke-miterlimit="10"/>
<path d="M153.677 133.026C153.677 134.348 152.683 135.594 151.459 135.823C151.114 135.905 150.753 135.882 150.421 135.757C150.089 135.632 149.803 135.41 149.598 135.121C149.351 134.756 149.223 134.323 149.232 133.883C149.232 132.565 150.233 131.322 151.469 131.086C151.757 131.027 152.055 131.038 152.338 131.116C153.128 131.332 153.677 132.059 153.677 133.026Z" fill="#F8ED2E" stroke="#231F20" stroke-width="0.58454" stroke-miterlimit="10"/>
<path d="M152.226 114.242C151.131 113.713 149.928 113.451 148.713 113.479C148.36 113.484 148.008 113.511 147.659 113.56C146.112 113.812 144.632 114.373 143.306 115.208C142.713 115.601 142.1 115.964 141.469 116.294C139.451 117.204 137.342 117.899 135.178 118.366C132.317 119.07 129.387 119.462 126.441 119.533C125.239 119.573 124.038 119.416 122.886 119.068C121.458 118.601 119.943 118.459 118.454 118.654C116.082 118.959 113.958 120.083 112.041 121.86C110.227 123.541 108.823 125.544 107.596 127.683C106.421 129.755 105.403 131.912 104.548 134.137C102.312 139.738 100.826 145.611 100.129 151.603C99.8288 154.007 99.8007 156.437 100.045 158.847C100.151 159.876 100.373 160.89 100.708 161.868C100.861 162.287 101.045 162.693 101.259 163.083C101.662 163.864 102.27 164.52 103.017 164.98L96.2711 161.596C95.3909 161.152 94.6741 160.44 94.224 159.562C93.5256 158.288 93.1903 156.831 93.0176 155.305C92.7717 152.894 92.7998 150.463 93.1014 148.058C93.7975 142.067 95.2817 136.194 97.5156 130.592C98.3703 128.369 99.3891 126.213 100.563 124.141C101.793 122 103.192 119.996 105.011 118.315C106.928 116.535 109.051 115.414 111.424 115.109C112.912 114.915 114.426 115.056 115.853 115.523C117.005 115.871 118.206 116.028 119.409 115.989C122.354 115.916 125.284 115.526 128.146 114.824C130.305 114.355 132.409 113.66 134.424 112.752C135.062 112.452 135.648 112.03 136.258 111.663C137.586 110.828 139.068 110.268 140.616 110.018C142.459 109.737 144.342 110.12 145.929 111.099L152.226 114.242Z" fill="#352E7E" stroke="#231F20" stroke-width="0.58454" stroke-miterlimit="10"/>
<path d="M152.329 114.292L152.227 114.241" stroke="#231F20" stroke-width="0.58454" stroke-miterlimit="10"/>
<path d="M117.567 146.659L116.806 146.165L116.671 146.074C116.604 145.998 116.553 145.909 116.521 145.813C116.488 145.717 116.476 145.615 116.483 145.514V143.734C116.483 143.561 116.483 143.394 116.483 143.226C116.483 143.002 116.483 142.778 116.483 142.552L117.245 142.402C117.428 142.364 117.471 142.402 117.466 142.595C117.466 143.033 117.466 143.472 117.466 143.91V146.198C117.461 146.304 117.475 146.41 117.509 146.511C117.523 146.562 117.543 146.612 117.567 146.659Z" fill="#F8ED2E" stroke="#231F20" stroke-width="0.58454" stroke-miterlimit="10"/>
<path d="M116.464 137.414L117.411 138.134" stroke="#231F20" stroke-width="0.58454" stroke-miterlimit="10"/>
<path d="M140.64 137.262L139.921 136.756" stroke="#231F20" stroke-width="0.58454" stroke-miterlimit="10"/>
<path d="M143.635 133.109L142.853 132.575Z" fill="#F8ED2E"/>
<path d="M143.635 133.109L142.853 132.575" stroke="#231F20" stroke-width="0.58454" stroke-miterlimit="10"/>
<path d="M144.249 140.567L145.29 141.305" stroke="#231F20" stroke-width="0.58454" stroke-miterlimit="10"/>
<path d="M147.481 136.6C147.735 136.773 147.989 136.945 148.243 137.108Z" fill="#F8ED2E"/>
<path d="M147.481 136.6C147.735 136.773 147.989 136.945 148.243 137.108" stroke="#231F20" stroke-width="0.58454" stroke-miterlimit="10"/>
<path d="M147.469 136.595L147.103 136.341Z" fill="#F8ED2E"/>
<path d="M147.469 136.595L147.103 136.341" stroke="#231F20" stroke-width="0.58454" stroke-miterlimit="10"/>
<path d="M145.488 131.597L144.462 130.868" stroke="#231F20" stroke-width="0.58454" stroke-miterlimit="10"/>
<path d="M147.306 126.639L148.456 127.422Z" fill="#F8ED2E"/>
<path d="M147.306 126.639L148.456 127.422" stroke="#231F20" stroke-width="0.58454" stroke-miterlimit="10"/>
<path d="M150.024 135.561L149.147 134.938L149.125 134.925" fill="#F8ED2E"/>
<path d="M150.024 135.561L149.147 134.938L149.125 134.925" stroke="#231F20" stroke-width="0.58454" stroke-miterlimit="10"/>
<path d="M152.869 131.356L152.018 130.776Z" fill="#F8ED2E"/>
<path d="M152.869 131.356L152.018 130.776" stroke="#231F20" stroke-width="0.58454" stroke-miterlimit="10"/>
<path d="M151.744 130.592L151.717 130.571Z" fill="#F8ED2E"/>
<path d="M151.744 130.592L151.717 130.571" stroke="#231F20" stroke-width="0.58454" stroke-miterlimit="10"/>
<path d="M147.75 127.079C147.462 127.004 147.161 126.996 146.869 127.054C145.614 127.288 144.613 128.539 144.613 129.882C144.605 130.314 144.733 130.739 144.979 131.094C144.949 131.09 144.92 131.081 144.893 131.069C144.85 131.058 144.808 131.042 144.768 131.023L144.707 130.998C144.619 130.96 144.534 130.914 144.453 130.861H144.438C144.429 130.855 144.42 130.848 144.413 130.84C144.388 130.826 144.365 130.809 144.344 130.789C144.338 130.791 144.332 130.791 144.326 130.789L144.255 130.731C144.225 130.703 144.192 130.675 144.164 130.644C144.145 130.624 144.127 130.603 144.11 130.581C144.092 130.564 144.076 130.545 144.062 130.525C144.044 130.505 144.032 130.484 144.016 130.464C144.001 130.444 144.016 130.464 144.004 130.449C143.991 130.433 143.95 130.372 143.925 130.332C143.866 130.236 143.816 130.134 143.775 130.029C143.773 130.018 143.773 130.007 143.775 129.996C143.774 129.987 143.774 129.977 143.775 129.968C143.759 129.926 143.744 129.882 143.732 129.838C143.717 129.786 143.704 129.732 143.694 129.678C143.686 129.648 143.681 129.618 143.679 129.587V129.587" stroke="#231F20" stroke-width="0.58454" stroke-miterlimit="10"/>
<path d="M143.119 132.877C142.83 132.798 142.527 132.785 142.232 132.839C141.026 133.037 139.98 134.288 139.947 135.577C139.923 136.05 140.053 136.517 140.317 136.91L140.142 136.851L140.079 136.828L140.015 136.795L139.926 136.755L139.652 136.559C139.625 136.539 139.6 136.518 139.576 136.495C139.545 136.462 139.515 136.432 139.487 136.399C139.467 136.38 139.449 136.36 139.434 136.337L139.383 136.271C139.35 136.23 139.32 136.185 139.294 136.139C139.269 136.099 139.246 136.057 139.225 136.015C139.202 135.974 139.185 135.931 139.164 135.885C139.163 135.877 139.163 135.87 139.164 135.862C139.143 135.811 139.124 135.758 139.108 135.704C139.099 135.68 139.091 135.654 139.086 135.628L139.07 135.567C139.059 135.53 139.051 135.493 139.045 135.455C139.045 135.399 139.025 135.338 139.017 135.28C139.009 135.221 139.017 135.158 139.004 135.094C139.001 135.032 139.001 134.97 139.004 134.908C139.004 134.827 139.004 134.748 139.022 134.667C139.04 134.586 139.048 134.507 139.063 134.428C139.078 134.349 139.101 134.27 139.124 134.194C139.147 134.118 139.149 134.115 139.164 134.077C139.192 134.001 139.22 133.927 139.256 133.853C139.271 133.818 139.286 133.785 139.304 133.749C139.322 133.713 139.342 133.67 139.362 133.632C139.383 133.594 139.403 133.561 139.426 133.528L139.474 133.444C139.578 133.286 139.696 133.137 139.825 132.999C139.86 132.961 139.898 132.925 139.934 132.892C139.97 132.854 140.008 132.817 140.048 132.783L140.18 132.673C140.206 132.652 140.233 132.633 140.262 132.615C140.303 132.583 140.346 132.553 140.391 132.526C140.418 132.506 140.447 132.488 140.477 132.472C140.51 132.452 140.544 132.433 140.579 132.417C140.619 132.392 140.66 132.371 140.703 132.353C140.74 132.334 140.777 132.318 140.815 132.305L140.927 132.264C140.954 132.251 140.983 132.241 141.013 132.236C141.056 132.221 141.099 132.208 141.143 132.198L141.217 132.183L141.29 132.167C141.466 132.137 141.645 132.13 141.824 132.144H141.892C141.93 132.144 141.968 132.144 142.004 132.16C142.041 132.165 142.077 132.172 142.113 132.183L142.184 132.2L142.319 132.241C142.39 132.269 142.456 132.297 142.522 132.33L142.878 132.572L142.921 132.612C142.942 132.633 142.963 132.655 142.982 132.678L143.01 132.706C143.034 132.732 143.057 132.76 143.078 132.788L143.119 132.877Z" fill="#F8ED2E" stroke="#231F20" stroke-width="0.58454" stroke-miterlimit="10"/>
<path d="M149.097 129.031C149.088 129.683 148.861 130.313 148.452 130.82C148.043 131.327 147.476 131.682 146.841 131.828C146.495 131.905 146.133 131.878 145.802 131.751C145.471 131.624 145.184 131.402 144.977 131.114V131.114C144.731 130.758 144.603 130.334 144.611 129.901C144.611 128.558 145.612 127.307 146.867 127.073C147.159 127.015 147.46 127.024 147.748 127.099C148.545 127.305 149.099 128.045 149.097 129.031Z" fill="#F8ED2E" stroke="#231F20" stroke-width="0.58454" stroke-miterlimit="10"/>
<path d="M144.46 134.871C144.424 136.17 143.385 137.414 142.174 137.622C141.915 137.674 141.648 137.671 141.391 137.613C141.134 137.555 140.891 137.443 140.68 137.284L140.65 137.261C140.524 137.161 140.413 137.043 140.322 136.91C140.058 136.518 139.928 136.05 139.952 135.578C139.987 134.288 141.033 133.035 142.237 132.839C142.532 132.786 142.835 132.799 143.124 132.877C143.305 132.925 143.476 133.004 143.632 133.109C143.91 133.306 144.132 133.572 144.277 133.881C144.422 134.19 144.485 134.531 144.46 134.871V134.871Z" fill="#F8ED2E" stroke="#231F20" stroke-width="0.58454" stroke-miterlimit="10"/>
</g>
<defs>
<clipPath id="clip0_1380_7069">
<rect width="454" height="168" fill="white"/>
</clipPath>
</defs>
</svg>
