<svg width="454" height="168" viewBox="0 0 454 168" fill="none" xmlns="http://www.w3.org/2000/svg">
<g clip-path="url(#clip0_1380_7164)">
<rect width="454" height="168" fill="#1A074E"/>
<path d="M571 -78L1001 -28.526V182.5H368.91L262.5 168L247 53.9141L571 -78Z" fill="#2D1373"/>
<path d="M342.707 149.569H342.704L336.512 159.71L333.314 152.263L288.225 47.3288L294.417 37.1842L342.707 149.569Z" fill="#1E194D"/>
<path d="M370.719 15.2834L294.417 37.1876L342.708 149.569L419 127.665L370.719 15.2834ZM345.765 141.965C331.491 108.206 317.215 74.4464 302.937 40.6857L367.342 22.2078C381.862 55.7723 396.383 89.3368 410.905 122.901L345.765 141.965Z" fill="#53379E" stroke="#1A074E" stroke-width="0.281264" stroke-miterlimit="10"/>
<path d="M410.941 122.901L345.764 141.965C331.491 108.206 317.215 74.4464 302.937 40.6857L367.342 22.2078C381.883 55.7723 396.416 89.3368 410.941 122.901Z" fill="#E0F1EB" stroke="#1A074E" stroke-width="0.281264" stroke-miterlimit="10"/>
<path d="M418.999 127.671L412.807 137.812L336.512 159.71L342.704 149.569H342.707L418.999 127.671Z" fill="#53379E" stroke="#1A074E" stroke-width="0.281264" stroke-miterlimit="10"/>
<path d="M385.099 140.111L382.906 143.707L372.885 146.581L375.079 142.988L385.099 140.111Z" fill="#1E194D"/>
<path d="M356.711 148.245L354.534 151.808L354.514 151.841L350.683 152.939L352.876 149.346L356.711 148.245Z" fill="#1E194D"/>
<path d="M398.155 137.401L397.406 138.626L397.4 138.636L396.082 139.016L396.837 137.78L398.155 137.401Z" fill="#1E194D"/>
<path d="M400.367 136.802L399.618 138.025L399.612 138.038L398.294 138.414L399.05 137.178L400.367 136.802Z" fill="#1E194D"/>
<path d="M402.622 136.132L401.877 137.358L401.87 137.368L400.549 137.747L401.305 136.511L402.622 136.132Z" fill="#1E194D"/>
<path d="M404.959 135.465L404.211 136.691L404.204 136.701L402.887 137.08L403.642 135.844V135.841L404.959 135.465Z" fill="#1E194D"/>
<path d="M407.277 134.788L406.529 136.014L406.522 136.024L405.205 136.403L405.96 135.168L407.277 134.788Z" fill="#1E194D"/>
<path d="M409.613 134.121L408.865 135.347L408.858 135.357L407.541 135.736L408.296 134.501L409.613 134.121Z" fill="#1E194D"/>
<path d="M359.082 66.9968L344.805 71.0834C343.744 71.3868 342.61 71.2917 341.615 70.8159C340.62 70.3401 339.833 69.5165 339.404 68.5006C337.571 64.17 335.739 59.8371 333.908 55.502C333.441 54.4013 333.431 53.1601 333.879 52.0516C334.327 50.9432 335.197 50.0581 336.298 49.5912C336.467 49.519 336.641 49.4578 336.818 49.4081L350.993 45.3411C352.048 45.0389 353.176 45.1307 354.167 45.5993C355.159 46.068 355.946 46.8815 356.381 47.8879C358.238 52.2099 360.104 56.5318 361.978 60.8538C362.453 61.952 362.473 63.1938 362.032 64.3064C361.592 65.419 360.729 66.3114 359.631 66.7875C359.452 66.8685 359.269 66.9384 359.082 66.9968V66.9968Z" fill="#E0F1EB" stroke="#1A074E" stroke-width="0.281264" stroke-miterlimit="10"/>
<path d="M383.754 41.9706C386.425 41.951 388.429 41.8137 389.155 41.6437L389.907 41.4704C390.859 41.2546 390.979 41.2448 391.149 41.1435C391.354 41 391.528 40.817 391.661 40.6054C391.794 40.3937 391.884 40.1576 391.924 39.9109C392.425 38.09 392.794 33.6666 392.621 33.6666C392.447 33.6666 392.872 38.8353 393.337 39.8259C393.566 40.3068 393.909 40.7243 394.337 41.0421V41.0421C394.695 41.2677 395.094 41.4219 395.511 41.4965C395.988 41.575 398.558 41.7777 402.088 41.9117C398.613 42.2387 396.073 42.5394 395.367 42.6473C394.9 42.7228 394.46 42.9189 394.092 43.2162C394.016 43.2872 393.949 43.3674 393.892 43.4548C393.777 43.6359 393.697 43.8364 393.654 44.0466C393.582 44.4095 393.327 46.6979 393.02 49.843C392.879 48.8982 392.784 48.143 392.725 47.6624C392.487 45.7008 392.46 44.9587 391.924 44.1021C391.701 43.7477 391.427 43.4283 391.11 43.1541C390.751 42.9639 390.376 42.8053 389.989 42.68C389.228 42.4384 388.434 42.3138 387.635 42.3106C386.336 42.271 385.04 42.1575 383.754 41.9706V41.9706Z" fill="#F0E266" stroke="#1A074E" stroke-width="0.0926516" stroke-miterlimit="10"/>
<path d="M295.529 148.091C301.338 148.045 305.696 147.764 307.279 147.408C307.491 147.362 307.847 147.271 308.913 147.032C310.983 146.564 311.247 146.538 311.617 146.329C312.598 145.786 313.01 144.694 313.301 143.648C314.379 139.676 314.943 130.064 314.811 130.064C314.679 130.064 315.363 141.311 316.374 143.468C316.868 144.517 317.615 145.427 318.548 146.117C319.329 146.594 320.195 146.917 321.098 147.068C322.141 147.238 327.721 147.679 335.404 147.97C327.849 148.663 322.327 149.337 320.787 149.569C320.787 149.569 319.005 149.844 318.012 150.808C317.847 150.962 317.701 151.136 317.577 151.325C317.329 151.72 317.154 152.156 317.06 152.613C316.907 153.407 316.341 158.373 315.687 165.212C315.386 163.159 315.177 161.512 315.033 160.472C314.513 156.222 314.455 154.587 313.291 152.727C312.806 151.956 312.21 151.261 311.522 150.664C310.738 150.252 309.921 149.907 309.08 149.631C307.427 149.106 305.704 148.836 303.97 148.83C302.061 148.768 299.315 148.588 295.529 148.091Z" fill="#F0E266" stroke="#1A074E" stroke-width="0.0926516" stroke-miterlimit="10"/>
<path d="M410.94 122.911L345.777 141.964L302.959 40.6856L367.374 22.1946L410.94 122.911Z" fill="#E9DFEE"/>
<path opacity="0.54" d="M381.609 55.0966L369.362 81.156L367.476 85.1641L361.761 97.3389L358.361 104.574L354.954 111.825L351.58 119.001L349.534 123.356L343.417 136.377L332.21 109.87L339.311 94.7529L340.965 91.2319L348.308 75.5982C348.445 75.644 348.586 75.6832 348.726 75.7224C348.651 75.5197 348.589 75.3203 348.533 75.1209L351.845 68.0789L355.549 60.1934L361.352 47.8421L364.367 41.4278L370.251 28.8705L381.609 55.0966Z" fill="white"/>
<path d="M365.857 46.5474L323.206 58.8399C322.483 59.0316 321.715 58.9599 321.04 58.6377C320.365 58.3155 319.827 57.7637 319.521 57.081V57.081C319.391 56.7998 319.318 56.4958 319.306 56.1864C319.294 55.8769 319.343 55.5681 319.45 55.2775C319.557 54.987 319.72 54.7204 319.931 54.493C320.141 54.2656 320.394 54.0819 320.675 53.9523C320.804 53.8938 320.937 53.8468 321.074 53.8117L363.699 41.5389C364.421 41.3506 365.187 41.423 365.862 41.7435C366.536 42.064 367.076 42.612 367.387 43.2912V43.2912C367.65 43.8522 367.68 44.4949 367.47 45.0779C367.259 45.661 366.826 46.1366 366.265 46.4003C366.134 46.4624 365.997 46.5116 365.857 46.5474V46.5474Z" stroke="#1A074E" stroke-width="0.281264" stroke-miterlimit="10"/>
<path d="M359.338 64.6756C359.818 65.7355 360.067 66.8858 360.067 68.0495C360.067 69.2132 359.818 70.3634 359.338 71.4234C359.151 71.8114 358.933 72.1832 358.684 72.5349C356.788 69.1218 353.087 67.5885 351.054 68.2097C349.02 68.8308 347.382 72.0609 348.719 75.729C347.178 75.324 345.746 74.5783 344.531 73.5468C343.316 72.5154 342.347 71.2244 341.697 69.7691C341.22 68.7076 340.976 67.5564 340.98 66.3928C340.983 65.2291 341.236 64.0796 341.72 63.0213C342.223 61.9779 342.945 61.0553 343.837 60.3162C344.729 59.5771 345.77 59.039 346.889 58.7386C349.33 58.0994 351.918 58.3449 354.196 59.4315C356.473 60.5182 358.293 62.3759 359.331 64.6756H359.338Z" stroke="#1A074E" stroke-width="0.281264" stroke-miterlimit="10"/>
<path d="M352.175 63.4007C352.31 63.6907 352.386 64.0045 352.4 64.3241C352.414 64.6437 352.365 64.9629 352.255 65.2635C352.146 65.564 351.978 65.84 351.762 66.0758C351.545 66.3115 351.285 66.5023 350.995 66.6373C350.862 66.6988 350.724 66.7481 350.583 66.7844C349.833 66.9832 349.037 66.9089 348.336 66.5747C347.636 66.2405 347.078 65.6682 346.761 64.9601C346.626 64.6699 346.549 64.356 346.536 64.0362C346.522 63.7165 346.572 63.3972 346.682 63.0966C346.792 62.796 346.96 62.52 347.176 62.2844C347.393 62.0488 347.654 61.8582 347.944 61.7236C348.077 61.6615 348.215 61.6122 348.356 61.5764C349.106 61.3785 349.901 61.4532 350.601 61.7874C351.3 62.1215 351.858 62.6933 352.175 63.4007V63.4007Z" stroke="#1A074E" stroke-width="0.281264" stroke-miterlimit="10"/>
<path d="M358.692 72.535C357.644 74.0254 356.129 75.1231 354.386 75.6539L354.157 75.7192C352.381 76.2162 350.503 76.2162 348.727 75.7192C347.39 72.0511 349.002 68.8276 351.061 68.1999C353.121 67.5722 356.795 69.1218 358.692 72.535Z" stroke="#1A074E" stroke-width="0.281264" stroke-miterlimit="10"/>
<path d="M365.932 30.4071C366.491 31.7149 365.801 33.0749 364.395 33.4803C363.707 33.6738 362.973 33.6186 362.322 33.3244C361.671 33.0302 361.144 32.5159 360.835 31.8718C360.279 30.5641 360.969 29.2041 362.375 28.7987C363.062 28.604 363.796 28.6587 364.447 28.953C365.098 29.2474 365.624 29.7624 365.932 30.4071V30.4071Z" stroke="#1A074E" stroke-width="0.281264" stroke-miterlimit="10"/>
<path d="M315.497 42.6899L310.03 44.2591C309.849 44.3073 309.656 44.2894 309.487 44.2086C309.317 44.1277 309.182 43.9892 309.105 43.8178V43.8178C309.073 43.7465 309.055 43.6696 309.053 43.5914C309.05 43.5132 309.063 43.4353 309.091 43.3621C309.118 43.289 309.16 43.222 309.214 43.1649C309.267 43.1079 309.331 43.062 309.403 43.0299L309.498 42.9972L314.961 41.4279C315.142 41.3802 315.335 41.3984 315.505 41.4791C315.675 41.5599 315.811 41.6981 315.889 41.8693V41.8693C315.921 41.9406 315.939 42.0175 315.942 42.0957C315.944 42.1738 315.931 42.2518 315.904 42.3249C315.876 42.3981 315.834 42.4651 315.781 42.5221C315.727 42.5792 315.663 42.625 315.591 42.6572L315.497 42.6899Z" stroke="#1A074E" stroke-width="0.281264" stroke-miterlimit="10"/>
<path d="M316.34 44.6611L310.874 46.2304C310.692 46.2788 310.499 46.261 310.329 46.1801C310.159 46.0993 310.023 45.9607 309.946 45.789V45.789C309.913 45.7178 309.895 45.6409 309.893 45.5627C309.89 45.4845 309.903 45.4066 309.931 45.3334C309.959 45.2602 310 45.1932 310.054 45.1362C310.107 45.0792 310.172 45.0333 310.243 45.0011L310.338 44.9684L315.804 43.3992C315.986 43.351 316.178 43.3689 316.348 43.4498C316.517 43.5306 316.653 43.6691 316.729 43.8405V43.8405C316.795 43.9819 316.802 44.1436 316.749 44.2901C316.695 44.4366 316.586 44.5559 316.445 44.6219C316.411 44.6384 316.376 44.6515 316.34 44.6611Z" stroke="#1A074E" stroke-width="0.281264" stroke-miterlimit="10"/>
<path d="M317.17 46.6326L311.701 48.2051C311.52 48.2514 311.328 48.2321 311.16 48.1507C310.992 48.0693 310.858 47.9311 310.782 47.7605V47.7605C310.717 47.6178 310.71 47.455 310.765 47.3079C310.82 47.1608 310.93 47.0413 311.073 46.9758C311.105 46.9605 311.139 46.9484 311.174 46.9399L316.64 45.3706C316.822 45.3224 317.015 45.3403 317.184 45.4212C317.354 45.5021 317.489 45.6406 317.566 45.812C317.631 45.9533 317.638 46.115 317.585 46.2615C317.532 46.408 317.423 46.5273 317.281 46.5933C317.245 46.6097 317.208 46.6229 317.17 46.6326V46.6326Z" stroke="#1A074E" stroke-width="0.281264" stroke-miterlimit="10"/>
<path d="M397.615 117.857L352.757 130.954L339.912 100.67C337.623 95.2694 340.291 89.5874 345.872 87.9691L370.342 80.8748C375.9 79.2631 382.295 82.31 384.613 87.6913L397.615 117.857Z" stroke="#1A074E" stroke-width="0.281264" stroke-miterlimit="10"/>
<path d="M341.046 103.354L355.748 99.0813L385.763 90.3622" fill="#F0E266"/>
<path d="M341.046 103.354L355.748 99.0813L385.763 90.3622" stroke="#1A074E" stroke-width="0.281264" stroke-miterlimit="10"/>
<path d="M343.417 108.919L358.129 104.639L388.16 95.9069" fill="#F0E266"/>
<path d="M343.417 108.919L358.129 104.639L388.16 95.9069" stroke="#1A074E" stroke-width="0.281264" stroke-miterlimit="10"/>
<path d="M345.573 114.555L360.295 110.269L390.349 101.52" fill="#F0E266"/>
<path d="M345.573 114.555L360.295 110.269L390.349 101.52" stroke="#1A074E" stroke-width="0.281264" stroke-miterlimit="10"/>
<path d="M348.122 120.008L362.853 115.716L392.924 106.954" fill="#F0E266"/>
<path d="M348.122 120.008L362.853 115.716L392.924 106.954" stroke="#1A074E" stroke-width="0.281264" stroke-miterlimit="10"/>
<path d="M350.464 125.53L365.202 121.227L395.293 112.453" fill="#F0E266"/>
<path d="M350.464 125.53L365.202 121.227L395.293 112.453" stroke="#1A074E" stroke-width="0.281264" stroke-miterlimit="10"/>
<path d="M350.151 86.7302L355.457 99.1665" stroke="#1A074E" stroke-width="0.281264" stroke-miterlimit="10"/>
<path d="M366.167 82.0879L371.447 94.5111Z" fill="#F0E266"/>
<path d="M366.167 82.0879L371.447 94.5111" stroke="#1A074E" stroke-width="0.281264" stroke-miterlimit="10"/>
<path d="M349.183 95.2665C349.302 95.5425 349.366 95.8393 349.37 96.1399C349.374 96.4404 349.319 96.7389 349.208 97.0182C349.097 97.2975 348.932 97.5522 348.722 97.7677C348.513 97.9832 348.263 98.1553 347.987 98.2742C347.869 98.3243 347.748 98.3647 347.624 98.3952C346.928 98.5949 346.184 98.5401 345.525 98.2405C344.866 97.9409 344.335 97.4162 344.028 96.7605C343.909 96.4845 343.845 96.1877 343.841 95.8871C343.837 95.5865 343.892 95.2881 344.003 95.0088C344.114 94.7295 344.279 94.4748 344.489 94.2593C344.698 94.0438 344.948 93.8717 345.224 93.7528C345.342 93.7027 345.463 93.6623 345.587 93.6318C346.283 93.4321 347.027 93.4869 347.686 93.7865C348.346 94.0861 348.876 94.6108 349.183 95.2665V95.2665Z" stroke="#1A074E" stroke-width="0.281264" stroke-miterlimit="10"/>
<path d="M363.846 91.0096C363.965 91.2857 364.029 91.5824 364.033 91.883C364.037 92.1836 363.982 92.482 363.871 92.7614C363.76 93.0407 363.595 93.2953 363.385 93.5108C363.176 93.7263 362.926 93.8985 362.65 94.0173C362.536 94.0663 362.417 94.1057 362.297 94.135C361.601 94.3327 360.857 94.2769 360.199 93.9776C359.54 93.6782 359.009 93.1547 358.701 92.5004C358.582 92.2241 358.518 91.9272 358.514 91.6265C358.51 91.3257 358.566 91.0272 358.677 90.7478C358.788 90.4685 358.954 90.2139 359.164 89.9985C359.374 89.7831 359.624 89.6112 359.9 89.4927C360.015 89.4437 360.133 89.4043 360.253 89.375C360.949 89.1774 361.692 89.2334 362.35 89.5328C363.008 89.8321 363.538 90.3555 363.846 91.0096V91.0096Z" stroke="#1A074E" stroke-width="0.281264" stroke-miterlimit="10"/>
<path d="M378.965 86.6124C379.208 87.1626 379.223 87.7867 379.006 88.3476C378.789 88.9086 378.358 89.3604 377.808 89.6038C377.683 89.6585 377.554 89.7023 377.422 89.7345C376.726 89.9316 375.983 89.8755 375.325 89.5762C374.666 89.2769 374.135 88.7538 373.826 88.0999C373.705 87.8284 373.639 87.5357 373.632 87.2387C373.624 86.9416 373.675 86.646 373.782 86.3687C373.889 86.0914 374.05 85.838 374.255 85.6228C374.46 85.4077 374.705 85.2352 374.977 85.1151C375.103 85.0573 375.234 85.0124 375.369 84.981C376.065 84.7831 376.808 84.8384 377.466 85.1371C378.125 85.4359 378.656 85.9587 378.965 86.6124V86.6124Z" stroke="#1A074E" stroke-width="0.281264" stroke-miterlimit="10"/>
<path d="M348.727 75.7289C348.586 75.6896 348.445 75.6504 348.308 75.6046L348.534 75.1273C348.589 75.3267 348.651 75.5262 348.727 75.7289Z" fill="white"/>
<path d="M76.848 71.176V58.144H79.26C83.22 58.144 85.56 60.52 85.56 64.624C85.56 68.8 83.22 71.176 79.26 71.176H76.848ZM70.728 76H79.692C87.216 76 91.86 71.752 91.86 64.66C91.86 57.568 87.216 53.32 79.692 53.32H70.728V76ZM94.7732 69.304H104.421V64.228H94.7732V69.304ZM113.938 76V67.684H122.218V62.716H113.938V58.36H124.954V53.32H107.818V76H113.938ZM148.132 76C147.376 75.172 147.268 74.164 146.944 70.78C146.692 68.152 145.324 66.82 142.984 66.352C145.756 65.992 147.808 63.832 147.808 60.52C147.808 56.092 144.892 53.32 139.024 53.32H127.576V76H133.588V68.476H137.656C139.708 68.476 140.824 69.052 141.004 71.644C141.184 73.984 141.472 75.388 141.94 76H148.132ZM133.588 63.76V58.216H137.944C140.536 58.216 141.832 59.188 141.832 61.024C141.832 63.112 140.536 63.76 137.944 63.76H133.588ZM157.806 53.32L148.77 76H154.926L156.618 71.608H165.474L167.166 76H173.682L164.646 53.32H157.806ZM160.974 60.34H161.118L163.71 67.036H158.382L160.974 60.34ZM190.471 76L194.539 60.052H194.683V76H200.803V53.32H191.551L188.347 67.576H188.239L184.891 53.32H175.423V76H181.039V60.052H181.183L185.251 76H190.471ZM222.107 70.96H210.263V67.036H219.155V62.068H210.263V58.36H221.783V53.32H204.251V76H222.107V70.96Z" fill="white"/>
<path d="M69.9111 101.329V107.312H71.1964V105.088H72.4906C73.838 105.088 74.6713 104.547 74.6713 103.217C74.6713 101.879 73.838 101.329 72.4906 101.329H69.9111ZM71.1964 103.971V102.446H72.4463C73.0757 102.446 73.386 102.659 73.386 103.217C73.386 103.758 73.0846 103.971 72.4463 103.971H71.1964ZM76.6131 102.845H75.3898V107.312H76.6131V105.265C76.6131 104.237 77.0829 103.9 78.1377 103.9V102.756C77.4286 102.756 76.879 103.058 76.6131 103.501V102.845ZM80.9301 107.401C82.3484 107.401 83.3501 106.515 83.3501 105.07C83.3501 103.643 82.3484 102.756 80.9301 102.756C79.5117 102.756 78.5012 103.643 78.5012 105.07C78.5012 106.515 79.5117 107.401 80.9301 107.401ZM80.9301 106.399C80.212 106.399 79.7334 105.859 79.7334 105.07C79.7334 104.299 80.212 103.758 80.9301 103.758C81.6481 103.758 82.1268 104.299 82.1268 105.07C82.1268 105.859 81.6481 106.399 80.9301 106.399ZM87.5708 103.377C87.2517 102.978 86.7553 102.756 86.1702 102.756C84.9735 102.756 83.9984 103.634 83.9984 105.088C83.9984 106.541 84.9735 107.401 86.1702 107.401C86.7553 107.401 87.2517 107.188 87.5708 106.798V107.312H88.803V101.329H87.5708V103.377ZM86.4273 106.382C85.7447 106.382 85.2306 105.903 85.2306 105.088C85.2306 104.272 85.7447 103.767 86.4273 103.767C87.1187 103.767 87.624 104.272 87.624 105.088C87.624 105.903 87.1187 106.382 86.4273 106.382ZM92.7361 105.274C92.7361 106.125 92.2752 106.417 91.7965 106.417C91.371 106.417 91.0341 106.169 91.0341 105.575V102.845H89.8108V105.832C89.8108 106.816 90.3427 107.401 91.4064 107.401C91.9738 107.401 92.4347 107.18 92.7361 106.71V107.312H93.9594V102.845H92.7361V105.274ZM97.213 107.401C98.3387 107.401 99.2075 106.798 99.4202 105.735L98.2856 105.628C98.1437 106.151 97.7537 106.399 97.2573 106.399C96.5215 106.399 96.034 105.859 96.034 105.07C96.034 104.29 96.5215 103.758 97.2573 103.758C97.8689 103.758 98.3387 104.174 98.3919 104.857L99.5266 104.751C99.4202 103.483 98.4806 102.756 97.213 102.756C95.7858 102.756 94.8018 103.696 94.8018 105.07C94.8018 106.453 95.7858 107.401 97.213 107.401ZM102.839 107.312V106.266H102.165C101.961 106.266 101.873 106.187 101.873 105.983V103.784H102.839V102.845H101.873V101.329H100.65V102.845H99.9315V103.784H100.65V106.134C100.65 106.905 101.057 107.312 101.82 107.312H102.839ZM109.36 104.919L108.208 101.329H106.027V107.312H107.312V102.074L108.926 107.312H109.794L111.417 102.074V107.312H112.702V101.329H110.512L109.36 104.919ZM117.452 103.705C117.222 103.102 116.619 102.756 115.635 102.756C114.58 102.756 113.782 103.261 113.614 104.228L114.713 104.414C114.775 103.971 115.076 103.669 115.608 103.669C116.078 103.669 116.344 103.873 116.353 104.307L115.413 104.573C114.536 104.822 113.614 105.203 113.614 106.187C113.614 107.082 114.403 107.401 115.094 107.401C115.759 107.401 116.22 107.109 116.406 106.683H116.45V107.312H117.585V104.644C117.585 104.148 117.55 103.944 117.452 103.705ZM115.387 106.497C115.032 106.497 114.837 106.346 114.837 106.063C114.837 105.735 115.094 105.531 115.644 105.371L116.433 105.105C116.388 105.956 115.972 106.497 115.387 106.497ZM121.158 102.756C120.59 102.756 120.129 102.969 119.828 103.43V102.845H118.596V107.312H119.828V104.884C119.828 104.033 120.289 103.74 120.759 103.74C121.184 103.74 121.521 103.988 121.521 104.582V107.312H122.744V104.325C122.744 103.332 122.212 102.756 121.158 102.756ZM127.407 103.705C127.177 103.102 126.574 102.756 125.59 102.756C124.535 102.756 123.737 103.261 123.569 104.228L124.668 104.414C124.73 103.971 125.032 103.669 125.563 103.669C126.033 103.669 126.299 103.873 126.308 104.307L125.368 104.573C124.491 104.822 123.569 105.203 123.569 106.187C123.569 107.082 124.358 107.401 125.049 107.401C125.714 107.401 126.175 107.109 126.361 106.683H126.406V107.312H127.54V104.644C127.54 104.148 127.505 103.944 127.407 103.705ZM125.342 106.497C124.987 106.497 124.792 106.346 124.792 106.063C124.792 105.735 125.049 105.531 125.599 105.371L126.388 105.105C126.344 105.956 125.927 106.497 125.342 106.497ZM131.654 103.394C131.405 103.013 130.927 102.756 130.324 102.756C129.225 102.756 128.32 103.616 128.32 104.857C128.32 106.107 129.225 106.985 130.315 106.985C130.9 106.985 131.405 106.727 131.654 106.337V106.852C131.654 107.49 131.37 107.968 130.563 107.968C130.014 107.968 129.659 107.703 129.42 107.162L128.418 107.658C128.746 108.421 129.429 108.917 130.608 108.917C131.999 108.917 132.877 108.226 132.877 106.789L132.886 102.845H131.654V103.394ZM130.608 106.036C129.969 106.036 129.544 105.584 129.544 104.884C129.544 104.166 129.969 103.722 130.608 103.722C131.246 103.722 131.654 104.166 131.654 104.884C131.654 105.593 131.246 106.036 130.608 106.036ZM138.367 105.043C138.358 103.563 137.392 102.756 136.08 102.756C134.768 102.756 133.74 103.634 133.74 105.079C133.74 106.524 134.68 107.401 136.142 107.401C137.171 107.401 137.977 106.887 138.27 105.974L137.135 105.823C136.967 106.231 136.612 106.435 136.142 106.435C135.504 106.435 135.016 106.045 134.954 105.327H138.35L138.367 105.043ZM136.089 103.687C136.612 103.687 137.011 103.962 137.126 104.449H135.016C135.158 103.935 135.539 103.687 136.089 103.687ZM144.632 102.756C143.994 102.756 143.48 102.978 143.143 103.386C142.895 102.978 142.416 102.756 141.769 102.756C141.21 102.756 140.758 102.978 140.457 103.368V102.845H139.225V107.312H140.457V104.857C140.457 104.015 140.865 103.731 141.334 103.731C141.76 103.731 142.088 103.988 142.088 104.494V107.312H143.32V104.857C143.32 104.006 143.728 103.731 144.198 103.731C144.623 103.731 144.951 103.979 144.951 104.494V107.312H146.174V104.077C146.174 103.253 145.598 102.756 144.632 102.756ZM151.612 105.043C151.603 103.563 150.637 102.756 149.325 102.756C148.013 102.756 146.985 103.634 146.985 105.079C146.985 106.524 147.924 107.401 149.387 107.401C150.415 107.401 151.222 106.887 151.515 105.974L150.38 105.823C150.211 106.231 149.857 106.435 149.387 106.435C148.749 106.435 148.261 106.045 148.199 105.327H151.594L151.612 105.043ZM149.334 103.687C149.857 103.687 150.256 103.962 150.371 104.449H148.261C148.403 103.935 148.784 103.687 149.334 103.687ZM155.031 102.756C154.464 102.756 154.003 102.969 153.702 103.43V102.845H152.469V107.312H153.702V104.884C153.702 104.033 154.163 103.74 154.632 103.74C155.058 103.74 155.395 103.988 155.395 104.582V107.312H156.618V104.325C156.618 103.332 156.086 102.756 155.031 102.756ZM160.121 107.312V106.266H159.447C159.243 106.266 159.154 106.187 159.154 105.983V103.784H160.121V102.845H159.154V101.329H157.931V102.845H157.213V103.784H157.931V106.134C157.931 106.905 158.339 107.312 159.101 107.312H160.121ZM76.7827 112.232H70.2047V121.312H76.7827V119.604H72.1552V117.6H76.4195V115.918H72.1552V113.927H76.7827V112.232ZM84.7019 116.725L87.7151 112.232H85.4552L83.4509 115.273L81.4465 112.232H79.1866L82.1998 116.725L79.0117 121.312H81.3389L83.4509 118.232L85.5628 121.312H87.89L84.7019 116.725ZM90.4026 112.232V121.312H92.3531V117.936H94.3171C96.3618 117.936 97.6263 117.115 97.6263 115.098C97.6263 113.066 96.3618 112.232 94.3171 112.232H90.4026ZM92.3531 116.241V113.927H94.2498C95.2049 113.927 95.6757 114.25 95.6757 115.098C95.6757 115.918 95.2184 116.241 94.2498 116.241H92.3531ZM106.948 112.232H100.37V121.312H106.948V119.604H102.321V117.6H106.585V115.918H102.321V113.927H106.948V112.232ZM113.374 121.312C116.549 121.312 118.271 119.873 118.271 116.766C118.271 113.699 116.562 112.232 113.374 112.232H109.944V121.312H113.374ZM111.881 113.927H113.361C115.217 113.927 116.32 114.842 116.32 116.766C116.32 118.662 115.257 119.604 113.361 119.604H111.881V113.927ZM123.136 121.312V112.232H121.185V121.312H123.136ZM125.881 112.232V113.927H128.733V121.312H130.684V113.927H133.536V112.232H125.881ZM138.237 121.312V112.232H136.286V121.312H138.237ZM145.776 121.487C148.507 121.487 150.444 119.564 150.444 116.766C150.444 113.968 148.507 112.044 145.776 112.044C143.059 112.044 141.121 113.968 141.121 116.766C141.121 119.564 143.059 121.487 145.776 121.487ZM145.776 119.698C144.202 119.698 143.059 118.528 143.059 116.766C143.059 115.004 144.202 113.833 145.776 113.833C147.377 113.833 148.493 115.004 148.493 116.766C148.493 118.528 147.377 119.698 145.776 119.698ZM159.613 118.555L155.645 112.232H153.331V121.312H155.282V114.95L159.223 121.312H161.564V112.232H159.613V118.555Z" fill="white"/>
<line x1="157.659" y1="88.7122" x2="69.4787" y2="88.7122" stroke="#F0DF31" stroke-width="0.736814" stroke-linecap="round"/>
</g>
<defs>
<clipPath id="clip0_1380_7164">
<rect width="454" height="168" fill="white"/>
</clipPath>
</defs>
</svg>
