<svg width="454" height="168" viewBox="0 0 454 168" fill="none" xmlns="http://www.w3.org/2000/svg">
<g clip-path="url(#clip0_1380_6885)">
<rect width="454" height="168" fill="#1A074E"/>
<path d="M-121 -78L-551 -28.526V182.5H81.0897L187.5 168L203 53.9141L-121 -78Z" fill="#2D1373"/>
<g clip-path="url(#clip1_1380_6885)">
<path d="M247.01 53.2655L242.656 69.5166C238.591 67.9258 236.296 63.585 237.416 59.4038C238.537 55.2226 242.695 52.6108 247.01 53.2655Z" stroke="white" stroke-width="2"/>
<path d="M245.601 73.0558L249.955 56.8047C254.02 58.3955 256.315 62.7363 255.195 66.9175C254.074 71.0987 249.916 73.7105 245.601 73.0558Z" stroke="white" stroke-width="2"/>
<path d="M242.29 75.9048H250.234" stroke="white" stroke-width="2"/>
<path d="M242.29 81.5347H250.234" stroke="white" stroke-width="2"/>
<path d="M242.29 78.7197H250.234" stroke="white" stroke-width="2"/>
</g>
<path d="M275.848 71.176V58.144H278.26C282.22 58.144 284.56 60.52 284.56 64.624C284.56 68.8 282.22 71.176 278.26 71.176H275.848ZM269.728 76H278.692C286.216 76 290.86 71.752 290.86 64.66C290.86 57.568 286.216 53.32 278.692 53.32H269.728V76ZM293.318 53.32V76H299.438V53.32H293.318ZM301.872 67.972C301.872 73.444 306.264 76.432 312.42 76.432C317.712 76.432 321.888 74.02 321.888 69.196C321.888 65.488 319.728 63.004 314.976 62.176L310.692 61.42C309.288 61.168 308.424 60.772 308.424 59.728C308.424 58.468 309.576 57.676 311.592 57.676C313.932 57.676 315.624 58.756 315.804 61.096L321.42 60.988C321.312 55.948 317.928 52.888 311.664 52.888C306.012 52.888 302.412 55.66 302.412 60.268C302.412 64.228 305.004 66.316 308.712 67L312.852 67.72C314.58 68.044 315.912 68.26 315.912 69.592C315.912 70.852 314.544 71.608 312.42 71.608C309.9 71.608 307.704 70.636 307.488 67.792L301.872 67.972ZM345.268 76C344.512 75.172 344.404 74.164 344.08 70.78C343.828 68.152 342.46 66.82 340.12 66.352C342.892 65.992 344.944 63.832 344.944 60.52C344.944 56.092 342.028 53.32 336.16 53.32H324.712V76H330.724V68.476H334.792C336.844 68.476 337.96 69.052 338.14 71.644C338.32 73.984 338.608 75.388 339.076 76H345.268ZM330.724 63.76V58.216H335.08C337.672 58.216 338.968 59.188 338.968 61.024C338.968 63.112 337.672 63.76 335.08 63.76H330.724ZM357.786 76.432C363.618 76.432 368.118 73.624 368.118 67V53.32H361.998V65.992C361.998 69.448 360.954 71.284 357.786 71.284C354.654 71.284 353.574 69.448 353.574 65.992V53.32H347.49V67C347.49 73.624 351.954 76.432 357.786 76.432ZM377.484 64.012V58.216H381.084C383.82 58.216 384.864 59.224 384.864 61.132C384.864 63.04 383.82 64.012 381.084 64.012H377.484ZM377.484 68.908H381.372C387.312 68.908 390.768 66.136 390.768 61.096C390.768 56.092 387.312 53.32 381.372 53.32H371.4V76H377.484V68.908ZM405.772 76V58.36H413.656V53.32H391.912V58.36H399.688V76H405.772Z" fill="white"/>
<path d="M268.911 101.329V107.312H270.196V105.088H271.491C272.838 105.088 273.671 104.547 273.671 103.217C273.671 101.879 272.838 101.329 271.491 101.329H268.911ZM270.196 103.971V102.446H271.446C272.076 102.446 272.386 102.659 272.386 103.217C272.386 103.758 272.085 103.971 271.446 103.971H270.196ZM275.613 102.845H274.39V107.312H275.613V105.265C275.613 104.237 276.083 103.9 277.138 103.9V102.756C276.429 102.756 275.879 103.058 275.613 103.501V102.845ZM279.93 107.401C281.348 107.401 282.35 106.515 282.35 105.07C282.35 103.643 281.348 102.756 279.93 102.756C278.512 102.756 277.501 103.643 277.501 105.07C277.501 106.515 278.512 107.401 279.93 107.401ZM279.93 106.399C279.212 106.399 278.733 105.859 278.733 105.07C278.733 104.299 279.212 103.758 279.93 103.758C280.648 103.758 281.127 104.299 281.127 105.07C281.127 105.859 280.648 106.399 279.93 106.399ZM286.571 103.377C286.252 102.978 285.755 102.756 285.17 102.756C283.974 102.756 282.998 103.634 282.998 105.088C282.998 106.541 283.974 107.401 285.17 107.401C285.755 107.401 286.252 107.188 286.571 106.798V107.312H287.803V101.329H286.571V103.377ZM285.427 106.382C284.745 106.382 284.231 105.903 284.231 105.088C284.231 104.272 284.745 103.767 285.427 103.767C286.119 103.767 286.624 104.272 286.624 105.088C286.624 105.903 286.119 106.382 285.427 106.382ZM291.736 105.274C291.736 106.125 291.275 106.417 290.796 106.417C290.371 106.417 290.034 106.169 290.034 105.575V102.845H288.811V105.832C288.811 106.816 289.343 107.401 290.406 107.401C290.974 107.401 291.435 107.18 291.736 106.71V107.312H292.959V102.845H291.736V105.274ZM296.213 107.401C297.339 107.401 298.207 106.798 298.42 105.735L297.286 105.628C297.144 106.151 296.754 106.399 296.257 106.399C295.522 106.399 295.034 105.859 295.034 105.07C295.034 104.29 295.522 103.758 296.257 103.758C296.869 103.758 297.339 104.174 297.392 104.857L298.527 104.751C298.42 103.483 297.481 102.756 296.213 102.756C294.786 102.756 293.802 103.696 293.802 105.07C293.802 106.453 294.786 107.401 296.213 107.401ZM301.839 107.312V106.266H301.165C300.961 106.266 300.873 106.187 300.873 105.983V103.784H301.839V102.845H300.873V101.329H299.65V102.845H298.932V103.784H299.65V106.134C299.65 106.905 300.057 107.312 300.82 107.312H301.839ZM308.36 104.919L307.208 101.329H305.027V107.312H306.312V102.074L307.926 107.312H308.794L310.417 102.074V107.312H311.702V101.329H309.512L308.36 104.919ZM316.452 103.705C316.222 103.102 315.619 102.756 314.635 102.756C313.58 102.756 312.782 103.261 312.614 104.228L313.713 104.414C313.775 103.971 314.076 103.669 314.608 103.669C315.078 103.669 315.344 103.873 315.353 104.307L314.413 104.573C313.536 104.822 312.614 105.203 312.614 106.187C312.614 107.082 313.403 107.401 314.094 107.401C314.759 107.401 315.22 107.109 315.406 106.683H315.45V107.312H316.585V104.644C316.585 104.148 316.55 103.944 316.452 103.705ZM314.387 106.497C314.032 106.497 313.837 106.346 313.837 106.063C313.837 105.735 314.094 105.531 314.644 105.371L315.433 105.105C315.388 105.956 314.972 106.497 314.387 106.497ZM320.158 102.756C319.59 102.756 319.129 102.969 318.828 103.43V102.845H317.596V107.312H318.828V104.884C318.828 104.033 319.289 103.74 319.759 103.74C320.184 103.74 320.521 103.988 320.521 104.582V107.312H321.744V104.325C321.744 103.332 321.212 102.756 320.158 102.756ZM326.407 103.705C326.177 103.102 325.574 102.756 324.59 102.756C323.535 102.756 322.737 103.261 322.569 104.228L323.668 104.414C323.73 103.971 324.032 103.669 324.563 103.669C325.033 103.669 325.299 103.873 325.308 104.307L324.368 104.573C323.491 104.822 322.569 105.203 322.569 106.187C322.569 107.082 323.358 107.401 324.049 107.401C324.714 107.401 325.175 107.109 325.361 106.683H325.406V107.312H326.54V104.644C326.54 104.148 326.505 103.944 326.407 103.705ZM324.342 106.497C323.987 106.497 323.792 106.346 323.792 106.063C323.792 105.735 324.049 105.531 324.599 105.371L325.388 105.105C325.344 105.956 324.927 106.497 324.342 106.497ZM330.654 103.394C330.405 103.013 329.927 102.756 329.324 102.756C328.225 102.756 327.32 103.616 327.32 104.857C327.32 106.107 328.225 106.985 329.315 106.985C329.9 106.985 330.405 106.727 330.654 106.337V106.852C330.654 107.49 330.37 107.968 329.563 107.968C329.014 107.968 328.659 107.703 328.42 107.162L327.418 107.658C327.746 108.421 328.429 108.917 329.608 108.917C330.999 108.917 331.877 108.226 331.877 106.789L331.886 102.845H330.654V103.394ZM329.608 106.036C328.969 106.036 328.544 105.584 328.544 104.884C328.544 104.166 328.969 103.722 329.608 103.722C330.246 103.722 330.654 104.166 330.654 104.884C330.654 105.593 330.246 106.036 329.608 106.036ZM337.367 105.043C337.358 103.563 336.392 102.756 335.08 102.756C333.768 102.756 332.74 103.634 332.74 105.079C332.74 106.524 333.68 107.401 335.142 107.401C336.171 107.401 336.977 106.887 337.27 105.974L336.135 105.823C335.967 106.231 335.612 106.435 335.142 106.435C334.504 106.435 334.016 106.045 333.954 105.327H337.35L337.367 105.043ZM335.089 103.687C335.612 103.687 336.011 103.962 336.126 104.449H334.016C334.158 103.935 334.539 103.687 335.089 103.687ZM343.632 102.756C342.994 102.756 342.48 102.978 342.143 103.386C341.895 102.978 341.416 102.756 340.769 102.756C340.21 102.756 339.758 102.978 339.457 103.368V102.845H338.225V107.312H339.457V104.857C339.457 104.015 339.865 103.731 340.334 103.731C340.76 103.731 341.088 103.988 341.088 104.494V107.312H342.32V104.857C342.32 104.006 342.728 103.731 343.198 103.731C343.623 103.731 343.951 103.979 343.951 104.494V107.312H345.174V104.077C345.174 103.253 344.598 102.756 343.632 102.756ZM350.612 105.043C350.603 103.563 349.637 102.756 348.325 102.756C347.013 102.756 345.985 103.634 345.985 105.079C345.985 106.524 346.924 107.401 348.387 107.401C349.415 107.401 350.222 106.887 350.515 105.974L349.38 105.823C349.211 106.231 348.857 106.435 348.387 106.435C347.749 106.435 347.261 106.045 347.199 105.327H350.594L350.612 105.043ZM348.334 103.687C348.857 103.687 349.256 103.962 349.371 104.449H347.261C347.403 103.935 347.784 103.687 348.334 103.687ZM354.031 102.756C353.464 102.756 353.003 102.969 352.702 103.43V102.845H351.469V107.312H352.702V104.884C352.702 104.033 353.163 103.74 353.632 103.74C354.058 103.74 354.395 103.988 354.395 104.582V107.312H355.618V104.325C355.618 103.332 355.086 102.756 354.031 102.756ZM359.121 107.312V106.266H358.447C358.243 106.266 358.154 106.187 358.154 105.983V103.784H359.121V102.845H358.154V101.329H356.931V102.845H356.213V103.784H356.931V106.134C356.931 106.905 357.339 107.312 358.101 107.312H359.121ZM275.783 112.232H269.205V121.312H275.783V119.604H271.155V117.6H275.419V115.918H271.155V113.927H275.783V112.232ZM283.702 116.725L286.715 112.232H284.455L282.451 115.273L280.447 112.232H278.187L281.2 116.725L278.012 121.312H280.339L282.451 118.232L284.563 121.312H286.89L283.702 116.725ZM289.403 112.232V121.312H291.353V117.936H293.317C295.362 117.936 296.626 117.115 296.626 115.098C296.626 113.066 295.362 112.232 293.317 112.232H289.403ZM291.353 116.241V113.927H293.25C294.205 113.927 294.676 114.25 294.676 115.098C294.676 115.918 294.218 116.241 293.25 116.241H291.353ZM305.948 112.232H299.37V121.312H305.948V119.604H301.321V117.6H305.585V115.918H301.321V113.927H305.948V112.232ZM312.374 121.312C315.549 121.312 317.271 119.873 317.271 116.766C317.271 113.699 315.562 112.232 312.374 112.232H308.944V121.312H312.374ZM310.881 113.927H312.361C314.217 113.927 315.32 114.842 315.32 116.766C315.32 118.662 314.257 119.604 312.361 119.604H310.881V113.927ZM322.136 121.312V112.232H320.185V121.312H322.136ZM324.881 112.232V113.927H327.733V121.312H329.684V113.927H332.536V112.232H324.881ZM337.237 121.312V112.232H335.286V121.312H337.237ZM344.776 121.487C347.507 121.487 349.444 119.564 349.444 116.766C349.444 113.968 347.507 112.044 344.776 112.044C342.059 112.044 340.121 113.968 340.121 116.766C340.121 119.564 342.059 121.487 344.776 121.487ZM344.776 119.698C343.202 119.698 342.059 118.528 342.059 116.766C342.059 115.004 343.202 113.833 344.776 113.833C346.377 113.833 347.493 115.004 347.493 116.766C347.493 118.528 346.377 119.698 344.776 119.698ZM358.613 118.555L354.645 112.232H352.331V121.312H354.282V114.95L358.223 121.312H360.564V112.232H358.613V118.555Z" fill="white"/>
<line x1="356.659" y1="88.7141" x2="268.479" y2="88.7141" stroke="#F0DF31" stroke-width="0.736814" stroke-linecap="round"/>
<path d="M161.521 117.965L87.6117 100.664C86.8875 104.007 86.1624 107.35 85.4366 110.694L87.5422 100.366C85.4787 93.9177 83.4119 87.4692 81.3418 81.0208L155.283 98.3373C157.358 104.877 159.438 111.419 161.521 117.965Z" fill="#8D1062" stroke="#231F20" stroke-width="0.188612" stroke-miterlimit="10"/>
<path d="M167.243 119.305L165.137 129.332L85.4341 110.681C86.1583 107.338 86.8833 103.994 87.6092 100.651L161.518 117.965L167.176 119.29C167.198 119.292 167.221 119.297 167.243 119.305V119.305Z" fill="#C82D93"/>
<path d="M149.491 105.132V105.139L108.01 118.57V79.1819L149.491 105.132Z" fill="#E757B5" stroke="#231F20" stroke-width="0.188612" stroke-miterlimit="10"/>
<path d="M87.5384 100.354L85.4328 110.681C82.149 100.344 78.8661 90.0098 75.584 79.679L77.6897 69.6616C77.7045 69.7038 77.7194 69.7484 77.7318 69.7906C78.9322 73.5373 80.1343 77.2849 81.338 81.0332C83.3965 87.4701 85.4634 93.9103 87.5384 100.354Z" fill="#5F0640" stroke="#231F20" stroke-width="0.188612" stroke-miterlimit="10"/>
<path d="M107.982 118.479L89.3885 124.497L47.6723 98.3978L107.532 79.0186L107.982 79.3009V118.479Z" fill="#C82D93" stroke="black" stroke-width="0.330898"/>
<path d="M157.393 88.2976L155.287 98.325L81.3386 81.0183L75.5771 79.6741C76.2914 76.3672 77.0074 73.0677 77.725 69.7757C77.7293 69.7318 77.7384 69.6886 77.7523 69.6467L157.393 88.2976Z" fill="#FC97D9" stroke="#231F20" stroke-width="0.188612" stroke-miterlimit="10"/>
<path d="M149.49 105.14V147.752L89.2292 167.259L89.2144 167.251V124.654L89.2243 124.652L149.49 105.14Z" fill="#E757B5" stroke="#231F20" stroke-width="0.188612" stroke-miterlimit="10"/>
<path d="M89.2123 124.645V167.252L47.1436 140.932V98.3252L89.2123 124.645Z" fill="#FC97D9" stroke="#231F20" stroke-width="0.188612" stroke-miterlimit="10"/>
<path d="M102.633 90.6237C101.409 91.4161 100.096 92.0629 98.7221 92.5508L98.2261 92.7145V92.6674C98.3176 92.5067 98.4004 92.3411 98.4741 92.1714C98.4741 92.1714 98.5659 91.9606 98.6378 91.7324C98.748 91.337 98.8178 90.9315 98.8461 90.5221V90.4948C98.8461 90.4253 98.8585 90.3559 98.861 90.2815C100.729 89.6342 102.333 88.5627 103.38 87.0573C103.464 87.055 103.547 87.0416 103.628 87.0176C103.93 88.399 103.142 89.4655 102.633 90.6237Z" fill="#229486" stroke="#010101" stroke-width="0.0926516" stroke-miterlimit="10"/>
<path d="M98.8469 90.2789C98.849 90.3503 98.8449 90.4216 98.8345 90.4922V90.5319C98.8062 90.9414 98.7364 91.3469 98.6262 91.7422C98.5542 91.9704 98.4625 92.1812 98.4625 92.1812C98.3888 92.3509 98.306 92.5165 98.2145 92.6773V92.7269C94.1123 93.9918 90.0076 93.3444 85.9078 90.6311C85.4118 89.4828 84.6181 88.399 84.9381 87.0374C85.0186 87.0618 85.102 87.0751 85.1861 87.077C87.7779 90.837 94.1197 91.9183 98.8469 90.2789Z" fill="#43C6B6" stroke="#010101" stroke-width="0.0926516" stroke-miterlimit="10"/>
<path d="M98.8506 90.2793C98.8532 90.3507 98.8482 90.4222 98.8357 90.4926C98.8308 90.4216 98.8308 90.3503 98.8357 90.2793H98.8506Z" fill="#43C6B6" stroke="#010101" stroke-width="0.0926516" stroke-miterlimit="10"/>
<path d="M102.636 93.523C101.758 94.8946 100.258 95.8742 98.4968 96.4571L98.1992 96.5513V94.6292C98.3331 94.5945 98.4646 94.5573 98.596 94.5151C100.198 94.0315 101.609 93.2601 102.614 92.2061C102.629 92.645 102.631 93.084 102.636 93.523Z" fill="#229486" stroke="#010101" stroke-width="0.0926516" stroke-miterlimit="10"/>
<path d="M98.2061 94.6282V96.5503C93.8485 97.8648 88.0374 96.8504 85.9243 93.522V92.2075C88.5607 94.9704 93.9601 95.7691 98.2061 94.6282Z" fill="#43C6B6" stroke="#010101" stroke-width="0.0926516" stroke-miterlimit="10"/>
<path d="M102.633 90.624V92.2064C101.641 93.2605 100.217 94.0318 98.6126 94.5154C98.4812 94.5576 98.3473 94.5948 98.2158 94.6295V92.7272L98.7119 92.5635C100.09 92.0728 101.406 91.4218 102.633 90.624V90.624Z" fill="#229486" stroke="#010101" stroke-width="0.0926516" stroke-miterlimit="10"/>
<path d="M98.2184 92.727V94.6417C93.9748 95.7826 88.573 94.984 85.9341 92.2211V90.6189C90.014 93.3322 94.1187 93.9795 98.2184 92.727Z" fill="#43C6B6" stroke="#010101" stroke-width="0.0926516" stroke-miterlimit="10"/>
<path d="M102.576 94.8564C102.576 95.2855 102.576 95.7121 102.564 96.1412C102.531 96.3549 102.482 96.5656 102.415 96.7711V96.7711C101.423 98.3833 99.9595 99.2389 98.3003 99.725L98.1763 99.7597V97.9914C98.2507 97.9691 98.3251 97.9443 98.397 97.917C100.205 97.3069 101.725 96.2751 102.576 94.8564Z" fill="#229486" stroke="#010101" stroke-width="0.0926516" stroke-miterlimit="10"/>
<path d="M98.1872 97.9939V99.7623C97.6091 99.9211 97.0219 100.044 96.4288 100.132C93.2665 100.628 87.9962 100.201 85.9848 96.5058C85.9524 96.386 85.9275 96.2642 85.9104 96.1412L85.8979 94.4771H85.9153V94.792C88.0607 98.4106 93.8692 99.3853 98.1872 97.9939Z" fill="#43C6B6" stroke="#010101" stroke-width="0.0926516" stroke-miterlimit="10"/>
<path d="M102.415 96.7747C102.088 97.7667 101.356 98.4438 100.394 98.9225C99.7166 99.2595 99.0162 99.5471 98.2978 99.7831C98.258 99.7986 98.2175 99.8118 98.1763 99.8228V99.7633L98.3003 99.7285C99.962 99.2424 101.418 98.3942 102.415 96.7747Z" fill="#43C6B6" stroke="#010101" stroke-width="0.0926516" stroke-miterlimit="10"/>
<path d="M97.222 101.882C96.4333 103.697 96.0786 104.268 95.9075 104.362C95.7791 104.435 95.6649 104.531 95.5702 104.644C95.4932 104.734 95.4297 104.834 95.3817 104.942C95.2924 105.111 95.0692 105.302 94.4665 105.398C93.6196 105.433 92.7774 105.255 92.0161 104.883C91.0736 104.466 90.094 104.111 89.1912 103.62C88.0577 103.003 87.3435 102.075 87.4948 100.681C87.8891 100.535 88.219 100.731 88.5538 100.887C91.3894 102.245 94.2218 102.588 97.0509 101.919L97.222 101.882Z" fill="#43C6B6" stroke="#010101" stroke-width="0.0926516" stroke-miterlimit="10"/>
<path d="M98.3155 104.151C97.7128 104.439 97.0754 104.647 96.4529 104.895C95.8321 105.196 95.1577 105.372 94.4688 105.411C95.069 105.314 95.2946 105.123 95.3839 104.955C95.4943 104.713 95.6795 104.513 95.9122 104.384C96.0833 104.282 96.4405 103.712 97.2242 101.904C98.1568 101.666 99.0626 101.334 99.9276 100.912C100.26 100.756 100.592 100.56 100.987 100.706C101.148 102.648 99.7887 103.454 98.3155 104.151Z" fill="#229486" stroke="#010101" stroke-width="0.0926516" stroke-miterlimit="10"/>
<path d="M102.633 93.5229L102.621 94.7829L102.576 94.8573C101.725 96.2759 100.205 97.3077 98.4068 97.9203C98.3348 97.9476 98.2604 97.9724 98.186 97.9947V96.5512L98.4837 96.457C100.254 95.8742 101.755 94.8945 102.633 93.5229Z" fill="#229486" stroke="#010101" stroke-width="0.0926516" stroke-miterlimit="10"/>
<path d="M98.197 96.5512V97.9947C93.8765 99.3737 88.0705 98.4114 85.9375 94.7854V93.5229C88.0357 96.8513 93.8517 97.8657 98.197 96.5512Z" fill="#43C6B6" stroke="#010101" stroke-width="0.0926516" stroke-miterlimit="10"/>
<path d="M102.607 98.0028L102.57 98.0549V97.7697C101.767 98.5881 101.132 99.5331 100.023 100.099C99.4506 100.394 98.855 100.643 98.2423 100.843L98.1729 100.862V99.7736L98.2969 99.7389C99.9586 99.2429 101.414 98.3971 102.411 96.785C102.478 96.6809 102.54 96.5767 102.6 96.4651C102.605 96.9744 102.607 97.4869 102.607 98.0028Z" fill="#229486" stroke="#010101" stroke-width="0.0926516" stroke-miterlimit="10"/>
<path d="M98.1766 99.7628V100.852C96.204 101.429 94.128 101.563 92.0976 101.243C89.6894 100.911 87.3853 100.073 85.9443 97.8208V96.4468C85.9527 96.4663 85.9635 96.4846 85.9766 96.5013C87.9781 100.197 93.2584 100.613 96.4206 100.127C97.0128 100.042 97.5992 99.9199 98.1766 99.7628Z" fill="#43C6B6" stroke="#010101" stroke-width="0.0926516" stroke-miterlimit="10"/>
<path d="M102.57 98.054C102.541 99.2023 101.992 100.068 100.983 100.685C100.115 101.286 99.1656 101.758 98.1631 102.087V102.087V100.847L98.2325 100.827C98.8456 100.628 99.4412 100.38 100.013 100.083C101.122 99.5173 101.749 98.5724 102.56 97.7539C102.571 97.8536 102.574 97.9539 102.57 98.054V98.054Z" fill="#229486" stroke="#010101" stroke-width="0.0926516" stroke-miterlimit="10"/>
<path d="M98.1708 100.852V102.092C94.6564 103.261 90.5219 102.794 87.506 100.691C86.4172 100.021 85.8666 99.0641 85.9212 97.772L85.9534 97.8216C87.3845 100.074 89.6985 100.912 92.1067 101.244C94.1323 101.56 96.2027 101.426 98.1708 100.852V100.852Z" fill="#43C6B6" stroke="#010101" stroke-width="0.0926516" stroke-miterlimit="10"/>
<path d="M107.841 79.334C107.052 80.2071 106.167 80.9933 105.403 81.8837C104.141 83.3519 103.444 85.0533 103.56 87.0325C103.453 87.1483 103.352 87.27 103.258 87.3971C102.474 89.4606 100.587 90.2344 98.6942 90.7776C94.6416 91.9433 90.6659 91.7696 86.9878 89.4209C86.2214 88.9249 85.5766 88.3272 85.2839 87.4566L85.2616 87.4368C85.1549 87.2979 85.0458 87.1615 84.9292 87.0325C85.0408 85.036 84.329 83.4387 83.2402 82.0424C93.1609 83.1114 102.514 77.8261 105.857 69.5448C108.516 62.9575 107.137 55.0283 102.385 48.9048C104.712 49.97 106.789 51.5129 108.481 53.4331C110.173 55.3533 111.442 57.608 112.206 60.0507C114.538 67.33 112.901 73.7189 107.841 79.334Z" fill="#F0E266" stroke="#231F20" stroke-width="0.188612" stroke-miterlimit="10"/>
<path d="M105.856 69.5372C102.512 77.8086 93.1521 83.1037 83.2389 82.0249C82.7239 81.3806 82.1609 80.7762 81.5548 80.2168C80.6973 79.4165 79.9061 78.5481 79.1888 77.6201C77.1448 74.9879 75.8438 71.8558 75.4214 68.5501C75.032 65.6532 75.2081 62.7911 76.2919 60.0356C78.6282 52.3719 85.9497 47.0891 94.2434 47.0891C97.0556 47.1005 99.8321 47.719 102.383 48.9021C107.135 55.0282 108.514 62.9498 105.856 69.5372Z" fill="#F5EA87" stroke="#231F20" stroke-width="0.188612" stroke-miterlimit="10"/>
<path d="M78.8201 63.3915C77.6098 69.8127 81.1862 74.8797 81.9327 75.8941C81.2653 71.7286 81.6254 67.463 82.9819 63.4684C85.6257 55.7402 91.2061 51.6057 93.2027 50.2615C85.7894 51.5189 80.0552 56.824 78.8201 63.3915Z" fill="white" stroke="#FFF200" stroke-width="0.330898" stroke-miterlimit="10"/>
<path d="M167.239 119.017L167.179 119.302C166.5 122.65 165.818 125.997 165.133 129.344C163.931 125.554 162.727 121.765 161.522 117.977C159.443 111.43 157.363 104.883 155.282 98.3369L157.387 88.3096L167.239 119.017Z" fill="#FC97D9" stroke="#231F20" stroke-width="0.188612" stroke-miterlimit="10"/>
<path d="M123.333 51.6506L141.518 51.5935H160.766L159.774 52.0003L144.397 58.3371L136.709 61.4993L129.02 64.6442V64.2201L140.372 69.2846L151.699 74.3739L152.54 74.7534L151.622 74.6914C147.537 74.4186 143.437 74.1631 139.365 73.8754L127.113 73.0247L139.377 73.677C143.467 73.8878 147.562 74.1333 151.642 74.3615L151.565 74.6765L140.191 69.6765L128.822 64.6467L128.326 64.4284L128.822 64.2226L136.51 61.0554L144.199 57.9056L159.598 51.6133L159.677 52.0201L141.493 51.8663L123.333 51.6506Z" fill="#FFCC42"/>
<path d="M68.1798 84.9828L50.6598 89.8538L33.1225 94.6728L32.0957 94.9456L32.939 94.2933L46.0839 84.1098L52.6688 79.0229L59.2611 73.951L59.3677 74.3627L47.0834 72.4852L34.7991 70.5804L33.8864 70.439L34.7917 70.2555C38.8021 69.437 42.8101 68.5987 46.8255 67.7976L58.8692 65.3745L46.8627 67.9911C42.8621 68.8716 38.8567 69.7272 34.8537 70.5779V70.253L47.1504 72.066L59.4545 73.9063L59.9902 73.9857L59.5612 74.318L52.9738 79.4098L46.384 84.4843L33.1969 94.6282L33.0134 94.2561L50.5879 89.5909L68.1798 84.9828Z" fill="#FFCC42"/>
<path d="M70.0846 50.2612L52.4381 33.4381L52.0537 33.0735L52.5646 33.2174L73.9586 39.2194L73.7081 39.3657L83.227 1.58276L83.5172 0.427002L83.7057 1.60509L89.6408 38.7085L89.2489 38.6887L94.9806 17.5725L95.0922 17.1607L95.2311 17.5625L102.902 40.0875L94.9831 17.6493L95.2336 17.6394L89.6358 38.7928L89.3952 39.7006L89.2439 38.7705L83.2221 1.68197L83.7007 1.70429L74.1 39.465L74.0479 39.6659L73.8495 39.6088L52.4927 33.4704L52.6192 33.2496L70.0846 50.2612Z" fill="#FFCC42"/>
<path d="M98.1656 102.089L98.1631 102.112V102.089H98.1656Z" fill="#EF4570" stroke="#231F20" stroke-width="0.330898" stroke-miterlimit="10"/>
<path d="M78.9774 160.691L70.2323 155.235L60.9961 107.146L69.7437 112.603L78.9774 160.691Z" fill="white"/>
<path d="M142.71 95.2588C139.403 94.4899 136.103 93.7161 132.811 92.9373L125.914 81.0325L135.8 83.349L142.71 95.2588Z" fill="white"/>
<path d="M43.1387 53.8442C47.0499 53.8145 49.9864 53.6161 51.0529 53.3829C51.1943 53.3532 51.4349 53.2936 52.1516 53.1349C53.543 52.8224 53.7216 52.8026 53.9696 52.6637C54.6194 52.2966 54.9071 51.5724 55.103 50.8556C55.8471 48.1894 56.3803 41.7112 56.1224 41.7087C55.8644 41.7063 56.4944 49.2832 57.174 50.7316C57.5065 51.436 58.0084 52.047 58.6348 52.5099V52.5099C59.1599 52.8331 59.7428 53.0512 60.3511 53.1523C61.053 53.2664 64.8154 53.5615 69.9841 53.7574C64.8972 54.2237 61.1745 54.6776 60.1427 54.8338C60.1427 54.8338 58.9423 55.0174 58.2727 55.6696C58.1621 55.773 58.0646 55.8897 57.9825 56.0169C57.8138 56.2815 57.6952 56.5749 57.6328 56.8824C57.5286 57.4182 57.1368 60.7689 56.7027 65.3746C56.4994 63.9906 56.358 62.882 56.2712 62.1801C55.9215 59.318 55.8843 58.2118 55.0981 56.9717C54.7706 56.4528 54.3687 55.9848 53.9051 55.5828C53.3783 55.3057 52.829 55.0734 52.2632 54.8884C51.1486 54.5366 49.9871 54.3551 48.8183 54.3502C47.5509 54.3006 45.6883 54.1791 43.1387 53.8442Z" fill="white" stroke="#231F20" stroke-width="0.188612" stroke-miterlimit="10"/>
<path d="M121.431 156.467C125.342 156.438 128.279 156.237 129.345 156.006C129.487 155.974 129.727 155.914 130.444 155.758C131.835 155.443 132.014 155.426 132.262 155.284C132.912 154.92 133.2 154.193 133.396 153.479C134.14 150.812 134.673 144.334 134.415 144.332C134.157 144.329 134.787 151.904 135.464 153.355C135.798 154.061 136.302 154.673 136.93 155.138V155.138C137.457 155.458 138.04 155.676 138.649 155.778C139.348 155.892 143.113 156.189 148.282 156.385C143.192 156.852 139.472 157.306 138.44 157.462C138.44 157.462 137.24 157.645 136.57 158.295C136.46 158.4 136.362 158.516 136.277 158.642C136.111 158.909 135.992 159.203 135.928 159.51C135.824 160.044 135.432 163.394 134.998 168C134.794 166.616 134.653 165.52 134.566 164.808C134.216 161.946 134.179 160.84 133.393 159.6C133.067 159.08 132.666 158.612 132.203 158.211C131.676 157.932 131.125 157.7 130.558 157.516C129.444 157.162 128.282 156.98 127.113 156.978C125.831 156.926 123.981 156.805 121.431 156.467Z" fill="white" stroke="#231F20" stroke-width="0.188612" stroke-miterlimit="10"/>
</g>
<defs>
<clipPath id="clip0_1380_6885">
<rect width="454" height="168" fill="white"/>
</clipPath>
<clipPath id="clip1_1380_6885">
<rect width="36" height="33" fill="white" transform="translate(225 49)"/>
</clipPath>
</defs>
</svg>
