<svg width="454" height="168" viewBox="0 0 454 168" fill="none" xmlns="http://www.w3.org/2000/svg">
<g clip-path="url(#clip0_1380_7263)">
<rect width="454" height="168" fill="#15063E"/>
<circle cx="43.5" cy="65.5" r="17.5" fill="white"/>
<path d="M48.9816 65.4251C49.0066 68.3939 46.4816 70.9939 43.5691 70.9939C40.5378 70.9939 38.0628 68.5626 38.0316 65.5626C38.0003 62.5189 40.4066 60.0439 43.4128 60.0189C46.4128 59.9939 48.9503 62.4564 48.9753 65.4251H48.9816Z" fill="black"/>
<path d="M40.6943 49.4876C41.2568 49.4751 41.8755 49.4938 41.3068 50.2813C39.288 53.0563 40.713 55.3313 42.3068 57.6063C42.5818 57.9938 43.1943 58.4313 42.7568 58.8751C42.5068 59.1251 41.788 58.9938 41.3068 58.8938C40.5005 58.7376 39.688 58.5313 38.9193 58.2376C36.8068 57.4251 34.863 56.3313 35.013 53.6813C35.113 51.9313 38.6505 49.4751 40.6943 49.4938V49.4876Z" fill="black"/>
<path d="M47.3438 56.7938C47.3313 54.5876 47.6875 52.7001 49.9438 52.2251C52.475 51.6876 54.2313 53.2376 55.775 54.9751C56.1125 55.3501 56.3938 56.0251 55.4875 55.9813C52.1438 55.8438 50.8625 58.1626 49.6875 60.6688C49.525 61.0126 49.2375 61.2938 49.0125 61.6063C48.7188 61.2313 48.2875 60.9063 48.15 60.4813C47.7313 59.2126 47.225 57.9501 47.3438 56.7876V56.7938Z" fill="black"/>
<path d="M34.9942 61.7189C32.5129 61.7001 30.4692 61.2876 30.0942 58.8876C29.7004 56.4001 31.3067 54.6251 33.0879 53.1189C33.5629 52.7189 34.0504 52.7814 34.0067 53.6064C33.8442 56.7814 36.0504 58.1001 38.4504 59.2626C38.8942 59.4751 39.5817 59.5126 39.4629 60.1751C39.4129 60.4501 38.8692 60.7126 38.5067 60.8314C37.2379 61.2376 35.9942 61.8001 34.9942 61.7189Z" fill="black"/>
<path d="M52.1247 69.3376C54.5497 69.3939 56.506 69.8064 56.931 72.0376C57.4122 74.5564 55.781 76.3314 54.0247 77.8751C53.5935 78.2564 53.031 78.3626 53.0685 77.4564C53.1935 74.2751 51.031 72.9064 48.5747 71.7814C48.106 71.5689 47.4622 71.4564 47.5935 70.8251C47.6497 70.5501 48.231 70.3001 48.6185 70.1939C49.9122 69.8314 51.1622 69.2439 52.1247 69.3376Z" fill="black"/>
<path d="M39.7311 73.9938C39.6623 76.5 39.3123 78.4 37.0248 78.85C34.4623 79.3563 32.7311 77.7625 31.1936 76.0063C30.7998 75.5563 30.7873 75.0375 31.6498 75.075C34.6873 75.2188 35.9873 73.1125 37.1561 70.825C37.3811 70.3875 37.6248 69.675 37.9373 69.6313C38.7311 69.5125 38.7686 70.4 38.9373 70.9063C39.3186 72.075 39.5498 73.2938 39.7248 74L39.7311 73.9938Z" fill="black"/>
<path d="M45.2561 72.0065C46.2248 72.2377 46.9561 72.3377 47.6311 72.5877C49.8186 73.4065 52.2498 74.3877 51.9811 77.144C51.6936 80.0877 48.9561 80.8065 46.5373 81.5065C45.8873 81.694 45.1248 81.6565 45.8061 80.6752C47.6686 77.9815 46.3311 75.7815 44.8248 73.569C44.5436 73.1565 44.3498 72.6815 44.1123 72.2377L45.2686 72.0065H45.2561Z" fill="black"/>
<path d="M59.5506 62.6502C59.6381 63.2252 59.5693 63.8752 58.8318 63.3564C56.0256 61.3627 53.7443 62.7189 51.4693 64.3564C51.0943 64.6252 50.7193 65.2627 50.2068 64.7314C50.0006 64.5127 50.0693 63.9439 50.1381 63.5564C50.2881 62.7439 50.4256 61.9064 50.7318 61.1439C51.5631 59.0689 52.5756 57.0314 55.2381 57.0877C57.1006 57.1252 59.4256 60.2939 59.5443 62.6627L59.5506 62.6502Z" fill="black"/>
<path d="M45.9625 49.6688C46.925 49.8251 47.8625 49.9001 48.7562 50.1501C49.6125 50.3876 50.05 50.7563 48.8937 51.4001C46.2875 52.8563 46.2 55.3126 46.4375 57.8876C46.4812 58.3688 46.375 58.8688 46.3375 59.3563C45.875 59.1438 45.3875 58.9813 44.9625 58.7188C43.7875 57.9938 42.9937 56.9063 42.2812 55.7563C41.4187 54.3563 41.0375 52.8188 41.9 51.3563C42.7875 49.8563 44.4062 49.6876 45.9562 49.6626L45.9625 49.6688Z" fill="black"/>
<path d="M59.3686 67.9751C59.2748 68.7063 59.1936 69.3251 59.1061 69.9438C59.0186 70.5626 58.9186 71.2438 58.3123 71.4876C58.1748 71.5438 57.6811 70.8001 57.3936 70.3938C55.8123 68.1751 53.5248 68.3001 51.2061 68.4688C50.7248 68.5001 50.2311 68.3876 49.7373 68.3376C49.9373 67.8751 50.0748 67.3751 50.3498 66.9626C51.1123 65.8188 52.1311 64.9438 53.3373 64.2876C54.7498 63.5126 56.2561 62.9813 57.7436 63.9376C59.2248 64.8876 59.3811 66.4813 59.3686 67.9751Z" fill="black"/>
<path d="M28.1747 67.6313C31.0372 69.8 33.3934 68.3126 35.7247 66.5876C36.0309 66.3626 36.4309 66.2688 36.7872 66.1125C36.8372 66.5 36.9809 66.9 36.9247 67.275C36.8059 68.0875 36.6809 68.925 36.3934 69.6875C35.5684 71.8563 34.5559 74.2563 31.7934 73.9251C28.8684 73.5751 28.1872 70.8438 27.5309 68.4313C27.2934 67.5625 27.4497 67.5188 28.1684 67.6251L28.1747 67.6313Z" fill="black"/>
<path d="M27.7061 63.0376C27.7936 62.4189 27.8186 61.7814 27.9811 61.1876C28.1373 60.6064 28.4311 60.0626 28.6623 59.5001C29.0436 59.9439 29.4248 60.3876 29.7998 60.8376C31.3998 62.7376 33.5123 62.9064 35.7686 62.6439C36.2686 62.5876 37.0936 62.4564 37.2373 62.6939C37.6061 63.2814 37.0311 63.8376 36.6186 64.2439C35.7373 65.1126 34.8373 65.9876 33.8248 66.6939C32.4748 67.6376 30.8936 67.9626 29.3998 67.1439C27.8248 66.2814 27.7248 64.6439 27.7061 63.0439V63.0376Z" fill="black"/>
<path d="M41.2437 81.3938C40.4562 81.2875 39.825 81.2625 39.225 81.1C38.6437 80.9438 38.0938 80.6438 37.5312 80.4063C37.9813 80.0313 38.425 79.6563 38.8812 79.2813C40.8375 77.6876 40.8687 75.5376 40.6437 73.2938C40.5937 72.7876 40.4562 71.9563 40.6875 71.8188C41.275 71.4563 41.8313 72.0438 42.2313 72.4501C43.1063 73.3251 43.9875 74.2251 44.6937 75.2376C45.6312 76.5813 46.0062 78.1501 45.1812 79.6626C44.3187 81.2501 42.675 81.3313 41.25 81.3938H41.2437Z" fill="black"/>
<path d="M90.76 73.4H77.6V69.04H87.48V63.52H77.6V59.4H90.4V53.8H70.92V79H90.76V73.4ZM100.291 53.8H93.8106V79H100.051V64.08L110.931 79H116.371V53.8H110.131V67.76L100.291 53.8ZM119.097 66.4C119.097 74.16 124.657 79.48 132.017 79.48C139.737 79.48 143.857 74.6 144.337 68.32L137.817 68.04C137.417 70.84 135.897 73.44 131.977 73.44C128.257 73.44 126.097 70.68 126.097 66.4C126.097 62.12 128.257 59.36 131.977 59.36C135.897 59.36 137.417 61.96 137.817 64.76L144.337 64.52C143.857 58.24 139.737 53.32 132.017 53.32C124.657 53.32 119.097 58.64 119.097 66.4ZM172.015 66.4C172.015 58.64 166.255 53.32 158.935 53.32C151.615 53.32 145.855 58.64 145.855 66.4C145.855 74.16 151.615 79.48 158.935 79.48C166.255 79.48 172.015 74.16 172.015 66.4ZM165.015 66.4C165.015 70.68 162.655 73.48 158.935 73.48C155.215 73.48 152.855 70.68 152.855 66.4C152.855 62.12 155.215 59.32 158.935 59.32C162.655 59.32 165.015 62.12 165.015 66.4ZM181.548 73.64V59.16H184.228C188.628 59.16 191.228 61.8 191.228 66.36C191.228 71 188.628 73.64 184.228 73.64H181.548ZM174.748 79H184.708C193.068 79 198.228 74.28 198.228 66.4C198.228 58.52 193.068 53.8 184.708 53.8H174.748V79ZM220.799 73.4H207.639V69.04H217.519V63.52H207.639V59.4H220.439V53.8H200.959V79H220.799V73.4Z" fill="white"/>
<path d="M69.913 101.485V107.469H71.1984V105.244H72.4926C73.84 105.244 74.6733 104.703 74.6733 103.373C74.6733 102.035 73.84 101.485 72.4926 101.485H69.913ZM71.1984 104.127V102.602H72.4483C73.0777 102.602 73.3879 102.815 73.3879 103.373C73.3879 103.914 73.0865 104.127 72.4483 104.127H71.1984ZM76.615 103.001H75.3917V107.469H76.615V105.421C76.615 104.393 77.0848 104.056 78.1397 104.056V102.913C77.4305 102.913 76.8809 103.214 76.615 103.657V103.001ZM80.932 107.558C82.3503 107.558 83.352 106.671 83.352 105.226C83.352 103.799 82.3503 102.913 80.932 102.913C79.5137 102.913 78.5031 103.799 78.5031 105.226C78.5031 106.671 79.5137 107.558 80.932 107.558ZM80.932 106.556C80.214 106.556 79.7353 106.015 79.7353 105.226C79.7353 104.455 80.214 103.914 80.932 103.914C81.65 103.914 82.1287 104.455 82.1287 105.226C82.1287 106.015 81.65 106.556 80.932 106.556ZM87.5728 103.533C87.2536 103.134 86.7572 102.913 86.1722 102.913C84.9755 102.913 84.0004 103.79 84.0004 105.244C84.0004 106.698 84.9755 107.558 86.1722 107.558C86.7572 107.558 87.2536 107.345 87.5728 106.955V107.469H88.8049V101.485H87.5728V103.533ZM86.4292 106.538C85.7467 106.538 85.2325 106.059 85.2325 105.244C85.2325 104.428 85.7467 103.923 86.4292 103.923C87.1207 103.923 87.626 104.428 87.626 105.244C87.626 106.059 87.1207 106.538 86.4292 106.538ZM92.7381 105.43C92.7381 106.281 92.2771 106.574 91.7984 106.574C91.3729 106.574 91.0361 106.325 91.0361 105.731V103.001H89.8128V105.989C89.8128 106.972 90.3446 107.558 91.4084 107.558C91.9757 107.558 92.4367 107.336 92.7381 106.866V107.469H93.9614V103.001H92.7381V105.43ZM97.2149 107.558C98.3407 107.558 99.2094 106.955 99.4222 105.891L98.2875 105.785C98.1457 106.308 97.7556 106.556 97.2592 106.556C96.5235 106.556 96.0359 106.015 96.0359 105.226C96.0359 104.446 96.5235 103.914 97.2592 103.914C97.8709 103.914 98.3407 104.331 98.3939 105.013L99.5285 104.907C99.4222 103.639 98.4825 102.913 97.2149 102.913C95.7877 102.913 94.8038 103.852 94.8038 105.226C94.8038 106.609 95.7877 107.558 97.2149 107.558ZM102.841 107.469V106.423H102.167C101.963 106.423 101.875 106.343 101.875 106.139V103.941H102.841V103.001H101.875V101.485H100.651V103.001H99.9335V103.941H100.651V106.29C100.651 107.061 101.059 107.469 101.822 107.469H102.841ZM109.362 105.075L108.21 101.485H106.029V107.469H107.314V102.23L108.928 107.469H109.796L111.419 102.23V107.469H112.704V101.485H110.514L109.362 105.075ZM117.454 103.861C117.224 103.258 116.621 102.913 115.637 102.913C114.582 102.913 113.784 103.418 113.616 104.384L114.715 104.57C114.777 104.127 115.078 103.826 115.61 103.826C116.08 103.826 116.346 104.029 116.355 104.464L115.415 104.73C114.538 104.978 113.616 105.359 113.616 106.343C113.616 107.238 114.405 107.558 115.096 107.558C115.761 107.558 116.222 107.265 116.408 106.839H116.452V107.469H117.587V104.801C117.587 104.304 117.552 104.1 117.454 103.861ZM115.389 106.653C115.034 106.653 114.839 106.503 114.839 106.219C114.839 105.891 115.096 105.687 115.646 105.528L116.435 105.262C116.39 106.113 115.974 106.653 115.389 106.653ZM121.159 102.913C120.592 102.913 120.131 103.125 119.83 103.586V103.001H118.598V107.469H119.83V105.04C119.83 104.189 120.291 103.896 120.761 103.896C121.186 103.896 121.523 104.145 121.523 104.739V107.469H122.746V104.482C122.746 103.489 122.214 102.913 121.159 102.913ZM127.409 103.861C127.179 103.258 126.576 102.913 125.592 102.913C124.537 102.913 123.739 103.418 123.571 104.384L124.67 104.57C124.732 104.127 125.034 103.826 125.565 103.826C126.035 103.826 126.301 104.029 126.31 104.464L125.37 104.73C124.493 104.978 123.571 105.359 123.571 106.343C123.571 107.238 124.36 107.558 125.051 107.558C125.716 107.558 126.177 107.265 126.363 106.839H126.408V107.469H127.542V104.801C127.542 104.304 127.507 104.1 127.409 103.861ZM125.344 106.653C124.989 106.653 124.794 106.503 124.794 106.219C124.794 105.891 125.051 105.687 125.601 105.528L126.39 105.262C126.346 106.113 125.929 106.653 125.344 106.653ZM131.655 103.551C131.407 103.17 130.929 102.913 130.326 102.913C129.227 102.913 128.322 103.772 128.322 105.013C128.322 106.263 129.227 107.141 130.317 107.141C130.902 107.141 131.407 106.884 131.655 106.494V107.008C131.655 107.646 131.372 108.125 130.565 108.125C130.016 108.125 129.661 107.859 129.422 107.318L128.42 107.815C128.748 108.577 129.43 109.073 130.609 109.073C132.001 109.073 132.879 108.382 132.879 106.946L132.888 103.001H131.655V103.551ZM130.609 106.192C129.971 106.192 129.546 105.74 129.546 105.04C129.546 104.322 129.971 103.879 130.609 103.879C131.248 103.879 131.655 104.322 131.655 105.04C131.655 105.749 131.248 106.192 130.609 106.192ZM138.369 105.2C138.36 103.719 137.394 102.913 136.082 102.913C134.77 102.913 133.742 103.79 133.742 105.235C133.742 106.68 134.682 107.558 136.144 107.558C137.173 107.558 137.979 107.043 138.272 106.13L137.137 105.98C136.969 106.387 136.614 106.591 136.144 106.591C135.506 106.591 135.018 106.201 134.956 105.483H138.351L138.369 105.2ZM136.091 103.843C136.614 103.843 137.013 104.118 137.128 104.606H135.018C135.16 104.091 135.541 103.843 136.091 103.843ZM144.634 102.913C143.996 102.913 143.482 103.134 143.145 103.542C142.897 103.134 142.418 102.913 141.771 102.913C141.212 102.913 140.76 103.134 140.459 103.524V103.001H139.227V107.469H140.459V105.013C140.459 104.171 140.867 103.888 141.336 103.888C141.762 103.888 142.09 104.145 142.09 104.65V107.469H143.322V105.013C143.322 104.162 143.73 103.888 144.2 103.888C144.625 103.888 144.953 104.136 144.953 104.65V107.469H146.176V104.233C146.176 103.409 145.6 102.913 144.634 102.913ZM151.614 105.2C151.605 103.719 150.639 102.913 149.327 102.913C148.015 102.913 146.987 103.79 146.987 105.235C146.987 106.68 147.926 107.558 149.389 107.558C150.417 107.558 151.224 107.043 151.517 106.13L150.382 105.98C150.213 106.387 149.859 106.591 149.389 106.591C148.751 106.591 148.263 106.201 148.201 105.483H151.596L151.614 105.2ZM149.336 103.843C149.859 103.843 150.258 104.118 150.373 104.606H148.263C148.405 104.091 148.786 103.843 149.336 103.843ZM155.033 102.913C154.466 102.913 154.005 103.125 153.704 103.586V103.001H152.471V107.469H153.704V105.04C153.704 104.189 154.165 103.896 154.634 103.896C155.06 103.896 155.397 104.145 155.397 104.739V107.469H156.62V104.482C156.62 103.489 156.088 102.913 155.033 102.913ZM160.123 107.469V106.423H159.449C159.245 106.423 159.156 106.343 159.156 106.139V103.941H160.123V103.001H159.156V101.485H157.933V103.001H157.215V103.941H157.933V106.29C157.933 107.061 158.341 107.469 159.103 107.469H160.123ZM76.7846 112.389H70.2066V121.469H76.7846V119.76H72.1572V117.756H76.4214V116.075H72.1572V114.084H76.7846V112.389ZM84.7038 116.882L87.7171 112.389H85.4571L83.4528 115.429L81.4485 112.389H79.1885L82.2018 116.882L79.0137 121.469H81.3409L83.4528 118.388L85.5648 121.469H87.892L84.7038 116.882ZM90.4045 112.389V121.469H92.3551V118.092H94.319C96.3637 118.092 97.6282 117.272 97.6282 115.254C97.6282 113.223 96.3637 112.389 94.319 112.389H90.4045ZM92.3551 116.397V114.084H94.2518C95.2069 114.084 95.6777 114.407 95.6777 115.254C95.6777 116.075 95.2203 116.397 94.2518 116.397H92.3551ZM106.95 112.389H100.372V121.469H106.95V119.76H102.323V117.756H106.587V116.075H102.323V114.084H106.95V112.389ZM113.376 121.469C116.551 121.469 118.273 120.03 118.273 116.922C118.273 113.855 116.564 112.389 113.376 112.389H109.946V121.469H113.376ZM111.883 114.084H113.363C115.219 114.084 116.322 114.998 116.322 116.922C116.322 118.819 115.259 119.76 113.363 119.76H111.883V114.084ZM123.138 121.469V112.389H121.187V121.469H123.138ZM125.883 112.389V114.084H128.735V121.469H130.686V114.084H133.537V112.389H125.883ZM138.239 121.469V112.389H136.288V121.469H138.239ZM145.778 121.644C148.509 121.644 150.446 119.72 150.446 116.922C150.446 114.124 148.509 112.2 145.778 112.2C143.061 112.2 141.123 114.124 141.123 116.922C141.123 119.72 143.061 121.644 145.778 121.644ZM145.778 119.855C144.204 119.855 143.061 118.684 143.061 116.922C143.061 115.16 144.204 113.99 145.778 113.99C147.379 113.99 148.495 115.16 148.495 116.922C148.495 118.684 147.379 119.855 145.778 119.855ZM159.615 118.711L155.647 112.389H153.333V121.469H155.284V115.106L159.225 121.469H161.566V112.389H159.615V118.711Z" fill="white"/>
<line x1="157.66" y1="88.8689" x2="69.4796" y2="88.8689" stroke="#F0DF31" stroke-width="0.736814" stroke-linecap="round"/>
<path d="M579 -78L1009 -28.526V182.5H376.91L270.5 168L255 53.9141L579 -78Z" fill="#192558"/>
<path d="M336.315 63.4665L322.012 55.2809L336.19 47.0686H320.199L328.355 33.1727L314.142 41.3136V25.0229L306.021 39.0438L297.766 24.9961V41.3136L283.749 33.1995L291.745 47.0686H275.602L289.869 55.2809L275.727 63.4665H291.745L283.562 77.3624L297.766 69.284V85.5211L306.021 71.661L314.142 85.539V69.284L328.418 77.6483L320.199 63.4665H336.315Z" fill="#43C6B6" stroke="#0D0D0D" stroke-width="0.330898" stroke-linejoin="round"/>
<path d="M416.791 112.545L333.314 124.368L316.742 44.889L400.228 33.0664L416.791 112.545Z" fill="white" stroke="#0D0D0D" stroke-width="0.330898" stroke-linecap="round" stroke-linejoin="round"/>
<path d="M405.052 89.9422L335.235 99.8345L324.988 50.6763L394.805 40.793L405.052 89.9422Z" fill="#0D0D0D" stroke="#0D0D0D" stroke-width="0.330898" stroke-linecap="round" stroke-linejoin="round"/>
<g style="mix-blend-mode:screen">
<g style="mix-blend-mode:screen">
<path d="M383.023 42.464L365.754 95.5093L393.97 91.5469L400.67 68.7668L394.806 40.793L383.023 42.464Z" fill="white"/>
</g>
</g>
<path d="M416.798 112.535L395.169 139.996L311.719 151.855L333.329 124.394L416.798 112.535Z" fill="#43C6B6" stroke="#0D0D0D" stroke-width="0.330898" stroke-linejoin="round"/>
<path d="M335.709 128.536L406.402 118.527L392.769 135.837L322.094 145.845L335.709 128.536Z" fill="#43C6B6" stroke="#0D0D0D" stroke-width="0.330898" stroke-linejoin="round"/>
<path d="M316.74 44.8789L295.129 72.3399L311.701 151.828L333.303 124.367L316.74 44.8789Z" fill="#FC97D9" stroke="#0D0D0D" stroke-width="0.330898" stroke-linejoin="round"/>
<path d="M321.117 83.3326L305.269 103.466L300.508 80.5892L316.347 60.4648L321.117 83.3326Z" fill="#FC97D9" stroke="#0D0D0D" stroke-width="0.330898" stroke-linejoin="round"/>
<path d="M407.606 102.215L337.789 112.098" stroke="#0D0D0D" stroke-width="0.330898" stroke-linecap="round" stroke-linejoin="round"/>
<path d="M345.259 108.265L337.228 109.409L336.316 105.022L344.339 103.887L345.259 108.265Z" fill="#FC97D9" stroke="#0D0D0D" stroke-width="0.330898" stroke-linecap="round" stroke-linejoin="round"/>
<path d="M355.961 106.751L347.939 107.895L347.027 103.498L355.041 102.363H355.059L355.961 106.751Z" fill="#FC97D9" stroke="#0D0D0D" stroke-width="0.330898" stroke-linecap="round" stroke-linejoin="round"/>
<path d="M405.052 89.9422L335.235 99.8345L324.988 50.6763L394.805 40.793L405.052 89.9422Z" stroke="#0D0D0D" stroke-width="0.330898" stroke-linecap="round" stroke-linejoin="round"/>
<path d="M406.274 59.3252C412.654 55.9062 417.29 52.133 416.628 50.8975C415.966 49.662 410.257 51.4321 403.878 54.8512C397.498 58.2701 392.862 62.0433 393.524 63.2787C394.186 64.5142 399.894 62.7442 406.274 59.3252Z" fill="white" stroke="#0D0D0D" stroke-width="0.330898" stroke-linecap="round" stroke-linejoin="round"/>
<path d="M401.3 71.3834C405.91 68.913 409.26 66.1874 408.783 65.2955C408.304 64.4037 404.181 65.6836 399.571 68.154C394.961 70.6245 391.611 73.35 392.088 74.2419C392.566 75.1337 396.69 73.8539 401.3 71.3834Z" fill="white" stroke="#0D0D0D" stroke-width="0.330898" stroke-linecap="round" stroke-linejoin="round"/>
<path d="M382.915 80.4114C382.849 80.0503 382.692 79.7119 382.459 79.4284L363.698 56.9449C363.478 56.6695 363.19 56.4563 362.862 56.3264C362.534 56.1964 362.178 56.1542 361.829 56.2038C361.48 56.2535 361.15 56.3931 360.872 56.6094C360.593 56.8255 360.376 57.1105 360.241 57.4364C360.241 57.4364 351.486 83.7893 351.468 83.8339C351.372 84.1823 351.361 84.5489 351.437 84.9023C351.512 85.2558 351.673 85.5857 351.903 85.8639C352.134 86.1421 352.429 86.3604 352.762 86.5001C353.095 86.6399 353.457 86.6971 353.818 86.6667L381.351 82.7526C381.611 82.7094 381.86 82.6133 382.082 82.4702C382.303 82.3271 382.493 82.14 382.64 81.9206C382.786 81.7011 382.886 81.454 382.934 81.1945C382.981 80.9349 382.974 80.6684 382.915 80.4114Z" fill="#F0E266" stroke="#0D0D0D" stroke-width="0.330898" stroke-linejoin="round"/>
<path d="M365.323 79.905H365.243V79.8336L364.707 77.2064V77.126L364.778 77.0812L367.342 76.7148H367.423L367.467 76.7863L368.003 79.4136V79.494H367.932L365.323 79.905Z" fill="#0D0D0D" stroke="#0D0D0D" stroke-width="0.330898" stroke-linecap="round" stroke-linejoin="round"/>
<path d="M364.427 75.5945H364.347L364.302 75.5231L362.516 66.6852V66.6046H362.587L365.151 66.2383H365.231V66.3098L367.018 75.1567V75.2281H366.946L364.427 75.5945Z" fill="#0D0D0D" stroke="#0D0D0D" stroke-width="0.330898" stroke-linecap="round" stroke-linejoin="round"/>
<path d="M382.915 80.4114C382.849 80.0503 382.692 79.7119 382.459 79.4284L363.698 56.9449C363.478 56.6695 363.19 56.4563 362.862 56.3264C362.534 56.1964 362.178 56.1542 361.829 56.2038C361.48 56.2535 361.15 56.3931 360.872 56.6094C360.593 56.8255 360.376 57.1105 360.241 57.4364C360.241 57.4364 351.486 83.7893 351.468 83.8339C351.372 84.1823 351.361 84.5489 351.437 84.9023C351.512 85.2558 351.673 85.5857 351.903 85.8639C352.134 86.1421 352.429 86.3604 352.762 86.5001C353.095 86.6399 353.457 86.6971 353.818 86.6667L381.351 82.7526C381.611 82.7094 381.86 82.6133 382.082 82.4702C382.303 82.3271 382.493 82.14 382.64 81.9206C382.786 81.7011 382.886 81.454 382.934 81.1945C382.981 80.9349 382.974 80.6684 382.915 80.4114Z" stroke="#020203" stroke-width="0.330898" stroke-linecap="round" stroke-linejoin="round"/>
<path d="M435.784 119.32C436.506 121.919 436.597 124.653 436.052 127.295C435.507 129.937 434.341 132.411 432.648 134.512C426.932 141.464 416.211 140.338 411.056 139.793C389.41 137.514 370.854 144.869 355.622 152.366C346.626 156.834 338.434 158.996 331.108 158.996C326.54 159.047 322.019 158.073 317.877 156.146C304.298 149.73 300.313 134.842 299.956 133.422L292.961 112.814L296.365 111.662L303.378 132.385C303.383 132.441 303.383 132.498 303.378 132.555C303.378 132.698 306.951 147.121 319.387 152.956C328.508 157.254 340.149 155.985 353.987 149.185C369.711 141.455 388.829 133.877 411.377 136.263C418.623 137.023 425.877 137.067 429.825 132.269C431.35 130.345 432.281 128.019 432.506 125.576C432.884 122.023 432 118.45 430.006 115.486C428.013 112.521 425.039 110.354 421.607 109.365C419.788 108.861 417.91 108.609 416.023 108.615L415.238 104.826C415.238 104.826 431.335 103.548 435.784 119.32Z" fill="#F0E266" stroke="#0D0D0D" stroke-width="0.330898" stroke-linejoin="round"/>
<path d="M411.431 136.258C403.233 135.407 394.956 135.787 386.871 137.384C387.034 138.583 387.355 139.755 387.827 140.869C395.476 139.381 403.303 139.032 411.054 139.833L413.19 140.047C413.593 138.894 413.843 137.692 413.931 136.473C413.1 136.419 412.269 136.347 411.431 136.258Z" fill="#0D0D0D" stroke="#0D0D0D" stroke-width="0.330898" stroke-linecap="round" stroke-linejoin="round"/>
<path d="M403.255 149.227C410.734 149.227 416.798 143.142 416.798 135.635C416.798 128.128 410.734 122.043 403.255 122.043C395.775 122.043 389.711 128.128 389.711 135.635C389.711 143.142 395.775 149.227 403.255 149.227Z" fill="#FC97D9" stroke="#0D0D0D" stroke-width="0.330898" stroke-linejoin="round"/>
<path d="M399.028 131.635C400.513 130.14 400.905 128.122 399.904 127.127C398.903 126.132 396.887 126.538 395.403 128.033C393.918 129.528 393.526 131.546 394.527 132.541C395.528 133.536 397.543 133.13 399.028 131.635Z" fill="white" stroke="#0D0D0D" stroke-width="0.330898" stroke-linecap="round" stroke-linejoin="round"/>
<path d="M303.366 132.712C303.366 132.658 303.366 132.605 303.321 132.551L296.978 113.785L293.602 114.929L299.909 133.588C299.971 133.847 300.159 134.535 300.489 135.536C301.625 135.104 302.707 134.544 303.714 133.865C303.482 133.177 303.366 132.739 303.366 132.712Z" fill="#0D0D0D" stroke="#0D0D0D" stroke-width="0.330898" stroke-linecap="round" stroke-linejoin="round"/>
<path d="M308.583 125.992L303.062 109.684L286.258 115.376L291.779 131.693C292.574 134.053 296.987 134.696 301.606 133.123C306.225 131.55 309.378 128.36 308.583 125.992Z" fill="#F0E266" stroke="#0D0D0D" stroke-width="0.330898" stroke-linejoin="round"/>
<path d="M296.053 116.72C300.693 115.145 303.804 111.952 303.002 109.587C302.199 107.222 297.788 106.581 293.148 108.156C288.509 109.73 285.398 112.924 286.2 115.288C287.002 117.653 291.414 118.294 296.053 116.72Z" fill="white" stroke="#0D0D0D" stroke-width="0.330898" stroke-linejoin="round"/>
<path d="M292.063 114.458C293.189 114.076 293.944 113.301 293.749 112.726C293.554 112.151 292.483 111.995 291.357 112.377C290.231 112.759 289.476 113.535 289.671 114.11C289.866 114.684 290.937 114.84 292.063 114.458Z" fill="#0D0D0D" stroke="#0D0D0D" stroke-width="0.330898" stroke-linecap="round" stroke-linejoin="round"/>
<path d="M297.848 112.505C298.974 112.123 299.729 111.347 299.534 110.773C299.339 110.198 298.268 110.042 297.142 110.424C296.016 110.806 295.262 111.582 295.456 112.156C295.651 112.731 296.722 112.887 297.848 112.505Z" fill="#0D0D0D" stroke="#0D0D0D" stroke-width="0.330898" stroke-linecap="round" stroke-linejoin="round"/>
</g>
<defs>
<clipPath id="clip0_1380_7263">
<rect width="454" height="168" fill="white"/>
</clipPath>
</defs>
</svg>
