<svg width="454" height="168" viewBox="0 0 454 168" fill="none" xmlns="http://www.w3.org/2000/svg">
<g clip-path="url(#clip0_1380_7317)">
<rect width="454" height="168" fill="#15063E"/>
<path d="M83.848 68.1558V59.8398H92.128V54.8718H83.848V50.5158H94.864V45.4758H77.728V68.1558H83.848ZM107.638 68.5878C113.47 68.5878 117.97 65.7798 117.97 59.1558V45.4758H111.85V58.1478C111.85 61.6038 110.806 63.4398 107.638 63.4398C104.506 63.4398 103.426 61.6038 103.426 58.1478V45.4758H97.3418V59.1558C97.3418 65.7798 101.806 68.5878 107.638 68.5878ZM127.083 45.4758H121.251V68.1558H126.867V54.7278L136.659 68.1558H141.555V45.4758H135.939V58.0398L127.083 45.4758ZM95.584 90.1158H83.74V86.1918H92.632V81.2238H83.74V77.5158H95.26V72.4758H77.728V95.1558H95.584V90.1158ZM111.758 95.1558L120.47 72.4758H114.386L108.77 87.5598H108.626L103.01 72.4758H96.6016L105.314 95.1558H111.758ZM140.057 90.1158H128.213V86.1918H137.105V81.2238H128.213V77.5158H139.733V72.4758H122.201V95.1558H140.057V90.1158ZM148.634 72.4758H142.802V95.1558H148.418V81.7278L158.21 95.1558H163.106V72.4758H157.49V85.0398L148.634 72.4758ZM179.6 95.1558V77.5158H187.484V72.4758H165.74V77.5158H173.516V95.1558H179.6ZM188.2 87.1278C188.2 92.5998 192.592 95.5878 198.748 95.5878C204.04 95.5878 208.216 93.1758 208.216 88.3518C208.216 84.6438 206.056 82.1598 201.304 81.3318L197.02 80.5758C195.616 80.3238 194.752 79.9278 194.752 78.8838C194.752 77.6238 195.904 76.8318 197.92 76.8318C200.26 76.8318 201.952 77.9118 202.132 80.2518L207.748 80.1438C207.64 75.1038 204.256 72.0438 197.992 72.0438C192.34 72.0438 188.74 74.8158 188.74 79.4238C188.74 83.3838 191.332 85.4718 195.04 86.1558L199.18 86.8758C200.908 87.1998 202.24 87.4158 202.24 88.7478C202.24 90.0078 200.872 90.7638 198.748 90.7638C196.228 90.7638 194.032 89.7918 193.816 86.9478L188.2 87.1278Z" fill="white"/>
<path d="M579 -78L1009 -28.526V182.5H376.91L270.5 168L255 53.9141L579 -78Z" fill="#31165C"/>
<path d="M76.8017 117.141V123.124H78.0871V120.899H79.3813C80.7287 120.899 81.5619 120.358 81.5619 119.029C81.5619 117.69 80.7287 117.141 79.3813 117.141H76.8017ZM78.0871 119.782V118.257H79.3369C79.9663 118.257 80.2766 118.47 80.2766 119.029C80.2766 119.569 79.9752 119.782 79.3369 119.782H78.0871ZM83.5037 118.656H82.2804V123.124H83.5037V121.076C83.5037 120.048 83.9735 119.711 85.0284 119.711V118.568C84.3192 118.568 83.7696 118.869 83.5037 119.312V118.656ZM87.8207 123.213C89.239 123.213 90.2407 122.326 90.2407 120.881C90.2407 119.454 89.239 118.568 87.8207 118.568C86.4024 118.568 85.3918 119.454 85.3918 120.881C85.3918 122.326 86.4024 123.213 87.8207 123.213ZM87.8207 122.211C87.1027 122.211 86.624 121.67 86.624 120.881C86.624 120.11 87.1027 119.569 87.8207 119.569C88.5387 119.569 89.0174 120.11 89.0174 120.881C89.0174 121.67 88.5387 122.211 87.8207 122.211ZM94.4614 119.188C94.1423 118.789 93.6459 118.568 93.0608 118.568C91.8641 118.568 90.889 119.445 90.889 120.899C90.889 122.353 91.8641 123.213 93.0608 123.213C93.6459 123.213 94.1423 123 94.4614 122.61V123.124H95.6936V117.141H94.4614V119.188ZM93.3179 122.193C92.6354 122.193 92.1212 121.715 92.1212 120.899C92.1212 120.084 92.6354 119.578 93.3179 119.578C94.0093 119.578 94.5146 120.084 94.5146 120.899C94.5146 121.715 94.0093 122.193 93.3179 122.193ZM99.6267 121.085C99.6267 121.936 99.1658 122.229 98.6871 122.229C98.2616 122.229 97.9248 121.981 97.9248 121.387V118.656H96.7015V121.644C96.7015 122.628 97.2333 123.213 98.2971 123.213C98.8644 123.213 99.3253 122.991 99.6267 122.521V123.124H100.85V118.656H99.6267V121.085ZM104.104 123.213C105.229 123.213 106.098 122.61 106.311 121.546L105.176 121.44C105.034 121.963 104.644 122.211 104.148 122.211C103.412 122.211 102.925 121.67 102.925 120.881C102.925 120.101 103.412 119.569 104.148 119.569C104.76 119.569 105.229 119.986 105.283 120.669L106.417 120.562C106.311 119.295 105.371 118.568 104.104 118.568C102.676 118.568 101.692 119.507 101.692 120.881C101.692 122.264 102.676 123.213 104.104 123.213ZM109.73 123.124V122.078H109.056C108.852 122.078 108.763 121.998 108.763 121.794V119.596H109.73V118.656H108.763V117.141H107.54V118.656H106.822V119.596H107.54V121.945C107.54 122.716 107.948 123.124 108.71 123.124H109.73ZM116.251 120.731L115.098 117.141H112.918V123.124H114.203V117.885L115.816 123.124H116.685L118.307 117.885V123.124H119.593V117.141H117.403L116.251 120.731ZM124.343 119.516C124.112 118.913 123.509 118.568 122.525 118.568C121.471 118.568 120.673 119.073 120.504 120.039L121.604 120.225C121.666 119.782 121.967 119.481 122.499 119.481C122.969 119.481 123.235 119.685 123.243 120.119L122.304 120.385C121.426 120.633 120.504 121.014 120.504 121.998C120.504 122.894 121.293 123.213 121.985 123.213C122.65 123.213 123.111 122.92 123.297 122.495H123.341V123.124H124.476V120.456C124.476 119.959 124.44 119.756 124.343 119.516ZM122.277 122.309C121.923 122.309 121.728 122.158 121.728 121.874C121.728 121.546 121.985 121.342 122.534 121.183L123.323 120.917C123.279 121.768 122.862 122.309 122.277 122.309ZM128.048 118.568C127.481 118.568 127.02 118.78 126.718 119.241V118.656H125.486V123.124H126.718V120.695C126.718 119.844 127.179 119.552 127.649 119.552C128.075 119.552 128.412 119.8 128.412 120.394V123.124H129.635V120.137C129.635 119.144 129.103 118.568 128.048 118.568ZM134.298 119.516C134.067 118.913 133.465 118.568 132.481 118.568C131.426 118.568 130.628 119.073 130.46 120.039L131.559 120.225C131.621 119.782 131.922 119.481 132.454 119.481C132.924 119.481 133.19 119.685 133.199 120.119L132.259 120.385C131.381 120.633 130.46 121.014 130.46 121.998C130.46 122.894 131.249 123.213 131.94 123.213C132.605 123.213 133.066 122.92 133.252 122.495H133.296V123.124H134.431V120.456C134.431 119.959 134.395 119.756 134.298 119.516ZM132.232 122.309C131.878 122.309 131.683 122.158 131.683 121.874C131.683 121.546 131.94 121.342 132.49 121.183L133.278 120.917C133.234 121.768 132.818 122.309 132.232 122.309ZM138.544 119.206C138.296 118.825 137.817 118.568 137.214 118.568C136.115 118.568 135.211 119.428 135.211 120.669C135.211 121.919 136.115 122.796 137.206 122.796C137.791 122.796 138.296 122.539 138.544 122.149V122.663C138.544 123.301 138.26 123.78 137.454 123.78C136.904 123.78 136.55 123.514 136.31 122.973L135.309 123.47C135.637 124.232 136.319 124.729 137.498 124.729C138.89 124.729 139.767 124.037 139.767 122.601L139.776 118.656H138.544V119.206ZM137.498 121.848C136.86 121.848 136.434 121.396 136.434 120.695C136.434 119.977 136.86 119.534 137.498 119.534C138.136 119.534 138.544 119.977 138.544 120.695C138.544 121.404 138.136 121.848 137.498 121.848ZM145.258 120.855C145.249 119.374 144.283 118.568 142.971 118.568C141.659 118.568 140.631 119.445 140.631 120.89C140.631 122.335 141.57 123.213 143.033 123.213C144.061 123.213 144.868 122.699 145.16 121.786L144.026 121.635C143.857 122.043 143.503 122.246 143.033 122.246C142.395 122.246 141.907 121.856 141.845 121.138H145.24L145.258 120.855ZM142.98 119.499C143.503 119.499 143.902 119.773 144.017 120.261H141.907C142.049 119.747 142.43 119.499 142.98 119.499ZM151.523 118.568C150.884 118.568 150.37 118.789 150.033 119.197C149.785 118.789 149.307 118.568 148.659 118.568C148.101 118.568 147.649 118.789 147.347 119.179V118.656H146.115V123.124H147.347V120.669C147.347 119.826 147.755 119.543 148.225 119.543C148.651 119.543 148.979 119.8 148.979 120.305V123.124H150.211V120.669C150.211 119.818 150.618 119.543 151.088 119.543C151.514 119.543 151.842 119.791 151.842 120.305V123.124H153.065V119.889C153.065 119.064 152.489 118.568 151.523 118.568ZM158.503 120.855C158.494 119.374 157.528 118.568 156.216 118.568C154.904 118.568 153.875 119.445 153.875 120.89C153.875 122.335 154.815 123.213 156.278 123.213C157.306 123.213 158.113 122.699 158.405 121.786L157.271 121.635C157.102 122.043 156.748 122.246 156.278 122.246C155.639 122.246 155.152 121.856 155.09 121.138H158.485L158.503 120.855ZM156.225 119.499C156.748 119.499 157.146 119.773 157.262 120.261H155.152C155.294 119.747 155.675 119.499 156.225 119.499ZM161.922 118.568C161.355 118.568 160.894 118.78 160.592 119.241V118.656H159.36V123.124H160.592V120.695C160.592 119.844 161.053 119.552 161.523 119.552C161.949 119.552 162.285 119.8 162.285 120.394V123.124H163.509V120.137C163.509 119.144 162.977 118.568 161.922 118.568ZM167.011 123.124V122.078H166.338C166.134 122.078 166.045 121.998 166.045 121.794V119.596H167.011V118.656H166.045V117.141H164.822V118.656H164.104V119.596H164.822V121.945C164.822 122.716 165.23 123.124 165.992 123.124H167.011ZM83.6733 128.044H77.0953V137.124H83.6733V135.416H79.0458V133.411H83.3101V131.73H79.0458V129.739H83.6733V128.044ZM91.5925 132.537L94.6057 128.044H92.3458L90.3415 131.084L88.3371 128.044H86.0772L89.0904 132.537L85.9023 137.124H88.2295L90.3415 134.044L92.4534 137.124H94.7806L91.5925 132.537ZM97.2932 128.044V137.124H99.2437V133.748H101.208C103.252 133.748 104.517 132.927 104.517 130.909C104.517 128.878 103.252 128.044 101.208 128.044H97.2932ZM99.2437 132.053V129.739H101.14C102.096 129.739 102.566 130.062 102.566 130.909C102.566 131.73 102.109 132.053 101.14 132.053H99.2437ZM113.839 128.044H107.261V137.124H113.839V135.416H109.211V133.411H113.476V131.73H109.211V129.739H113.839V128.044ZM120.265 137.124C123.439 137.124 125.161 135.685 125.161 132.577C125.161 129.51 123.453 128.044 120.265 128.044H116.835V137.124H120.265ZM118.772 129.739H120.251C122.108 129.739 123.211 130.654 123.211 132.577C123.211 134.474 122.148 135.416 120.251 135.416H118.772V129.739ZM130.027 137.124V128.044H128.076V137.124H130.027ZM132.772 128.044V129.739H135.624V137.124H137.574V129.739H140.426V128.044H132.772ZM145.127 137.124V128.044H143.177V137.124H145.127ZM152.666 137.299C155.397 137.299 157.334 135.375 157.334 132.577C157.334 129.779 155.397 127.856 152.666 127.856C149.949 127.856 148.012 129.779 148.012 132.577C148.012 135.375 149.949 137.299 152.666 137.299ZM152.666 135.51C151.093 135.51 149.949 134.34 149.949 132.577C149.949 130.815 151.093 129.645 152.666 129.645C154.267 129.645 155.384 130.815 155.384 132.577C155.384 134.34 154.267 135.51 152.666 135.51ZM166.504 134.366L162.536 128.044H160.222V137.124H162.173V130.761L166.114 137.124H168.455V128.044H166.504V134.366Z" fill="white"/>
<line x1="164.549" y1="105.524" x2="76.3683" y2="105.524" stroke="#F0DF31" stroke-width="0.736814" stroke-linecap="round"/>
<path d="M325.207 19.5493C326.85 19.5734 328.493 19.4771 330.122 19.2612L330.808 19.1034C331.672 18.9079 331.786 18.8976 331.94 18.8118C332.123 18.6788 332.278 18.5109 332.395 18.3178C332.513 18.1248 332.591 17.9103 332.626 17.6868C333.079 16.0199 333.415 12.0034 333.257 12C333.099 11.9966 333.487 16.7059 333.909 17.6114C334.116 18.0508 334.43 18.4316 334.821 18.7192V18.7192C335.149 18.9155 335.511 19.0471 335.888 19.1068C336.323 19.1788 338.659 19.3641 341.873 19.4875C338.711 19.7791 336.385 20.0603 335.757 20.1564C335.33 20.2213 334.929 20.4002 334.595 20.6743C334.528 20.74 334.468 20.8124 334.416 20.8904C334.313 21.0548 334.239 21.2358 334.197 21.4254C334.132 21.7684 333.895 23.8264 333.621 26.7007C333.494 25.8432 333.405 25.1538 333.353 24.7216C333.134 22.9415 333.11 22.2555 332.623 21.4769C332.418 21.1561 332.17 20.8652 331.885 20.6125C330.91 20.1022 329.824 19.8396 328.723 19.8477C327.546 19.8086 326.373 19.709 325.207 19.5493V19.5493Z" fill="white" stroke="#231F20" stroke-width="0.188612" stroke-miterlimit="10"/>
<path d="M410.842 63.1266L401.382 64.6083L410.842 63.1266Z" fill="#3578BD" stroke="#231F20" stroke-width="0.281264" stroke-linejoin="round"/>
<path d="M395.971 125.911V125.922L395.959 125.926V125.915H395.963L395.967 125.911H395.971Z" fill="#EF4570" stroke="#231F20" stroke-width="0.281264" stroke-linejoin="round"/>
<path d="M410.92 138.698H410.91L410.903 130.641L410.882 123.586H410.886L410.92 138.698Z" fill="#EF4570" stroke="#231F20" stroke-width="0.281264" stroke-linejoin="round"/>
<path d="M395.96 125.915V125.925L386.49 127.403V127.4L395.95 125.915H395.96Z" fill="#3578BD" stroke="#231F20" stroke-width="0.281264" stroke-linejoin="round"/>
<path d="M410.883 123.586L401.416 125.064L399.05 125.435L395.97 125.911L395.963 119.48L401.416 118.626H401.427L410.883 123.586Z" fill="#CB409B" stroke="#231F20" stroke-width="0.281264" stroke-linejoin="round"/>
<path d="M395.97 125.911V125.915L395.966 125.911H395.97Z" fill="#3578BD" stroke="#231F20" stroke-width="0.281264" stroke-linejoin="round"/>
<path d="M395.982 110.796L395.961 110.799L395.941 104.365L395.968 104.361L395.982 110.796Z" fill="#4B8CCA" stroke="#231F20" stroke-width="0.281264" stroke-linejoin="round"/>
<path d="M395.924 95.6903V95.6937L386.464 97.172V97.1686L395.924 95.6903Z" fill="#3578BD" stroke="#231F20" stroke-width="0.281264" stroke-linejoin="round"/>
<path d="M395.963 110.799V110.806L395.959 110.799H395.963Z" fill="#3578BD" stroke="#231F20" stroke-width="0.281264" stroke-linejoin="round"/>
<path d="M395.94 80.5746L395.925 80.5783V80.5746H395.94Z" fill="#FEDB7C" stroke="#231F20" stroke-width="0.281264" stroke-linejoin="round"/>
<path d="M395.943 80.5677V80.5785V80.5749H395.939L395.943 80.5677Z" fill="#FEDB7C" stroke="#231F20" stroke-width="0.281264" stroke-linejoin="round"/>
<path d="M410.882 93.3543V93.2034L410.865 85.1431L410.858 78.2489V78.2421H410.862V78.2489L410.886 93.3543H410.882Z" fill="#FEDB7C" stroke="#231F20" stroke-width="0.281264" stroke-linejoin="round"/>
<path d="M395.924 80.5778L386.464 75.625V75.6182L395.924 80.5778Z" fill="#3578BD" stroke="#231F20" stroke-width="0.281264" stroke-linejoin="round"/>
<path d="M395.938 80.5747L395.924 80.5781L386.464 75.6184L386.482 75.615L395.938 80.5747Z" fill="#4B8CCA" stroke="#231F20" stroke-width="0.281264" stroke-linejoin="round"/>
<path d="M395.942 80.5678V80.5747H395.939L395.942 80.5678L395.929 74.1367L395.942 80.5678Z" fill="#4B8CCA"/>
<path d="M395.942 80.5678V80.5747H395.939L395.942 80.5678ZM395.942 80.5678L395.929 74.1367L395.942 80.5678Z" stroke="#231F20" stroke-width="0.281264" stroke-linejoin="round"/>
<path d="M410.862 78.2428H410.858V78.2389L410.862 78.2428Z" fill="#4B8CCA" stroke="#231F20" stroke-width="0.281264" stroke-linejoin="round"/>
<path d="M395.983 110.799V110.796L395.969 104.361L395.966 102.746L395.962 95.6903H395.949H395.925L386.465 97.1686L384.088 97.5425L381.022 98.0192V97.8683L381.011 91.5847V89.808L380.991 82.907L384.088 82.4234L386.465 82.0563L395.925 80.5781L395.938 80.5746H395.942V80.5781V80.5678L395.928 74.1367L395.925 72.5177L395.918 65.4624L399.008 64.9822L401.382 64.6083L410.841 63.1266L410.859 70.1819L410.869 78.2423L410.859 78.232V78.2491L410.865 85.1433L410.883 93.2036V93.3545H410.886L410.924 108.47L395.983 110.799Z" fill="#44C6B6" stroke="#231F20" stroke-width="0.281264" stroke-linejoin="round"/>
<path d="M395.942 80.5678V80.5781V80.5747V80.5678L395.929 74.1367L395.942 80.5678Z" fill="#FEDB7C"/>
<path d="M395.942 80.5678V80.5781V80.5747V80.5678ZM395.942 80.5678L395.929 74.1367L395.942 80.5678Z" stroke="#231F20" stroke-width="0.281264" stroke-linejoin="round"/>
<path d="M410.842 63.1266L401.382 64.6083L399.009 64.9822L395.918 65.4624L399.009 64.9788L401.382 64.6083L410.842 63.1266Z" fill="#FEDB7C" stroke="#231F20" stroke-width="0.281264" stroke-linejoin="round"/>
<path d="M410.879 78.2423L410.862 78.2491H410.858V78.232L410.869 78.2423L410.858 70.1819L410.841 63.1266H410.845L410.879 78.2423Z" fill="#FEDB7C" stroke="#231F20" stroke-width="0.281264" stroke-linejoin="round"/>
<path d="M395.941 80.5675L395.938 80.5744L386.482 75.6147L386.444 75.6044V60.5024L395.917 65.4621L395.924 72.5175L395.928 74.1364L395.941 80.5675Z" fill="#208A7D" stroke="#231F20" stroke-width="0.281264" stroke-linejoin="round"/>
<path d="M395.942 80.5678V80.5781V80.5747H395.939L395.942 80.5678L395.929 74.1367L395.942 80.5678Z" fill="#FFCC42"/>
<path d="M395.942 80.5678V80.5781V80.5747H395.939L395.942 80.5678ZM395.942 80.5678L395.929 74.1367L395.942 80.5678Z" stroke="#231F20" stroke-width="0.281264" stroke-linejoin="round"/>
<path d="M410.841 63.1266L401.381 64.6084L399.008 64.9788L395.917 65.4624L386.444 60.5028L401.381 58.1738H401.385L410.841 63.1266Z" fill="#208A7D" stroke="#231F20" stroke-width="0.281264" stroke-linejoin="round"/>
<path d="M410.842 63.1266L401.382 64.6083L399.009 64.9822L395.918 65.4624L399.009 64.9788L401.382 64.6083L410.842 63.1266Z" fill="#FFCC42" stroke="#231F20" stroke-width="0.281264" stroke-linejoin="round"/>
<path d="M410.845 63.1266H410.842L401.385 58.1738L410.845 63.1266Z" fill="#FFCC42" stroke="#231F20" stroke-width="0.281264" stroke-linejoin="round"/>
<path d="M395.96 125.922V125.925L386.49 127.403V127.4L395.95 125.915L395.96 125.922Z" fill="#3578BD" stroke="#231F20" stroke-width="0.281264" stroke-linejoin="round"/>
<path d="M395.959 125.915V125.925L386.489 127.403L381.042 128.25H381.032V128.257H381.021V128.247H381.032L381.042 128.244L384.119 127.77L386.489 127.4L395.949 125.915H395.959Z" fill="#EF4570" stroke="#231F20" stroke-width="0.281264" stroke-linejoin="round"/>
<path d="M381.022 128.25V128.257L371.556 129.736V129.729L381.022 128.247V128.25Z" fill="#3578BD" stroke="#231F20" stroke-width="0.281264" stroke-linejoin="round"/>
<path d="M384.119 127.77L381.042 128.247V128.251H381.021V128.247H381.032L381.042 128.244L384.119 127.77Z" fill="#4B8CCA" stroke="#231F20" stroke-width="0.281264" stroke-linejoin="round"/>
<path d="M381.022 113.131V113.135H381.011L381.022 113.131Z" fill="#A37DB8" stroke="#231F20" stroke-width="0.281264" stroke-linejoin="round"/>
<path d="M395.969 125.911V125.922L395.959 125.925L386.489 127.403L381.042 128.25V128.244L384.119 127.77L386.489 127.4L395.948 125.915H395.962L395.966 125.911H395.969Z" fill="#A37DB8" stroke="#231F20" stroke-width="0.281264" stroke-linejoin="round"/>
<path d="M371.782 123.263L371.569 123.291L371.556 123.287V123.14L371.782 123.263Z" fill="#3578BD" stroke="#231F20" stroke-width="0.281264" stroke-linejoin="round"/>
<path d="M381.043 128.244V128.251H381.032V128.247L381.043 128.244Z" fill="#3578BD" stroke="#231F20" stroke-width="0.281264" stroke-linejoin="round"/>
<path d="M381.022 113.132V113.135H381.012L371.545 108.179H371.555L381.022 113.132Z" fill="#4B8CCA" stroke="#231F20" stroke-width="0.281264" stroke-linejoin="round"/>
<path d="M395.925 95.6903V95.6937L386.465 97.172L381.021 98.0261V98.0192L384.088 97.5425L386.465 97.1686L395.925 95.6903Z" fill="#A37DB8" stroke="#231F20" stroke-width="0.281264" stroke-linejoin="round"/>
<path d="M395.961 110.799V110.806L395.941 110.809V110.806L395.958 110.799H395.961Z" fill="#A37DB8" stroke="#231F20" stroke-width="0.281264" stroke-linejoin="round"/>
<path d="M381.022 113.131L371.555 108.179L371.528 108.165V93.0664L380.991 98.0261L381.012 105.078V106.7L381.022 113.131Z" fill="#B9AB2B" stroke="#231F20" stroke-width="0.281264" stroke-linejoin="round"/>
<path d="M381.029 113.135H381.025V113.139H381.029V113.135Z" fill="#855AA5" stroke="#231F20" stroke-width="0.281264" stroke-linejoin="round"/>
<path d="M381.022 97.8683V98.0192L380.991 98.0261L371.528 93.0664H371.555L371.782 93.0321L381.022 97.8683Z" fill="#4B8CCA" stroke="#231F20" stroke-width="0.281264" stroke-linejoin="round"/>
<path d="M395.924 80.5778L386.464 75.625V75.6182L395.924 80.5778Z" fill="#3578BD" stroke="#231F20" stroke-width="0.281264" stroke-linejoin="round"/>
<path d="M395.963 95.6903H395.959V95.6942H395.963V95.6903Z" fill="#3578BD" stroke="#231F20" stroke-width="0.281264" stroke-linejoin="round"/>
<path d="M395.959 95.6903L395.925 95.6937L386.465 97.172L381.021 98.0261V98.0192L384.088 97.5425L386.465 97.1686L395.925 95.6903H395.949H395.959Z" fill="#FEDB7C" stroke="#231F20" stroke-width="0.281264" stroke-linejoin="round"/>
<path d="M381.022 97.8684V98.0262V98.0193L371.555 93.0665L371.528 93.0528V92.895L371.782 93.0322L381.022 97.8684Z" fill="#3578BD" stroke="#231F20" stroke-width="0.281264" stroke-linejoin="round"/>
<path d="M395.925 80.5778L386.465 82.0561L384.088 82.4231L380.991 82.9068V82.7558L371.751 77.9196L386.465 75.6182V75.625L395.925 80.5778Z" fill="#208A7D" stroke="#231F20" stroke-width="0.281264" stroke-linejoin="round"/>
<path d="M380.991 82.756V82.9069L371.528 77.9507L371.751 77.9198L380.991 82.756Z" fill="#FFCC42" stroke="#231F20" stroke-width="0.281264" stroke-linejoin="round"/>
<path d="M371.782 123.263L371.569 123.291L371.559 123.294H371.556V123.14L371.782 123.263Z" fill="#3578BD" stroke="#231F20" stroke-width="0.281264" stroke-linejoin="round"/>
<path d="M381.022 128.247V128.257L371.556 129.736V129.729L381.022 128.247Z" fill="#3578BD" stroke="#231F20" stroke-width="0.281264" stroke-linejoin="round"/>
<path d="M366.132 145.695H366.121V145.692L366.132 145.695Z" fill="#EF4570" stroke="#231F20" stroke-width="0.281264" stroke-linejoin="round"/>
<path d="M381.033 128.251V128.257H381.023L371.556 129.736L366.113 130.583L366.092 130.586V130.583L366.103 130.58H366.113L369.19 130.103L371.556 129.729L381.023 128.251H381.033Z" fill="#EF4570" stroke="#231F20" stroke-width="0.281264" stroke-linejoin="round"/>
<path d="M366.101 130.579L366.091 130.583L356.648 125.633L356.627 125.626H356.638H356.648L364.139 129.55L364.804 129.893L365.971 130.514L366.101 130.579Z" fill="#4B8CCA" stroke="#231F20" stroke-width="0.281264" stroke-linejoin="round"/>
<path d="M395.968 125.911H395.965L395.962 125.915H395.948L386.488 127.4L384.118 127.77L381.041 128.244L381.031 128.247H381.021L371.554 129.729L369.188 130.103L366.111 130.58L366.101 124.148L366.09 122.523L366.08 115.471L369.167 114.99H369.177L371.544 114.617L381.011 113.135H381.021V113.131L381.011 106.7V105.078L380.99 98.0261L381.021 98.0192V98.0261L386.464 97.172L395.924 95.6937L395.941 104.365L395.962 110.799H395.958L395.941 110.806V110.809L395.962 119.48L395.968 125.911Z" fill="#F0E266" stroke="#231F20" stroke-width="0.281264" stroke-linejoin="round"/>
<path d="M369.167 114.991L366.08 115.471V115.467L369.167 114.991Z" fill="#A37DB8" stroke="#231F20" stroke-width="0.281264" stroke-linejoin="round"/>
<path d="M381.043 128.244V128.25H381.033V128.257H381.023L371.556 129.736L366.113 130.583V130.579L369.189 130.103L371.556 129.729L381.023 128.247H381.033L381.043 128.244Z" fill="#A37DB8" stroke="#231F20" stroke-width="0.281264" stroke-linejoin="round"/>
<path d="M366.113 130.58H366.103L365.973 130.515L364.806 129.894L364.141 129.551L356.65 125.627L356.616 125.61V110.515L366.082 115.471L366.093 122.523L366.103 124.149L366.113 130.58Z" fill="#B9AB2B" stroke="#231F20" stroke-width="0.281264" stroke-linejoin="round"/>
<path d="M364.805 129.893L366.101 130.579L365.971 130.514L364.805 129.893Z" fill="#855AA5" stroke="#231F20" stroke-width="0.281264" stroke-linejoin="round"/>
<path d="M366.113 130.579V130.583V130.579Z" fill="#855AA5" stroke="#231F20" stroke-width="0.281264" stroke-linejoin="round"/>
<path d="M381.013 113.135L371.546 114.617L369.18 114.991H369.169L366.082 115.467V115.471L356.616 110.514L371.546 108.179L381.013 113.135Z" fill="#FFCC42" stroke="#231F20" stroke-width="0.281264" stroke-linejoin="round"/>
<path d="M369.167 114.991L366.08 115.471V115.467L369.167 114.991Z" fill="#855AA5" stroke="#231F20" stroke-width="0.281264" stroke-linejoin="round"/>
<path d="M381.022 97.8683L371.782 93.0321L371.528 92.8949V77.9507L380.991 82.9069L381.012 89.8079V91.5846L381.022 97.8683Z" fill="#208A7D" stroke="#231F20" stroke-width="0.281264" stroke-linejoin="round"/>
<path d="M380.991 82.756V82.9069L371.528 77.9507V77.8032L371.751 77.9198L380.991 82.756Z" fill="#FFCC42" stroke="#231F20" stroke-width="0.281264" stroke-linejoin="round"/>
<path d="M366.091 130.586V130.583L356.648 125.634V125.63L364.139 129.551L365.971 130.514L366.101 130.58H366.112V130.583L366.091 130.586Z" fill="#3578BD" stroke="#231F20" stroke-width="0.281264" stroke-linejoin="round"/>
<path d="M366.135 145.692V145.699L366.131 145.695L366.135 145.692Z" fill="#3578BD" stroke="#231F20" stroke-width="0.281264" stroke-linejoin="round"/>
<path d="M410.91 138.698L395.983 141.027V141.034L381.053 143.363L366.136 145.692L366.133 145.695L366.122 145.692V145.695H366.133L366.136 145.699L351.213 148.031L351.182 132.922L351.192 132.919H351.202V132.915L354.269 132.439L356.628 132.065H356.649L366.092 130.586L366.112 130.583L371.555 129.736L381.022 128.257H381.032V128.251H381.043L386.489 127.403L395.959 125.925L395.97 125.922V125.911L399.05 125.435L401.416 125.064L410.883 123.586L410.904 130.641L410.91 138.698Z" fill="#FC97D9" stroke="#231F20" stroke-width="0.281264" stroke-linejoin="round"/>
<path d="M351.182 132.922L351.213 148.031H351.202V147.88L351.192 139.974L351.182 132.932V132.915H351.192H351.202L354.269 132.438L351.202 132.915V132.919H351.192L351.182 132.922Z" fill="#EF4570" stroke="#231F20" stroke-width="0.281264" stroke-linejoin="round"/>
<path d="M366.132 145.695H366.121V145.692L366.132 145.695Z" fill="#EF4570" stroke="#231F20" stroke-width="0.281264" stroke-linejoin="round"/>
<path d="M366.135 145.692V145.699L366.131 145.695L366.135 145.692Z" fill="#EF4570" stroke="#231F20" stroke-width="0.281264" stroke-linejoin="round"/>
<path d="M351.202 147.88L351.192 139.974L351.182 132.932L351.192 139.82L351.202 147.88Z" fill="#3578BD" stroke="#231F20" stroke-width="0.281264" stroke-linejoin="round"/>
<path d="M366.092 130.583V130.586L356.649 132.064H356.628L354.269 132.438L351.202 132.915L351.182 126.484L356.628 125.626L356.649 125.633L366.092 130.583Z" fill="#CB409B" stroke="#231F20" stroke-width="0.281264" stroke-linejoin="round"/>
<path d="M354.268 132.438L351.202 132.915H351.191V132.919H351.181L351.171 132.915H351.181H351.191L351.181 126.484L351.202 132.915L354.268 132.438Z" fill="#821F38" stroke="#231F20" stroke-width="0.281264" stroke-linejoin="round"/>
<path d="M366.091 130.586V130.583L356.648 125.633L356.627 125.626H356.638L356.648 125.63L364.139 129.55L364.804 129.893L365.971 130.514L366.101 130.579H366.111V130.583L366.091 130.586Z" fill="#821F38" stroke="#231F20" stroke-width="0.281264" stroke-linejoin="round"/>
<path d="M341.708 127.812L341.942 127.928L341.729 127.962L341.708 127.956V127.812Z" fill="#3578BD" stroke="#231F20" stroke-width="0.281264" stroke-linejoin="round"/>
<path d="M351.192 132.915V132.919L351.182 132.915H351.192Z" fill="#3578BD" stroke="#231F20" stroke-width="0.281264" stroke-linejoin="round"/>
<path d="M351.148 87.5786L341.685 89.0569L351.148 87.5786Z" fill="#3578BD" stroke="#231F20" stroke-width="0.281264" stroke-linejoin="round"/>
<path d="M341.708 127.812L341.942 127.928L341.729 127.962L341.715 127.966H341.708V127.812Z" fill="#3578BD" stroke="#231F20" stroke-width="0.281264" stroke-linejoin="round"/>
<path d="M351.182 132.919L351.171 132.915H351.182V132.919Z" fill="#3578BD" stroke="#231F20" stroke-width="0.281264" stroke-linejoin="round"/>
<path d="M351.202 147.88L351.192 139.974L351.182 132.932L351.192 139.82L351.202 147.88Z" fill="#3578BD" stroke="#231F20" stroke-width="0.281264" stroke-linejoin="round"/>
<path d="M336.274 150.346L336.26 142.306L336.243 135.254H336.253L336.26 135.251V135.254H336.253L336.274 150.346Z" fill="#A37DB8" stroke="#231F20" stroke-width="0.281264" stroke-linejoin="round"/>
<path d="M351.202 148.031V147.88L351.192 139.974L351.182 132.932V132.919V132.922L351.213 148.031H351.202Z" fill="#A37DB8" stroke="#231F20" stroke-width="0.281264" stroke-linejoin="round"/>
<path d="M336.26 142.306L336.243 135.254H336.253L336.26 142.306Z" fill="#3578BD" stroke="#231F20" stroke-width="0.281264" stroke-linejoin="round"/>
<path d="M336.261 135.251V135.255H336.253L336.261 135.251Z" fill="#4B8CCA" stroke="#231F20" stroke-width="0.281264" stroke-linejoin="round"/>
<path d="M341.716 127.966H341.708V127.962H341.716V127.966Z" fill="#4B8CCA" stroke="#231F20" stroke-width="0.281264" stroke-linejoin="round"/>
<path d="M336.253 120.139L336.233 120.142V120.139H336.253Z" fill="#A37DB8" stroke="#231F20" stroke-width="0.281264" stroke-linejoin="round"/>
<path d="M341.708 127.812L341.942 127.928L341.729 127.962L341.715 127.966H341.708V127.812Z" fill="#A37DB8" stroke="#231F20" stroke-width="0.281264" stroke-linejoin="round"/>
<path d="M351.202 132.915V132.919H351.192L351.181 132.922V132.919L351.171 132.915H351.181H351.192L351.181 126.484V124.858L351.161 117.81V117.803H351.171V117.81L351.181 126.484L351.202 132.915Z" fill="#A37DB8" stroke="#231F20" stroke-width="0.281264" stroke-linejoin="round"/>
<path d="M336.268 135.248H336.264V135.251H336.268V135.248Z" fill="#3578BD" stroke="#231F20" stroke-width="0.281264" stroke-linejoin="round"/>
<path d="M336.244 120.139H336.233H336.244Z" fill="#4B8CCA" stroke="#231F20" stroke-width="0.281264" stroke-linejoin="round"/>
<path d="M336.243 105.023H336.254V105.027L336.243 105.023Z" fill="#A37DB8" stroke="#231F20" stroke-width="0.281264" stroke-linejoin="round"/>
<path d="M351.158 102.694H351.154V102.698H351.158V102.694Z" fill="#A37DB8" stroke="#231F20" stroke-width="0.281264" stroke-linejoin="round"/>
<path d="M351.168 117.806H351.164V117.814H351.168V117.806Z" fill="#A37DB8" stroke="#231F20" stroke-width="0.281264" stroke-linejoin="round"/>
<path d="M330.005 101.772L326.753 100.074V100.07L330.005 101.772Z" fill="#3578BD" stroke="#231F20" stroke-width="0.281264" stroke-linejoin="round"/>
<path d="M336.217 105.026L326.753 106.505L336.217 105.026Z" fill="#3578BD" stroke="#231F20" stroke-width="0.281264" stroke-linejoin="round"/>
<path d="M336.254 120.139H336.243H336.254Z" fill="#3578BD" stroke="#231F20" stroke-width="0.281264" stroke-linejoin="round"/>
<path d="M336.244 105.023L336.223 105.027H336.217L330.005 101.772L326.753 100.07L326.774 100.067H326.784L336.244 105.023Z" fill="#4B8CCA" stroke="#231F20" stroke-width="0.281264" stroke-linejoin="round"/>
<path d="M336.253 105.023H336.243L336.233 98.5851L336.253 105.023Z" fill="#4B8CCA" stroke="#231F20" stroke-width="0.281264" stroke-linejoin="round"/>
<path d="M351.148 87.5786L341.685 89.0569L351.148 87.5786Z" fill="#3578BD" stroke="#231F20" stroke-width="0.281264" stroke-linejoin="round"/>
<path d="M351.201 147.88V148.031L336.274 150.367V150.346L336.254 135.255H336.26V135.251L336.254 128.817L336.233 120.142L336.254 120.139V120.135L336.233 113.704L336.216 105.027H336.223L336.243 105.023L336.254 105.027V105.023L336.233 98.5852V96.9663L336.216 89.9144L339.31 89.4308L341.683 89.0569L351.146 87.5786L351.16 94.4796L351.181 102.54V102.691L351.15 102.694V102.691H351.146V102.694H351.15L351.181 117.807L351.17 117.81V117.803H351.16V117.81L351.181 124.858V126.484L351.191 132.915H351.181H351.17L351.181 132.919V132.933L351.191 139.974L351.201 147.88Z" fill="#44C6B6" stroke="#231F20" stroke-width="0.281264" stroke-linejoin="round"/>
<path d="M336.253 105.023V105.026L336.243 105.023L336.233 98.5851L336.253 105.023Z" fill="#A37DB8" stroke="#231F20" stroke-width="0.281264" stroke-linejoin="round"/>
<path d="M341.683 89.0569L351.146 87.5786L341.683 89.0569L339.31 89.4308L336.216 89.9144V89.911L339.31 89.4239L341.683 89.0569Z" fill="#A37DB8"/>
<path d="M341.683 89.0569L351.146 87.5786L341.683 89.0569ZM341.683 89.0569L339.31 89.4308L336.216 89.9144V89.911L339.31 89.4239L341.683 89.0569Z" stroke="#231F20" stroke-width="0.281264" stroke-linejoin="round"/>
<path d="M351.158 102.694H351.154V102.698H351.158V102.694Z" fill="#A37DB8" stroke="#231F20" stroke-width="0.281264" stroke-linejoin="round"/>
<path d="M351.181 102.691V102.54L351.161 94.4796L351.147 87.5786H351.15L351.181 102.691Z" fill="#A37DB8" stroke="#231F20" stroke-width="0.281264" stroke-linejoin="round"/>
<path d="M336.253 105.023V105.026L336.243 105.023L336.233 98.5851L336.253 105.023Z" fill="#3578BD" stroke="#231F20" stroke-width="0.281264" stroke-linejoin="round"/>
<path d="M351.147 87.5783L341.684 89.0566L339.31 89.4236L336.217 89.9107V89.9141L326.753 84.9579L341.684 82.6221L351.147 87.5783Z" fill="#208A7D" stroke="#231F20" stroke-width="0.281264" stroke-linejoin="round"/>
<path d="M351.146 87.5786L341.683 89.0569L339.31 89.4308L336.216 89.9144V89.911L339.31 89.4239L341.683 89.0569L351.146 87.5786Z" fill="#855AA5" stroke="#231F20" stroke-width="0.281264" stroke-linejoin="round"/>
<path d="M336.26 142.306L336.243 135.254H336.253L336.26 142.306Z" fill="#3578BD" stroke="#231F20" stroke-width="0.281264" stroke-linejoin="round"/>
<path d="M336.274 150.346L336.26 142.306L336.243 135.254H336.253L336.274 150.346Z" fill="#FEDB7C" stroke="#231F20" stroke-width="0.281264" stroke-linejoin="round"/>
<path d="M321.314 137.587V137.59L311.851 139.068L321.314 137.587Z" fill="#3578BD" stroke="#231F20" stroke-width="0.281264" stroke-linejoin="round"/>
<path d="M321.314 137.577L321.325 137.587H321.314L311.851 132.634H311.855L311.861 132.631L312.074 132.596L321.314 137.436V137.577Z" fill="#4B8CCA" stroke="#231F20" stroke-width="0.281264" stroke-linejoin="round"/>
<path d="M321.335 137.57L321.314 131.152H321.324L321.335 137.57Z" fill="#4B8CCA" stroke="#231F20" stroke-width="0.281264" stroke-linejoin="round"/>
<path d="M321.335 137.57L321.314 131.152V129.53L321.304 122.475L321.314 129.53L321.324 131.152L321.335 137.57Z" fill="#FEDB7C" stroke="#231F20" stroke-width="0.281264" stroke-linejoin="round"/>
<path d="M336.261 135.251V135.254H336.254H336.243H336.254L336.261 135.251Z" fill="#FEDB7C" stroke="#231F20" stroke-width="0.281264" stroke-linejoin="round"/>
<path d="M321.335 137.57V137.587H321.325L321.314 137.577V137.436L312.074 132.596L311.851 132.48V132.62L311.837 132.617V117.518H311.851L311.827 117.505V102.406L321.287 107.362L321.297 114.418L321.304 116.04L321.314 122.389V122.475H321.304L321.314 129.53V131.152L321.335 137.57Z" fill="#B9AB2B" stroke="#231F20" stroke-width="0.281264" stroke-linejoin="round"/>
<path d="M312.074 132.596L321.314 137.436V137.577L311.861 132.631L311.851 132.62V132.48L312.074 132.596Z" fill="#FFCC42" stroke="#231F20" stroke-width="0.281264" stroke-linejoin="round"/>
<path d="M321.335 137.57L321.314 131.152V129.53L321.304 122.475L321.314 129.53L321.324 131.152L321.335 137.57Z" fill="#FFCC42" stroke="#231F20" stroke-width="0.281264" stroke-linejoin="round"/>
<path d="M321.314 122.389L321.304 116.04L321.314 122.389Z" fill="#4B8CCA" stroke="#231F20" stroke-width="0.281264" stroke-linejoin="round"/>
<path d="M336.275 150.346V150.367L321.351 152.702H321.341L306.417 155.035L306.403 146.978L306.386 139.922L309.477 139.435L311.85 139.068L321.313 137.59V137.587H321.334V137.57L321.324 131.152L321.313 129.53L321.303 122.474H321.313V122.389L321.303 116.04V114.418L321.286 107.362L324.383 106.875L326.753 106.505L336.216 105.026L336.233 113.704L336.254 120.135V120.139H336.233V120.142L336.254 128.816L336.261 135.251L336.254 135.254H336.244L336.261 142.306L336.275 150.346Z" fill="#F0E266" stroke="#231F20" stroke-width="0.281264" stroke-linejoin="round"/>
<path d="M321.314 122.389L321.304 116.04L321.297 114.418L321.287 107.362L321.304 114.418V116.04L321.314 122.389Z" fill="#FEDB7C" stroke="#231F20" stroke-width="0.281264" stroke-linejoin="round"/>
<path d="M336.253 120.139L336.233 120.142V120.139H336.253Z" fill="#FEDB7C" stroke="#231F20" stroke-width="0.281264" stroke-linejoin="round"/>
<path d="M321.314 122.389L321.304 116.04L321.297 114.418L321.287 107.362L321.304 114.418V116.04L321.314 122.389Z" fill="#FFCC42" stroke="#231F20" stroke-width="0.281264" stroke-linejoin="round"/>
<path d="M336.217 105.026L326.754 106.505L324.384 106.875L321.287 107.362L311.827 102.406L321.256 100.931L326.754 100.07V100.074L330.006 101.772L336.217 105.026Z" fill="#B9AB2B" stroke="#231F20" stroke-width="0.281264" stroke-linejoin="round"/>
<path d="M336.244 105.023L326.784 100.067H326.774L326.753 100.053V84.958L336.217 89.9142L336.234 96.9662V98.5851L336.244 105.023Z" fill="#208A7D" stroke="#231F20" stroke-width="0.281264" stroke-linejoin="round"/>
<path d="M326.774 100.067L326.753 100.053L326.774 100.067Z" fill="#855AA5" stroke="#231F20" stroke-width="0.281264" stroke-linejoin="round"/>
<path d="M336.253 105.023V105.026L336.243 105.023L336.233 98.5851L336.253 105.023Z" fill="#855AA5" stroke="#231F20" stroke-width="0.281264" stroke-linejoin="round"/>
<path d="M311.814 43.1373L311.79 43.1444V43.1267L311.814 43.1373Z" fill="#3578BD" stroke="#231F20" stroke-width="0.281264" stroke-linejoin="round"/>
<path d="M321.249 48.0795V48.1001H321.238L321.211 48.0898H321.218L321.249 48.0795Z" fill="#3578BD" stroke="#231F20" stroke-width="0.281264" stroke-linejoin="round"/>
<path d="M321.238 41.6484V41.6687V41.6484Z" fill="#4B8CCA" stroke="#231F20" stroke-width="0.281264" stroke-linejoin="round"/>
<path d="M321.256 48.0795H321.249H321.256Z" fill="#4B8CCA" stroke="#231F20" stroke-width="0.281264" stroke-linejoin="round"/>
<path d="M321.314 137.436V137.587L311.851 132.634V132.48L312.074 132.596L321.314 137.436Z" fill="#3578BD" stroke="#231F20" stroke-width="0.281264" stroke-linejoin="round"/>
<path d="M311.851 139.068L321.314 137.587V137.59L311.851 139.068Z" fill="#3578BD" stroke="#231F20" stroke-width="0.281264" stroke-linejoin="round"/>
<path d="M306.403 146.978L306.386 139.922L306.403 146.978Z" fill="#FEDB7C" stroke="#231F20" stroke-width="0.281264" stroke-linejoin="round"/>
<path d="M306.417 155.035L296.92 150.065V134.966L306.387 139.923L306.404 146.978L306.417 155.035Z" fill="#B9AB2B" stroke="#231F20" stroke-width="0.281264" stroke-linejoin="round"/>
<path d="M321.314 137.587L311.85 139.069L309.477 139.436L306.387 139.923L296.92 134.966L311.85 132.631V132.634L321.314 137.587Z" fill="#B9AB2B" stroke="#231F20" stroke-width="0.281264" stroke-linejoin="round"/>
<path d="M321.314 137.587L311.851 132.634V132.631L311.855 132.634L321.314 137.587Z" fill="#FFCC42" stroke="#231F20" stroke-width="0.281264" stroke-linejoin="round"/>
<path d="M296.889 60.5679L306.349 65.5275H306.332L296.869 60.5747L296.889 60.5679Z" fill="#4B8CCA" stroke="#231F20" stroke-width="0.281264" stroke-linejoin="round"/>
<path d="M306.35 65.5277L306.34 59.0966L306.35 65.5277Z" fill="#4B8CCA" stroke="#231F20" stroke-width="0.281264" stroke-linejoin="round"/>
<path d="M321.277 63.1953L306.35 65.5277L306.34 59.0966L306.35 65.5277L309.427 65.0475L321.267 63.1919L321.277 63.1953Z" fill="#EF4570" stroke="#231F20" stroke-width="0.281264" stroke-linejoin="round"/>
<path d="M321.286 63.1951H321.276L321.259 55.1383L321.249 48.1069V48.1H321.238L321.211 48.0898H321.218L321.249 48.0795H321.256V48.1069L321.286 63.1951Z" fill="#EF4570" stroke="#231F20" stroke-width="0.281264" stroke-linejoin="round"/>
<path d="M306.35 65.5277L306.34 59.0966L306.35 65.5277Z" fill="#821F38" stroke="#231F20" stroke-width="0.281264" stroke-linejoin="round"/>
<path d="M306.319 50.4152L306.309 43.9841L306.319 50.4152Z" fill="#4B8CCA" stroke="#231F20" stroke-width="0.281264" stroke-linejoin="round"/>
<path d="M311.812 43.1367L311.788 43.1434V43.1535L311.765 43.1434H311.775L311.751 43.1334L311.788 43.1267L311.812 43.1367Z" fill="#4B8CCA" stroke="#231F20" stroke-width="0.281264" stroke-linejoin="round"/>
<path d="M321.256 48.0795H321.249H321.256Z" fill="#4B8CCA" stroke="#231F20" stroke-width="0.281264" stroke-linejoin="round"/>
<path d="M336.158 30.6519L326.688 32.1336L324.308 32.5041L321.238 32.9877L321.228 26.5497L326.688 25.6991V25.7025L336.158 30.6519Z" fill="#CB409B" stroke="#231F20" stroke-width="0.281264" stroke-linejoin="round"/>
<path d="M326.688 25.6991L336.158 30.6519L326.688 25.7025V25.6991Z" fill="#3578BD" stroke="#231F20" stroke-width="0.281264" stroke-linejoin="round"/>
<path d="M336.158 30.6521V30.6555L326.688 32.1338L336.158 30.6521Z" fill="#3578BD" stroke="#231F20" stroke-width="0.281264" stroke-linejoin="round"/>
<path d="M336.179 45.7469V45.7683L336.147 45.7541L336.179 45.7469Z" fill="#3578BD" stroke="#231F20" stroke-width="0.281264" stroke-linejoin="round"/>
<path d="M311.79 43.1439V43.1545L311.766 43.1439H311.776H311.79Z" fill="#4B8CCA" stroke="#231F20" stroke-width="0.281264" stroke-linejoin="round"/>
<path d="M336.169 45.7677L325.841 47.3832L323.924 47.6816L321.256 48.1001H321.249H321.238L321.211 48.0898H321.218L321.249 48.0795H321.256L324.342 47.6028L336.138 45.754L336.169 45.7677Z" fill="#4B8CCA" stroke="#231F20" stroke-width="0.281264" stroke-linejoin="round"/>
<path d="M321.229 32.9912H321.221H321.218H321.229Z" fill="#EF4570" stroke="#231F20" stroke-width="0.281264" stroke-linejoin="round"/>
<path d="M321.242 32.9879H321.235V32.9915H321.242V32.9879Z" fill="#EF4570" stroke="#231F20" stroke-width="0.281264" stroke-linejoin="round"/>
<path d="M321.238 41.6484V41.6687V41.6484Z" fill="#EF4570" stroke="#231F20" stroke-width="0.281264" stroke-linejoin="round"/>
<path d="M336.179 45.7469V45.7675L325.841 47.383L323.924 47.6814L321.255 48.0999H321.249V48.0793H321.255L324.342 47.6025L336.138 45.7538H336.148L336.179 45.7469Z" fill="#EF4570" stroke="#231F20" stroke-width="0.281264" stroke-linejoin="round"/>
<path d="M311.812 43.1367L311.788 43.1434V43.1468L311.775 43.1434L311.751 43.1334L311.788 43.1267L311.812 43.1367Z" fill="#3578BD" stroke="#231F20" stroke-width="0.281264" stroke-linejoin="round"/>
<path d="M321.25 48.0795V48.1008L321.218 48.0901L321.25 48.0795Z" fill="#3578BD" stroke="#231F20" stroke-width="0.281264" stroke-linejoin="round"/>
<path d="M321.238 32.9878L321.221 26.5498H321.228L321.238 32.9878Z" fill="#821F38" stroke="#231F20" stroke-width="0.281264" stroke-linejoin="round"/>
<path d="M321.211 17.8756L311.741 19.3573L321.201 17.8756H321.211Z" fill="#3578BD" stroke="#231F20" stroke-width="0.281264" stroke-linejoin="round"/>
<path d="M306.308 35.3202V35.3239H306.293L306.301 35.3202H306.308Z" fill="#EF4570" stroke="#231F20" stroke-width="0.281264" stroke-linejoin="round"/>
<path d="M306.317 50.4153L306.307 43.9842L306.3 42.3755L306.287 35.3236H306.293L306.307 42.3755V43.9842L306.317 50.4153Z" fill="#EF4570" stroke="#231F20" stroke-width="0.281264" stroke-linejoin="round"/>
<path d="M311.812 43.1367L311.788 43.1434V43.1535L311.765 43.1434H311.775L311.751 43.1334L311.788 43.1267L311.812 43.1367Z" fill="#EF4570" stroke="#231F20" stroke-width="0.281264" stroke-linejoin="round"/>
<path d="M321.225 32.9912H321.221V32.9951H321.225V32.9912Z" fill="#EF4570" stroke="#231F20" stroke-width="0.281264" stroke-linejoin="round"/>
<path d="M321.238 41.6484V41.6687V41.6484Z" fill="#EF4570" stroke="#231F20" stroke-width="0.281264" stroke-linejoin="round"/>
<path d="M321.254 48.0795V48.1062H321.248V48.0995H321.238L321.211 48.0895H321.218L321.248 48.0795H321.254Z" fill="#EF4570" stroke="#231F20" stroke-width="0.281264" stroke-linejoin="round"/>
<path d="M306.317 50.4153L306.307 43.9842L306.3 42.3755L306.287 35.3236H306.293L306.307 42.3755V43.9842L306.317 50.4153Z" fill="#821F38" stroke="#231F20" stroke-width="0.281264" stroke-linejoin="round"/>
<path d="M306.301 35.3202V35.3238H306.293L306.301 35.3202Z" fill="#4B8CCA" stroke="#231F20" stroke-width="0.281264" stroke-linejoin="round"/>
<path d="M336.158 30.6556L326.691 32.1407L324.314 32.5077L321.227 32.9879V17.8962L311.761 19.354L309.36 19.7244L306.273 20.208V35.3168V65.5208L309.36 65.0406L321.2 63.1918L321.265 55.1212V48.0899L324.352 47.6097L336.151 45.7678H336.192L336.158 30.6556Z" fill="#FC97D9" stroke="#231F20" stroke-width="0.281264" stroke-linejoin="round"/>
<path d="M381.013 113.135L371.546 114.617L369.18 114.991H369.169L366.082 115.467V115.471L356.616 110.514L371.546 108.179L381.013 113.135Z" fill="#B9AB2B" stroke="#231F20" stroke-width="0.281264" stroke-linejoin="round"/>
<path d="M306.287 27.2632L306.276 20.2079L306.287 27.2632Z" fill="#EF4570" stroke="#231F20" stroke-width="0.281264" stroke-linejoin="round"/>
<path d="M321.229 32.9912H321.221H321.218H321.229Z" fill="#EF4570" stroke="#231F20" stroke-width="0.281264" stroke-linejoin="round"/>
<path d="M321.238 32.9879V32.9913V32.9879L321.221 26.5499L321.218 24.931L321.211 17.8756L321.228 26.5499L321.238 32.9879Z" fill="#EF4570"/>
<path d="M321.238 32.9879V32.9913V32.9879ZM321.238 32.9879L321.221 26.5499L321.218 24.931L321.211 17.8756L321.228 26.5499L321.238 32.9879Z" stroke="#231F20" stroke-width="0.281264" stroke-linejoin="round"/>
<path d="M306.349 65.5274L296.889 60.5678L296.858 60.554V45.4795L296.827 45.4624V30.3673H296.834L296.81 30.3501V15.255L306.277 20.2078L306.287 27.2632L306.294 28.889L306.308 35.3201H306.301L306.294 35.3235H306.287L306.301 42.3754L306.308 43.9841L306.318 50.4152V50.4358L306.332 57.4671L306.338 59.0963L306.349 65.5274Z" fill="#CB409B" stroke="#231F20" stroke-width="0.281264" stroke-linejoin="round"/>
<path d="M306.287 27.2632L306.276 20.2079L306.287 27.2632Z" fill="#821F38" stroke="#231F20" stroke-width="0.281264" stroke-linejoin="round"/>
<path d="M306.313 35.3202H306.309V35.3241H306.313V35.3202Z" fill="#821F38" stroke="#231F20" stroke-width="0.281264" stroke-linejoin="round"/>
<path d="M321.2 17.8756L311.741 19.3573L309.367 19.7243L306.277 20.2079L296.81 15.2551L311.741 12.9193L321.2 17.8756Z" fill="#CB409B" stroke="#231F20" stroke-width="0.281264" stroke-linejoin="round"/>
<path d="M321.211 17.8756H321.201L311.741 12.9193L321.211 17.8756Z" fill="#821F38" stroke="#231F20" stroke-width="0.281264" stroke-linejoin="round"/>
<path d="M296.92 75.0111L296.992 80.4887L297.033 85.9663L297.071 96.9215L297.033 107.877L296.992 113.351L296.92 118.832L296.855 113.351L296.81 107.877L296.779 96.9215L296.81 85.9663L296.855 80.4887L296.92 75.0111Z" fill="#EC008C"/>
<path d="M306.418 75.6252L306.491 81.4561L306.528 87.287L306.566 98.9487L306.528 110.607L306.491 116.445L306.418 122.276L306.35 116.445L306.309 110.607L306.271 98.9487L306.309 87.287L306.35 81.4561L306.418 75.6252Z" fill="#EC008C"/>
<path d="M321.255 73.2894L321.324 77.179L321.369 81.0719L321.399 88.851L321.369 96.6335L321.324 100.526L321.255 104.413L321.18 100.526L321.142 96.6335L321.111 88.851L321.142 81.0719L321.18 77.179L321.255 73.2894Z" fill="#EC008C"/>
<path d="M311.851 67.0298L311.923 70.2882L311.961 73.5432L311.999 80.0532L311.961 86.5598L311.923 89.8182L311.851 93.0664L311.779 89.8182L311.741 86.5598L311.704 80.0532L311.741 73.5432L311.779 70.2882L311.851 67.0298Z" fill="#EC008C"/>
<path d="M377.98 143.678L369.285 145.033L363.334 131.193L366.198 130.744L366.212 130.737L371.538 129.907L372.029 129.828L377.98 143.678Z" fill="white"/>
<path d="M351.028 101.792V101.94H351V102.31L345.146 88.6693L351 87.757L351.011 94.2327L351.028 101.792Z" fill="white"/>
<path d="M351.158 102.694H351.154V102.698H351.158V102.694Z" fill="#855AA5" stroke="#231F20" stroke-width="0.281264" stroke-linejoin="round"/>
<path d="M329.696 31.8217L326.509 32.3156L324.173 32.6791L321.138 33.1696V25.2259L321.056 18.0231L317.804 18.5616L314.751 19.0349L326.945 47.0951L335.701 45.7232L329.696 31.8217Z" fill="white"/>
<path d="M321.218 32.9912H321.229H321.221H321.218Z" fill="#855AA5" stroke="#231F20" stroke-width="0.281264" stroke-linejoin="round"/>
<path d="M371.911 129.516L371.434 129.595L369.184 129.942L366.262 130.401L366.248 124.293L366.241 122.749L366.228 116.304L371.911 129.516Z" fill="white"/>
<path d="M410.749 100.825L396.107 66.7485L396.1 65.6166L399.118 65.1502L401.437 64.79L402.929 64.5533L410.712 82.6462V84.8448L410.729 92.7199V92.8708H410.732L410.749 100.825Z" fill="white"/>
<path d="M300.594 131.41C302.238 131.437 303.882 131.341 305.512 131.122L306.198 130.964C307.063 130.768 307.176 130.758 307.33 130.672C307.697 130.403 307.943 130 308.016 129.551C308.469 127.894 308.808 123.867 308.651 123.867C308.493 123.867 308.88 128.573 309.302 129.472C309.513 129.913 309.831 130.294 310.228 130.58V130.58C310.554 130.782 310.917 130.919 311.295 130.981C311.731 131.05 314.067 131.238 317.28 131.358C314.118 131.65 311.792 131.931 311.165 132.027C310.739 132.096 310.338 132.274 310.002 132.545C309.934 132.611 309.873 132.683 309.82 132.761C309.717 132.928 309.644 133.111 309.604 133.303C309.539 133.646 309.302 135.704 309.025 138.578C308.901 137.717 308.812 137.028 308.757 136.592C308.541 134.816 308.517 134.133 308.03 133.351C307.832 133.027 307.587 132.734 307.303 132.483C306.972 132.311 306.628 132.167 306.274 132.051C305.581 131.831 304.86 131.715 304.133 131.708C302.949 131.669 301.768 131.569 300.594 131.41V131.41Z" fill="white" stroke="#231F20" stroke-width="0.188612" stroke-miterlimit="10"/>
<path d="M406.119 101.106C407.762 101.137 409.405 101.041 411.034 100.821C411.123 100.804 411.27 100.763 411.72 100.667C412.584 100.472 412.697 100.458 412.852 100.372C413.218 100.103 413.465 99.6999 413.538 99.2505C413.994 97.5939 414.33 93.5671 414.172 93.5671C414.014 93.5671 414.402 98.273 414.824 99.1716C415.031 99.6111 415.345 99.9919 415.736 100.28V100.28C416.063 100.479 416.425 100.615 416.803 100.681C417.238 100.749 419.574 100.935 422.788 101.055C419.626 101.346 417.3 101.627 416.673 101.741C416.245 101.806 415.844 101.984 415.51 102.259C415.441 102.321 415.381 102.393 415.331 102.471C415.226 102.637 415.151 102.821 415.112 103.013C415.047 103.356 414.81 105.414 414.536 108.288C414.409 107.427 414.32 106.738 414.268 106.302C414.049 104.526 414.025 103.843 413.538 103.061C413.337 102.739 413.088 102.448 412.8 102.2C412.47 102.026 412.126 101.881 411.771 101.765C411.079 101.543 410.358 101.427 409.631 101.422C408.849 101.398 407.703 101.322 406.119 101.106Z" fill="white" stroke="#231F20" stroke-width="0.188612" stroke-miterlimit="10"/>
</g>
<defs>
<clipPath id="clip0_1380_7317">
<rect width="454" height="168" fill="white"/>
</clipPath>
</defs>
</svg>
