<svg width="454" height="168" viewBox="0 0 454 168" fill="none" xmlns="http://www.w3.org/2000/svg">
<g clip-path="url(#clip0_1380_6688)">
<rect width="454" height="168" fill="#15063E"/>
<path d="M-156 -78L-586 -28.526V182.5H46.0897L152.5 168L168 53.9141L-156 -78Z" fill="#192558"/>
<path d="M21.7436 61.8289L75.7043 43.302C79.45 58.6828 83.0536 74.0963 86.5151 89.5424C88.8498 99.9861 91.1192 110.446 93.3233 120.922L40.9369 139.186C38.9288 131.29 36.9351 123.393 34.9556 115.495C30.4706 97.6234 26.0666 79.7348 21.7436 61.8289Z" fill="#FAFBE8" stroke="#231F20" stroke-width="0.471202" stroke-miterlimit="10"/>
<path d="M54.2844 85.5825L33.3068 92.8787L26.8033 66.9912L48.3928 59.537C50.3609 68.2182 52.3248 76.9 54.2844 85.5825Z" fill="white" stroke="#231F20" stroke-width="0.471202" stroke-miterlimit="10"/>
<path d="M44.2235 66.776L41.8307 67.7509C43.0198 67.7357 44.0785 67.6631 45.1721 68.1928L43.5931 68.9994C45.3227 70.6959 44.8561 72.75 45.3636 74.9359C44.783 74.4724 44.5765 73.8539 44.2448 73.2118C43.4928 71.7508 42.3648 71.6868 41.2079 72.778C40.1253 73.8184 38.9395 73.9633 37.5746 73.963C35.9894 73.9673 35.7013 74.4993 35.7643 75.9873C35.8441 76.8521 35.8533 77.722 35.7918 78.5882C34.966 77.3169 33.8907 76.5758 34.0252 74.9132C34.0143 74.1789 33.9372 73.4471 33.7949 72.7266C33.5957 70.8174 34.1989 69.8141 36.0674 69.3567C36.7883 69.2135 37.4648 68.9007 38.0412 68.444C39.941 66.8744 41.8133 66.6595 44.2235 66.776Z" fill="#231F20"/>
<path d="M42.7117 89.1859C42.6879 87.9175 42.9332 86.5977 42.2835 85.4808C42.0599 85.0821 42.1436 84.5998 42.4752 84.4777C43.0155 84.279 43.2628 84.7173 43.1931 85.206C43.1717 85.6948 43.2698 86.1816 43.479 86.6239C44.3482 88.9868 44.3519 89.0644 41.9949 89.9381C39.4905 90.8656 36.8437 91.7419 34.3789 92.6457C33.5605 92.9494 33.2579 92.6805 33.0812 91.9227C32.4685 89.2932 33.0167 88.2161 35.2059 86.6136C36.095 85.9643 37.2548 85.055 38.1071 84.3378C38.9594 83.6206 39.5785 83.7264 40.1207 84.6302C41.006 86.1396 41.8228 87.6815 42.7117 89.1859Z" fill="#231F20"/>
<path d="M44.4459 89.1225C44.5744 86.9311 44.6343 84.6073 44.7584 82.4426C44.7991 81.6894 44.9434 81.4797 45.7255 81.5205C47.4992 81.6122 49.105 81.3832 51.0113 81.519C52.7201 81.6383 54.1893 83.741 53.9678 85.4565C53.9095 85.9347 53.5617 85.9552 53.2593 86.0423C50.3037 87.1023 47.3893 88.0949 44.4459 89.1225Z" fill="#231F20"/>
<path d="M76.5382 58.8629L57.3586 65.5044L56.917 63.5424L76.1382 56.89C76.2769 57.5453 76.4037 58.2069 76.5382 58.8629Z" fill="#DDF1F4" stroke="#231F20" stroke-width="0.471202" stroke-miterlimit="10"/>
<path d="M82.2369 87.9309L40.573 102.503C40.4616 102.047 40.3454 101.588 40.234 101.133L81.9818 86.5429L82.2369 87.9309Z" fill="#DDF1F4" stroke="#231F20" stroke-width="0.471202" stroke-miterlimit="10"/>
<path d="M82.9715 91.6863L41.4654 106.216L41.1327 104.858L82.7014 90.3137L82.9715 91.6863Z" fill="#DDF1F4" stroke="#231F20" stroke-width="0.471202" stroke-miterlimit="10"/>
<path d="M83.7012 95.4086L42.3706 109.897L42.0392 108.548L83.4227 94.0373L83.7012 95.4086Z" fill="#DDF1F4" stroke="#231F20" stroke-width="0.471202" stroke-miterlimit="10"/>
<path d="M84.4275 99.0887L43.2695 113.546C43.1602 113.103 43.0544 112.655 42.9444 112.208L84.1671 97.7493C84.2524 98.2047 84.3433 98.6679 84.4275 99.0887Z" fill="#DDF1F4" stroke="#231F20" stroke-width="0.471202" stroke-miterlimit="10"/>
<path d="M85.1468 102.771L44.1574 117.171L43.8294 115.842C57.5101 111.043 71.1899 106.239 84.8688 101.43L85.1468 102.771Z" fill="#DDF1F4" stroke="#231F20" stroke-width="0.471202" stroke-miterlimit="10"/>
<path d="M85.8599 106.402L45.041 120.758C44.9324 120.319 44.8279 119.88 44.7193 119.441L85.6093 105.07C85.6799 105.515 85.7716 105.956 85.8599 106.402Z" fill="#DDF1F4" stroke="#231F20" stroke-width="0.471202" stroke-miterlimit="10"/>
<path d="M86.5704 110.006L45.9208 124.309L45.5962 123.001L86.3107 108.671C86.4002 109.126 86.4828 109.564 86.5704 110.006Z" fill="#DDF1F4" stroke="#231F20" stroke-width="0.471202" stroke-miterlimit="10"/>
<path d="M88.0645 117.643L69.2409 124.288L68.9576 122.996L87.8333 116.351C87.9005 116.774 87.9678 117.198 88.0645 117.643Z" fill="#DDF1F4" stroke="#231F20" stroke-width="0.471202" stroke-miterlimit="10"/>
<path d="M77.5434 64.0223L58.478 70.6457L58.0517 68.6987L77.1692 62.0757C77.2884 62.7168 77.418 63.3692 77.5434 64.0223Z" fill="#DDF1F4" stroke="#231F20" stroke-width="0.471202" stroke-miterlimit="10"/>
<path d="M78.4712 68.7141L59.4961 75.3058C59.3551 74.6638 59.2142 74.0219 59.0774 73.3793L78.0899 66.7773C78.2189 67.4255 78.3429 68.0701 78.4712 68.7141Z" fill="#DDF1F4" stroke="#231F20" stroke-width="0.471202" stroke-miterlimit="10"/>
<path d="M79.4774 73.8665L60.6108 80.4323C60.4712 79.7988 60.3371 79.1731 60.1962 78.5312L79.1044 71.9545C79.2271 72.5907 79.3547 73.2304 79.4774 73.8665Z" fill="#DDF1F4" stroke="#231F20" stroke-width="0.471202" stroke-miterlimit="10"/>
<path d="M68.6313 87.933L49.912 94.471C49.7701 93.8509 49.6214 93.2146 49.4781 92.6121L68.2355 86.068C68.3688 86.6895 68.4937 87.3122 68.6313 87.933Z" fill="#DDF1F4" stroke="#231F20" stroke-width="0.471202" stroke-miterlimit="10"/>
<path d="M38.5725 102.356C38.6358 102.616 38.5992 102.89 38.4702 103.123C38.3411 103.357 38.1289 103.534 37.8759 103.618C37.7603 103.665 37.6356 103.687 37.5106 103.681C37.3857 103.676 37.2635 103.643 37.1526 103.584C37.0418 103.526 36.945 103.445 36.8691 103.345C36.7931 103.245 36.7399 103.13 36.7131 103.008C36.6499 102.746 36.6879 102.47 36.8195 102.236C36.9511 102.002 37.1665 101.826 37.4224 101.744C37.5375 101.699 37.661 101.679 37.7846 101.686C37.9081 101.693 38.0287 101.727 38.138 101.785C38.2474 101.843 38.3428 101.924 38.4178 102.023C38.4928 102.121 38.5456 102.235 38.5725 102.356Z" fill="#DDF1F4" stroke="#231F20" stroke-width="0.471202" stroke-miterlimit="10"/>
<path d="M39.4731 106.139C39.5438 106.397 39.5147 106.671 39.3916 106.908C39.2686 107.145 39.0606 107.327 38.8095 107.417C38.6964 107.468 38.5734 107.494 38.4492 107.493C38.3249 107.492 38.2024 107.464 38.09 107.411C37.9777 107.358 37.8782 107.281 37.7986 107.185C37.7189 107.089 37.661 106.978 37.6288 106.857C37.557 106.6 37.5857 106.324 37.7089 106.087C37.8321 105.85 38.0407 105.668 38.2924 105.58C38.4055 105.528 38.5285 105.502 38.6527 105.503C38.7769 105.504 38.8995 105.532 39.0119 105.585C39.1242 105.639 39.2237 105.716 39.3033 105.811C39.383 105.907 39.4409 106.019 39.4731 106.139Z" fill="#DDF1F4" stroke="#231F20" stroke-width="0.471202" stroke-miterlimit="10"/>
<path d="M40.4003 109.855C40.4599 110.112 40.4219 110.383 40.2936 110.613C40.1652 110.844 39.9557 111.019 39.7059 111.103C39.5918 111.148 39.4693 111.168 39.3467 111.162C39.2241 111.156 39.1043 111.123 38.9954 111.066C38.8865 111.009 38.7911 110.93 38.7156 110.833C38.6401 110.736 38.5863 110.623 38.5578 110.504C38.4961 110.247 38.5327 109.976 38.6605 109.745C38.7883 109.514 38.9979 109.34 39.248 109.256C39.3623 109.21 39.4851 109.19 39.6082 109.196C39.7312 109.202 39.8516 109.234 39.961 109.291C40.0704 109.348 40.1662 109.428 40.2421 109.525C40.3179 109.622 40.3718 109.735 40.4003 109.855Z" fill="#DDF1F4" stroke="#231F20" stroke-width="0.471202" stroke-miterlimit="10"/>
<path d="M41.2979 113.477C41.3645 113.729 41.3351 113.996 41.2156 114.227C41.096 114.458 40.8949 114.636 40.6513 114.726C40.5398 114.776 40.4189 114.801 40.2968 114.8C40.1748 114.799 40.0543 114.772 39.9435 114.72C39.8327 114.669 39.7342 114.594 39.6546 114.501C39.5749 114.409 39.516 114.3 39.4818 114.182C39.4115 113.929 39.4388 113.659 39.5582 113.425C39.6776 113.192 39.8804 113.011 40.1263 112.921C40.2387 112.871 40.3606 112.846 40.4836 112.848C40.6066 112.849 40.7279 112.877 40.8391 112.93C40.9503 112.983 41.0488 113.059 41.128 113.154C41.2071 113.248 41.2651 113.358 41.2979 113.477Z" fill="#DDF1F4" stroke="#231F20" stroke-width="0.471202" stroke-miterlimit="10"/>
<path d="M42.2029 117.138C42.2618 117.389 42.2257 117.653 42.1015 117.879C41.9773 118.105 41.7738 118.276 41.5306 118.36C41.4179 118.405 41.2972 118.424 41.1763 118.418C41.0554 118.413 40.9372 118.381 40.8293 118.326C40.7215 118.271 40.6265 118.193 40.5507 118.099C40.4749 118.004 40.4199 117.895 40.3894 117.777C40.3303 117.526 40.3662 117.261 40.4903 117.035C40.6143 116.808 40.8176 116.636 41.0611 116.55C41.1741 116.506 41.2951 116.486 41.4163 116.493C41.5375 116.499 41.656 116.531 41.764 116.586C41.872 116.642 41.9669 116.72 42.0426 116.815C42.1183 116.91 42.1729 117.02 42.2029 117.138Z" fill="#DDF1F4" stroke="#231F20" stroke-width="0.471202" stroke-miterlimit="10"/>
<path d="M43.0832 120.696C43.1504 120.946 43.1216 121.212 43.0024 121.442C42.8832 121.671 42.6824 121.848 42.4396 121.936C42.3299 121.988 42.21 122.016 42.0884 122.017C41.9668 122.018 41.8465 121.992 41.7359 121.941C41.6253 121.891 41.5272 121.816 41.4485 121.723C41.3698 121.63 41.3125 121.521 41.2805 121.404C41.2134 121.155 41.2419 120.89 41.3605 120.661C41.479 120.432 41.6789 120.257 41.9206 120.169C42.0307 120.12 42.1499 120.095 42.2703 120.096C42.3907 120.096 42.5097 120.122 42.6194 120.172C42.7292 120.222 42.8272 120.294 42.9071 120.385C42.987 120.475 43.047 120.581 43.0832 120.696Z" fill="#DDF1F4" stroke="#231F20" stroke-width="0.471202" stroke-miterlimit="10"/>
<path d="M44.0282 124.52C44.0941 124.768 44.0648 125.032 43.9463 125.26C43.8277 125.488 43.6284 125.663 43.3875 125.751C43.278 125.798 43.1599 125.822 43.0406 125.82C42.9214 125.819 42.8037 125.793 42.6951 125.744C42.5865 125.694 42.4894 125.623 42.41 125.534C42.3306 125.444 42.2706 125.34 42.2339 125.226C42.1679 124.977 42.1969 124.713 42.3153 124.484C42.4337 124.256 42.6329 124.08 42.874 123.991C42.9833 123.939 43.1025 123.912 43.2233 123.912C43.3441 123.911 43.4636 123.937 43.5735 123.987C43.6834 124.037 43.7811 124.111 43.8596 124.203C43.9381 124.295 43.9957 124.403 44.0282 124.52Z" fill="#DDF1F4" stroke="#231F20" stroke-width="0.471202" stroke-miterlimit="10"/>
<path d="M127.564 25.4843C129.595 25.1946 131.602 24.7539 133.568 24.1659L134.383 23.8411C135.41 23.4305 135.547 23.3914 135.72 23.2554C136.128 22.8538 136.361 22.3062 136.366 21.7329C136.594 19.5951 136.228 14.5601 136.034 14.591C135.839 14.6219 137.24 20.3567 137.936 21.3837C138.277 21.8859 138.738 22.2948 139.277 22.5731C139.718 22.7581 140.191 22.8541 140.67 22.8556C141.22 22.8593 144.135 22.6309 148.118 22.1502C144.279 23.1291 141.469 23.9315 140.714 24.1729C140.203 24.3418 139.744 24.6405 139.383 25.0399C139.313 25.1346 139.252 25.2358 139.201 25.3423C139.108 25.567 139.053 25.8063 139.041 26.0495C139.028 26.4858 139.14 29.0732 139.362 32.6809C139.041 31.6421 138.796 30.8082 138.643 30.2811C138.028 28.1296 137.864 27.2915 137.111 26.4212C136.799 26.0623 136.434 25.7527 136.029 25.5031C135.589 25.3526 135.136 25.2415 134.677 25.1709C133.78 25.0327 132.869 25.0311 131.972 25.1662C131 25.2946 129.562 25.4318 127.564 25.4843Z" fill="white" stroke="#231F20" stroke-width="0.315983" stroke-miterlimit="10"/>
<path d="M37.6245 161.832C41.4234 161.198 44.2451 160.55 45.2449 160.161L46.2751 159.746C47.5791 159.226 47.749 159.178 47.9684 159.004C48.5458 158.547 48.7124 157.796 48.7923 157.071C49.0899 154.362 48.6221 147.98 48.3728 148.019C48.1234 148.059 49.9038 155.34 50.7871 156.646C51.2205 157.282 51.8047 157.801 52.4872 158.156C53.0484 158.389 53.6489 158.511 54.2561 158.517C54.9582 158.519 58.6554 158.227 63.7149 157.619C58.8429 158.861 55.2952 159.876 54.3136 160.189C53.6641 160.401 53.0819 160.781 52.6254 161.29C52.5353 161.41 52.4584 161.538 52.3961 161.674C52.2746 161.96 52.2056 162.265 52.1925 162.575C52.1738 163.112 52.3206 166.436 52.6019 170.99C52.1893 169.675 51.8825 168.616 51.6855 167.948C50.8999 165.212 50.6965 164.15 49.7372 163.047C49.3389 162.592 48.8762 162.197 48.3639 161.876C47.8084 161.689 47.2382 161.549 46.6595 161.456C45.5221 161.285 44.3654 161.287 43.2289 161.463C41.972 161.597 40.1571 161.764 37.6245 161.832Z" fill="white" stroke="#231F20" stroke-width="0.315983" stroke-miterlimit="10"/>
<path d="M69.3974 123.847L86.8161 166.789L79.0137 163.304L61.5957 120.366L69.3974 123.847Z" fill="#821F38" stroke="#231F20" stroke-width="0.471202" stroke-linejoin="round"/>
<path d="M138.013 91.5685L127.697 97.6314L123.937 99.8439L77.1925 127.333L61.5927 120.367L122.412 84.5981L130.07 88.0191L130.411 88.1734L138.013 91.5685Z" fill="#B42F50" stroke="#231F20" stroke-width="0.471202" stroke-miterlimit="10"/>
<path d="M138.015 91.5656L123.939 99.8411L127.7 97.6286L138.015 91.5656Z" fill="white" stroke="#231F20" stroke-width="0.471202" stroke-miterlimit="10"/>
<path d="M138.017 91.5654L155.414 134.454L94.6152 170.271L77.1965 127.33L91.4731 141.023L117.904 131.589L141.077 115.143L138.017 91.5654Z" fill="#EF4570" stroke="#231F20" stroke-width="0.471202" stroke-linejoin="round"/>
<path d="M77.1956 127.332L94.6143 170.273L86.8161 166.788L69.3975 123.846L77.1956 127.332Z" fill="#821F38" stroke="#231F20" stroke-width="0.471202" stroke-linejoin="round"/>
<path d="M130.713 87.6472L130.419 88.1715L130.078 88.0172L130.713 87.6472Z" fill="white" stroke="#231F20" stroke-width="0.471202" stroke-miterlimit="10"/>
<path d="M138.017 91.5654L141.077 115.143L117.904 131.589L91.4731 141.023L77.1965 127.33L123.941 99.8408L138.017 91.5654Z" fill="#EF4570" stroke="#231F20" stroke-width="0.471202" stroke-linejoin="round"/>
<path d="M75.3689 112.264L75.5439 112.105L75.5861 112.125L75.3689 112.264Z" fill="white" stroke="#231F20" stroke-width="0.471202" stroke-miterlimit="10"/>
<path d="M75.6377 112.158L75.5801 112.128L75.6187 112.122L75.6377 112.158Z" fill="white" stroke="#231F20" stroke-width="0.471202" stroke-miterlimit="10"/>
<path d="M110.341 93.7784C109.925 93.5113 109.482 93.2905 109.019 93.12C108.852 92.9685 108.661 92.8077 108.454 92.6453C109.121 92.9542 109.754 93.3341 110.341 93.7784Z" fill="white" stroke="#231F20" stroke-width="0.471202" stroke-miterlimit="10"/>
<path d="M110.617 92.0892C110.359 91.9942 110.096 91.9128 109.829 91.8453C109.537 91.7751 109.239 91.7279 108.94 91.7043C106.552 91.5365 103.945 92.9926 99.3302 95.6361C93.166 99.1639 90.0806 100.935 88.834 104.298C88.4027 105.457 87.4089 108.801 89.4613 113.703L89.3962 113.757L86.8368 112.375C84.9096 107.579 85.884 104.302 86.3088 103.158C87.5554 99.7945 90.6372 98.0285 96.8057 94.5C103.752 90.5222 106.075 90.5224 107.309 90.7085C108.236 90.8593 109.137 91.1448 109.982 91.5561C110.213 91.7278 110.43 91.9192 110.617 92.0892Z" fill="white" stroke="#231F20" stroke-width="0.471202" stroke-miterlimit="10"/>
<path d="M116.409 98.4111L113.023 100.334C112.82 99.8453 111.893 97.7738 110.411 96.572C109.737 96.0455 108.973 95.646 108.157 95.3929C108.026 95.3597 107.893 95.3344 107.759 95.3171L107.503 95.2883C107.101 95.2631 106.698 95.2936 106.304 95.3788L106.258 95.3862C104.804 95.6954 103.078 96.6686 100.485 98.1572L98.8167 99.1125C95.4096 101.095 93.6114 102.349 92.8191 104.481C91.6028 107.735 93.1693 111.16 93.2614 111.358L93.3544 111.534L93.2824 111.572L89.444 113.758C89.4396 113.739 89.4367 113.721 89.4353 113.702C87.4025 108.815 88.3937 105.453 88.808 104.297C90.0546 100.934 93.1407 99.1674 99.3085 95.6346C103.92 92.9961 106.526 91.5357 108.914 91.7035C109.213 91.7272 109.511 91.7743 109.803 91.8445C110.07 91.9135 110.333 91.9963 110.592 92.0926C111.117 92.2914 111.619 92.5482 112.087 92.8582C114.597 94.5003 115.945 97.3429 116.409 98.4111Z" fill="white" stroke="#231F20" stroke-width="0.471202" stroke-miterlimit="10"/>
<path d="M110.068 99.2277C109.943 98.6631 109.723 98.124 109.416 97.6335C109.198 97.2841 108.94 96.9608 108.648 96.67C107.999 96.0429 107.198 95.5968 106.324 95.3762C106.717 95.2908 107.121 95.2603 107.523 95.2857C107.603 95.2729 107.694 95.3018 107.779 95.3145C107.912 95.3318 108.045 95.3571 108.176 95.3903C109.008 95.6038 109.78 96.0073 110.43 96.5693C111.548 97.5696 112.427 98.8084 113.003 100.194L110.068 99.2277Z" fill="white" stroke="#231F20" stroke-width="0.471202" stroke-miterlimit="10"/>
<path d="M128.747 97.1221L126.868 125.123L117.94 131.46L117.07 131.772L119.011 102.85L123.932 99.9537L128.747 97.1221Z" fill="white" stroke="#231F20" stroke-width="0.471202" stroke-miterlimit="10"/>
<path d="M113.828 130.187L120.063 126.449L118.71 123.116L112.574 127.091L113.828 130.187Z" fill="#FFF200" stroke="#231F20" stroke-width="0.471202" stroke-miterlimit="10"/>
<path d="M91.9513 30.9019L85.7936 50.3204C85.4547 51.2229 85.3024 52.1852 85.346 53.1487C85.7288 60.4693 98.3803 64.886 102.365 66.2678C104.837 67.13 119.013 72.0559 122.934 66.7393C123.367 66.1381 123.662 65.4495 123.801 64.7215L129.156 47.8055" fill="#4F409A"/>
<path d="M91.9513 30.9019L85.7936 50.3204C85.4547 51.2229 85.3024 52.1852 85.346 53.1487C85.7288 60.4693 98.3803 64.886 102.365 66.2678C104.837 67.13 119.013 72.0559 122.934 66.7392C123.367 66.1381 123.662 65.4495 123.801 64.7215L129.156 47.8055" stroke="#231F20" stroke-width="0.471202" stroke-miterlimit="10"/>
<path d="M145.314 60.8601L143.471 60.4972L93.9164 50.7569L76.3675 25.3819L75.1992 23.7004L122.635 32.2663C130.198 41.7985 137.758 51.3298 145.314 60.8601Z" fill="#4F409A" stroke="#231F20" stroke-width="0.471202" stroke-miterlimit="10"/>
<path d="M93.9176 50.7584L93.4726 52.1577L74.7534 25.0885L75.1977 23.685L76.3687 25.3834L93.9176 50.7584Z" fill="#352E7E" stroke="#231F20" stroke-width="0.471202" stroke-miterlimit="10"/>
<path d="M145.318 60.8562L144.877 62.2549L93.4754 52.1566L93.9204 50.7572L143.48 60.4968L145.318 60.8562Z" fill="#4F409A" stroke="#231F20" stroke-width="0.471202" stroke-miterlimit="10"/>
<path d="M116.715 31.4335C120.735 40.1071 124.758 48.7818 128.781 57.4578L122.983 56.2511C119.34 47.7 115.695 39.1462 112.048 30.5898L116.715 31.4335Z" fill="white"/>
<path d="M110.465 43.606L119.774 55.8438L116.409 72.3005C115.134 74.357 114.294 76.6539 113.941 79.0492L117.24 79.8538C117.823 77.396 117.894 74.8439 117.449 72.3567C118.793 66.9645 120.136 61.5712 121.478 56.1767L111.778 43.3888L110.465 43.606Z" fill="#FFF200" stroke="#231F20" stroke-width="0.471202" stroke-miterlimit="10"/>
<path d="M117.487 71.9003L116.683 71.6479L116.401 72.5523L117.205 72.8047L117.487 71.9003Z" fill="#231F20" stroke="#231F20" stroke-width="0.471202" stroke-miterlimit="10"/>
<path d="M215.728 54.32V77H221.848V54.32H215.728ZM231.123 54.32H225.291V77H230.907V63.572L240.699 77H245.595V54.32H239.979V66.884L231.123 54.32ZM262.088 77V59.36H269.972V54.32H248.228V59.36H256.004V77H262.088ZM290.467 71.96H278.623V68.036H287.515V63.068H278.623V59.36H290.143V54.32H272.611V77H290.467V71.96ZM313.768 77C313.012 76.172 312.904 75.164 312.58 71.78C312.328 69.152 310.96 67.82 308.62 67.352C311.392 66.992 313.444 64.832 313.444 61.52C313.444 57.092 310.528 54.32 304.66 54.32H293.212V77H299.224V69.476H303.292C305.344 69.476 306.46 70.052 306.64 72.644C306.82 74.984 307.108 76.388 307.576 77H313.768ZM299.224 64.76V59.216H303.58C306.172 59.216 307.468 60.188 307.468 62.024C307.468 64.112 306.172 64.76 303.58 64.76H299.224ZM321.966 54.32H316.134V77H321.75V63.572L331.542 77H336.438V54.32H330.822V66.884L321.966 54.32ZM346.02 77V68.684H354.3V63.716H346.02V59.36H357.036V54.32H339.9V77H346.02ZM364.259 54.32L355.223 77H361.379L363.071 72.608H371.927L373.619 77H380.135L371.099 54.32H364.259ZM367.427 61.34H367.571L370.163 68.036H364.835L367.427 61.34ZM381.876 54.32V77H387.996V54.32H381.876ZM411.995 77C411.239 76.172 411.131 75.164 410.807 71.78C410.555 69.152 409.187 67.82 406.847 67.352C409.619 66.992 411.671 64.832 411.671 61.52C411.671 57.092 408.755 54.32 402.887 54.32H391.439V77H397.451V69.476H401.519C403.571 69.476 404.687 70.052 404.867 72.644C405.047 74.984 405.335 76.388 405.803 77H411.995ZM397.451 64.76V59.216H401.807C404.399 59.216 405.695 60.188 405.695 62.024C405.695 64.112 404.399 64.76 401.807 64.76H397.451Z" fill="white"/>
<path d="M214.911 102.329V108.312H216.196V106.088H217.491C218.838 106.088 219.671 105.547 219.671 104.217C219.671 102.879 218.838 102.329 217.491 102.329H214.911ZM216.196 104.971V103.446H217.446C218.076 103.446 218.386 103.659 218.386 104.217C218.386 104.758 218.085 104.971 217.446 104.971H216.196ZM221.613 103.845H220.39V108.312H221.613V106.265C221.613 105.237 222.083 104.9 223.138 104.9V103.756C222.429 103.756 221.879 104.058 221.613 104.501V103.845ZM225.93 108.401C227.348 108.401 228.35 107.515 228.35 106.07C228.35 104.643 227.348 103.756 225.93 103.756C224.512 103.756 223.501 104.643 223.501 106.07C223.501 107.515 224.512 108.401 225.93 108.401ZM225.93 107.399C225.212 107.399 224.733 106.859 224.733 106.07C224.733 105.299 225.212 104.758 225.93 104.758C226.648 104.758 227.127 105.299 227.127 106.07C227.127 106.859 226.648 107.399 225.93 107.399ZM232.571 104.377C232.252 103.978 231.755 103.756 231.17 103.756C229.974 103.756 228.998 104.634 228.998 106.088C228.998 107.541 229.974 108.401 231.17 108.401C231.755 108.401 232.252 108.188 232.571 107.798V108.312H233.803V102.329H232.571V104.377ZM231.427 107.382C230.745 107.382 230.231 106.903 230.231 106.088C230.231 105.272 230.745 104.767 231.427 104.767C232.119 104.767 232.624 105.272 232.624 106.088C232.624 106.903 232.119 107.382 231.427 107.382ZM237.736 106.274C237.736 107.125 237.275 107.417 236.796 107.417C236.371 107.417 236.034 107.169 236.034 106.575V103.845H234.811V106.832C234.811 107.816 235.343 108.401 236.406 108.401C236.974 108.401 237.435 108.18 237.736 107.71V108.312H238.959V103.845H237.736V106.274ZM242.213 108.401C243.339 108.401 244.207 107.798 244.42 106.735L243.286 106.628C243.144 107.151 242.754 107.399 242.257 107.399C241.522 107.399 241.034 106.859 241.034 106.07C241.034 105.29 241.522 104.758 242.257 104.758C242.869 104.758 243.339 105.174 243.392 105.857L244.527 105.751C244.42 104.483 243.481 103.756 242.213 103.756C240.786 103.756 239.802 104.696 239.802 106.07C239.802 107.453 240.786 108.401 242.213 108.401ZM247.839 108.312V107.266H247.165C246.961 107.266 246.873 107.187 246.873 106.983V104.784H247.839V103.845H246.873V102.329H245.65V103.845H244.932V104.784H245.65V107.134C245.65 107.905 246.057 108.312 246.82 108.312H247.839ZM254.36 105.919L253.208 102.329H251.027V108.312H252.312V103.074L253.926 108.312H254.794L256.417 103.074V108.312H257.702V102.329H255.512L254.36 105.919ZM262.452 104.705C262.222 104.102 261.619 103.756 260.635 103.756C259.58 103.756 258.782 104.261 258.614 105.228L259.713 105.414C259.775 104.971 260.076 104.669 260.608 104.669C261.078 104.669 261.344 104.873 261.353 105.307L260.413 105.573C259.536 105.822 258.614 106.203 258.614 107.187C258.614 108.082 259.403 108.401 260.094 108.401C260.759 108.401 261.22 108.109 261.406 107.683H261.45V108.312H262.585V105.644C262.585 105.148 262.55 104.944 262.452 104.705ZM260.387 107.497C260.032 107.497 259.837 107.346 259.837 107.063C259.837 106.735 260.094 106.531 260.644 106.371L261.433 106.105C261.388 106.956 260.972 107.497 260.387 107.497ZM266.158 103.756C265.59 103.756 265.129 103.969 264.828 104.43V103.845H263.596V108.312H264.828V105.884C264.828 105.033 265.289 104.74 265.759 104.74C266.184 104.74 266.521 104.988 266.521 105.582V108.312H267.744V105.325C267.744 104.332 267.212 103.756 266.158 103.756ZM272.407 104.705C272.177 104.102 271.574 103.756 270.59 103.756C269.535 103.756 268.737 104.261 268.569 105.228L269.668 105.414C269.73 104.971 270.032 104.669 270.563 104.669C271.033 104.669 271.299 104.873 271.308 105.307L270.368 105.573C269.491 105.822 268.569 106.203 268.569 107.187C268.569 108.082 269.358 108.401 270.049 108.401C270.714 108.401 271.175 108.109 271.361 107.683H271.406V108.312H272.54V105.644C272.54 105.148 272.505 104.944 272.407 104.705ZM270.342 107.497C269.987 107.497 269.792 107.346 269.792 107.063C269.792 106.735 270.049 106.531 270.599 106.371L271.388 106.105C271.344 106.956 270.927 107.497 270.342 107.497ZM276.654 104.394C276.405 104.013 275.927 103.756 275.324 103.756C274.225 103.756 273.32 104.616 273.32 105.857C273.32 107.107 274.225 107.985 275.315 107.985C275.9 107.985 276.405 107.727 276.654 107.337V107.852C276.654 108.49 276.37 108.968 275.563 108.968C275.014 108.968 274.659 108.703 274.42 108.162L273.418 108.658C273.746 109.421 274.429 109.917 275.608 109.917C276.999 109.917 277.877 109.226 277.877 107.789L277.886 103.845H276.654V104.394ZM275.608 107.036C274.969 107.036 274.544 106.584 274.544 105.884C274.544 105.166 274.969 104.722 275.608 104.722C276.246 104.722 276.654 105.166 276.654 105.884C276.654 106.593 276.246 107.036 275.608 107.036ZM283.367 106.043C283.358 104.563 282.392 103.756 281.08 103.756C279.768 103.756 278.74 104.634 278.74 106.079C278.74 107.524 279.68 108.401 281.142 108.401C282.171 108.401 282.977 107.887 283.27 106.974L282.135 106.823C281.967 107.231 281.612 107.435 281.142 107.435C280.504 107.435 280.016 107.045 279.954 106.327H283.35L283.367 106.043ZM281.089 104.687C281.612 104.687 282.011 104.962 282.126 105.449H280.016C280.158 104.935 280.539 104.687 281.089 104.687ZM289.632 103.756C288.994 103.756 288.48 103.978 288.143 104.386C287.895 103.978 287.416 103.756 286.769 103.756C286.21 103.756 285.758 103.978 285.457 104.368V103.845H284.225V108.312H285.457V105.857C285.457 105.015 285.865 104.731 286.334 104.731C286.76 104.731 287.088 104.988 287.088 105.494V108.312H288.32V105.857C288.32 105.006 288.728 104.731 289.198 104.731C289.623 104.731 289.951 104.979 289.951 105.494V108.312H291.174V105.077C291.174 104.253 290.598 103.756 289.632 103.756ZM296.612 106.043C296.603 104.563 295.637 103.756 294.325 103.756C293.013 103.756 291.985 104.634 291.985 106.079C291.985 107.524 292.924 108.401 294.387 108.401C295.415 108.401 296.222 107.887 296.515 106.974L295.38 106.823C295.211 107.231 294.857 107.435 294.387 107.435C293.749 107.435 293.261 107.045 293.199 106.327H296.594L296.612 106.043ZM294.334 104.687C294.857 104.687 295.256 104.962 295.371 105.449H293.261C293.403 104.935 293.784 104.687 294.334 104.687ZM300.031 103.756C299.464 103.756 299.003 103.969 298.702 104.43V103.845H297.469V108.312H298.702V105.884C298.702 105.033 299.163 104.74 299.632 104.74C300.058 104.74 300.395 104.988 300.395 105.582V108.312H301.618V105.325C301.618 104.332 301.086 103.756 300.031 103.756ZM305.121 108.312V107.266H304.447C304.243 107.266 304.154 107.187 304.154 106.983V104.784H305.121V103.845H304.154V102.329H302.931V103.845H302.213V104.784H302.931V107.134C302.931 107.905 303.339 108.312 304.101 108.312H305.121ZM221.783 113.232H215.205V122.312H221.783V120.604H217.155V118.6H221.419V116.918H217.155V114.927H221.783V113.232ZM229.702 117.725L232.715 113.232H230.455L228.451 116.273L226.447 113.232H224.187L227.2 117.725L224.012 122.312H226.339L228.451 119.232L230.563 122.312H232.89L229.702 117.725ZM235.403 113.232V122.312H237.353V118.936H239.317C241.362 118.936 242.626 118.115 242.626 116.098C242.626 114.066 241.362 113.232 239.317 113.232H235.403ZM237.353 117.241V114.927H239.25C240.205 114.927 240.676 115.25 240.676 116.098C240.676 116.918 240.218 117.241 239.25 117.241H237.353ZM251.948 113.232H245.37V122.312H251.948V120.604H247.321V118.6H251.585V116.918H247.321V114.927H251.948V113.232ZM258.374 122.312C261.549 122.312 263.271 120.873 263.271 117.766C263.271 114.699 261.562 113.232 258.374 113.232H254.944V122.312H258.374ZM256.881 114.927H258.361C260.217 114.927 261.32 115.842 261.32 117.766C261.32 119.662 260.257 120.604 258.361 120.604H256.881V114.927ZM268.136 122.312V113.232H266.185V122.312H268.136ZM270.881 113.232V114.927H273.733V122.312H275.684V114.927H278.536V113.232H270.881ZM283.237 122.312V113.232H281.286V122.312H283.237ZM290.776 122.487C293.507 122.487 295.444 120.564 295.444 117.766C295.444 114.968 293.507 113.044 290.776 113.044C288.059 113.044 286.121 114.968 286.121 117.766C286.121 120.564 288.059 122.487 290.776 122.487ZM290.776 120.698C289.202 120.698 288.059 119.528 288.059 117.766C288.059 116.004 289.202 114.833 290.776 114.833C292.377 114.833 293.493 116.004 293.493 117.766C293.493 119.528 292.377 120.698 290.776 120.698ZM304.613 119.555L300.645 113.232H298.331V122.312H300.282V115.95L304.223 122.312H306.564V113.232H304.613V119.555Z" fill="white"/>
<line x1="302.659" y1="89.7141" x2="214.479" y2="89.7141" stroke="#F0DF31" stroke-width="0.736814" stroke-linecap="round"/>
</g>
<defs>
<clipPath id="clip0_1380_6688">
<rect width="454" height="168" fill="white"/>
</clipPath>
</defs>
</svg>
