<svg width="58" height="34" viewBox="0 0 58 34" fill="none" xmlns="http://www.w3.org/2000/svg">
<rect x="0.381579" y="0.381579" width="57.2368" height="32.8158" fill="#F0E266"/>
<g clip-path="url(#clip0_905_2192)">
<path d="M9.15771 11.1938C9.15771 10.7027 9.3296 10.2975 9.67336 9.97833C10.0171 9.65911 10.464 9.49951 11.014 9.49951C11.5543 9.49951 11.9913 9.65665 12.3253 9.97096C12.669 10.2951 12.8409 10.7174 12.8409 11.238C12.8409 11.7094 12.6739 12.1023 12.34 12.4166C11.9962 12.7407 11.5444 12.9028 10.9846 12.9028H10.9698C10.4296 12.9028 9.99258 12.7407 9.65863 12.4166C9.32468 12.0925 9.15771 11.6849 9.15771 11.1938ZM9.34924 24.085V14.2435H12.6199V24.085H9.34924ZM14.432 24.085H17.7027V18.5896C17.7027 18.2459 17.742 17.9807 17.8206 17.7941C17.9581 17.4601 18.1668 17.1777 18.4467 16.9469C18.7267 16.7161 19.0778 16.6007 19.5001 16.6007C20.6002 16.6007 21.1502 17.3423 21.1502 18.8254V24.085H24.4209V18.4423C24.4209 16.9887 24.0771 15.8862 23.3896 15.1348C22.702 14.3834 21.7935 14.0077 20.664 14.0077C19.397 14.0077 18.4099 14.5529 17.7027 15.6431V15.6725H17.688L17.7027 15.6431V14.2435H14.432C14.4517 14.5578 14.4615 15.535 14.4615 17.1753C14.4615 18.8155 14.4517 21.1188 14.432 24.085Z" fill="#0A021C"/>
</g>
<path d="M45.6623 21.2409H36.7587V12.3374H41.2105V11.0654H36.7587C36.0528 11.0654 35.4868 11.6378 35.4868 12.3374V21.2409C35.4868 21.9404 36.0528 22.5128 36.7587 22.5128H45.6623C46.3618 22.5128 46.9342 21.9404 46.9342 21.2409V16.7891H45.6623V21.2409ZM42.4824 11.0654V12.3374H44.7655L38.514 18.5889L39.4107 19.4856L45.6623 13.2341V15.5172H46.9342V11.0654H42.4824Z" fill="#0A021C"/>
<rect x="0.381579" y="0.381579" width="57.2368" height="32.8158" stroke="#060213" stroke-width="0.763158"/>
<defs>
<clipPath id="clip0_905_2192">
<rect width="15.2632" height="15.2632" fill="white" transform="translate(9.15771 9.15771)"/>
</clipPath>
</defs>
</svg>
