<svg width="454" height="168" viewBox="0 0 454 168" fill="none" xmlns="http://www.w3.org/2000/svg">
<g clip-path="url(#clip0_1380_2615)">
<rect width="454" height="168" fill="#1A074E"/>
<path d="M-137 -78L-567 -28.526V182.5H65.0897L171.5 168L187 53.9141L-137 -78Z" fill="#2D1373"/>
<path d="M263.728 42.4762V65.1562H281.08V60.1162H269.848V42.4762H263.728ZM301.553 60.1162H289.709V56.1922H298.601V51.2242H289.709V47.5162H301.229V42.4762H283.697V65.1562H301.553V60.1162ZM302.763 53.8162C302.763 60.8002 307.767 65.5883 314.391 65.5883C321.339 65.5883 325.047 61.1962 325.479 55.5442L319.611 55.2922C319.251 57.8122 317.883 60.1522 314.355 60.1522C311.007 60.1522 309.063 57.6682 309.063 53.8162C309.063 49.9642 311.007 47.4802 314.355 47.4802C317.883 47.4802 319.251 49.8202 319.611 52.3402L325.479 52.1242C325.047 46.4722 321.339 42.0442 314.391 42.0442C307.767 42.0442 302.763 46.8322 302.763 53.8162ZM339.795 65.1562V47.5162H347.679V42.4762H325.935V47.5162H333.711V65.1562H339.795ZM360.47 65.5883C366.302 65.5883 370.802 62.7803 370.802 56.1562V42.4762H364.682V55.1482C364.682 58.6042 363.638 60.4402 360.47 60.4402C357.338 60.4402 356.258 58.6042 356.258 55.1482V42.4762H350.174V56.1562C350.174 62.7803 354.638 65.5883 360.47 65.5883ZM394.639 65.1562C393.883 64.3282 393.775 63.3202 393.451 59.9362C393.199 57.3082 391.831 55.9762 389.491 55.5082C392.263 55.1482 394.315 52.9882 394.315 49.6762C394.315 45.2482 391.399 42.4762 385.531 42.4762H374.083V65.1562H380.095V57.6322H384.163C386.215 57.6322 387.331 58.2082 387.511 60.8002C387.691 63.1402 387.979 64.5442 388.447 65.1562H394.639ZM380.095 52.9162V47.3722H384.451C387.043 47.3722 388.339 48.3442 388.339 50.1802C388.339 52.2682 387.043 52.9162 384.451 52.9162H380.095ZM414.861 60.1162H403.017V56.1922H411.909V51.2242H403.017V47.5162H414.537V42.4762H397.005V65.1562H414.861V60.1162ZM262.72 84.1282C262.72 89.6002 267.112 92.5883 273.268 92.5883C278.56 92.5883 282.736 90.1762 282.736 85.3522C282.736 81.6442 280.576 79.1602 275.824 78.3322L271.54 77.5762C270.136 77.3242 269.272 76.9282 269.272 75.8842C269.272 74.6242 270.424 73.8322 272.44 73.8322C274.78 73.8322 276.472 74.9122 276.652 77.2522L282.268 77.1442C282.16 72.1042 278.776 69.0442 272.512 69.0442C266.86 69.0442 263.26 71.8163 263.26 76.4242C263.26 80.3842 265.852 82.4722 269.56 83.1562L273.7 83.8762C275.428 84.2002 276.76 84.4162 276.76 85.7482C276.76 87.0082 275.392 87.7642 273.268 87.7642C270.748 87.7642 268.552 86.7922 268.336 83.9482L262.72 84.1282ZM303.416 87.1162H291.572V83.1922H300.464V78.2242H291.572V74.5162H303.092V69.4762H285.56V92.1562H303.416V87.1162ZM326.718 92.1562C325.962 91.3282 325.854 90.3202 325.53 86.9362C325.278 84.3082 323.91 82.9762 321.57 82.5082C324.342 82.1482 326.394 79.9882 326.394 76.6762C326.394 72.2482 323.478 69.4762 317.61 69.4762H306.162V92.1562H312.174V84.6322H316.242C318.294 84.6322 319.41 85.2082 319.59 87.8002C319.77 90.1402 320.058 91.5442 320.526 92.1562H326.718ZM312.174 79.9162V74.3722H316.53C319.122 74.3722 320.418 75.3442 320.418 77.1802C320.418 79.2682 319.122 79.9162 316.53 79.9162H312.174ZM329.083 69.4762V92.1562H335.203V69.4762H329.083ZM356.502 87.1162H344.658V83.1922H353.55V78.2242H344.658V74.5162H356.178V69.4762H338.646V92.1562H356.502V87.1162ZM357.888 84.1282C357.888 89.6002 362.28 92.5883 368.436 92.5883C373.728 92.5883 377.904 90.1762 377.904 85.3522C377.904 81.6442 375.744 79.1602 370.992 78.3322L366.708 77.5762C365.304 77.3242 364.44 76.9282 364.44 75.8842C364.44 74.6242 365.592 73.8322 367.608 73.8322C369.948 73.8322 371.64 74.9122 371.82 77.2522L377.436 77.1442C377.328 72.1042 373.944 69.0442 367.68 69.0442C362.028 69.0442 358.428 71.8163 358.428 76.4242C358.428 80.3842 361.02 82.4722 364.728 83.1562L368.868 83.8762C370.596 84.2002 371.928 84.4162 371.928 85.7482C371.928 87.0082 370.56 87.7642 368.436 87.7642C365.916 87.7642 363.72 86.7922 363.504 83.9482L357.888 84.1282Z" fill="white"/>
<path d="M262.802 114.141V120.125H264.087V117.9H265.381C266.729 117.9 267.562 117.359 267.562 116.03C267.562 114.691 266.729 114.141 265.381 114.141H262.802ZM264.087 116.783V115.258H265.337C265.966 115.258 266.277 115.471 266.277 116.03C266.277 116.57 265.975 116.783 265.337 116.783H264.087ZM269.504 115.657H268.28V120.125H269.504V118.077C269.504 117.049 269.973 116.712 271.028 116.712V115.569C270.319 115.569 269.77 115.87 269.504 116.313V115.657ZM273.821 120.214C275.239 120.214 276.241 119.327 276.241 117.882C276.241 116.455 275.239 115.569 273.821 115.569C272.402 115.569 271.392 116.455 271.392 117.882C271.392 119.327 272.402 120.214 273.821 120.214ZM273.821 119.212C273.103 119.212 272.624 118.671 272.624 117.882C272.624 117.111 273.103 116.57 273.821 116.57C274.539 116.57 275.017 117.111 275.017 117.882C275.017 118.671 274.539 119.212 273.821 119.212ZM280.461 116.189C280.142 115.79 279.646 115.569 279.061 115.569C277.864 115.569 276.889 116.446 276.889 117.9C276.889 119.354 277.864 120.214 279.061 120.214C279.646 120.214 280.142 120.001 280.461 119.611V120.125H281.694V114.141H280.461V116.189ZM279.318 119.194C278.635 119.194 278.121 118.716 278.121 117.9C278.121 117.084 278.635 116.579 279.318 116.579C280.009 116.579 280.515 117.084 280.515 117.9C280.515 118.716 280.009 119.194 279.318 119.194ZM285.627 118.086C285.627 118.937 285.166 119.23 284.687 119.23C284.262 119.23 283.925 118.981 283.925 118.388V115.657H282.701V118.645C282.701 119.629 283.233 120.214 284.297 120.214C284.864 120.214 285.325 119.992 285.627 119.522V120.125H286.85V115.657H285.627V118.086ZM290.104 120.214C291.229 120.214 292.098 119.611 292.311 118.547L291.176 118.441C291.034 118.964 290.644 119.212 290.148 119.212C289.412 119.212 288.925 118.671 288.925 117.882C288.925 117.102 289.412 116.57 290.148 116.57C290.76 116.57 291.229 116.987 291.283 117.67L292.417 117.563C292.311 116.296 291.371 115.569 290.104 115.569C288.676 115.569 287.692 116.508 287.692 117.882C287.692 119.265 288.676 120.214 290.104 120.214ZM295.73 120.125V119.079H295.056C294.852 119.079 294.763 118.999 294.763 118.795V116.597H295.73V115.657H294.763V114.141H293.54V115.657H292.822V116.597H293.54V118.946C293.54 119.717 293.948 120.125 294.71 120.125H295.73ZM302.251 117.732L301.098 114.141H298.918V120.125H300.203V114.886L301.816 120.125H302.685L304.307 114.886V120.125H305.593V114.141H303.403L302.251 117.732ZM310.343 116.517C310.112 115.914 309.509 115.569 308.525 115.569C307.471 115.569 306.673 116.074 306.504 117.04L307.604 117.226C307.666 116.783 307.967 116.482 308.499 116.482C308.969 116.482 309.235 116.686 309.243 117.12L308.304 117.386C307.426 117.634 306.504 118.015 306.504 118.999C306.504 119.895 307.293 120.214 307.985 120.214C308.65 120.214 309.111 119.921 309.297 119.496H309.341V120.125H310.476V117.457C310.476 116.96 310.44 116.756 310.343 116.517ZM308.277 119.309C307.923 119.309 307.728 119.159 307.728 118.875C307.728 118.547 307.985 118.343 308.534 118.184L309.323 117.918C309.279 118.769 308.862 119.309 308.277 119.309ZM314.048 115.569C313.481 115.569 313.02 115.781 312.718 116.242V115.657H311.486V120.125H312.718V117.696C312.718 116.845 313.179 116.553 313.649 116.553C314.075 116.553 314.412 116.801 314.412 117.395V120.125H315.635V117.138C315.635 116.145 315.103 115.569 314.048 115.569ZM320.298 116.517C320.067 115.914 319.465 115.569 318.481 115.569C317.426 115.569 316.628 116.074 316.46 117.04L317.559 117.226C317.621 116.783 317.922 116.482 318.454 116.482C318.924 116.482 319.19 116.686 319.199 117.12L318.259 117.386C317.381 117.634 316.46 118.015 316.46 118.999C316.46 119.895 317.249 120.214 317.94 120.214C318.605 120.214 319.066 119.921 319.252 119.496H319.296V120.125H320.431V117.457C320.431 116.96 320.395 116.756 320.298 116.517ZM318.232 119.309C317.878 119.309 317.683 119.159 317.683 118.875C317.683 118.547 317.94 118.343 318.49 118.184L319.278 117.918C319.234 118.769 318.818 119.309 318.232 119.309ZM324.544 116.207C324.296 115.826 323.817 115.569 323.214 115.569C322.115 115.569 321.211 116.429 321.211 117.67C321.211 118.919 322.115 119.797 323.206 119.797C323.791 119.797 324.296 119.54 324.544 119.15V119.664C324.544 120.302 324.26 120.781 323.454 120.781C322.904 120.781 322.55 120.515 322.31 119.974L321.309 120.471C321.637 121.233 322.319 121.729 323.498 121.729C324.89 121.729 325.767 121.038 325.767 119.602L325.776 115.657H324.544V116.207ZM323.498 118.849C322.86 118.849 322.434 118.396 322.434 117.696C322.434 116.978 322.86 116.535 323.498 116.535C324.136 116.535 324.544 116.978 324.544 117.696C324.544 118.405 324.136 118.849 323.498 118.849ZM331.258 117.856C331.249 116.375 330.283 115.569 328.971 115.569C327.659 115.569 326.631 116.446 326.631 117.891C326.631 119.336 327.57 120.214 329.033 120.214C330.061 120.214 330.868 119.7 331.16 118.786L330.026 118.636C329.857 119.044 329.503 119.247 329.033 119.247C328.395 119.247 327.907 118.857 327.845 118.139H331.24L331.258 117.856ZM328.98 116.499C329.503 116.499 329.902 116.774 330.017 117.262H327.907C328.049 116.748 328.43 116.499 328.98 116.499ZM337.523 115.569C336.884 115.569 336.37 115.79 336.033 116.198C335.785 115.79 335.307 115.569 334.659 115.569C334.101 115.569 333.649 115.79 333.347 116.18V115.657H332.115V120.125H333.347V117.67C333.347 116.827 333.755 116.544 334.225 116.544C334.651 116.544 334.979 116.801 334.979 117.306V120.125H336.211V117.67C336.211 116.819 336.618 116.544 337.088 116.544C337.514 116.544 337.842 116.792 337.842 117.306V120.125H339.065V116.889C339.065 116.065 338.489 115.569 337.523 115.569ZM344.503 117.856C344.494 116.375 343.528 115.569 342.216 115.569C340.904 115.569 339.875 116.446 339.875 117.891C339.875 119.336 340.815 120.214 342.278 120.214C343.306 120.214 344.113 119.7 344.405 118.786L343.271 118.636C343.102 119.044 342.748 119.247 342.278 119.247C341.639 119.247 341.152 118.857 341.09 118.139H344.485L344.503 117.856ZM342.225 116.499C342.748 116.499 343.146 116.774 343.262 117.262H341.152C341.294 116.748 341.675 116.499 342.225 116.499ZM347.922 115.569C347.355 115.569 346.894 115.781 346.592 116.242V115.657H345.36V120.125H346.592V117.696C346.592 116.845 347.053 116.553 347.523 116.553C347.949 116.553 348.285 116.801 348.285 117.395V120.125H349.509V117.138C349.509 116.145 348.977 115.569 347.922 115.569ZM353.011 120.125V119.079H352.338C352.134 119.079 352.045 118.999 352.045 118.795V116.597H353.011V115.657H352.045V114.141H350.822V115.657H350.104V116.597H350.822V118.946C350.822 119.717 351.23 120.125 351.992 120.125H353.011ZM269.673 125.045H263.095V134.125H269.673V132.417H265.046V130.412H269.31V128.731H265.046V126.74H269.673V125.045ZM277.593 129.538L280.606 125.045H278.346L276.341 128.085L274.337 125.045H272.077L275.09 129.538L271.902 134.125H274.23L276.341 131.045L278.453 134.125H280.781L277.593 129.538ZM283.293 125.045V134.125H285.244V130.749H287.208C289.252 130.749 290.517 129.928 290.517 127.91C290.517 125.879 289.252 125.045 287.208 125.045H283.293ZM285.244 129.054V126.74H287.14C288.096 126.74 288.566 127.063 288.566 127.91C288.566 128.731 288.109 129.054 287.14 129.054H285.244ZM299.839 125.045H293.261V134.125H299.839V132.417H295.211V130.412H299.476V128.731H295.211V126.74H299.839V125.045ZM306.265 134.125C309.439 134.125 311.161 132.686 311.161 129.578C311.161 126.511 309.453 125.045 306.265 125.045H302.835V134.125H306.265ZM304.772 126.74H306.251C308.108 126.74 309.211 127.655 309.211 129.578C309.211 131.475 308.148 132.417 306.251 132.417H304.772V126.74ZM316.027 134.125V125.045H314.076V134.125H316.027ZM318.772 125.045V126.74H321.624V134.125H323.574V126.74H326.426V125.045H318.772ZM331.127 134.125V125.045H329.177V134.125H331.127ZM338.666 134.3C341.397 134.3 343.334 132.376 343.334 129.578C343.334 126.78 341.397 124.857 338.666 124.857C335.949 124.857 334.012 126.78 334.012 129.578C334.012 132.376 335.949 134.3 338.666 134.3ZM338.666 132.511C337.093 132.511 335.949 131.34 335.949 129.578C335.949 127.816 337.093 126.646 338.666 126.646C340.267 126.646 341.384 127.816 341.384 129.578C341.384 131.34 340.267 132.511 338.666 132.511ZM352.504 131.367L348.536 125.045H346.222V134.125H348.173V127.762L352.114 134.125H354.455V125.045H352.504V131.367Z" fill="white"/>
<line x1="350.55" y1="102.525" x2="262.369" y2="102.525" stroke="#F0DF31" stroke-width="0.736814" stroke-linecap="round"/>
<path d="M71.3211 59.8008C76.4838 64.1263 82.3108 67.5902 88.5774 70.0586C100.702 74.7706 107.839 72.9441 115.857 78.758C121.522 82.8644 124.437 88.4731 125.972 92.2917L91.6581 118.661L46.957 105.898L71.3211 59.8008Z" fill="#B38F2F" stroke="#231F20" stroke-width="0.281264" stroke-miterlimit="10"/>
<path d="M59.7305 70.4789C67.9226 72.5734 76.2839 73.9398 84.7166 74.5622C90.5702 74.9858 91.5199 74.6813 96.222 75.3564C108.985 77.1862 117.032 82.6163 119.487 84.2906C120.862 85.2323 122.187 86.244 123.458 87.3216C124.217 84.7602 125.496 82.3831 127.217 80.3397C129.007 78.2385 131.016 76.8322 133.683 75.4225C141.151 71.4749 144.934 72.1797 151.77 69.3539C155.506 67.7942 158.993 65.6949 162.12 63.123L166.167 65.4724L134.573 100.793L66.8316 97.5828C64.4623 88.5449 62.0953 79.5102 59.7305 70.4789Z" fill="#F0E266" stroke="#231F20" stroke-width="0.0926516" stroke-miterlimit="10"/>
<path d="M115.727 82.093L98.4901 98.9986L71.2969 97.7081L94.2579 75.207C94.8171 75.2699 95.4359 75.346 96.1341 75.4453C103.027 76.4006 109.676 78.6565 115.727 82.093Z" fill="#E9DFEE"/>
<path d="M64.0157 74.8507L59.6776 70.4961L29 129.28L33.3811 132.417L64.0157 74.8507Z" fill="#B38F2F" stroke="#231F20" stroke-width="0.0926516" stroke-miterlimit="10"/>
<path d="M66.576 76.3895L62.2114 72.0117L31.375 131.107L35.7759 134.26L66.576 76.3895Z" fill="#B38F2F" stroke="#231F20" stroke-width="0.0926516" stroke-miterlimit="10"/>
<path d="M65.5266 73.4314L33.0787 134.165L32.5327 135.187L29.3164 132.838L62.307 71.082L65.5266 73.4314Z" fill="#1A074E" stroke="#231F20" stroke-width="0.281264" stroke-miterlimit="10"/>
<path d="M170.938 65.4863L137.947 127.242L99.5234 154.902L132.736 93.1031L163.648 70.7575L170.938 65.4863Z" fill="#1A074E" stroke="#231F20" stroke-width="0.281264" stroke-miterlimit="10"/>
<path d="M123.833 93.9785L90.6734 155.675L32.5312 135.185L33.0772 134.163L65.5251 73.4297L117.377 91.7019L123.833 93.9785Z" fill="#53379E" stroke="#231F20" stroke-width="0.281264" stroke-miterlimit="10"/>
<path d="M170.939 65.4861L163.649 70.754L132.736 93.1029L126.188 93.7481L123.832 93.9798L117.376 91.7032L65.5243 73.431L62.3047 71.0816L120.07 91.4385L129.904 90.4722H129.907L167.719 63.1367L170.939 65.4861Z" fill="#1A074E" stroke="#231F20" stroke-width="0.281264" stroke-miterlimit="10"/>
<path d="M132.736 93.1016L99.5234 154.9L97.3163 155.115L90.8803 155.747L90.6719 155.674L123.831 93.9784L126.187 93.7468L132.736 93.1016Z" fill="#53379E" stroke="#231F20" stroke-width="0.281264" stroke-miterlimit="10"/>
<path d="M90.675 155.676L90.6221 155.775L90.5625 155.884" stroke="#231F20" stroke-width="0.0926516" stroke-miterlimit="10"/>
<path d="M123.875 93.8965L123.832 93.9795" stroke="#231F20" stroke-width="0.0926516" stroke-miterlimit="10"/>
<path d="M138.485 31.1886C138.485 31.0463 138.458 30.8974 138.442 30.7386C138.45 30.6815 138.45 30.6236 138.442 30.5665C138.434 30.4268 138.418 30.2877 138.395 30.1496C138.388 30.0507 138.375 29.9524 138.355 29.8551C138.326 29.6533 138.296 29.4415 138.25 29.2231C138.23 29.0874 138.2 28.9484 138.17 28.8062C138.097 28.4753 138.008 28.1245 137.899 27.7738C137.826 27.5322 137.743 27.2873 137.647 27.0425C137.618 26.9664 137.588 26.8903 137.551 26.8175C137.422 26.4938 137.274 26.1778 137.108 25.8711H136.407L135.904 25.9075H135.884C135.735 25.9136 135.587 25.928 135.44 25.9505H135.298L134.828 26.0101L134.689 26.0365C134.358 26.0928 134.027 26.1656 133.696 26.2417L133.306 26.341C133.2 26.3674 133.098 26.4005 132.995 26.4303L132.664 26.5296C133.416 27.7498 134.013 29.0593 134.441 30.4276C134.53 30.6757 134.593 30.8908 134.636 31.0397C136.651 30.7121 138.19 30.8346 138.485 31.1886Z" fill="#198678" stroke="#231F20" stroke-width="0.188612" stroke-miterlimit="10"/>
<path d="M151.87 67.26C151.942 67.2409 152.015 67.2266 152.088 67.217L152.284 67.1905C152.43 67.1701 152.579 67.1612 152.727 67.1641H152.859L153.011 67.1839C153.058 67.1887 153.103 67.1987 153.147 67.2137C153.238 67.2317 153.325 67.2679 153.402 67.3202C153.478 67.3725 153.544 67.4399 153.594 67.5181L138.551 34.9908C138.531 34.9385 138.503 34.8894 138.468 34.8452C138.435 34.7956 138.396 34.7501 138.353 34.7095L138.323 34.6831C138.097 34.5039 137.828 34.3895 137.542 34.3522H137.185C136.518 34.3197 135.849 34.381 135.199 34.5342C135.226 34.5613 135.252 34.59 135.275 34.6202C135.309 34.6667 135.34 34.7153 135.368 34.7658L151.87 67.26Z" fill="#C82D93" stroke="#231F20" stroke-width="0.188612" stroke-miterlimit="10"/>
<path d="M146.611 71.3433C146.564 71.2214 146.546 71.0899 146.56 70.9598C146.574 70.8297 146.619 70.7048 146.691 70.5955C146.981 70.0952 147.367 69.6567 147.826 69.305C147.948 69.1991 148.08 69.0932 148.226 68.9741L148.428 68.8285C148.474 68.7954 148.521 68.7623 148.57 68.7325L148.775 68.5969C148.855 68.5472 148.938 68.491 149.024 68.4413C149.11 68.3917 149.295 68.2792 149.44 68.2031C149.858 67.9741 150.29 67.774 150.734 67.6042C150.803 67.5733 150.872 67.5468 150.943 67.5247C151.035 67.4883 151.135 67.4586 151.224 67.4321C151.313 67.4056 151.406 67.3725 151.499 67.3494C151.591 67.3262 151.677 67.2997 151.76 67.2832L151.869 67.26L135.371 34.7062C135.343 34.6558 135.312 34.6071 135.278 34.5606C135.254 34.5304 135.229 34.5017 135.202 34.4746C134.391 34.6475 133.596 34.8843 132.823 35.1827L132.598 35.2721L132.376 35.3581L132.158 35.4508C131.866 35.5765 131.588 35.7022 131.324 35.8346C130.947 36.0232 130.54 36.2449 130.126 36.4964L129.848 36.6618C129.544 36.8571 129.239 37.0622 128.941 37.274C128.493 37.5957 128.068 37.9496 127.671 38.3329C127.36 38.6304 127.086 38.9636 126.853 39.3256C126.827 39.3653 126.804 39.4116 126.781 39.4513C126.757 39.491 126.741 39.5274 126.721 39.5638L126.651 39.716C126.53 39.9834 126.497 40.2822 126.556 40.5698C126.582 40.6734 126.623 40.7726 126.678 40.8643L126.711 40.9205L145.681 69.9072L146.611 71.3433Z" fill="#FC97D9" stroke="#231F20" stroke-width="0.188612" stroke-miterlimit="10"/>
<path d="M131.354 24.8778C132.769 24.3814 134.252 24.1036 135.751 24.0538C135.602 23.895 135.44 23.7428 135.275 23.5939C135.028 23.372 134.768 23.1643 134.497 22.9718L134.279 22.813C134.13 22.7137 133.981 22.6144 133.829 22.5185L133.63 22.4026C133.385 22.257 133.131 22.1247 132.873 22.0023L132.624 21.8997C132.528 21.8567 132.429 21.8136 132.327 21.7739C131.406 21.3936 130.435 21.1484 129.444 21.046C129.193 21.0228 128.941 21.0096 128.693 21.0029C128.445 20.9963 128.22 21.0029 127.985 21.0029C127.845 20.9982 127.706 21.0082 127.568 21.0327C127.18 21.067 126.794 21.1278 126.413 21.2147C125.795 21.3516 125.192 21.5512 124.613 21.8103C126.631 21.9327 128.57 22.6372 130.196 23.8387C130.609 24.1532 130.996 24.5006 131.354 24.8778Z" fill="#198678" stroke="#231F20" stroke-width="0.188612" stroke-miterlimit="10"/>
<path d="M132.672 26.5746C132.785 26.5415 132.891 26.5051 133.003 26.4753C133.116 26.4455 133.208 26.4124 133.314 26.386L133.688 26.29C134.019 26.2139 134.35 26.1411 134.681 26.0848L134.82 26.0584L135.29 25.9889H135.432C135.581 25.9889 135.727 25.9558 135.876 25.9459H135.895L136.398 25.9095H137.1C137.044 25.8102 136.987 25.7109 136.924 25.615C136.892 25.5557 136.857 25.4983 136.819 25.4429C136.766 25.3547 136.709 25.2686 136.65 25.1848C136.617 25.1385 136.587 25.0888 136.551 25.0425L136.408 24.8506C136.302 24.7116 136.19 24.5759 136.077 24.4403C135.982 24.3249 135.88 24.2144 135.773 24.1094C134.27 24.1389 132.78 24.3978 131.355 24.8771C131.847 25.4005 132.287 25.9688 132.672 26.5746Z" fill="#08665A" stroke="#231F20" stroke-width="0.188612" stroke-miterlimit="10"/>
<path d="M135.188 34.4735C135.838 34.3203 136.506 34.2591 137.173 34.2915H137.53C137.816 34.3288 138.086 34.4432 138.311 34.6224L138.401 34.5728C138.473 34.024 138.516 33.4717 138.53 32.9183V32.8521C138.533 32.8391 138.533 32.8254 138.53 32.8124V32.7164C138.53 32.4782 138.51 32.1804 138.51 31.6973V31.6741C138.509 31.5412 138.499 31.4085 138.48 31.277V31.1182C138.185 30.7608 136.64 30.6417 134.625 31.0189C134.642 31.0719 134.655 31.1215 134.668 31.1745C134.701 31.3035 134.734 31.4326 134.764 31.5583V31.5815C134.85 32.0546 134.91 32.3491 134.963 32.5742C134.963 32.6072 134.963 32.6403 134.979 32.6734V32.7727C135.081 33.3351 135.151 33.903 135.188 34.4735Z" fill="#C82D93" stroke="#231F20" stroke-width="0.188612" stroke-miterlimit="10"/>
<path d="M126.693 40.9002V40.8837C126.638 40.7921 126.597 40.6928 126.57 40.5892C126.508 40.2977 126.54 39.9939 126.663 39.7222L126.733 39.57C126.752 39.5336 126.769 39.4939 126.792 39.4575C126.815 39.4211 126.838 39.3715 126.865 39.3318C127.097 38.9698 127.372 38.6366 127.682 38.3391C128.08 37.9558 128.504 37.6019 128.953 37.2802C129.251 37.0684 129.555 36.8633 129.86 36.668L130.137 36.5026C130.551 36.2511 130.958 36.0294 131.335 35.8408C131.6 35.7084 131.878 35.5827 132.169 35.4569L132.388 35.3643L132.609 35.2783L132.834 35.1889C133.549 34.919 134.281 34.6979 135.025 34.5271L135.2 34.4874C135.176 33.9466 135.122 33.4075 135.038 32.8726V32.7601C135.038 32.727 135.038 32.6939 135.038 32.6609C134.985 32.4292 134.926 32.1347 134.84 31.6682V31.6351C134.81 31.5093 134.777 31.3803 134.744 31.2512C134.737 31.1975 134.723 31.1451 134.701 31.0957C132.758 31.4596 130.896 32.1666 129.201 33.1837C126.14 35.0367 123.278 38.2762 123.877 39.2887C123.899 39.3271 123.927 39.3617 123.96 39.3913H123.983L124.118 39.4542L125.23 40.0995L126.693 40.9002Z" fill="#FC97D9" stroke="#231F20" stroke-width="0.188612" stroke-miterlimit="10"/>
<path d="M146.408 69.9997C146.689 69.5167 147.061 69.0929 147.503 68.7522C141.417 58.4745 135.334 48.1879 129.254 37.8926C129.049 38.0382 128.831 38.2036 128.593 38.3889C128.391 38.5512 128.201 38.727 128.023 38.9151L146.408 69.9997Z" fill="white" stroke="#FC97D9" stroke-width="0.281264" stroke-miterlimit="10"/>
<path d="M150.78 70.6542C152.679 69.6152 153.933 68.2386 153.616 67.5537V67.5206C153.566 67.4423 153.5 67.375 153.423 67.3227C153.347 67.2704 153.26 67.2341 153.169 67.2162C153.123 67.2091 153.078 67.1991 153.033 67.1864L152.881 67.1665H152.749C152.6 67.1637 152.452 67.1726 152.305 67.193L152.11 67.2195L151.892 67.2625L151.782 67.2857L151.521 67.3518C151.428 67.375 151.342 67.4048 151.246 67.4346C151.15 67.4643 151.058 67.4908 150.965 67.5272L150.757 67.6066C150.312 67.7765 149.88 67.9766 149.463 68.2055C149.317 68.2817 149.182 68.3644 149.046 68.4438C148.91 68.5232 148.877 68.5497 148.798 68.5993L148.593 68.735C148.543 68.7648 148.497 68.7979 148.45 68.8309L148.248 68.9765C148.106 69.0751 147.972 69.1858 147.848 69.3074C147.389 69.6592 147.003 70.0976 146.713 70.5979C146.641 70.7072 146.597 70.8321 146.583 70.9622C146.569 71.0923 146.586 71.2238 146.634 71.3458C146.651 71.3754 146.671 71.4031 146.693 71.4285C146.723 71.4627 146.756 71.4938 146.793 71.5212C147.365 71.9414 149.059 71.6006 150.78 70.6542Z" fill="#C82D93" stroke="#231F20" stroke-width="0.0926516" stroke-miterlimit="10"/>
<path d="M123.907 39.3753C123.874 39.3457 123.846 39.3111 123.824 39.2727C123.225 38.2602 126.087 35.0207 129.148 33.1677C130.843 32.1518 132.705 31.4469 134.648 31.0863C134.605 30.9374 134.542 30.7223 134.453 30.4742C134.025 29.1059 133.428 27.7964 132.676 26.5762C132.285 26.7019 131.901 26.8376 131.531 26.9832L131.107 27.1519L130.611 27.3637L130.485 27.4233L130.028 27.6284C129.439 27.9064 128.88 28.191 128.374 28.4623C126.028 29.6635 122.458 31.4999 119.863 35.4112C119.959 35.614 120.07 35.8098 120.194 35.9969C120.237 36.0763 120.287 36.1524 120.336 36.2318C120.495 36.4828 120.667 36.7247 120.853 36.9565C120.899 37.016 120.945 37.0723 120.998 37.1285C121.051 37.1848 121.094 37.2443 121.141 37.2973C121.24 37.4065 121.339 37.5091 121.438 37.6083C121.538 37.7076 121.554 37.7274 121.617 37.7837L121.792 37.9458L121.971 38.1014C122.157 38.2668 122.354 38.4194 122.56 38.558L122.749 38.6871C122.898 38.7863 123.043 38.879 123.182 38.9584L123.354 39.0577H123.377C123.506 39.1305 123.632 39.1966 123.751 39.2529L123.907 39.3753Z" fill="#44C6B6" stroke="#231F20" stroke-width="0.188612" stroke-miterlimit="10"/>
<path d="M119.842 35.4197C122.436 31.4985 126.007 29.662 128.353 28.4708C128.876 28.1994 129.435 27.9149 130.024 27.6369L130.481 27.4318L130.606 27.3722L131.103 27.1604L131.52 27.0016C131.89 26.856 132.274 26.7203 132.664 26.5946C132.277 25.9897 131.834 25.4225 131.341 24.9004C130.531 25.1845 129.739 25.516 128.968 25.8931C128.419 26.1512 127.903 26.4126 127.41 26.6674C125.123 27.8421 121.672 29.6157 119.098 33.335C119.131 33.4872 119.167 33.6361 119.21 33.7883C119.23 33.8611 119.247 33.9306 119.27 34.0001C119.293 34.0696 119.309 34.1424 119.336 34.2119C119.362 34.2814 119.392 34.3939 119.425 34.4832C119.546 34.8031 119.685 35.1158 119.842 35.4197Z" fill="#27A797" stroke="#231F20" stroke-width="0.188612" stroke-miterlimit="10"/>
<path d="M119.111 33.2899C121.685 29.5838 125.136 27.8102 127.423 26.6355C127.916 26.3807 128.415 26.1193 128.981 25.8612C129.752 25.4841 130.544 25.1526 131.354 24.8685C130.996 24.4945 130.609 24.1503 130.196 23.8394C128.568 22.6408 126.628 21.9408 124.61 21.8242C123.3 22.3989 122.137 23.2646 121.212 24.3556L121.003 24.6137C120.934 24.703 120.868 24.7891 120.805 24.8817C120.783 24.9037 120.764 24.9281 120.748 24.9545C120.672 25.0604 120.603 25.1663 120.53 25.2854C120.457 25.4045 120.388 25.5071 120.322 25.6163C120.255 25.7255 120.206 25.8182 120.153 25.9174C120.15 25.9271 120.15 25.9376 120.153 25.9472C120.103 26.0332 120.06 26.116 120.017 26.202C119.974 26.288 119.908 26.4138 119.862 26.5329C119.815 26.652 119.739 26.8042 119.683 26.9432C119.58 27.1848 119.491 27.4296 119.412 27.6811L119.372 27.8002C119.312 27.9922 119.256 28.1907 119.21 28.3859L119.163 28.5779C119.13 28.7069 119.104 28.8393 119.081 28.9716C119.061 29.0477 119.051 29.1271 119.038 29.2066C119.024 29.286 118.998 29.4481 118.981 29.5672C118.965 29.6864 118.945 29.8121 118.945 29.9345C118.942 29.962 118.942 29.9898 118.945 30.0173C118.945 30.1364 118.922 30.2588 118.915 30.3813V31.4831C118.91 31.6371 118.92 31.7911 118.945 31.9431C118.963 32.0526 118.974 32.1631 118.978 32.274C118.978 32.3931 118.998 32.4494 119.011 32.5354C119.024 32.6214 119.048 32.7968 119.074 32.9259C119.101 33.0549 119.084 33.174 119.111 33.2899Z" fill="#44C6B6" stroke="#231F20" stroke-width="0.188612" stroke-miterlimit="10"/>
<path d="M128.629 37.1537C128.454 37.2794 128.272 37.4184 128.087 37.5739C127.901 37.7294 127.729 37.8816 127.577 38.0305L125.516 36.4985C125.704 36.2801 125.919 36.0484 126.161 35.8168C126.402 35.5852 126.541 35.4628 126.723 35.3105L128.629 37.1537Z" fill="white" stroke="#FC97D9" stroke-width="0.281264" stroke-miterlimit="10"/>
<path d="M126.326 34.923C126.154 35.0752 125.995 35.234 125.807 35.4028C125.549 35.6476 125.307 35.8925 125.079 36.1341L122.074 33.156C122.502 32.685 122.99 32.2733 123.527 31.9316L126.326 34.923Z" fill="white" stroke="#26A797" stroke-width="0.281264" stroke-miterlimit="10"/>
<path d="M123.071 23.2227C122.379 24.6235 122.045 26.1745 122.101 27.7361C122.118 28.1288 122.16 28.5201 122.227 28.9075C122.067 28.9909 121.913 29.086 121.767 29.1921C121.367 29.4798 121.019 29.8334 120.738 30.2377C120.633 29.6058 120.607 28.9635 120.659 28.3251C120.866 26.4014 121.716 24.6038 123.071 23.2227Z" fill="white" stroke="#26A797" stroke-width="0.281264" stroke-miterlimit="10"/>
<path d="M118.029 92.1495L63.3144 145.815L42.2031 138.376L96.9139 84.7109L117.155 91.8451L118.029 92.1495Z" fill="#E9DFEE"/>
<path d="M111.355 47.0976C114.059 47.0744 116.087 46.9388 116.825 46.7667L117.583 46.5913C118.546 46.3762 118.668 46.363 118.84 46.2604C119.048 46.1144 119.224 45.9286 119.358 45.7139C119.493 45.4991 119.583 45.2597 119.625 45.0096C120.131 43.1665 120.508 38.6895 120.329 38.6895C120.151 38.6895 120.584 43.9243 121.057 44.9236C121.287 45.4128 121.635 45.837 122.07 46.1578C122.429 46.3855 122.829 46.5416 123.248 46.6178C123.734 46.6972 126.332 46.9024 129.906 47.0347C126.391 47.3656 123.817 47.6733 123.106 47.7792C122.632 47.861 122.189 48.0652 121.818 48.3715C121.743 48.4439 121.676 48.5237 121.617 48.6098C121.502 48.794 121.421 48.9967 121.375 49.2087C121.306 49.5793 121.044 51.8956 120.733 55.0789C120.591 54.1226 120.495 53.3549 120.435 52.8718C120.194 50.8864 120.167 50.1352 119.625 49.265C119.399 48.9062 119.121 48.5829 118.801 48.3054C118.436 48.1143 118.057 47.9538 117.666 47.8256C116.895 47.582 116.092 47.4571 115.283 47.455C114.396 47.4119 113.119 47.3292 111.355 47.0976Z" fill="white" stroke="#010101" stroke-width="0.0926516" stroke-miterlimit="10"/>
<path d="M52.4688 158.56C56.5818 158.527 59.6658 158.318 60.7842 158.073C60.9364 158.044 61.1879 157.981 61.9391 157.809C63.4016 157.478 63.5936 157.458 63.8517 157.312C64.5333 156.929 64.8444 156.168 65.0429 155.416C65.8106 152.614 66.3665 145.82 66.115 145.82C65.8635 145.82 66.5055 153.762 67.2202 155.301C67.5704 156.042 68.0991 156.686 68.7589 157.173C69.3119 157.508 69.9242 157.733 70.5623 157.835C71.3002 157.954 75.2511 158.265 80.6845 158.471C75.3371 158.964 71.4193 159.44 70.3439 159.602C70.3439 159.602 69.0832 159.797 68.3784 160.479C68.2627 160.589 68.1595 160.711 68.0706 160.843C67.8957 161.123 67.7725 161.433 67.7066 161.756C67.5974 162.316 67.1937 165.836 66.7139 170.691C66.4989 169.235 66.3533 168.07 66.2606 167.335C65.8933 164.327 65.8536 163.176 65.0297 161.856C64.6862 161.311 64.2648 160.819 63.7789 160.396C63.2243 160.105 62.6466 159.861 62.0516 159.665C60.8806 159.294 59.6599 159.103 58.4315 159.099C57.0914 159.046 55.149 158.921 52.4688 158.56Z" fill="white" stroke="#010101" stroke-width="0.0926516" stroke-miterlimit="10"/>
</g>
<defs>
<clipPath id="clip0_1380_2615">
<rect width="454" height="168" fill="white"/>
</clipPath>
</defs>
</svg>
