<svg width="454" height="168" viewBox="0 0 454 168" fill="none" xmlns="http://www.w3.org/2000/svg">
<g clip-path="url(#clip0_1380_6950)">
<rect width="454" height="168" fill="#15063E"/>
<path d="M-131 -78L-561 -28.526V182.5H71.0897L177.5 168L193 53.9141L-131 -78Z" fill="#192558"/>
<circle cx="145.638" cy="44.9869" r="19.4992" transform="rotate(-179.554 145.638 44.9869)" fill="#ECE3E3"/>
<path d="M146.366 64.5153C131.009 64.5153 122.208 73.3159 121 87.4658L99.6027 68.4842C99.6027 68.4842 111.855 67.6214 118.584 61.0641C125.314 54.5069 126.334 41.9024 126.334 41.9024L146.366 64.5153Z" fill="#ECE3E3"/>
<circle cx="101.137" cy="130.928" r="19.4992" transform="rotate(-179.554 101.137 130.928)" fill="#ECE3E3"/>
<circle cx="101.469" cy="87.7902" r="19.4992" transform="rotate(-179.554 101.469 87.7902)" fill="#ECE3E3"/>
<circle cx="101.137" cy="130.928" r="19.4992" transform="rotate(-179.554 101.137 130.928)" fill="#ECE3E3"/>
<circle cx="101.469" cy="87.7902" r="19.4992" transform="rotate(-179.554 101.469 87.7902)" fill="#ECE3E3"/>
<path d="M116.931 119.49L85.5263 119.245C90.5987 111.516 90.605 107.038 85.8534 99.4029L116.963 99.6453C111.335 106.849 112.148 113.24 116.931 119.49Z" fill="#ECE3E3"/>
<circle cx="57.8271" cy="88.7125" r="19.4992" transform="rotate(-179.554 57.8271 88.7125)" fill="#ECE3E3"/>
<circle cx="57.9961" cy="45.2287" r="19.4992" transform="rotate(-179.554 57.9961 45.2287)" fill="#ECE3E3"/>
<path d="M73.4492 77.1012L42.3908 76.6866C47.4632 68.9577 47.2956 64.6509 42.5441 57.0155L73.4326 57.0836C68.4948 64.6389 68.8786 69.301 73.4492 77.1012Z" fill="#ECE3E3"/>
<circle cx="57.6504" cy="130.931" r="19.4992" transform="rotate(-179.554 57.6504 130.931)" fill="#ECE3E3"/>
<circle cx="101.136" cy="44.6506" r="19.4992" transform="rotate(-179.554 101.136 44.6506)" fill="#ECE3E3"/>
<circle cx="145.31" cy="88.1361" r="19.4992" transform="rotate(-179.554 145.31 88.1361)" fill="#ECE3E3"/>
<path d="M275.56 53.32H269.728V76H275.344V62.572L285.136 76H290.032V53.32H284.416V65.884L275.56 53.32ZM311.35 70.96H299.506V67.036H308.398V62.068H299.506V58.36H311.026V53.32H293.494V76H311.35V70.96ZM331.951 70.96H320.107V67.036H328.999V62.068H320.107V58.36H331.627V53.32H314.095V76H331.951V70.96ZM340.817 71.176V58.144H343.229C347.189 58.144 349.529 60.52 349.529 64.624C349.529 68.8 347.189 71.176 343.229 71.176H340.817ZM334.697 76H343.661C351.185 76 355.829 71.752 355.829 64.66C355.829 57.568 351.185 53.32 343.661 53.32H334.697V76Z" fill="white"/>
<path d="M268.911 101.329V107.312H270.196V105.088H271.491C272.838 105.088 273.671 104.547 273.671 103.217C273.671 101.879 272.838 101.329 271.491 101.329H268.911ZM270.196 103.971V102.446H271.446C272.076 102.446 272.386 102.659 272.386 103.217C272.386 103.758 272.085 103.971 271.446 103.971H270.196ZM275.613 102.845H274.39V107.312H275.613V105.265C275.613 104.237 276.083 103.9 277.138 103.9V102.756C276.429 102.756 275.879 103.058 275.613 103.501V102.845ZM279.93 107.401C281.348 107.401 282.35 106.515 282.35 105.07C282.35 103.643 281.348 102.756 279.93 102.756C278.512 102.756 277.501 103.643 277.501 105.07C277.501 106.515 278.512 107.401 279.93 107.401ZM279.93 106.399C279.212 106.399 278.733 105.859 278.733 105.07C278.733 104.299 279.212 103.758 279.93 103.758C280.648 103.758 281.127 104.299 281.127 105.07C281.127 105.859 280.648 106.399 279.93 106.399ZM286.571 103.377C286.252 102.978 285.755 102.756 285.17 102.756C283.974 102.756 282.998 103.634 282.998 105.088C282.998 106.541 283.974 107.401 285.17 107.401C285.755 107.401 286.252 107.188 286.571 106.798V107.312H287.803V101.329H286.571V103.377ZM285.427 106.382C284.745 106.382 284.231 105.903 284.231 105.088C284.231 104.272 284.745 103.767 285.427 103.767C286.119 103.767 286.624 104.272 286.624 105.088C286.624 105.903 286.119 106.382 285.427 106.382ZM291.736 105.274C291.736 106.125 291.275 106.417 290.796 106.417C290.371 106.417 290.034 106.169 290.034 105.575V102.845H288.811V105.832C288.811 106.816 289.343 107.401 290.406 107.401C290.974 107.401 291.435 107.18 291.736 106.71V107.312H292.959V102.845H291.736V105.274ZM296.213 107.401C297.339 107.401 298.207 106.798 298.42 105.735L297.286 105.628C297.144 106.151 296.754 106.399 296.257 106.399C295.522 106.399 295.034 105.859 295.034 105.07C295.034 104.29 295.522 103.758 296.257 103.758C296.869 103.758 297.339 104.174 297.392 104.857L298.527 104.751C298.42 103.483 297.481 102.756 296.213 102.756C294.786 102.756 293.802 103.696 293.802 105.07C293.802 106.453 294.786 107.401 296.213 107.401ZM301.839 107.312V106.266H301.165C300.961 106.266 300.873 106.187 300.873 105.983V103.784H301.839V102.845H300.873V101.329H299.65V102.845H298.932V103.784H299.65V106.134C299.65 106.905 300.057 107.312 300.82 107.312H301.839ZM308.36 104.919L307.208 101.329H305.027V107.312H306.312V102.074L307.926 107.312H308.794L310.417 102.074V107.312H311.702V101.329H309.512L308.36 104.919ZM316.452 103.705C316.222 103.102 315.619 102.756 314.635 102.756C313.58 102.756 312.782 103.261 312.614 104.228L313.713 104.414C313.775 103.971 314.076 103.669 314.608 103.669C315.078 103.669 315.344 103.873 315.353 104.307L314.413 104.573C313.536 104.822 312.614 105.203 312.614 106.187C312.614 107.082 313.403 107.401 314.094 107.401C314.759 107.401 315.22 107.109 315.406 106.683H315.45V107.312H316.585V104.644C316.585 104.148 316.55 103.944 316.452 103.705ZM314.387 106.497C314.032 106.497 313.837 106.346 313.837 106.063C313.837 105.735 314.094 105.531 314.644 105.371L315.433 105.105C315.388 105.956 314.972 106.497 314.387 106.497ZM320.158 102.756C319.59 102.756 319.129 102.969 318.828 103.43V102.845H317.596V107.312H318.828V104.884C318.828 104.033 319.289 103.74 319.759 103.74C320.184 103.74 320.521 103.988 320.521 104.582V107.312H321.744V104.325C321.744 103.332 321.212 102.756 320.158 102.756ZM326.407 103.705C326.177 103.102 325.574 102.756 324.59 102.756C323.535 102.756 322.737 103.261 322.569 104.228L323.668 104.414C323.73 103.971 324.032 103.669 324.563 103.669C325.033 103.669 325.299 103.873 325.308 104.307L324.368 104.573C323.491 104.822 322.569 105.203 322.569 106.187C322.569 107.082 323.358 107.401 324.049 107.401C324.714 107.401 325.175 107.109 325.361 106.683H325.406V107.312H326.54V104.644C326.54 104.148 326.505 103.944 326.407 103.705ZM324.342 106.497C323.987 106.497 323.792 106.346 323.792 106.063C323.792 105.735 324.049 105.531 324.599 105.371L325.388 105.105C325.344 105.956 324.927 106.497 324.342 106.497ZM330.654 103.394C330.405 103.013 329.927 102.756 329.324 102.756C328.225 102.756 327.32 103.616 327.32 104.857C327.32 106.107 328.225 106.985 329.315 106.985C329.9 106.985 330.405 106.727 330.654 106.337V106.852C330.654 107.49 330.37 107.968 329.563 107.968C329.014 107.968 328.659 107.703 328.42 107.162L327.418 107.658C327.746 108.421 328.429 108.917 329.608 108.917C330.999 108.917 331.877 108.226 331.877 106.789L331.886 102.845H330.654V103.394ZM329.608 106.036C328.969 106.036 328.544 105.584 328.544 104.884C328.544 104.166 328.969 103.722 329.608 103.722C330.246 103.722 330.654 104.166 330.654 104.884C330.654 105.593 330.246 106.036 329.608 106.036ZM337.367 105.043C337.358 103.563 336.392 102.756 335.08 102.756C333.768 102.756 332.74 103.634 332.74 105.079C332.74 106.524 333.68 107.401 335.142 107.401C336.171 107.401 336.977 106.887 337.27 105.974L336.135 105.823C335.967 106.231 335.612 106.435 335.142 106.435C334.504 106.435 334.016 106.045 333.954 105.327H337.35L337.367 105.043ZM335.089 103.687C335.612 103.687 336.011 103.962 336.126 104.449H334.016C334.158 103.935 334.539 103.687 335.089 103.687ZM343.632 102.756C342.994 102.756 342.48 102.978 342.143 103.386C341.895 102.978 341.416 102.756 340.769 102.756C340.21 102.756 339.758 102.978 339.457 103.368V102.845H338.225V107.312H339.457V104.857C339.457 104.015 339.865 103.731 340.334 103.731C340.76 103.731 341.088 103.988 341.088 104.494V107.312H342.32V104.857C342.32 104.006 342.728 103.731 343.198 103.731C343.623 103.731 343.951 103.979 343.951 104.494V107.312H345.174V104.077C345.174 103.253 344.598 102.756 343.632 102.756ZM350.612 105.043C350.603 103.563 349.637 102.756 348.325 102.756C347.013 102.756 345.985 103.634 345.985 105.079C345.985 106.524 346.924 107.401 348.387 107.401C349.415 107.401 350.222 106.887 350.515 105.974L349.38 105.823C349.211 106.231 348.857 106.435 348.387 106.435C347.749 106.435 347.261 106.045 347.199 105.327H350.594L350.612 105.043ZM348.334 103.687C348.857 103.687 349.256 103.962 349.371 104.449H347.261C347.403 103.935 347.784 103.687 348.334 103.687ZM354.031 102.756C353.464 102.756 353.003 102.969 352.702 103.43V102.845H351.469V107.312H352.702V104.884C352.702 104.033 353.163 103.74 353.632 103.74C354.058 103.74 354.395 103.988 354.395 104.582V107.312H355.618V104.325C355.618 103.332 355.086 102.756 354.031 102.756ZM359.121 107.312V106.266H358.447C358.243 106.266 358.154 106.187 358.154 105.983V103.784H359.121V102.845H358.154V101.329H356.931V102.845H356.213V103.784H356.931V106.134C356.931 106.905 357.339 107.312 358.101 107.312H359.121ZM275.783 112.232H269.205V121.312H275.783V119.604H271.155V117.6H275.419V115.918H271.155V113.927H275.783V112.232ZM283.702 116.725L286.715 112.232H284.455L282.451 115.273L280.447 112.232H278.187L281.2 116.725L278.012 121.312H280.339L282.451 118.232L284.563 121.312H286.89L283.702 116.725ZM289.403 112.232V121.312H291.353V117.936H293.317C295.362 117.936 296.626 117.115 296.626 115.098C296.626 113.066 295.362 112.232 293.317 112.232H289.403ZM291.353 116.241V113.927H293.25C294.205 113.927 294.676 114.25 294.676 115.098C294.676 115.918 294.218 116.241 293.25 116.241H291.353ZM305.948 112.232H299.37V121.312H305.948V119.604H301.321V117.6H305.585V115.918H301.321V113.927H305.948V112.232ZM312.374 121.312C315.549 121.312 317.271 119.873 317.271 116.766C317.271 113.699 315.562 112.232 312.374 112.232H308.944V121.312H312.374ZM310.881 113.927H312.361C314.217 113.927 315.32 114.842 315.32 116.766C315.32 118.662 314.257 119.604 312.361 119.604H310.881V113.927ZM322.136 121.312V112.232H320.185V121.312H322.136ZM324.881 112.232V113.927H327.733V121.312H329.684V113.927H332.536V112.232H324.881ZM337.237 121.312V112.232H335.286V121.312H337.237ZM344.776 121.487C347.507 121.487 349.444 119.564 349.444 116.766C349.444 113.968 347.507 112.044 344.776 112.044C342.059 112.044 340.121 113.968 340.121 116.766C340.121 119.564 342.059 121.487 344.776 121.487ZM344.776 119.698C343.202 119.698 342.059 118.528 342.059 116.766C342.059 115.004 343.202 113.833 344.776 113.833C346.377 113.833 347.493 115.004 347.493 116.766C347.493 118.528 346.377 119.698 344.776 119.698ZM358.613 118.555L354.645 112.232H352.331V121.312H354.282V114.95L358.223 121.312H360.564V112.232H358.613V118.555Z" fill="white"/>
<line x1="356.659" y1="88.7141" x2="268.479" y2="88.7141" stroke="#F0DF31" stroke-width="0.736814" stroke-linecap="round"/>
</g>
<defs>
<clipPath id="clip0_1380_6950">
<rect width="454" height="168" fill="white"/>
</clipPath>
</defs>
</svg>
