<svg width="454" height="168" viewBox="0 0 454 168" fill="none" xmlns="http://www.w3.org/2000/svg">
<g clip-path="url(#clip0_1380_6817)">
<rect width="454" height="168" fill="#15063E"/>
<path d="M-96 -78L-526 -28.526V182.5H106.09L212.5 168L228 53.9141L-96 -78Z" fill="#31165C"/>
<path d="M71.6484 84.4451L52.1734 93.0059" stroke="#EAEA7C" stroke-width="0.57" stroke-miterlimit="10"/>
<path d="M77.3594 84.6326L60.5265 92.0349" stroke="#EAEA7C" stroke-width="0.57" stroke-miterlimit="10"/>
<path d="M84.3875 67.3733C84.8548 67.2786 85.3246 67.1934 85.7999 67.1209C85.9355 67.0953 86.0708 67.076 86.2122 67.057C86.3537 67.038 86.5332 67.009 86.6966 66.9883C87.322 66.9068 87.9462 66.8439 88.5725 66.7967C88.8357 66.7762 89.0984 66.7618 89.3578 66.7504L89.5109 66.7446C89.7578 66.7324 90.0044 66.7263 90.2568 66.7269C90.261 66.7208 90.2667 66.7158 90.2734 66.7124C90.5514 66.7021 90.8447 66.696 91.115 66.7102L91.6194 66.7175L91.669 66.7207C91.84 66.7286 92.0142 66.7335 92.188 66.7446C92.8322 66.7755 93.4779 66.8303 94.1253 66.9092C94.3232 66.9343 94.521 66.9594 94.7097 66.9809L95.4002 67.0999L106.902 68.7807L107.779 68.9054L108.588 68.4398C108.979 68.2187 109.409 67.9751 109.826 67.7431C109.953 67.6671 110.082 67.5943 110.217 67.522C110.741 67.2314 111.268 66.9378 111.794 66.6505L112.214 66.4219C112.447 66.2934 112.682 66.1682 112.918 66.0369L110.021 63.623C106.012 60.284 99.0424 60.6917 90.0408 64.7964L84.3875 67.3733Z" fill="#DCC5E0" stroke="#010101" stroke-width="0.28" stroke-miterlimit="10"/>
<path d="M111.937 121.369C111.782 121.505 111.626 121.642 111.471 121.778C110.811 122.359 110.144 122.893 109.45 123.404C108.757 123.914 108.044 124.395 107.313 124.85C106.83 125.153 106.334 125.442 105.834 125.718L111.839 124.015C121.353 121.311 126.926 117.105 127.817 111.964L128.461 108.228C126.486 108.647 124.554 109.028 122.69 109.373L121.087 111.193L114.429 118.761C114.314 118.897 114.2 119.033 114.082 119.166C113.964 119.298 113.85 119.434 113.726 119.567C113.602 119.699 113.488 119.829 113.367 119.958C113.247 120.088 113.123 120.214 113.003 120.337C112.931 120.401 112.861 120.462 112.792 120.523C112.653 120.645 112.535 120.784 112.4 120.909C112.264 121.034 112.096 121.223 111.937 121.369Z" fill="#A37EB9"/>
<path d="M80.7977 111.072C80.9691 111.266 81.164 111.435 81.3556 111.606C81.4834 111.751 81.6414 111.864 81.7894 111.986C84.5819 114.321 87.3395 114.719 89.4101 113.484L92.5156 111.467C92.4282 111.42 92.347 111.375 92.2633 111.319C91.6614 110.962 91.0912 110.555 90.5586 110.101C90.5007 110.055 90.4456 110.006 90.3935 109.953C90.3366 109.908 90.2825 109.86 90.2314 109.809C90.0157 109.624 89.81 109.43 89.6108 109.23C89.4714 109.071 89.2972 108.92 89.1603 108.771C88.954 108.536 88.7478 108.302 88.5415 108.067L88.251 107.737L87.9629 107.37L87.8873 107.284L83.8909 109.88C82.9401 110.46 81.8922 110.864 80.7977 111.072Z" fill="#A37EB9" stroke="#010101" stroke-width="0.28" stroke-miterlimit="10"/>
<path d="M76.1845 89.9425C76.1724 89.9655 76.1585 89.9876 76.1428 90.0084C76.1309 90.0144 76.1207 90.0234 76.1131 90.0345C76.1045 90.0402 76.0967 90.047 76.09 90.0549C76.0266 90.1692 75.9632 90.2836 75.9026 90.4013C75.8421 90.5189 75.7886 90.6246 75.7343 90.7426C75.68 90.8607 75.6405 90.9423 75.5998 91.0426C75.5591 91.1428 75.4814 91.3342 75.4284 91.4804C75.2104 92.0999 75.0455 92.7368 74.9356 93.3842C74.8451 93.9063 74.7843 94.4331 74.7536 94.962L74.7423 95.0891L74.734 95.2194L74.7514 95.2392L74.7474 95.3013L74.7449 95.4383L74.7402 95.706C74.7361 95.8678 74.7349 96.0329 74.7398 96.1984L74.7519 96.6916C74.7573 96.8509 74.7689 97.0106 74.7801 97.1765L74.7955 97.3738L74.816 97.6369L74.8228 97.6779C74.8543 98.0133 74.8949 98.3525 74.9417 98.6921L74.9522 98.7707L75.0241 99.2054C75.0506 99.3754 75.0834 99.5458 75.1132 99.7129L75.2121 100.212C75.2838 100.553 75.365 100.891 75.4585 101.231C75.5521 101.57 75.6457 101.91 75.7587 102.238C75.7921 102.349 75.8255 102.461 75.8655 102.566C75.9055 102.671 75.9326 102.782 75.9726 102.888C76.0485 103.114 76.1278 103.337 76.2161 103.564C76.3044 103.791 76.3977 104.037 76.4914 104.277L76.5618 104.443L76.6838 104.728C76.8286 105.046 76.9735 105.364 77.1249 105.676L77.3599 106.143L77.6971 106.766L77.8817 107.096L78.1094 107.481C78.2449 107.702 78.3837 107.919 78.5258 108.134L78.5519 108.164L78.8194 108.561C78.922 108.711 79.025 108.855 79.1342 108.999L79.456 109.425L79.791 109.839C80.0292 110.11 80.2674 110.381 80.5057 110.651L80.7997 111.072C81.8969 110.864 82.9471 110.458 83.8995 109.875L87.896 107.279C86.6299 105.632 85.5776 103.832 84.7641 101.92C83.3495 98.7401 82.6154 95.2993 82.6091 91.8186L82.6183 91.3829L82.6177 91.2956C82.634 90.8946 82.6624 90.5006 82.7089 90.114C82.7313 89.9264 82.7601 89.7371 82.7952 89.5461L82.8534 89.1727C82.9023 88.8954 82.957 88.6246 83.0205 88.3638L83.0376 88.2901C83.1276 87.9032 83.2374 87.5212 83.3665 87.1455C83.3935 87.0556 83.4251 86.9671 83.4614 86.8805L81.3998 87.1474L79.828 87.3584C79.0671 87.4919 78.3453 87.793 77.7151 88.24C77.0849 88.6869 76.5621 89.2684 76.1845 89.9425Z" fill="#C1A1CC" stroke="#010101" stroke-width="0.28" stroke-miterlimit="10"/>
<path d="M85.8371 83.4557C85.9097 83.3917 86.0121 83.3017 86.1554 83.2049L86.172 83.1904C86.3173 83.0626 86.5226 82.923 86.7356 82.759L89.2031 84.2322C87.1807 85.5425 85.1142 86.9249 83.0036 88.3792L83.0208 88.3055C83.1108 87.9186 83.2205 87.5366 83.3497 87.1609C83.3767 87.071 83.4083 86.9825 83.4446 86.8959C83.4787 86.8014 83.5157 86.7103 83.5527 86.6192C83.7099 86.2287 83.8925 85.849 84.0992 85.4823C84.1648 85.366 84.2344 85.2521 84.3081 85.1404L84.456 84.9224C84.5113 84.8387 84.5661 84.7611 84.6271 84.684C84.6989 84.5796 84.7782 84.4806 84.8643 84.3876L85.066 84.1574C85.1354 84.0964 85.208 84.0325 85.2661 83.952C85.4049 83.83 85.5403 83.7109 85.6757 83.5918L85.8371 83.4557Z" fill="#552B7E" stroke="#010101" stroke-width="0.28" stroke-miterlimit="10"/>
<path d="M89.2282 84.1981L89.6037 84.4185L90.6969 85.0619L108.162 75.2878L113.304 72.4101L113.681 70.1747L113.751 69.7616L113.075 69.6591L107.77 68.8894C108.039 68.7351 108.305 68.5776 108.573 68.4234C108.964 68.2022 109.394 67.9586 109.811 67.7267C109.938 67.6506 110.067 67.5779 110.203 67.5055C110.726 67.2149 111.253 66.9214 111.779 66.6341L112.199 66.4054C112.435 66.2802 112.667 66.1518 112.906 66.0237C113.994 65.4358 115.11 64.8465 116.245 64.2585C117.379 63.6704 118.442 63.1339 119.572 62.5797C120.325 62.2103 121.084 61.8351 121.855 61.4731C122.626 61.1111 123.401 60.74 124.188 60.3821C128.115 58.5735 132.222 56.8294 136.507 55.2744C152.057 49.5632 167.743 47.85 180.243 48.6004C180.96 48.637 181.664 48.6915 182.359 48.7484C182.706 48.7769 183.05 48.8082 183.387 48.8454C184.065 48.9107 184.74 48.985 185.399 49.0615L185.81 49.1159C185.09 49.636 184.502 50.3178 184.093 51.1065C184.037 51.2109 183.983 51.3166 183.933 51.4235C183.682 51.9597 183.483 52.5189 183.339 53.0934C183.253 53.4151 183.182 53.7533 183.119 54.1077C183.034 54.6023 182.976 55.1011 182.945 55.6019C182.925 55.9123 182.905 56.2227 182.916 56.5412C182.912 56.6968 182.918 56.8561 182.92 57.0183C182.926 57.3584 182.938 57.7051 182.973 58.0439L183.014 58.4642C183.025 58.6301 183.049 58.7906 183.07 58.954C183.091 59.1174 183.115 59.2778 183.142 59.4416C183.169 59.6054 183.189 59.775 183.231 59.9491C183.291 60.2771 183.357 60.6054 183.439 60.9379C183.475 61.1054 183.514 61.2699 183.554 61.4221C183.594 61.5743 183.618 61.6818 183.654 61.8149C183.897 62.7133 184.194 63.5961 184.544 64.4587L184.685 64.7918L184.889 65.2568C185.03 65.5775 185.185 65.8928 185.339 66.2019C185.422 66.3714 185.508 66.5358 185.597 66.6953L185.799 67.0572C185.88 67.2027 185.961 67.3481 186.049 67.4877L186.204 67.7439C186.268 67.8571 186.336 67.9612 186.407 68.0686L186.737 68.5634C186.847 68.6889 186.931 68.8438 187.031 68.9781C187.132 69.1123 187.24 69.2688 187.35 69.4067L187.367 69.4265C187.454 69.5256 187.542 69.6247 187.626 69.7205L187.739 69.8493C170.128 82.1769 150.702 91.6815 130.161 98.02C116.197 102.323 101.814 105.124 87.2564 106.377C87.1576 106.265 87.0791 106.129 87.0055 106.012C84.2452 101.908 82.5587 96.5614 82.636 91.8011L82.6452 91.3654L82.6446 91.2781C82.6609 90.8771 82.6892 90.4831 82.7358 90.0965C82.7563 89.9067 82.785 89.7174 82.822 89.5286L82.8802 89.1552C82.9292 88.8779 82.9839 88.6071 83.0473 88.3463C85.1414 86.8909 87.2017 85.5082 89.2282 84.1981ZM133.716 86.4982C134.926 87.058 136.296 87.1646 137.577 86.7984C138.858 86.4323 139.965 85.6178 140.696 84.5036C141.426 83.3894 141.732 82.0497 141.558 80.7287C141.383 79.4077 140.739 78.1935 139.744 77.3076C138.749 76.4216 137.468 75.9229 136.136 75.9024C134.804 75.8818 133.508 76.3409 132.486 77.1957C131.464 78.0506 130.783 79.2444 130.568 80.5594C130.353 81.8743 130.617 83.2229 131.313 84.3591C131.886 85.2932 132.722 86.0373 133.716 86.4982ZM167.812 69.0252C167.103 67.499 165.957 66.2174 164.519 65.3425C163.082 64.4676 161.417 64.0387 159.736 64.1101C158.055 64.1815 156.432 64.7499 155.074 65.7435C153.716 66.7371 152.683 68.1112 152.106 69.692C151.529 71.2728 151.434 72.9892 151.832 74.6241C152.231 76.259 153.105 77.739 154.345 78.8768C155.585 80.0146 157.135 80.759 158.798 81.016C160.461 81.273 162.163 81.031 163.688 80.3205C165.732 79.3686 167.314 77.6442 168.088 75.5262C168.861 73.4083 168.762 71.07 167.812 69.0252Z" fill="#855AA5" stroke="#010101" stroke-width="0.28" stroke-miterlimit="10"/>
<path d="M87.2379 106.405C87.4692 106.735 87.7043 107.055 87.9463 107.364L88.2344 107.731L88.5249 108.062C88.7312 108.296 88.9375 108.531 89.1437 108.765C89.2861 108.927 89.4343 109.095 89.5943 109.224C89.7802 109.435 89.9992 109.618 90.2148 109.803C90.2659 109.854 90.3201 109.903 90.377 109.947L90.5396 110.086C91.0748 110.544 91.6492 110.954 92.2562 111.311C92.3369 111.363 92.4202 111.411 92.5057 111.455C93.6613 112.148 94.9827 112.516 96.3301 112.52L96.5267 112.517L97.6863 112.463L99.1683 108.154L118.803 104.263L124.595 103.116L126.663 104.847L122.702 109.362C124.561 109.02 126.48 108.638 128.46 108.216C136.927 106.444 145.256 104.071 153.386 101.117C153.763 100.979 154.146 100.835 154.529 100.697C154.552 100.677 154.586 100.676 154.615 100.663L154.787 100.599C154.82 100.57 154.874 100.564 154.918 100.548C155.35 100.373 155.753 100.224 156.157 100.044C156.157 100.044 156.18 100.024 156.193 100.012L157.395 99.5409C157.52 99.4897 157.641 99.4414 157.763 99.3869L157.959 99.3028C158.254 99.1783 158.545 99.0567 158.837 98.9289C159.129 98.8011 159.503 98.6412 159.837 98.4943C159.858 98.4824 159.881 98.4724 159.904 98.4643L159.984 98.4289C160.308 98.2845 160.633 98.1401 160.957 97.9894C161.281 97.8388 161.589 97.7027 161.901 97.5574C161.931 97.5313 161.972 97.5246 162.004 97.5079C162.556 97.2504 163.109 96.9866 163.656 96.7224C163.663 96.7132 163.672 96.7054 163.682 96.6992C164.233 96.4259 164.78 96.1555 165.311 95.8872C165.563 95.7599 165.814 95.6326 166.062 95.5021C166.687 95.1806 167.307 94.8525 167.917 94.5207C168.266 94.3311 168.615 94.1415 168.96 93.9486C169.656 93.5672 170.34 93.1778 171.014 92.7805C172.26 92.052 173.479 91.3094 174.672 90.5526C174.681 90.5424 174.691 90.5335 174.702 90.5265C175.586 89.966 176.454 89.3952 177.304 88.8232L177.991 88.3716C178.203 88.2262 178.408 88.0805 178.617 87.938C178.907 87.7353 179.198 87.5326 179.482 87.3295C179.766 87.1264 179.939 87.0035 180.165 86.8403C180.471 86.6231 180.769 86.4022 181.073 86.1817C181.871 85.5928 182.654 84.9979 183.422 84.3967C183.803 84.0969 184.183 83.7972 184.558 83.4971C187.622 81.0448 190.531 78.404 193.267 75.5901C193.52 75.3321 193.768 75.0737 194.009 74.8148C194.313 74.4946 194.614 74.1711 194.909 73.8409C193.589 73.9652 192.111 73.5495 190.604 72.543C190.259 72.3118 189.927 72.0627 189.608 71.7967C188.909 71.2121 188.268 70.5615 187.694 69.8541C170.094 82.1862 150.678 91.6977 130.146 98.0454C116.181 102.349 101.797 105.152 87.2379 106.405Z" fill="#72439A" stroke="#010101" stroke-width="0.28" stroke-miterlimit="10"/>
<path d="M187.574 69.7299C188.178 70.4869 188.856 71.1818 189.598 71.8042C189.917 72.0703 190.249 72.3194 190.594 72.5506C192.106 73.5637 193.592 73.9611 194.899 73.8485C195.005 73.7555 195.087 73.6423 195.197 73.5216C195.345 73.3628 195.496 73.1948 195.63 73.0351C195.716 72.9596 195.785 72.8642 195.856 72.7784C195.927 72.6926 195.997 72.6191 196.064 72.5362C196.132 72.4533 196.206 72.377 196.273 72.294C196.341 72.2111 196.445 72.0962 196.529 71.9925C196.614 71.8889 196.698 71.7914 196.782 71.6939L196.89 71.5637C197.093 71.3211 197.295 71.0786 197.495 70.8327C197.824 70.4205 198.146 70.0142 198.452 69.6099L198.622 69.3902C198.658 69.3582 198.68 69.3098 198.711 69.2712C198.915 69.0038 199.109 68.7389 199.301 68.4769C199.421 68.3069 199.544 68.1402 199.66 67.9732C199.777 67.8061 199.825 67.7406 199.904 67.6241C200.138 67.2838 200.365 66.9493 200.586 66.6144C200.586 66.6144 200.602 66.5999 200.612 66.5911C200.757 66.3636 200.9 66.139 201.045 65.9176L201.139 65.7647L201.404 65.3204C201.495 65.1704 201.582 65.0233 201.666 64.8729C201.751 64.7224 201.785 64.6686 201.842 64.5662C201.898 64.4639 201.929 64.4191 201.968 64.3437C201.991 64.3117 202.01 64.2774 202.025 64.2413L202.058 64.2123L202.167 64.0105C202.179 64.0021 202.19 63.9924 202.2 63.9814L202.274 63.8459L202.348 63.7104C202.363 63.7003 202.376 63.6886 202.388 63.6756C202.47 63.5218 202.548 63.3648 202.626 63.214C202.705 63.0632 202.841 62.7914 202.928 62.5913L202.96 62.5279L202.986 62.4703C203.029 62.3858 203.065 62.3009 203.101 62.2222L203.121 62.2047C203.13 62.1948 203.14 62.186 203.151 62.1786C203.164 62.1685 203.176 62.1579 203.187 62.1466C203.187 62.1466 203.187 62.1466 203.214 62.1234L203.233 62.106C203.244 62.0985 203.254 62.0897 203.263 62.0798L203.296 62.004C203.308 61.9826 203.317 61.9603 203.325 61.9373C203.358 61.9083 203.365 61.8495 203.384 61.8039C203.402 61.7584 203.384 61.8039 203.384 61.8039L203.439 61.6672C203.577 61.3239 203.704 60.9892 203.818 60.6599L203.838 60.6425C203.895 60.4872 203.945 60.3315 204.006 60.1671C204.066 60.0026 204.132 59.7513 204.183 59.5488C204.233 59.3464 204.271 59.1898 204.304 59.0205L204.372 58.7257L204.382 58.6765C204.566 57.9221 204.504 57.1288 204.206 56.4119C201.847 58.6513 199.21 60.9819 196.283 63.3345C193.248 65.7581 190.342 67.8689 187.574 69.7299Z" fill="#A37EB9" stroke="#010101" stroke-width="0.28" stroke-miterlimit="10"/>
<path d="M184.081 51.1307C184.022 51.2329 183.969 51.3386 183.92 51.4477C183.662 51.9848 183.457 52.5458 183.308 53.1226C183.222 53.4443 183.151 53.7826 183.087 54.1369C183.003 54.6315 182.945 55.1303 182.914 55.6311C182.894 55.9415 182.874 56.2519 182.885 56.5704C182.881 56.726 182.886 56.8853 182.889 57.0475C182.895 57.3876 182.907 57.7343 182.941 58.0731L182.983 58.4934C182.997 58.6564 183.018 58.8198 183.039 58.9832L183.11 59.4708C183.133 59.6385 183.164 59.8067 183.203 59.9754C183.264 60.3118 183.333 60.6423 183.407 60.9671C183.443 61.1346 183.486 61.2963 183.523 61.4513L183.622 61.8442C183.862 62.7345 184.155 63.6097 184.499 64.4652L184.639 64.7983L184.843 65.2633C184.985 65.584 185.139 65.8993 185.294 66.2084C185.375 66.3757 185.461 66.5401 185.552 66.7018L185.753 67.0637L185.997 67.5L186.152 67.7562L186.355 68.0809L186.685 68.5757C186.795 68.7012 186.879 68.8562 186.979 68.9904C187.08 69.1246 187.174 69.2584 187.315 69.4388L187.687 69.8616C190.464 67.917 193.324 65.7347 196.277 63.3245C199.148 60.9808 201.787 58.6597 204.2 56.402C203.978 55.7962 203.6 55.2601 203.103 54.8482L203.068 54.8086L202.825 54.6247L202.798 54.595L202.659 54.4894L202.432 54.3253C202.084 54.0755 201.703 53.8361 201.295 53.598L200.931 53.3908L200.521 53.1651L200.102 52.9482L199.942 52.8663L199.848 52.8197L199.67 52.7366L199.449 52.6321L199.222 52.5272L199.196 52.4975C198.996 52.4099 198.796 52.3223 198.589 52.2405C198.382 52.1587 198.147 52.0438 197.945 51.9748L197.092 51.6709L196.824 51.5727L196.608 51.4996L196.568 51.4877L196.467 51.4532L196.397 51.4269L196.11 51.3338L195.939 51.2792L195.817 51.2402L195.75 51.2172L195.304 51.0764L194.799 50.935L194.67 50.8956C194.518 50.8484 194.364 50.8075 194.205 50.7661C194.046 50.7247 194.022 50.7107 193.926 50.689L193.543 50.5866C193.335 50.5296 193.126 50.4789 192.911 50.4277L192.273 50.2746C192.166 50.2459 192.052 50.2169 191.932 50.1936C191.812 50.1703 191.705 50.1478 191.591 50.1188L190.909 49.9691L190.743 49.9336L190.133 49.8135L190.004 49.7865L189.875 49.7596L189.465 49.6866C189.379 49.6686 189.287 49.6502 189.194 49.638L189.062 49.614L188.877 49.5834L188.516 49.526L187.871 49.4193L187.178 49.297L186.989 49.2694C186.625 49.2149 186.26 49.1666 185.89 49.1179C185.134 49.6337 184.513 50.3241 184.081 51.1307Z" fill="#C1A1CC" stroke="#010101" stroke-width="0.28" stroke-miterlimit="10"/>
<path d="M55.9253 80.4496L69.1037 74.3404C71.6363 73.152 74.2451 72.1331 76.9128 71.2906C77.234 71.1896 77.5549 71.0949 77.8757 71.0001L78.1581 70.9216C78.4757 70.8297 78.8023 70.7415 79.1091 70.6708C79.4197 70.591 79.7331 70.5144 80.0437 70.4346C80.7695 70.2608 81.4994 70.105 82.2334 69.967L82.6623 69.8885C83.2148 69.793 83.7719 69.7072 84.3336 69.6309C84.5496 69.6011 84.7663 69.5745 84.9839 69.551C85.5651 69.4792 86.1483 69.423 86.7366 69.3859C86.8839 69.3735 87.0279 69.364 87.1776 69.3611C87.7764 69.3226 88.3792 69.302 88.9861 69.2993C89.1516 69.2943 89.3167 69.2955 89.4909 69.3005C89.7934 69.298 90.0913 69.3171 90.4157 69.3129C90.7401 69.3088 91.0965 69.3409 91.4379 69.3628L91.627 69.378C91.8753 69.3939 92.1203 69.4127 92.3649 69.4377C92.6096 69.4627 92.7925 69.4776 93.009 69.5039C93.2254 69.5302 93.4858 69.5531 93.7205 69.5869C93.7744 69.5914 93.828 69.599 93.8811 69.6096C94.2457 69.6579 94.61 69.7124 94.9706 69.776L104.077 71.0915L109.228 71.8327L113.298 72.4236L113.675 70.1883L113.745 69.7751L113.069 69.6726L107.764 68.9029L106.887 68.7781L95.4373 67.11L94.7468 66.991C94.5494 66.9597 94.3515 66.9346 94.1624 66.9193C93.5128 66.8424 92.8671 66.7876 92.2251 66.7548C92.0513 66.7436 91.8771 66.7387 91.7061 66.7309L91.6565 66.7277L91.1521 66.7203C90.8699 66.7147 90.5893 66.7155 90.3105 66.7225C90.3038 66.7259 90.2981 66.7309 90.2939 66.7371C90.0444 66.7398 89.7978 66.7458 89.548 66.7547L89.3949 66.7605C89.1355 66.772 88.8728 66.7863 88.6097 66.8069C87.9833 66.854 87.3591 66.9169 86.7337 66.9984C86.5703 67.0191 86.4098 67.0431 86.2493 67.0671C86.0888 67.0911 85.9726 67.1055 85.837 67.1311C85.3617 67.2035 84.8919 67.2887 84.4246 67.3835C79.4743 68.3755 74.7642 70.3864 70.5867 72.5965C62.7593 76.711 56.3194 80.2317 55.9253 80.4496Z" fill="#DCC5E0" stroke="#010101" stroke-width="0.28" stroke-miterlimit="10"/>
<path d="M55.9054 80.4602L67.8061 78.7789C74.2694 77.8805 80.8459 79.2118 86.4508 82.5532L86.7571 82.7349L89.5931 84.4405L90.6797 85.0898L108.139 75.3091L113.281 72.4314L109.211 71.8404L104.06 71.0992L94.9701 69.7754C94.6095 69.7118 94.2452 69.6573 93.8806 69.609C93.8275 69.5984 93.7739 69.5908 93.72 69.5863C93.4853 69.5526 93.2502 69.525 93.0085 69.5033C92.7668 69.4816 92.5817 69.4511 92.3645 69.4372C92.1472 69.4233 91.8748 69.3933 91.6265 69.3774L91.4374 69.3622C91.096 69.3404 90.7542 69.3247 90.4152 69.3124C90.0763 69.3 89.7945 69.2726 89.4904 69.2999C89.3162 69.295 89.1511 69.2937 88.9856 69.2987C88.3768 69.2992 87.774 69.3198 87.1772 69.3606C87.0274 69.3634 86.8834 69.3729 86.7361 69.3853C86.1479 69.4224 85.5646 69.4786 84.9834 69.5505C84.7658 69.5739 84.5491 69.6006 84.3332 69.6304C83.7717 69.7025 83.2146 69.7883 82.6618 69.888L82.2329 69.9665C81.497 70.1022 80.7671 70.258 80.0432 70.434C79.7297 70.5105 79.4163 70.5871 79.1087 70.6702C78.7886 70.7526 78.462 70.8408 78.1576 70.921L77.8752 70.9995C77.5544 71.0943 77.2335 71.1891 76.9123 71.29C74.2446 72.1326 71.6359 73.1514 69.1032 74.3398L55.9248 80.449L55.9054 80.4602Z" fill="#A37EB9" stroke="#010101" stroke-width="0.28" stroke-miterlimit="10"/>
<path d="M75.6986 134.207C76.1407 134.117 83.3295 132.626 91.9318 130.718C96.5539 129.693 101.419 128.184 105.84 125.725C106.341 125.448 106.836 125.159 107.32 124.856C108.05 124.401 108.76 123.923 109.457 123.41C110.153 122.897 110.827 122.357 111.478 121.785C111.633 121.648 111.788 121.512 111.943 121.375C112.098 121.239 112.273 121.085 112.432 120.945C112.59 120.806 112.706 120.704 112.824 120.559C112.894 120.498 112.963 120.437 113.036 120.373C113.165 120.26 113.279 120.124 113.4 119.994C113.52 119.865 113.641 119.735 113.758 119.603C113.876 119.47 114 119.338 114.114 119.202C114.229 119.066 114.347 118.933 114.461 118.797L121.12 111.229L122.723 109.409L126.692 104.898L124.625 103.167L119.124 109.353C118.906 109.598 118.69 109.846 118.472 110.09L112.378 117.015C111.809 117.699 111.215 118.356 110.597 118.986C110.597 118.986 110.577 119.003 110.567 119.012C106.884 122.756 102.441 125.51 97.6023 127.581C95.0274 128.668 92.3826 129.582 89.6856 130.316L75.6986 134.207Z" fill="#DCC5E0" stroke="#010101" stroke-width="0.28" stroke-miterlimit="10"/>
<path d="M99.1669 108.148L98.7288 109.441L97.7068 112.455L97.5878 112.806C95.6705 118.402 92.0742 123.272 87.2891 126.75C87.2329 126.8 87.1801 126.846 87.1239 126.896C86.7038 127.195 86.2738 127.485 85.834 127.767L75.694 134.22L89.6843 130.326C92.3812 129.592 95.026 128.679 97.6009 127.591C102.43 125.529 106.873 122.775 110.566 119.022C110.566 119.022 110.586 119.005 110.596 118.996C113.223 116.029 115.849 113.061 118.474 110.091C118.693 109.847 118.908 109.599 119.126 109.354L124.615 103.114L118.823 104.261L99.1669 108.148Z" fill="#DCC5E0" stroke="#010101" stroke-width="0.28" stroke-miterlimit="10"/>
<path d="M82.631 91.2984L82.6282 91.3912L82.631 91.2984Z" fill="#F2E4F0"/>
<path d="M152.375 76.2311C153.084 77.7577 154.229 79.0399 155.666 79.9155C157.103 80.7912 158.768 81.2208 160.449 81.1501C162.131 81.0794 163.754 80.5115 165.112 79.5184C166.471 78.5252 167.504 77.1513 168.082 75.5706C168.66 73.9899 168.755 72.2734 168.357 70.6382C167.959 69.0031 167.085 67.5228 165.845 66.3846C164.605 65.2465 163.056 64.5016 161.393 64.2443C159.73 63.987 158.027 64.2287 156.502 64.939C154.458 65.8904 152.876 67.614 152.102 69.7312C151.328 71.8485 151.427 74.1862 152.375 76.2311Z" fill="#DCC5E0" stroke="#010101" stroke-width="0.28" stroke-miterlimit="10"/>
<path d="M164.742 67.7409L156.339 78.2666C157.747 79.2009 159.455 79.5737 161.124 79.3117C162.794 79.0496 164.305 78.1716 165.359 76.8508C166.414 75.53 166.935 73.8621 166.821 72.1759C166.707 70.4896 165.965 68.9074 164.742 67.7409Z" fill="#EAEA7C"/>
<path d="M153.736 74.9744L153.765 75.048L161.03 65.9453C159.873 65.7831 158.693 65.9234 157.607 66.3525C156.52 66.7816 155.563 67.4849 154.829 68.3938C154.094 69.3028 153.608 70.3864 153.417 71.5391C153.226 72.6918 153.337 73.8743 153.739 74.9715L153.736 74.9744Z" fill="#EAEA7C"/>
<path d="M161.031 65.9447L153.766 75.0474C154.265 76.3635 155.166 77.4895 156.34 78.2664L164.743 67.7407C163.722 66.7708 162.424 66.143 161.031 65.9447Z" fill="white"/>
<path d="M153.736 74.9738L153.766 75.0474C154.394 76.7263 155.663 78.087 157.294 78.8303C158.925 79.5735 160.784 79.6384 162.463 79.0107C164.142 78.383 165.502 77.114 166.246 75.483C166.989 73.852 167.054 71.9926 166.426 70.3137C166.077 69.3382 165.503 68.4582 164.752 67.7444C163.646 66.6936 162.217 66.0478 160.698 65.9118C159.178 65.7758 157.658 66.1578 156.383 66.9955C155.108 67.8332 154.154 69.0775 153.676 70.5262C153.197 71.9748 153.223 73.5425 153.749 74.9746L153.736 74.9738Z" stroke="#010101" stroke-width="0.28" stroke-miterlimit="10"/>
<path d="M180.996 51.1078C180.662 51.739 180.457 52.4305 180.395 53.1418C170.31 53.8803 160.301 55.4164 150.459 57.7355C138.627 60.5252 127.086 64.4332 115.993 69.4067C115.936 68.8286 115.916 68.2475 115.933 67.6669C115.948 67.2378 115.977 66.8376 116.036 66.4518C121.492 63.7473 127.083 61.3258 132.788 59.197C137.641 57.3884 144.216 54.9266 152.427 53.1867C161.815 51.2231 171.423 50.5239 180.996 51.1078Z" fill="#F2E4F0"/>
<path d="M131.543 78.2321C130.757 79.3073 130.385 80.6289 130.493 81.9559C130.601 83.2829 131.182 84.5269 132.13 85.461C133.079 86.3952 134.332 86.9573 135.66 87.0448C136.989 87.1323 138.305 86.7395 139.368 85.9378C140.431 85.1362 141.17 83.9792 141.451 82.6778C141.732 81.3764 141.536 80.0174 140.899 78.8485C140.261 77.6796 139.225 76.7787 137.979 76.3102C136.733 75.8416 135.36 75.8366 134.11 76.296C133.082 76.6741 132.189 77.3478 131.543 78.2321Z" fill="#DCC5E0" stroke="#010101" stroke-width="0.28" stroke-miterlimit="10"/>
<path d="M138.699 78.4739L133.681 84.7566C134.521 85.3233 135.544 85.5529 136.546 85.3997C137.548 85.2464 138.456 84.7217 139.088 83.9297C139.721 83.1378 140.032 82.1368 139.96 81.1258C139.888 80.1148 139.438 79.1681 138.699 78.4739Z" fill="#EAEA7C"/>
<path d="M132.157 82.6275L136.27 77.4743C135.398 77.418 134.531 77.6494 133.803 78.1329C133.086 78.609 132.539 79.3018 132.243 80.1103C131.947 80.9187 131.917 81.8006 132.157 82.6275Z" fill="#EAEA7C"/>
<path d="M136.27 77.4747L132.157 82.6279C132.271 83.0156 132.443 83.3839 132.667 83.7202C132.937 84.1244 133.276 84.4783 133.669 84.766L138.687 78.4833C138.017 77.8858 137.166 77.5305 136.27 77.4747Z" fill="white"/>
<path d="M132.158 82.6277C132.271 83.0154 132.443 83.3837 132.667 83.7199C132.936 84.1256 133.276 84.4798 133.669 84.7658C134.443 85.3232 135.389 85.5882 136.34 85.5137C137.29 85.4391 138.184 85.0298 138.861 84.3586C139.538 83.6875 139.955 82.7978 140.038 81.8479C140.121 80.8981 139.865 79.9495 139.314 79.171C138.764 78.3924 137.955 77.8343 137.032 77.5959C136.109 77.3575 135.131 77.4543 134.272 77.869C133.414 78.2837 132.73 78.9894 132.343 79.8607C131.956 80.7321 131.89 81.7125 132.158 82.6277V82.6277Z" stroke="#010101" stroke-width="0.28" stroke-miterlimit="10"/>
<path d="M201.082 54.7185C199.5 54.3523 197.787 53.9964 195.973 53.7182C192.434 53.1732 188.856 52.9305 185.276 52.9927C185.392 52.7384 185.524 52.4757 185.67 52.2014C185.815 51.9271 185.92 51.7406 186.049 51.5276C189.599 51.5247 193.129 52.0331 196.534 53.0373C198.085 53.4959 199.605 54.0575 201.082 54.7185Z" fill="white"/>
<path d="M188.396 46.9626C184.786 42.7922 182.264 39.4985 181.515 38.154L180.76 36.7562C179.794 34.9927 179.661 34.7941 179.565 34.3921C179.347 33.3591 179.849 32.3846 180.423 31.505C182.561 28.248 188.915 21.6394 189.156 21.9073C189.398 22.1752 180.792 28.5679 178.626 29.1959C177.567 29.5019 176.449 29.5395 175.372 29.3054C174.541 29.0494 173.768 28.6359 173.093 28.0874C172.321 27.4489 168.506 23.7453 163.482 18.4526C167.725 24.2749 170.711 28.6362 171.508 29.8746C171.508 29.8746 172.432 31.3175 172.366 32.6347C172.359 32.8486 172.328 33.0609 172.272 33.2676C172.145 33.6911 171.943 34.0886 171.677 34.4418C171.211 35.0509 168.021 38.5771 163.559 43.3402C165.214 42.265 166.523 41.3828 167.341 40.8212C170.695 38.5271 171.893 37.5441 173.956 37.2056C174.809 37.0672 175.678 37.0567 176.535 37.1745C177.32 37.4746 178.079 37.8401 178.802 38.2671C180.208 39.1153 181.477 40.1717 182.566 41.4002C183.809 42.7202 185.667 44.572 188.396 46.9626Z" fill="white" stroke="#010101" stroke-width="0.28" stroke-miterlimit="10"/>
<path d="M118.866 157.844C116.518 155.128 114.873 152.985 114.397 152.097C114.332 151.984 114.23 151.781 113.903 151.19C113.279 150.04 113.181 149.903 113.129 149.644C113.053 148.974 113.247 148.3 113.667 147.772C115.062 145.648 119.196 141.344 119.353 141.522C119.51 141.701 113.908 145.855 112.495 146.266C111.813 146.468 111.092 146.499 110.395 146.356C109.843 146.184 109.33 145.904 108.886 145.533C108.383 145.121 105.897 142.708 102.628 139.258C105.383 143.056 107.333 145.892 107.855 146.698C108.193 147.238 108.385 147.856 108.413 148.492C108.407 148.631 108.386 148.77 108.349 148.905C108.266 149.181 108.136 149.441 107.964 149.672C107.658 150.064 105.576 152.358 102.675 155.461C103.751 154.76 104.601 154.188 105.136 153.823C107.33 152.321 108.102 151.688 109.444 151.469C109.999 151.379 110.565 151.371 111.122 151.445C111.633 151.642 112.126 151.88 112.598 152.157C113.516 152.711 114.345 153.402 115.056 154.206C115.879 155.081 117.067 156.298 118.866 157.844Z" fill="white" stroke="#010101" stroke-width="0.28" stroke-miterlimit="10"/>
<path d="M69.8469 108.123C65.6728 110.038 43.1515 120.956 36.8097 144.993C30.8998 167.397 41.3173 192.579 47.2923 192.472C50.9086 192.408 53.2947 183.226 53.799 181.289C58.7679 162.144 42.8204 145.693 41.192 144.061" stroke="#EAEA7C" stroke-width="1.7" stroke-miterlimit="10"/>
<path d="M72.2891 102.302C71.0223 102.86 69.6941 103.501 68.3491 104.21C65.2998 105.815 62.3792 107.654 59.6134 109.709" stroke="#EAEA7C" stroke-width="1.7" stroke-miterlimit="10"/>
<path d="M68.5234 101.111C66.8199 102.114 65.0826 103.206 63.3114 104.389C58.8957 107.356 54.7198 110.665 50.8223 114.286" stroke="#EAEA7C" stroke-width="1.7" stroke-miterlimit="10"/>
<path d="M75.0391 108.05C74.2508 108.322 73.4552 108.612 72.6522 108.92C71.1969 109.485 69.821 110.076 68.5245 110.694" stroke="#EAEA7C" stroke-width="1.7" stroke-miterlimit="10"/>
<path d="M73.0938 95.6541C72.4701 95.9507 71.8329 96.2652 71.1854 96.5946C70.0094 97.1956 68.8917 97.8097 67.8365 98.4215" stroke="#EAEA7C" stroke-width="1.7" stroke-miterlimit="10"/>
<path d="M80.293 113.474C79.2402 113.854 78.1783 114.263 77.1072 114.701C75.1488 115.498 73.3082 116.322 71.5852 117.174" stroke="#EAEA7C" stroke-width="1.7" stroke-miterlimit="10"/>
<path d="M66.5938 115.568C64.7028 116.371 62.8672 117.299 61.0991 118.345C57.1125 120.701 53.4893 123.624 50.343 127.022" stroke="#EAEA7C" stroke-width="1.7" stroke-miterlimit="10"/>
<path d="M33.0958 164.278C33.0001 165.534 32.9859 166.795 33.0536 168.052C33.2088 170.888 33.7739 173.686 34.7313 176.359" stroke="#EAEA7C" stroke-width="0.85" stroke-miterlimit="10"/>
<path d="M30.1081 133.268C23.5405 128.85 16.3082 125.511 8.68542 123.379C4.87857 122.329 0.997007 121.572 -2.92529 121.114L-5.86918 120.851L-6.6067 120.785L-7.34371 120.76L-8.821 120.712C-10.7863 120.595 -12.7577 120.718 -14.723 120.748C-15.7052 120.804 -16.6872 120.906 -17.6618 120.99L-19.1313 121.111L-20.5934 121.314C-21.5658 121.46 -22.5425 121.575 -23.5102 121.747L-26.4048 122.319C-30.2436 123.17 -34.0115 124.315 -37.6753 125.743C-44.9918 128.626 -51.8021 132.657 -57.8499 137.684C-51.7482 132.747 -44.899 128.815 -37.5599 126.034C-33.8996 124.66 -30.1382 123.572 -26.3096 122.78L-23.4299 122.245C-22.4662 122.088 -21.4937 121.989 -20.5254 121.857L-19.0706 121.673L-17.6177 121.567C-16.6443 121.501 -15.6725 121.414 -14.6945 121.374C-12.7431 121.368 -10.7953 121.271 -8.8473 121.415L-7.3836 121.48L-6.65651 121.514L-5.92558 121.586L-3.01844 121.888C0.845997 122.398 4.66609 123.201 8.40891 124.29C15.8897 126.491 22.9706 129.873 29.3839 134.309L30.1081 133.268Z" fill="#EAEA7C"/>
<path d="M86.6914 53.1794L49.678 69.4527" stroke="#EAEA7C" stroke-width="0.57" stroke-miterlimit="10"/>
<path d="M82.6133 56.7634L45.5999 73.0367" stroke="#EAEA7C" stroke-width="0.57" stroke-miterlimit="10"/>
<path d="M63.9258 70.031L43.7002 78.924" stroke="#EAEA7C" stroke-width="0.57" stroke-miterlimit="10"/>
<path d="M113.559 49.8533L82.8467 63.3543" stroke="#EAEA7C" stroke-width="0.57" stroke-miterlimit="10"/>
<path d="M69.2305 83.5759L43.877 94.7242" stroke="#EAEA7C" stroke-width="0.57" stroke-miterlimit="10"/>
<path d="M116.691 125.769L89.6162 137.671" stroke="#EAEA7C" stroke-width="0.57" stroke-miterlimit="10"/>
<path d="M102.691 129.502L65.6809 145.778" stroke="#EAEA7C" stroke-width="0.57" stroke-miterlimit="10"/>
<path d="M138.527 120.326L110.961 132.448" stroke="#EAEA7C" stroke-width="0.57" stroke-miterlimit="10"/>
<path d="M100.875 136.963L71.2981 149.969" stroke="#EAEA7C" stroke-width="0.57" stroke-miterlimit="10"/>
<path d="M56.2852 76.7498L19.2717 93.023" stroke="#EAEA7C" stroke-width="0.57" stroke-miterlimit="10"/>
<g clip-path="url(#clip1_1380_6817)">
<g clip-path="url(#clip2_1380_6817)">
<circle cx="264.808" cy="64.0994" r="9.45647" stroke="#F4FDFF" stroke-width="1.14728"/>
</g>
<rect x="254.058" y="53.3485" width="21.502" height="21.502" rx="10.751" stroke="#F4FDFF" stroke-width="1.44174"/>
<g clip-path="url(#clip3_1380_6817)">
<circle cx="270.398" cy="73.6375" r="9.45647" stroke="#F4FDFF" stroke-width="1.14728"/>
</g>
<rect x="259.647" y="62.8865" width="21.502" height="21.502" rx="10.751" stroke="#F4FDFF" stroke-width="1.44174"/>
<g clip-path="url(#clip4_1380_6817)">
<circle cx="259.547" cy="73.6375" r="9.45647" stroke="#F4FDFF" stroke-width="1.14728"/>
</g>
<rect x="248.796" y="62.8865" width="21.502" height="21.502" rx="10.751" stroke="#F4FDFF" stroke-width="1.44174"/>
</g>
<path d="M300.42 66.7525V59.2768H305.063C308.592 59.2768 309.939 60.5769 309.939 63.0379C309.939 65.4988 308.592 66.7525 305.063 66.7525H300.42ZM300.42 73.0675H305.435C313.096 73.0675 317.554 69.4921 317.554 62.9914C317.554 56.5372 313.096 52.9618 305.435 52.9618H292.573V82.2148H300.42V73.0675ZM339.506 82.2148L344.753 61.6449H344.939V82.2148H352.833V52.9618H340.899L336.767 71.3494H336.627L332.309 52.9618H320.097V82.2148H327.341V61.6449H327.526L332.773 82.2148H339.506Z" fill="white"/>
<path d="M378.639 61.5056H370.885L367.356 66.4275L363.92 61.5056H355.608L363.084 71.6745L354.958 82.2148H362.713L366.845 76.5964L370.978 82.2148H379.289L371.117 71.3494L378.639 61.5056Z" fill="#FC97D9"/>
<path d="M290.911 104.544V110.527H292.196V108.302H293.491C294.838 108.302 295.671 107.762 295.671 106.432C295.671 105.093 294.838 104.544 293.491 104.544H290.911ZM292.196 107.185V105.661H293.446C294.076 105.661 294.386 105.873 294.386 106.432C294.386 106.973 294.085 107.185 293.446 107.185H292.196ZM297.613 106.06H296.39V110.527H297.613V108.48C297.613 107.451 298.083 107.115 299.138 107.115V105.971C298.429 105.971 297.879 106.272 297.613 106.716V106.06ZM301.93 110.616C303.348 110.616 304.35 109.73 304.35 108.285C304.35 106.857 303.348 105.971 301.93 105.971C300.512 105.971 299.501 106.857 299.501 108.285C299.501 109.73 300.512 110.616 301.93 110.616ZM301.93 109.614C301.212 109.614 300.733 109.074 300.733 108.285C300.733 107.513 301.212 106.973 301.93 106.973C302.648 106.973 303.127 107.513 303.127 108.285C303.127 109.074 302.648 109.614 301.93 109.614ZM308.571 106.592C308.252 106.193 307.755 105.971 307.17 105.971C305.974 105.971 304.998 106.849 304.998 108.302C304.998 109.756 305.974 110.616 307.17 110.616C307.755 110.616 308.252 110.403 308.571 110.013V110.527H309.803V104.544H308.571V106.592ZM307.427 109.597C306.745 109.597 306.231 109.118 306.231 108.302C306.231 107.487 306.745 106.982 307.427 106.982C308.119 106.982 308.624 107.487 308.624 108.302C308.624 109.118 308.119 109.597 307.427 109.597ZM313.736 108.489C313.736 109.34 313.275 109.632 312.796 109.632C312.371 109.632 312.034 109.384 312.034 108.79V106.06H310.811V109.047C310.811 110.031 311.343 110.616 312.406 110.616C312.974 110.616 313.435 110.394 313.736 109.925V110.527H314.959V106.06H313.736V108.489ZM318.213 110.616C319.339 110.616 320.207 110.013 320.42 108.949L319.286 108.843C319.144 109.366 318.754 109.614 318.257 109.614C317.522 109.614 317.034 109.074 317.034 108.285C317.034 107.505 317.522 106.973 318.257 106.973C318.869 106.973 319.339 107.389 319.392 108.072L320.527 107.966C320.42 106.698 319.481 105.971 318.213 105.971C316.786 105.971 315.802 106.911 315.802 108.285C315.802 109.667 316.786 110.616 318.213 110.616ZM323.839 110.527V109.481H323.165C322.961 109.481 322.873 109.402 322.873 109.198V106.999H323.839V106.06H322.873V104.544H321.65V106.06H320.932V106.999H321.65V109.348C321.65 110.12 322.057 110.527 322.82 110.527H323.839ZM330.36 108.134L329.208 104.544H327.027V110.527H328.312V105.288L329.926 110.527H330.794L332.417 105.288V110.527H333.702V104.544H331.512L330.36 108.134ZM338.452 106.919C338.222 106.317 337.619 105.971 336.635 105.971C335.58 105.971 334.782 106.476 334.614 107.442L335.713 107.629C335.775 107.185 336.076 106.884 336.608 106.884C337.078 106.884 337.344 107.088 337.353 107.522L336.413 107.788C335.536 108.036 334.614 108.418 334.614 109.402C334.614 110.297 335.403 110.616 336.094 110.616C336.759 110.616 337.22 110.323 337.406 109.898H337.45V110.527H338.585V107.859C338.585 107.363 338.55 107.159 338.452 106.919ZM336.387 109.712C336.032 109.712 335.837 109.561 335.837 109.277C335.837 108.949 336.094 108.746 336.644 108.586L337.433 108.32C337.388 109.171 336.972 109.712 336.387 109.712ZM342.158 105.971C341.59 105.971 341.129 106.184 340.828 106.645V106.06H339.596V110.527H340.828V108.098C340.828 107.247 341.289 106.955 341.759 106.955C342.184 106.955 342.521 107.203 342.521 107.797V110.527H343.744V107.54C343.744 106.547 343.212 105.971 342.158 105.971ZM348.407 106.919C348.177 106.317 347.574 105.971 346.59 105.971C345.535 105.971 344.737 106.476 344.569 107.442L345.668 107.629C345.73 107.185 346.032 106.884 346.563 106.884C347.033 106.884 347.299 107.088 347.308 107.522L346.368 107.788C345.491 108.036 344.569 108.418 344.569 109.402C344.569 110.297 345.358 110.616 346.049 110.616C346.714 110.616 347.175 110.323 347.361 109.898H347.406V110.527H348.54V107.859C348.54 107.363 348.505 107.159 348.407 106.919ZM346.342 109.712C345.987 109.712 345.792 109.561 345.792 109.277C345.792 108.949 346.049 108.746 346.599 108.586L347.388 108.32C347.344 109.171 346.927 109.712 346.342 109.712ZM352.654 106.609C352.405 106.228 351.927 105.971 351.324 105.971C350.225 105.971 349.32 106.831 349.32 108.072C349.32 109.322 350.225 110.199 351.315 110.199C351.9 110.199 352.405 109.942 352.654 109.552V110.066C352.654 110.705 352.37 111.183 351.563 111.183C351.014 111.183 350.659 110.917 350.42 110.377L349.418 110.873C349.746 111.635 350.429 112.132 351.608 112.132C352.999 112.132 353.877 111.44 353.877 110.004L353.886 106.06H352.654V106.609ZM351.608 109.251C350.969 109.251 350.544 108.799 350.544 108.098C350.544 107.38 350.969 106.937 351.608 106.937C352.246 106.937 352.654 107.38 352.654 108.098C352.654 108.808 352.246 109.251 351.608 109.251ZM359.367 108.258C359.358 106.778 358.392 105.971 357.08 105.971C355.768 105.971 354.74 106.849 354.74 108.293C354.74 109.738 355.68 110.616 357.142 110.616C358.171 110.616 358.977 110.102 359.27 109.189L358.135 109.038C357.967 109.446 357.612 109.65 357.142 109.65C356.504 109.65 356.016 109.26 355.954 108.542H359.35L359.367 108.258ZM357.089 106.902C357.612 106.902 358.011 107.177 358.126 107.664H356.016C356.158 107.15 356.539 106.902 357.089 106.902ZM365.632 105.971C364.994 105.971 364.48 106.193 364.143 106.6C363.895 106.193 363.416 105.971 362.769 105.971C362.21 105.971 361.758 106.193 361.457 106.583V106.06H360.225V110.527H361.457V108.072C361.457 107.23 361.865 106.946 362.334 106.946C362.76 106.946 363.088 107.203 363.088 107.708V110.527H364.32V108.072C364.32 107.221 364.728 106.946 365.198 106.946C365.623 106.946 365.951 107.194 365.951 107.708V110.527H367.174V107.292C367.174 106.467 366.598 105.971 365.632 105.971ZM372.612 108.258C372.603 106.778 371.637 105.971 370.325 105.971C369.013 105.971 367.985 106.849 367.985 108.293C367.985 109.738 368.924 110.616 370.387 110.616C371.415 110.616 372.222 110.102 372.515 109.189L371.38 109.038C371.211 109.446 370.857 109.65 370.387 109.65C369.749 109.65 369.261 109.26 369.199 108.542H372.594L372.612 108.258ZM370.334 106.902C370.857 106.902 371.256 107.177 371.371 107.664H369.261C369.403 107.15 369.784 106.902 370.334 106.902ZM376.031 105.971C375.464 105.971 375.003 106.184 374.702 106.645V106.06H373.469V110.527H374.702V108.098C374.702 107.247 375.163 106.955 375.632 106.955C376.058 106.955 376.395 107.203 376.395 107.797V110.527H377.618V107.54C377.618 106.547 377.086 105.971 376.031 105.971ZM381.121 110.527V109.481H380.447C380.243 109.481 380.154 109.402 380.154 109.198V106.999H381.121V106.06H380.154V104.544H378.931V106.06H378.213V106.999H378.931V109.348C378.931 110.12 379.339 110.527 380.101 110.527H381.121ZM297.783 115.447H291.205V124.527H297.783V122.819H293.155V120.815H297.419V119.133H293.155V117.142H297.783V115.447ZM305.702 119.94L308.715 115.447H306.455L304.451 118.487L302.447 115.447H300.187L303.2 119.94L300.012 124.527H302.339L304.451 121.447L306.563 124.527H308.89L305.702 119.94ZM311.403 115.447V124.527H313.353V121.151H315.317C317.362 121.151 318.626 120.33 318.626 118.313C318.626 116.281 317.362 115.447 315.317 115.447H311.403ZM313.353 119.456V117.142H315.25C316.205 117.142 316.676 117.465 316.676 118.313C316.676 119.133 316.218 119.456 315.25 119.456H313.353ZM327.948 115.447H321.37V124.527H327.948V122.819H323.321V120.815H327.585V119.133H323.321V117.142H327.948V115.447ZM334.374 124.527C337.549 124.527 339.271 123.088 339.271 119.981C339.271 116.914 337.562 115.447 334.374 115.447H330.944V124.527H334.374ZM332.881 117.142H334.361C336.217 117.142 337.32 118.057 337.32 119.981C337.32 121.877 336.257 122.819 334.361 122.819H332.881V117.142ZM344.136 124.527V115.447H342.185V124.527H344.136ZM346.881 115.447V117.142H349.733V124.527H351.684V117.142H354.536V115.447H346.881ZM359.237 124.527V115.447H357.286V124.527H359.237ZM366.776 124.702C369.507 124.702 371.444 122.779 371.444 119.981C371.444 117.183 369.507 115.259 366.776 115.259C364.059 115.259 362.121 117.183 362.121 119.981C362.121 122.779 364.059 124.702 366.776 124.702ZM366.776 122.913C365.202 122.913 364.059 121.743 364.059 119.981C364.059 118.218 365.202 117.048 366.776 117.048C368.377 117.048 369.493 118.218 369.493 119.981C369.493 121.743 368.377 122.913 366.776 122.913ZM380.613 121.77L376.645 115.447H374.331V124.527H376.282V118.165L380.223 124.527H382.564V115.447H380.613V121.77Z" fill="white"/>
<line x1="378.659" y1="91.929" x2="290.479" y2="91.9289" stroke="#F0DF31" stroke-width="0.736814" stroke-linecap="round"/>
</g>
<defs>
<clipPath id="clip0_1380_6817">
<rect width="454" height="168" fill="white"/>
</clipPath>
<clipPath id="clip1_1380_6817">
<rect width="35.948" height="34.3091" fill="white" transform="translate(247 51.0586)"/>
</clipPath>
<clipPath id="clip2_1380_6817">
<rect x="254.779" y="54.0693" width="20.0602" height="20.0602" rx="10.0301" fill="white"/>
</clipPath>
<clipPath id="clip3_1380_6817">
<rect x="260.368" y="63.6074" width="20.0602" height="20.0602" rx="10.0301" fill="white"/>
</clipPath>
<clipPath id="clip4_1380_6817">
<rect x="249.517" y="63.6074" width="20.0602" height="20.0602" rx="10.0301" fill="white"/>
</clipPath>
</defs>
</svg>
