<svg width="454" height="168" viewBox="0 0 454 168" fill="none" xmlns="http://www.w3.org/2000/svg">
<g clip-path="url(#clip0_1380_7513)">
<rect width="454" height="168" fill="#1A074E"/>
<path d="M69.913 102.33V108.313H71.1984V106.088H72.4926C73.84 106.088 74.6733 105.547 74.6733 104.218C74.6733 102.879 73.84 102.33 72.4926 102.33H69.913ZM71.1984 104.971V103.447H72.4483C73.0777 103.447 73.3879 103.659 73.3879 104.218C73.3879 104.759 73.0865 104.971 72.4483 104.971H71.1984ZM76.615 103.845H75.3917V108.313H76.615V106.265C76.615 105.237 77.0848 104.9 78.1397 104.9V103.757C77.4305 103.757 76.8809 104.058 76.615 104.501V103.845ZM80.932 108.402C82.3503 108.402 83.352 107.515 83.352 106.07C83.352 104.643 82.3503 103.757 80.932 103.757C79.5137 103.757 78.5031 104.643 78.5031 106.07C78.5031 107.515 79.5137 108.402 80.932 108.402ZM80.932 107.4C80.214 107.4 79.7353 106.859 79.7353 106.07C79.7353 105.299 80.214 104.759 80.932 104.759C81.65 104.759 82.1287 105.299 82.1287 106.07C82.1287 106.859 81.65 107.4 80.932 107.4ZM87.5728 104.377C87.2536 103.978 86.7572 103.757 86.1722 103.757C84.9755 103.757 84.0004 104.634 84.0004 106.088C84.0004 107.542 84.9755 108.402 86.1722 108.402C86.7572 108.402 87.2536 108.189 87.5728 107.799V108.313H88.8049V102.33H87.5728V104.377ZM86.4292 107.382C85.7467 107.382 85.2325 106.904 85.2325 106.088C85.2325 105.273 85.7467 104.767 86.4292 104.767C87.1207 104.767 87.626 105.273 87.626 106.088C87.626 106.904 87.1207 107.382 86.4292 107.382ZM92.7381 106.274C92.7381 107.125 92.2771 107.418 91.7984 107.418C91.3729 107.418 91.0361 107.17 91.0361 106.576V103.845H89.8128V106.833C89.8128 107.817 90.3446 108.402 91.4084 108.402C91.9757 108.402 92.4367 108.18 92.7381 107.71V108.313H93.9614V103.845H92.7381V106.274ZM97.2149 108.402C98.3407 108.402 99.2094 107.799 99.4222 106.735L98.2875 106.629C98.1457 107.152 97.7556 107.4 97.2592 107.4C96.5235 107.4 96.0359 106.859 96.0359 106.07C96.0359 105.29 96.5235 104.759 97.2592 104.759C97.8709 104.759 98.3407 105.175 98.3939 105.858L99.5285 105.751C99.4222 104.484 98.4825 103.757 97.2149 103.757C95.7877 103.757 94.8038 104.696 94.8038 106.07C94.8038 107.453 95.7877 108.402 97.2149 108.402ZM102.841 108.313V107.267H102.167C101.963 107.267 101.875 107.187 101.875 106.983V104.785H102.841V103.845H101.875V102.33H100.651V103.845H99.9335V104.785H100.651V107.134C100.651 107.905 101.059 108.313 101.822 108.313H102.841ZM109.362 105.92L108.21 102.33H106.029V108.313H107.314V103.074L108.928 108.313H109.796L111.419 103.074V108.313H112.704V102.33H110.514L109.362 105.92ZM117.454 104.705C117.224 104.103 116.621 103.757 115.637 103.757C114.582 103.757 113.784 104.262 113.616 105.228L114.715 105.414C114.777 104.971 115.078 104.67 115.61 104.67C116.08 104.67 116.346 104.874 116.355 105.308L115.415 105.574C114.538 105.822 113.616 106.203 113.616 107.187C113.616 108.083 114.405 108.402 115.096 108.402C115.761 108.402 116.222 108.109 116.408 107.684H116.452V108.313H117.587V105.645C117.587 105.149 117.552 104.945 117.454 104.705ZM115.389 107.498C115.034 107.498 114.839 107.347 114.839 107.063C114.839 106.735 115.096 106.531 115.646 106.372L116.435 106.106C116.39 106.957 115.974 107.498 115.389 107.498ZM121.159 103.757C120.592 103.757 120.131 103.97 119.83 104.431V103.845H118.598V108.313H119.83V105.884C119.83 105.033 120.291 104.741 120.761 104.741C121.186 104.741 121.523 104.989 121.523 105.583V108.313H122.746V105.326C122.746 104.333 122.214 103.757 121.159 103.757ZM127.409 104.705C127.179 104.103 126.576 103.757 125.592 103.757C124.537 103.757 123.739 104.262 123.571 105.228L124.67 105.414C124.732 104.971 125.034 104.67 125.565 104.67C126.035 104.67 126.301 104.874 126.31 105.308L125.37 105.574C124.493 105.822 123.571 106.203 123.571 107.187C123.571 108.083 124.36 108.402 125.051 108.402C125.716 108.402 126.177 108.109 126.363 107.684H126.408V108.313H127.542V105.645C127.542 105.149 127.507 104.945 127.409 104.705ZM125.344 107.498C124.989 107.498 124.794 107.347 124.794 107.063C124.794 106.735 125.051 106.531 125.601 106.372L126.39 106.106C126.346 106.957 125.929 107.498 125.344 107.498ZM131.655 104.395C131.407 104.014 130.929 103.757 130.326 103.757C129.227 103.757 128.322 104.617 128.322 105.858C128.322 107.108 129.227 107.985 130.317 107.985C130.902 107.985 131.407 107.728 131.655 107.338V107.852C131.655 108.49 131.372 108.969 130.565 108.969C130.016 108.969 129.661 108.703 129.422 108.162L128.42 108.659C128.748 109.421 129.43 109.918 130.609 109.918C132.001 109.918 132.879 109.226 132.879 107.79L132.888 103.845H131.655V104.395ZM130.609 107.037C129.971 107.037 129.546 106.585 129.546 105.884C129.546 105.166 129.971 104.723 130.609 104.723C131.248 104.723 131.655 105.166 131.655 105.884C131.655 106.593 131.248 107.037 130.609 107.037ZM138.369 106.044C138.36 104.563 137.394 103.757 136.082 103.757C134.77 103.757 133.742 104.634 133.742 106.079C133.742 107.524 134.682 108.402 136.144 108.402C137.173 108.402 137.979 107.888 138.272 106.975L137.137 106.824C136.969 107.232 136.614 107.436 136.144 107.436C135.506 107.436 135.018 107.046 134.956 106.328H138.351L138.369 106.044ZM136.091 104.688C136.614 104.688 137.013 104.962 137.128 105.45H135.018C135.16 104.936 135.541 104.688 136.091 104.688ZM144.634 103.757C143.996 103.757 143.482 103.978 143.145 104.386C142.897 103.978 142.418 103.757 141.771 103.757C141.212 103.757 140.76 103.978 140.459 104.368V103.845H139.227V108.313H140.459V105.858C140.459 105.016 140.867 104.732 141.336 104.732C141.762 104.732 142.09 104.989 142.09 105.494V108.313H143.322V105.858C143.322 105.007 143.73 104.732 144.2 104.732C144.625 104.732 144.953 104.98 144.953 105.494V108.313H146.176V105.078C146.176 104.253 145.6 103.757 144.634 103.757ZM151.614 106.044C151.605 104.563 150.639 103.757 149.327 103.757C148.015 103.757 146.987 104.634 146.987 106.079C146.987 107.524 147.926 108.402 149.389 108.402C150.417 108.402 151.224 107.888 151.517 106.975L150.382 106.824C150.213 107.232 149.859 107.436 149.389 107.436C148.751 107.436 148.263 107.046 148.201 106.328H151.596L151.614 106.044ZM149.336 104.688C149.859 104.688 150.258 104.962 150.373 105.45H148.263C148.405 104.936 148.786 104.688 149.336 104.688ZM155.033 103.757C154.466 103.757 154.005 103.97 153.704 104.431V103.845H152.471V108.313H153.704V105.884C153.704 105.033 154.165 104.741 154.634 104.741C155.06 104.741 155.397 104.989 155.397 105.583V108.313H156.62V105.326C156.62 104.333 156.088 103.757 155.033 103.757ZM160.123 108.313V107.267H159.449C159.245 107.267 159.156 107.187 159.156 106.983V104.785H160.123V103.845H159.156V102.33H157.933V103.845H157.215V104.785H157.933V107.134C157.933 107.905 158.341 108.313 159.103 108.313H160.123ZM76.7846 113.233H70.2066V122.313H76.7846V120.605H72.1572V118.6H76.4214V116.919H72.1572V114.928H76.7846V113.233ZM84.7038 117.726L87.7171 113.233H85.4571L83.4528 116.273L81.4485 113.233H79.1885L82.2018 117.726L79.0137 122.313H81.3409L83.4528 119.233L85.5648 122.313H87.892L84.7038 117.726ZM90.4045 113.233V122.313H92.3551V118.937H94.319C96.3637 118.937 97.6282 118.116 97.6282 116.098C97.6282 114.067 96.3637 113.233 94.319 113.233H90.4045ZM92.3551 117.242V114.928H94.2518C95.2069 114.928 95.6777 115.251 95.6777 116.098C95.6777 116.919 95.2203 117.242 94.2518 117.242H92.3551ZM106.95 113.233H100.372V122.313H106.95V120.605H102.323V118.6H106.587V116.919H102.323V114.928H106.95V113.233ZM113.376 122.313C116.551 122.313 118.273 120.874 118.273 117.766C118.273 114.699 116.564 113.233 113.376 113.233H109.946V122.313H113.376ZM111.883 114.928H113.363C115.219 114.928 116.322 115.843 116.322 117.766C116.322 119.663 115.259 120.605 113.363 120.605H111.883V114.928ZM123.138 122.313V113.233H121.187V122.313H123.138ZM125.883 113.233V114.928H128.735V122.313H130.686V114.928H133.537V113.233H125.883ZM138.239 122.313V113.233H136.288V122.313H138.239ZM145.778 122.488C148.509 122.488 150.446 120.564 150.446 117.766C150.446 114.968 148.509 113.045 145.778 113.045C143.061 113.045 141.123 114.968 141.123 117.766C141.123 120.564 143.061 122.488 145.778 122.488ZM145.778 120.699C144.204 120.699 143.061 119.529 143.061 117.766C143.061 116.004 144.204 114.834 145.778 114.834C147.379 114.834 148.495 116.004 148.495 117.766C148.495 119.529 147.379 120.699 145.778 120.699ZM159.615 119.556L155.647 113.233H153.333V122.313H155.284V115.95L159.225 122.313H161.566V113.233H159.615V119.556Z" fill="white"/>
<line x1="157.66" y1="89.7133" x2="69.4796" y2="89.7132" stroke="#F0DF31" stroke-width="0.736814" stroke-linecap="round"/>
<path d="M40.3145 91V79.6803V69.2212C40.1741 68.3138 41.1564 66.7083 42.4193 66.7083C43.6822 66.7083 43.261 68.8024 44.1031 68.8024C44.9453 68.8024 44.3135 66.7083 45.5765 66.7083C47.0497 66.7083 47.6813 68.593 47.6813 69.2212V79.6803V86.8118M34 79.6803H53.9958V64.8121C54.0659 60.1352 53.3642 51.0022 43.8926 51C34.7982 50.9979 33.9999 59.7977 34 64.8121V79.6803Z" stroke="white" stroke-width="3"/>
<path d="M69.8 71.08C69.8 77.16 74.68 80.48 81.52 80.48C87.4 80.48 92.04 77.8 92.04 72.44C92.04 68.32 89.64 65.56 84.36 64.64L79.6 63.8C78.04 63.52 77.08 63.08 77.08 61.92C77.08 60.52 78.36 59.64 80.6 59.64C83.2 59.64 85.08 60.84 85.28 63.44L91.52 63.32C91.4 57.72 87.64 54.32 80.68 54.32C74.4 54.32 70.4 57.4 70.4 62.52C70.4 66.92 73.28 69.24 77.4 70L82 70.8C83.92 71.16 85.4 71.4 85.4 72.88C85.4 74.28 83.88 75.12 81.52 75.12C78.72 75.12 76.28 74.04 76.04 70.88L69.8 71.08ZM101.938 66.68V60.24H105.938C108.978 60.24 110.138 61.36 110.138 63.48C110.138 65.6 108.978 66.68 105.938 66.68H101.938ZM101.938 72.12H106.258C112.858 72.12 116.698 69.04 116.698 63.44C116.698 57.88 112.858 54.8 106.258 54.8H95.1778V80H101.938V72.12ZM124.821 54.8L114.781 80H121.621L123.501 75.12H133.341L135.221 80H142.461L132.421 54.8H124.821ZM128.341 62.6H128.501L131.381 70.04H125.461L128.341 62.6ZM167.237 80C166.397 79.08 166.277 77.96 165.917 74.2C165.637 71.28 164.117 69.8 161.517 69.28C164.597 68.88 166.877 66.48 166.877 62.8C166.877 57.88 163.637 54.8 157.117 54.8H144.397V80H151.077V71.64H155.597C157.877 71.64 159.117 72.28 159.317 75.16C159.517 77.76 159.837 79.32 160.357 80H167.237ZM151.077 66.4V60.24H155.917C158.797 60.24 160.237 61.32 160.237 63.36C160.237 65.68 158.797 66.4 155.917 66.4H151.077ZM193.985 80L183.785 65.52L193.505 54.8H185.705L176.665 65V54.8H169.865V80H176.665V72.36L178.865 69.96L185.865 80H193.985ZM195.49 54.8V80H214.77V74.4H202.29V54.8H195.49ZM237.518 74.4H224.358V70.04H234.238V64.52H224.358V60.4H237.158V54.8H217.678V80H237.518V74.4Z" fill="white"/>
<path d="M592 -76L1022 -26.526V184.5H389.91L283.5 170L268 55.9141L592 -76Z" fill="#2D1373"/>
<path d="M333.154 71.0537L332.82 71.3206L325.352 77.2918L325.277 77.3492V74.0544L330.546 69.0971L332.573 67.1844L332.914 69.4553L333.154 71.0537Z" fill="#FFCC42" stroke="#231F20" stroke-width="0.281264" stroke-linejoin="round"/>
<path d="M353.873 72.676L353.822 72.8315L353.714 72.649L353.873 72.676Z" fill="#FEDB7C" stroke="#231F20" stroke-width="0.281264" stroke-linejoin="round"/>
<path d="M404.633 81.5815C403.91 87.5898 403.186 93.6015 402.461 99.6166L401.859 99.1536L390.032 90.0296L385.402 86.4578L384.584 95.7102L382.925 114.441L375.829 100.515L363.082 75.5395L362.055 80.8516L358.946 96.8118L357.865 94.3213L352.12 81.1422L351.049 78.6923L350.468 77.3406L343.767 92.7162L340.766 99.6064L339.414 77.7258L341.077 70.697L344.456 56.4467L353.725 72.6671L353.83 72.8496L353.881 72.6941L358.872 57.2442L365.167 74.4243L365.843 76.2998L366.857 74.6845L379.57 54.3178L390.025 78.2361L390.779 79.9663L391.177 78.4118L395.232 62.1914L398.466 79.5337C399.424 82.4061 400.385 85.2751 401.349 88.1407L404.633 81.5815Z" fill="#B38F2F"/>
<path d="M413.216 75.2739L411.405 81.512L410.594 84.3066L410.006 81.2957C409.628 79.3628 409.249 77.4219 408.871 75.4732L410.777 70.9653L413.216 75.2739Z" fill="#FEDB7C" stroke="#231F20" stroke-width="0.281264" stroke-linejoin="round"/>
<path d="M409.12 76.7347L410.006 81.2933L407.681 80.9317L409.12 76.7347Z" fill="#FEDB7C" stroke="#231F20" stroke-width="0.281264" stroke-linejoin="round"/>
<path d="M418.152 82.5448L411.407 81.5141L413.218 75.276L418.152 82.5448Z" fill="#FEDB7C" stroke="#231F20" stroke-width="0.281264" stroke-linejoin="round"/>
<path d="M393.746 153.254C386.761 157.174 378.712 159.539 370.467 160.235C372.663 159.655 374.796 158.855 376.833 157.849C378.913 156.788 380.894 155.544 382.754 154.132C388.225 149.854 391.486 142.754 392.662 139.994C399.082 124.898 401.552 102.146 401.867 99.1453C402.066 99.3007 402.265 99.4562 402.468 99.6082L403.144 94.2859L403.58 63.5889C405.725 69.4958 407.878 75.4027 410.041 81.3096L410.629 84.3205L410.812 70.9658L410.264 50.0145C413.799 60.6277 416.449 71.5157 418.185 82.5667C419.314 89.7408 419.875 93.3262 419.973 97.6652C420.098 105.843 420.703 138.061 393.746 153.254Z" fill="#FFCC42" stroke="#231F20" stroke-width="0.281264" stroke-linejoin="round"/>
<path d="M378.674 42.331L385.771 42.2701L392.867 42.233L407.06 42.2059H408.31L407.155 42.6824L395.145 47.6465L389.143 50.1167L383.135 52.5667V52.0767L391.989 56.0338C394.942 57.3449 397.879 58.6899 400.825 60.0179L401.812 60.464L400.737 60.3896L391.178 59.7138L381.618 59.0042L391.198 59.4739L400.761 59.9841L400.67 60.3525C397.71 59.0548 394.739 57.7775 391.786 56.4663L382.915 52.5498L382.337 52.293L382.922 52.053L388.934 49.5761L394.942 47.1227L406.952 42.2397L407.046 42.7162L392.854 42.5675L385.757 42.4661L378.674 42.331Z" fill="#855AA5"/>
<path d="M347.815 61.6509L340.992 63.5872L334.163 65.5032L320.49 69.2745L319.287 69.6124L320.274 68.8453L330.53 60.8939L335.663 56.9233L340.81 52.973L340.935 53.4528L331.351 51.9795C328.154 51.4963 324.964 50.9657 321.771 50.4757L320.703 50.3101L321.761 50.0939L331.155 48.2015L340.556 46.3497L331.202 48.4347L321.842 50.4622V50.0837C325.042 50.5501 328.242 50.9961 331.439 51.4794L341.029 52.9088L341.654 53L341.141 53.392L336.011 57.3795L330.868 61.3366L320.575 69.2407L320.362 68.8081L334.078 65.1957L340.951 63.4148L347.815 61.6509Z" fill="#855AA5"/>
<path d="M347.815 35.635L334.014 22.5472L333.565 22.1248L334.163 22.2903L350.86 26.9469L350.566 27.1159L357.977 -2.36123L358.318 -3.71631L358.538 -2.33758L363.15 26.609L362.691 26.5854L367.192 10.1217L367.32 9.63846L367.479 10.1116L373.42 27.7005L367.195 10.2096L367.482 10.1994L363.143 26.707L362.863 27.7715L362.687 26.6834L357.973 -2.24634L358.531 -2.22268L351.025 27.2308L350.965 27.4673L350.731 27.3998L334.079 22.5843L334.227 22.3275L347.815 35.635Z" fill="#855AA5"/>
<path d="M370.73 68.1961C369.821 68.7842 368.847 69.2639 367.827 69.6255L367.455 69.7472V69.7134C367.513 69.6087 367.573 69.4904 367.634 69.3518C367.681 69.2415 367.721 69.1287 367.756 69.0139C367.836 68.7199 367.888 68.4189 367.911 68.115V67.9258C369.25 67.5097 370.423 66.6819 371.263 65.5603C371.323 65.5568 371.382 65.5466 371.439 65.5299C371.699 66.5471 371.105 67.3446 370.73 68.1961Z" fill="#C82D93" stroke="#231F20" stroke-width="0.188612" stroke-miterlimit="10"/>
<path d="M367.924 67.9398V68.1256C367.901 68.4295 367.849 68.7305 367.769 69.0245C367.715 69.1934 367.647 69.3624 367.647 69.3624C367.586 69.501 367.525 69.6192 367.468 69.724V69.7578C364.427 70.6972 361.385 70.214 358.344 68.2033C357.969 67.3518 357.388 66.5543 357.628 65.5371C357.685 65.554 357.744 65.5642 357.803 65.5675C359.713 68.352 364.42 69.1529 367.924 67.9398Z" fill="#FC97D9" stroke="#231F20" stroke-width="0.188612" stroke-miterlimit="10"/>
<path d="M370.732 70.3454C369.985 71.3989 368.902 72.1665 367.66 72.5217L367.44 72.5893V71.1666C367.542 71.1396 367.64 71.1125 367.738 71.0787C368.861 70.7714 369.886 70.1829 370.718 69.3688C370.725 69.6932 370.728 70.0176 370.732 70.3454Z" fill="#C82D93" stroke="#231F20" stroke-width="0.188612" stroke-miterlimit="10"/>
<path d="M367.461 71.1666V72.5893C364.23 73.5659 359.925 72.8123 358.337 70.3454V69.3688C360.293 71.4167 364.298 72.0148 367.461 71.1666Z" fill="#FC97D9" stroke="#231F20" stroke-width="0.188612" stroke-miterlimit="10"/>
<path d="M370.73 68.1932V69.3692C369.898 70.1832 368.872 70.7717 367.749 71.079C367.651 71.1128 367.553 71.1399 367.452 71.1669V69.7442L367.823 69.6226C368.844 69.261 369.82 68.7812 370.73 68.1932V68.1932Z" fill="#C82D93" stroke="#231F20" stroke-width="0.188612" stroke-miterlimit="10"/>
<path d="M367.461 69.7476V71.1703C364.311 72.0151 360.307 71.4204 358.337 69.3725V68.1932C361.378 70.2038 364.42 70.6871 367.461 69.7476Z" fill="#FC97D9" stroke="#231F20" stroke-width="0.188612" stroke-miterlimit="10"/>
<path d="M370.688 71.3427V72.299C370.665 72.4574 370.628 72.6135 370.577 72.7654C369.881 73.8583 368.792 74.6431 367.536 74.9585L367.444 74.9855V73.671L367.607 73.6169C368.931 73.154 370.06 72.3903 370.688 71.3427Z" fill="#C82D93" stroke="#231F20" stroke-width="0.188612" stroke-miterlimit="10"/>
<path d="M367.433 73.6677V74.9823C367.003 75.0971 366.568 75.1885 366.128 75.256C363.783 75.6142 359.867 75.3067 358.38 72.5526C358.357 72.4647 358.339 72.3755 358.326 72.2856V71.0488H358.353V71.2854C359.921 73.9719 364.229 74.6815 367.433 73.6677Z" fill="#FC97D9" stroke="#231F20" stroke-width="0.188612" stroke-miterlimit="10"/>
<path d="M370.569 72.7578C370.442 73.1123 370.243 73.4369 369.985 73.7113C369.726 73.9856 369.415 74.204 369.069 74.3528C368.568 74.6026 368.049 74.816 367.518 74.9915L367.426 75.0219V74.978L367.518 74.9509C368.778 74.6379 369.87 73.8528 370.569 72.7578V72.7578Z" fill="#C82D93" stroke="#231F20" stroke-width="0.188612" stroke-miterlimit="10"/>
<path d="M366.717 76.5425C366.136 77.8942 365.869 78.3132 365.74 78.3876C365.645 78.4421 365.56 78.5131 365.49 78.5971C365.434 78.6647 365.387 78.7397 365.352 78.8201C365.287 78.9452 365.122 79.0871 364.676 79.1581C364.047 79.182 363.422 79.0497 362.858 78.7728C362.158 78.4653 361.432 78.2017 360.763 77.8402C359.925 77.3806 359.394 76.6912 359.505 75.6572C359.64 75.6257 359.779 75.6232 359.914 75.65C360.05 75.6769 360.177 75.7323 360.289 75.8126C362.237 76.7993 364.469 77.0697 366.595 76.5763L366.717 76.5425Z" fill="#FC97D9" stroke="#231F20" stroke-width="0.188612" stroke-miterlimit="10"/>
<path d="M367.535 78.2298C367.089 78.4393 366.615 78.5948 366.152 78.7739C365.69 79.0005 365.187 79.1316 364.672 79.1591C365.122 79.0882 365.287 78.9462 365.348 78.8212C365.384 78.7408 365.43 78.6657 365.487 78.5982C365.557 78.5141 365.642 78.4432 365.737 78.3887C365.865 78.3143 366.132 77.8919 366.713 76.5436C367.405 76.3687 368.078 76.1242 368.721 75.8137C368.832 75.7325 368.96 75.6766 369.096 75.6498C369.231 75.6229 369.371 75.6258 369.505 75.6582C369.63 77.1147 368.623 77.7229 367.535 78.2298Z" fill="#C82D93" stroke="#231F20" stroke-width="0.188612" stroke-miterlimit="10"/>
<path d="M370.732 70.3485V71.2812L370.702 71.3352C370.07 72.3896 368.941 73.1533 367.607 73.6095L367.444 73.6635V72.5923L367.664 72.5247C368.904 72.1684 369.986 71.401 370.732 70.3485V70.3485Z" fill="#C82D93" stroke="#231F20" stroke-width="0.188612" stroke-miterlimit="10"/>
<path d="M367.441 72.5897V73.6609C364.238 74.6747 359.929 73.9718 358.348 71.2954V70.3594C359.905 72.8127 364.211 73.5663 367.441 72.5897Z" fill="#FC97D9" stroke="#231F20" stroke-width="0.188612" stroke-miterlimit="10"/>
<path d="M370.713 73.6663L370.686 73.7069V73.494C370.088 74.0989 369.618 74.8017 368.794 75.2208C368.365 75.4374 367.92 75.6194 367.462 75.7648H367.412V74.9606L367.503 74.9335C368.76 74.6181 369.848 73.8333 370.544 72.7404V72.7404C370.595 72.6627 370.639 72.5849 370.683 72.5038C370.713 72.8992 370.713 73.2845 370.713 73.6663Z" fill="#C82D93" stroke="#231F20" stroke-width="0.188612" stroke-miterlimit="10"/>
<path d="M367.428 74.9751V75.7793C365.965 76.2078 364.426 76.3071 362.92 76.07C361.133 75.8233 359.416 75.2049 358.355 73.5321V72.5184L358.379 72.5555C359.866 75.2995 363.785 75.5969 366.127 75.2589C366.566 75.188 367 75.0933 367.428 74.9751Z" fill="#FC97D9" stroke="#231F20" stroke-width="0.188612" stroke-miterlimit="10"/>
<path d="M370.687 73.7076C370.681 74.1077 370.57 74.4992 370.363 74.8419C370.156 75.1846 369.862 75.466 369.511 75.6574C368.866 76.102 368.162 76.4525 367.419 76.6982V76.6982V75.7689H367.459C367.914 75.6229 368.356 75.441 368.781 75.2248C369.605 74.8058 370.075 74.1029 370.673 73.498C370.683 73.569 370.687 73.6366 370.687 73.7076Z" fill="#C82D93" stroke="#231F20" stroke-width="0.188612" stroke-miterlimit="10"/>
<path d="M367.419 75.7795V76.7088C366.107 77.147 364.712 77.281 363.34 77.1006C361.969 76.9203 360.656 76.4304 359.501 75.668C359.118 75.4591 358.803 75.1438 358.594 74.7602C358.386 74.3765 358.292 73.9408 358.325 73.5053L358.349 73.5425C359.41 75.2321 361.127 75.8336 362.914 76.0803C364.42 76.3142 365.958 76.2114 367.419 75.7795V75.7795Z" fill="#FC97D9" stroke="#231F20" stroke-width="0.188612" stroke-miterlimit="10"/>
<path d="M374.594 59.815C374.01 60.4638 373.354 61.045 372.786 61.7073C372.315 62.22 371.95 62.8221 371.715 63.478C371.48 64.1339 371.379 64.8302 371.418 65.5259C371.34 65.6137 371.266 65.705 371.195 65.7962C370.614 67.327 369.211 67.9015 367.816 68.3036C364.811 69.1687 361.861 69.0437 359.131 67.2898C358.552 66.9669 358.105 66.4516 357.867 65.8334C357.789 65.7286 357.708 65.6306 357.62 65.5326C357.691 64.1798 357.244 62.8509 356.37 61.8155C363.723 62.6062 370.668 58.6829 373.145 52.5462C375.118 47.6564 374.094 41.7766 370.57 37.2349C372.295 38.0245 373.835 39.1686 375.089 40.5927C376.343 42.0168 377.283 43.689 377.849 45.5005C379.562 50.9174 378.345 55.6585 374.594 59.815Z" fill="#855AA5" stroke="#010101" stroke-width="0.0926516" stroke-miterlimit="10"/>
<path d="M373.122 52.5559C370.645 58.6926 363.701 62.6159 356.347 61.8252C355.966 61.3428 355.548 60.8909 355.097 60.4735C354.46 59.8809 353.874 59.2366 353.343 58.5473C351.827 56.5944 350.861 54.2714 350.545 51.8192C350.21 49.6933 350.434 47.5169 351.194 45.5034C352.924 39.8195 358.358 35.8996 364.508 35.8996C365.581 35.8988 366.649 36.019 367.695 36.2578C368.678 36.4804 369.634 36.809 370.547 37.2378C374.068 41.7862 375.082 47.6661 373.122 52.5559Z" fill="#BBA0CC" stroke="#231F20" stroke-width="0.188612" stroke-miterlimit="10"/>
<path d="M353.066 47.986C352.171 52.7507 354.824 56.5084 355.378 57.262C354.881 54.1717 355.148 51.0069 356.155 48.0434C357.556 44.0427 360.217 40.6042 363.738 38.2436C358.237 39.1999 353.985 43.1232 353.066 47.986Z" fill="white"/>
<path d="M367.415 76.6984V76.7162V76.6984Z" fill="#FC97D9" stroke="#231F20" stroke-width="0.330898" stroke-miterlimit="10"/>
<path d="M383.972 26.2944C388.46 26.2606 391.829 26.0308 393.052 25.7673C393.218 25.7301 393.491 25.6625 394.313 25.4766C395.911 25.1151 396.114 25.0948 396.401 24.9326C397.144 24.5136 397.476 23.6823 397.702 22.8611C398.54 19.8029 399.165 12.3686 398.871 12.3652C398.577 12.3618 399.297 21.0566 400.078 22.7192C400.465 23.5242 401.045 24.2208 401.767 24.7467V24.7467C402.371 25.1158 403.04 25.3659 403.737 25.4834C404.542 25.6152 408.857 25.9531 414.791 26.1795C408.955 26.7134 404.684 27.2338 403.497 27.4129C403.497 27.4129 402.122 27.6258 401.352 28.3726C401.224 28.4908 401.11 28.6235 401.014 28.768C400.818 29.078 400.681 29.4218 400.612 29.7818C400.493 30.3934 400.051 34.239 399.544 39.5242C399.311 37.9359 399.148 36.6653 399.05 35.8611C398.648 32.5764 398.604 31.316 397.699 29.8764C397.324 29.2798 396.863 28.7422 396.33 28.2814C395.725 27.9637 395.094 27.697 394.444 27.4839C393.167 27.0792 391.835 26.8718 390.494 26.8689C388.311 26.8019 386.133 26.6101 383.972 26.2944V26.2944Z" fill="white" stroke="#231F20" stroke-width="0.188612" stroke-miterlimit="10"/>
<path d="M382.751 154.133C380.933 155.603 378.945 156.851 376.831 157.85V157.85C374.794 158.857 372.661 159.658 370.464 160.239C362.399 160.943 354.275 159.988 346.593 157.431C343.954 156.548 341.391 155.452 338.929 154.153C311.02 139.376 311.621 105.62 311.76 97.6454C311.939 87.7983 314.207 77.1977 318.099 67.1917L325.277 67.4181V77.343L325.351 77.2855L332.819 71.3414L333.157 71.0745L334.793 69.7633L337.236 67.8135L338.757 67.8574L338.916 70.3952L338.983 71.5036L339.379 77.7552L340.73 99.6358L343.734 92.7455L350.435 77.37L351.017 78.7217L352.088 81.1716L357.833 94.3507L358.914 96.8412L362.023 80.881L363.067 75.552L375.814 100.528L382.91 114.454L384.569 95.7227L385.37 86.4703L390 90.0422L402.439 99.6189C402.9 109.398 401.582 119.179 398.549 128.488C398.549 128.488 392.838 145.847 382.751 154.133Z" fill="#FEDB7C" stroke="#231F20" stroke-width="0.281264" stroke-linejoin="round"/>
<path d="M329.825 130.102C328.135 130.562 324.03 120.164 323.682 119.265C322.62 116.561 318.491 105.464 319.478 87.8953C319.951 79.4236 320.37 73.0909 323.121 67.6199L325.02 67.6841V77.6191L325.094 77.5616L331.825 72.1852C330.32 76.1367 329.113 80.1952 328.213 84.3268C322.999 108.85 332.214 129.426 329.825 130.102Z" fill="white"/>
<path d="M290.938 130.381C294.563 130.351 297.287 130.168 298.277 129.952C298.409 129.925 298.615 129.868 299.291 129.719C300.582 129.428 300.747 129.408 300.981 129.28C301.585 128.942 301.852 128.266 302.032 127.59C302.707 125.117 303.218 119.112 302.978 119.108C302.738 119.105 303.316 126.13 303.954 127.475C304.262 128.13 304.726 128.699 305.306 129.131C305.794 129.428 306.334 129.629 306.898 129.722C307.55 129.831 311.037 130.104 315.832 130.287C311.101 130.719 307.661 131.142 306.708 131.301C306.073 131.401 305.475 131.667 304.975 132.071C304.871 132.172 304.78 132.286 304.705 132.409C304.543 132.654 304.429 132.927 304.367 133.213C304.269 133.707 303.914 136.815 303.502 141.087C303.316 139.803 303.184 138.775 303.103 138.127C302.765 135.471 302.745 134.453 302.015 133.288C301.713 132.806 301.342 132.372 300.913 132C300.424 131.742 299.914 131.526 299.389 131.355C298.355 131.028 297.277 130.86 296.192 130.858C295.03 130.814 293.303 130.692 290.938 130.381Z" fill="white" stroke="#231F20" stroke-width="0.188612" stroke-miterlimit="10"/>
</g>
<defs>
<clipPath id="clip0_1380_7513">
<rect width="454" height="168" fill="white"/>
</clipPath>
</defs>
</svg>
