<svg width="454" height="168" viewBox="0 0 454 168" fill="none" xmlns="http://www.w3.org/2000/svg">
<g clip-path="url(#clip0_1380_7559)">
<rect width="454" height="168" fill="#15063E"/>
<path d="M79.24 53.8H73.12L68.96 69.6H68.8L64.8 53.8H58L64.6 79H71.72L75.92 63.08H76.08L80.28 79H87.52L94.12 53.8H87.56L83.56 69.6H83.4L79.24 53.8ZM120.702 66.4C120.702 58.64 114.942 53.32 107.622 53.32C100.302 53.32 94.5422 58.64 94.5422 66.4C94.5422 74.16 100.302 79.48 107.622 79.48C114.942 79.48 120.702 74.16 120.702 66.4ZM113.702 66.4C113.702 70.68 111.342 73.48 107.622 73.48C103.902 73.48 101.542 70.68 101.542 66.4C101.542 62.12 103.902 59.32 107.622 59.32C111.342 59.32 113.702 62.12 113.702 66.4ZM146.276 79C145.436 78.08 145.316 76.96 144.956 73.2C144.676 70.28 143.156 68.8 140.556 68.28C143.636 67.88 145.916 65.48 145.916 61.8C145.916 56.88 142.676 53.8 136.156 53.8H123.436V79H130.116V70.64H134.636C136.916 70.64 138.156 71.28 138.356 74.16C138.556 76.76 138.876 78.32 139.396 79H146.276ZM130.116 65.4V59.24H134.956C137.836 59.24 139.276 60.32 139.276 62.36C139.276 64.68 137.836 65.4 134.956 65.4H130.116ZM173.024 79L162.824 64.52L172.544 53.8H164.744L155.704 64V53.8H148.904V79H155.704V71.36L157.904 68.96L164.904 79H173.024ZM172.394 70.08C172.394 76.16 177.274 79.48 184.114 79.48C189.994 79.48 194.634 76.8 194.634 71.44C194.634 67.32 192.234 64.56 186.954 63.64L182.194 62.8C180.634 62.52 179.674 62.08 179.674 60.92C179.674 59.52 180.954 58.64 183.194 58.64C185.794 58.64 187.674 59.84 187.874 62.44L194.114 62.32C193.994 56.72 190.234 53.32 183.274 53.32C176.994 53.32 172.994 56.4 172.994 61.52C172.994 65.92 175.874 68.24 179.994 69L184.594 69.8C186.514 70.16 187.994 70.4 187.994 71.88C187.994 73.28 186.474 74.12 184.114 74.12C181.314 74.12 178.874 73.04 178.634 69.88L172.394 70.08ZM204.572 79V69.04H214.612V79H221.412V53.8H214.612V63.52H204.572V53.8H197.772V79H204.572ZM250.273 66.4C250.273 58.64 244.513 53.32 237.193 53.32C229.873 53.32 224.113 58.64 224.113 66.4C224.113 74.16 229.873 79.48 237.193 79.48C244.513 79.48 250.273 74.16 250.273 66.4ZM243.273 66.4C243.273 70.68 240.913 73.48 237.193 73.48C233.473 73.48 231.113 70.68 231.113 66.4C231.113 62.12 233.473 59.32 237.193 59.32C240.913 59.32 243.273 62.12 243.273 66.4ZM259.766 65.68V59.24H263.766C266.806 59.24 267.966 60.36 267.966 62.48C267.966 64.6 266.806 65.68 263.766 65.68H259.766ZM259.766 71.12H264.086C270.686 71.12 274.526 68.04 274.526 62.44C274.526 56.88 270.686 53.8 264.086 53.8H253.006V79H259.766V71.12ZM275.792 70.08C275.792 76.16 280.672 79.48 287.512 79.48C293.392 79.48 298.032 76.8 298.032 71.44C298.032 67.32 295.632 64.56 290.352 63.64L285.592 62.8C284.032 62.52 283.072 62.08 283.072 60.92C283.072 59.52 284.352 58.64 286.592 58.64C289.192 58.64 291.072 59.84 291.272 62.44L297.512 62.32C297.392 56.72 293.632 53.32 286.672 53.32C280.392 53.32 276.392 56.4 276.392 61.52C276.392 65.92 279.272 68.24 283.392 69L287.992 69.8C289.912 70.16 291.392 70.4 291.392 71.88C291.392 73.28 289.872 74.12 287.512 74.12C284.712 74.12 282.272 73.04 282.032 69.88L275.792 70.08Z" fill="white"/>
<path d="M58.913 101.485V107.469H60.1984V105.244H61.4926C62.84 105.244 63.6733 104.703 63.6733 103.373C63.6733 102.035 62.84 101.485 61.4926 101.485H58.913ZM60.1984 104.127V102.602H61.4483C62.0777 102.602 62.3879 102.815 62.3879 103.373C62.3879 103.914 62.0865 104.127 61.4483 104.127H60.1984ZM65.615 103.001H64.3917V107.469H65.615V105.421C65.615 104.393 66.0848 104.056 67.1397 104.056V102.913C66.4305 102.913 65.8809 103.214 65.615 103.657V103.001ZM69.932 107.558C71.3503 107.558 72.352 106.671 72.352 105.226C72.352 103.799 71.3503 102.913 69.932 102.913C68.5137 102.913 67.5031 103.799 67.5031 105.226C67.5031 106.671 68.5137 107.558 69.932 107.558ZM69.932 106.556C69.214 106.556 68.7353 106.015 68.7353 105.226C68.7353 104.455 69.214 103.914 69.932 103.914C70.65 103.914 71.1287 104.455 71.1287 105.226C71.1287 106.015 70.65 106.556 69.932 106.556ZM76.5728 103.533C76.2536 103.134 75.7572 102.913 75.1722 102.913C73.9755 102.913 73.0004 103.79 73.0004 105.244C73.0004 106.698 73.9755 107.558 75.1722 107.558C75.7572 107.558 76.2536 107.345 76.5728 106.955V107.469H77.8049V101.485H76.5728V103.533ZM75.4292 106.538C74.7467 106.538 74.2325 106.059 74.2325 105.244C74.2325 104.428 74.7467 103.923 75.4292 103.923C76.1207 103.923 76.626 104.428 76.626 105.244C76.626 106.059 76.1207 106.538 75.4292 106.538ZM81.7381 105.43C81.7381 106.281 81.2771 106.574 80.7984 106.574C80.3729 106.574 80.0361 106.325 80.0361 105.731V103.001H78.8128V105.989C78.8128 106.972 79.3446 107.558 80.4084 107.558C80.9757 107.558 81.4367 107.336 81.7381 106.866V107.469H82.9614V103.001H81.7381V105.43ZM86.2149 107.558C87.3407 107.558 88.2094 106.955 88.4222 105.891L87.2875 105.785C87.1457 106.308 86.7556 106.556 86.2592 106.556C85.5235 106.556 85.0359 106.015 85.0359 105.226C85.0359 104.446 85.5235 103.914 86.2592 103.914C86.8709 103.914 87.3407 104.331 87.3939 105.013L88.5285 104.907C88.4222 103.639 87.4825 102.913 86.2149 102.913C84.7877 102.913 83.8038 103.852 83.8038 105.226C83.8038 106.609 84.7877 107.558 86.2149 107.558ZM91.841 107.469V106.423H91.1673C90.9634 106.423 90.8748 106.343 90.8748 106.139V103.941H91.841V103.001H90.8748V101.485H89.6515V103.001H88.9335V103.941H89.6515V106.29C89.6515 107.061 90.0593 107.469 90.8216 107.469H91.841ZM98.362 105.075L97.2096 101.485H95.0289V107.469H96.3143V102.23L97.9276 107.469H98.7963L100.419 102.23V107.469H101.704V101.485H99.5144L98.362 105.075ZM106.454 103.861C106.224 103.258 105.621 102.913 104.637 102.913C103.582 102.913 102.784 103.418 102.616 104.384L103.715 104.57C103.777 104.127 104.078 103.826 104.61 103.826C105.08 103.826 105.346 104.029 105.355 104.464L104.415 104.73C103.538 104.978 102.616 105.359 102.616 106.343C102.616 107.238 103.405 107.558 104.096 107.558C104.761 107.558 105.222 107.265 105.408 106.839H105.452V107.469H106.587V104.801C106.587 104.304 106.552 104.1 106.454 103.861ZM104.389 106.653C104.034 106.653 103.839 106.503 103.839 106.219C103.839 105.891 104.096 105.687 104.646 105.528L105.435 105.262C105.39 106.113 104.974 106.653 104.389 106.653ZM110.159 102.913C109.592 102.913 109.131 103.125 108.83 103.586V103.001H107.598V107.469H108.83V105.04C108.83 104.189 109.291 103.896 109.761 103.896C110.186 103.896 110.523 104.145 110.523 104.739V107.469H111.746V104.482C111.746 103.489 111.214 102.913 110.159 102.913ZM116.409 103.861C116.179 103.258 115.576 102.913 114.592 102.913C113.537 102.913 112.739 103.418 112.571 104.384L113.67 104.57C113.732 104.127 114.034 103.826 114.565 103.826C115.035 103.826 115.301 104.029 115.31 104.464L114.37 104.73C113.493 104.978 112.571 105.359 112.571 106.343C112.571 107.238 113.36 107.558 114.051 107.558C114.716 107.558 115.177 107.265 115.363 106.839H115.408V107.469H116.542V104.801C116.542 104.304 116.507 104.1 116.409 103.861ZM114.344 106.653C113.989 106.653 113.794 106.503 113.794 106.219C113.794 105.891 114.051 105.687 114.601 105.528L115.39 105.262C115.346 106.113 114.929 106.653 114.344 106.653ZM120.655 103.551C120.407 103.17 119.929 102.913 119.326 102.913C118.227 102.913 117.322 103.772 117.322 105.013C117.322 106.263 118.227 107.141 119.317 107.141C119.902 107.141 120.407 106.884 120.655 106.494V107.008C120.655 107.646 120.372 108.125 119.565 108.125C119.016 108.125 118.661 107.859 118.422 107.318L117.42 107.815C117.748 108.577 118.43 109.073 119.609 109.073C121.001 109.073 121.879 108.382 121.879 106.946L121.888 103.001H120.655V103.551ZM119.609 106.192C118.971 106.192 118.546 105.74 118.546 105.04C118.546 104.322 118.971 103.879 119.609 103.879C120.248 103.879 120.655 104.322 120.655 105.04C120.655 105.749 120.248 106.192 119.609 106.192ZM127.369 105.2C127.36 103.719 126.394 102.913 125.082 102.913C123.77 102.913 122.742 103.79 122.742 105.235C122.742 106.68 123.682 107.558 125.144 107.558C126.173 107.558 126.979 107.043 127.272 106.13L126.137 105.98C125.969 106.387 125.614 106.591 125.144 106.591C124.506 106.591 124.018 106.201 123.956 105.483H127.351L127.369 105.2ZM125.091 103.843C125.614 103.843 126.013 104.118 126.128 104.606H124.018C124.16 104.091 124.541 103.843 125.091 103.843ZM133.634 102.913C132.996 102.913 132.482 103.134 132.145 103.542C131.897 103.134 131.418 102.913 130.771 102.913C130.212 102.913 129.76 103.134 129.459 103.524V103.001H128.227V107.469H129.459V105.013C129.459 104.171 129.867 103.888 130.336 103.888C130.762 103.888 131.09 104.145 131.09 104.65V107.469H132.322V105.013C132.322 104.162 132.73 103.888 133.2 103.888C133.625 103.888 133.953 104.136 133.953 104.65V107.469H135.176V104.233C135.176 103.409 134.6 102.913 133.634 102.913ZM140.614 105.2C140.605 103.719 139.639 102.913 138.327 102.913C137.015 102.913 135.987 103.79 135.987 105.235C135.987 106.68 136.926 107.558 138.389 107.558C139.417 107.558 140.224 107.043 140.517 106.13L139.382 105.98C139.213 106.387 138.859 106.591 138.389 106.591C137.751 106.591 137.263 106.201 137.201 105.483H140.596L140.614 105.2ZM138.336 103.843C138.859 103.843 139.258 104.118 139.373 104.606H137.263C137.405 104.091 137.786 103.843 138.336 103.843ZM144.033 102.913C143.466 102.913 143.005 103.125 142.704 103.586V103.001H141.471V107.469H142.704V105.04C142.704 104.189 143.165 103.896 143.634 103.896C144.06 103.896 144.397 104.145 144.397 104.739V107.469H145.62V104.482C145.62 103.489 145.088 102.913 144.033 102.913ZM149.123 107.469V106.423H148.449C148.245 106.423 148.156 106.343 148.156 106.139V103.941H149.123V103.001H148.156V101.485H146.933V103.001H146.215V103.941H146.933V106.29C146.933 107.061 147.341 107.469 148.103 107.469H149.123ZM65.7846 112.389H59.2066V121.469H65.7846V119.76H61.1572V117.756H65.4214V116.075H61.1572V114.084H65.7846V112.389ZM73.7038 116.882L76.7171 112.389H74.4571L72.4528 115.429L70.4485 112.389H68.1885L71.2018 116.882L68.0137 121.469H70.3409L72.4528 118.388L74.5648 121.469H76.892L73.7038 116.882ZM79.4045 112.389V121.469H81.3551V118.092H83.319C85.3637 118.092 86.6282 117.272 86.6282 115.254C86.6282 113.223 85.3637 112.389 83.319 112.389H79.4045ZM81.3551 116.397V114.084H83.2518C84.2069 114.084 84.6777 114.407 84.6777 115.254C84.6777 116.075 84.2203 116.397 83.2518 116.397H81.3551ZM95.9501 112.389H89.3721V121.469H95.9501V119.76H91.3226V117.756H95.5869V116.075H91.3226V114.084H95.9501V112.389ZM102.376 121.469C105.551 121.469 107.273 120.03 107.273 116.922C107.273 113.855 105.564 112.389 102.376 112.389H98.9459V121.469H102.376ZM100.883 114.084H102.363C104.219 114.084 105.322 114.998 105.322 116.922C105.322 118.819 104.259 119.76 102.363 119.76H100.883V114.084ZM112.138 121.469V112.389H110.187V121.469H112.138ZM114.883 112.389V114.084H117.735V121.469H119.686V114.084H122.537V112.389H114.883ZM127.239 121.469V112.389H125.288V121.469H127.239ZM134.778 121.644C137.509 121.644 139.446 119.72 139.446 116.922C139.446 114.124 137.509 112.2 134.778 112.2C132.061 112.2 130.123 114.124 130.123 116.922C130.123 119.72 132.061 121.644 134.778 121.644ZM134.778 119.855C133.204 119.855 132.061 118.684 132.061 116.922C132.061 115.16 133.204 113.99 134.778 113.99C136.379 113.99 137.495 115.16 137.495 116.922C137.495 118.684 136.379 119.855 134.778 119.855ZM148.615 118.711L144.647 112.389H142.333V121.469H144.284V115.106L148.225 121.469H150.566V112.389H148.615V118.711Z" fill="white"/>
<line x1="146.66" y1="88.869" x2="58.4796" y2="88.8689" stroke="#F0DF31" stroke-width="0.736814" stroke-linecap="round"/>
<path d="M643 -72L1073 -22.526V188.5H440.91L334.5 174L319 59.9141L643 -72Z" fill="#192558"/>
<path d="M378.062 168.488C376.173 162.586 374.284 156.685 372.394 150.785C372.403 150.385 372.54 149.999 372.785 149.684C373.03 149.368 373.37 149.14 373.755 149.033C374.14 148.926 374.549 148.946 374.922 149.09C375.295 149.234 375.611 149.495 375.824 149.833L379.971 167.968L378.062 168.488Z" fill="#821F38" stroke="#231F20" stroke-width="0.85" stroke-linejoin="round"/>
<path d="M374.319 151.664C377.126 150.918 379.167 149.43 378.878 148.339C378.588 147.249 376.078 146.969 373.27 147.715C370.463 148.461 368.422 149.949 368.711 151.039C369.001 152.13 371.512 152.409 374.319 151.664Z" fill="#EF4570" stroke="#231F20" stroke-width="0.85" stroke-linejoin="round"/>
<path d="M373.904 150.08C376.173 149.477 377.822 148.274 377.588 147.392C377.354 146.511 375.325 146.285 373.056 146.887C370.787 147.49 369.138 148.693 369.372 149.574C369.606 150.456 371.635 150.682 373.904 150.08Z" fill="#EF4570" stroke="#231F20" stroke-width="0.85" stroke-linejoin="round"/>
<path d="M373.619 149.038C374.401 148.831 374.969 148.416 374.889 148.112C374.808 147.809 374.109 147.731 373.327 147.938C372.545 148.146 371.977 148.561 372.057 148.864C372.138 149.168 372.837 149.246 373.619 149.038Z" fill="#821F38" stroke="#231F20" stroke-width="0.85" stroke-linejoin="round"/>
<path d="M355.952 55.8899C358.114 55.5033 359.721 55.1166 360.291 54.8865L360.876 54.6424C361.618 54.3378 361.721 54.3089 361.839 54.2098C362.164 53.9447 362.253 53.5168 362.295 53.1015C362.449 51.5577 362.14 47.919 361.997 47.9411C361.855 47.9632 362.911 52.0968 363.428 52.8386C363.679 53.1982 364.016 53.4895 364.409 53.6861C364.73 53.8151 365.072 53.8807 365.418 53.8794C365.819 53.8764 367.927 53.6771 370.811 53.3072C368.037 54.0462 366.02 54.6471 365.463 54.8323C365.093 54.9575 364.763 55.1779 364.506 55.4713C364.455 55.5391 364.413 55.6121 364.378 55.6892C364.31 55.8528 364.273 56.0273 364.267 56.2042C364.258 56.5079 364.362 58.4002 364.552 60.9927C364.309 60.2448 364.126 59.6446 364.013 59.2646C363.548 57.7136 363.421 57.1107 362.864 56.4886C362.635 56.2319 362.369 56.0105 362.075 55.8315C361.757 55.7278 361.431 55.6513 361.1 55.603C360.45 55.5122 359.789 55.5215 359.141 55.6304C358.429 55.7269 357.394 55.8334 355.952 55.8899Z" fill="white" stroke="#231F20" stroke-width="0.57" stroke-miterlimit="10"/>
<path d="M392.594 118.678C394.757 118.294 396.364 117.905 396.934 117.677L397.519 117.433C398.261 117.128 398.364 117.1 398.482 117C398.807 116.735 398.899 116.307 398.938 115.892C399.092 114.346 398.783 110.707 398.641 110.732C398.498 110.756 399.561 114.889 400.075 115.629C400.326 115.988 400.663 116.279 401.054 116.476C401.375 116.605 401.718 116.671 402.063 116.67C402.464 116.667 404.572 116.467 407.456 116.095C404.682 116.834 402.665 117.437 402.109 117.623C401.739 117.748 401.409 117.967 401.15 118.259C401.1 118.328 401.058 118.402 401.023 118.48C400.955 118.642 400.918 118.816 400.912 118.992C400.904 119.298 401.007 121.19 401.197 123.783C400.954 123.035 400.771 122.435 400.659 122.055C400.194 120.504 400.066 119.901 399.509 119.279C399.281 119.022 399.015 118.8 398.72 118.622C398.403 118.517 398.076 118.44 397.745 118.391C397.095 118.302 396.434 118.311 395.786 118.418C395.072 118.515 394.037 118.624 392.594 118.678Z" fill="white" stroke="#231F20" stroke-width="0.57" stroke-miterlimit="10"/>
<path d="M327.887 147.172L323.481 133.652L416.416 70.3375L425.619 98.4914L417.951 99.0635L411.238 105.121L402.707 106.418L397.492 112.297L388.441 113.687L382.644 120.211L374.285 120.912L368.912 127.014L362.712 126.229L358.638 131.604L352.346 132.064L348.966 136.55L343.68 135.963L340.569 139.524L336.602 139.706L333.088 143.938L331.081 143.604L327.887 147.172Z" fill="#E0D9EC" stroke="#231F20" stroke-width="0.85" stroke-miterlimit="10"/>
<path d="M408.339 67.0246L410.564 71.3809L424.043 97.7528L426.219 102.016L430.276 99.3556L431.183 98.75L455.423 82.8469L439.614 51.8706L437.579 47.8678L408.339 67.0246ZM432.247 89.9524L431.436 90.4853L428.191 92.6169L416.522 69.7879L435.589 57.2923L437.624 61.2951L447.247 80.1096L432.247 89.9524Z" fill="#EF4570" stroke="#231F20" stroke-width="0.85" stroke-linejoin="round"/>
<path d="M416.518 69.7748L435.596 57.2796L437.638 61.2813L422.619 71.1183L416.518 69.7748Z" fill="#B42F50" stroke="#231F20" stroke-width="0.85" stroke-miterlimit="10"/>
<path d="M416.517 69.774L422.618 71.1175L432.243 89.9495L431.428 90.4831L428.189 92.6092L416.517 69.774Z" fill="#B42F50" stroke="#231F20" stroke-width="0.85" stroke-miterlimit="10"/>
<path d="M426.22 102.011L430.274 99.3515L431.182 98.7524L455.417 82.8435L461.167 84.4181L462.66 84.8267L433.841 103.952L426.22 102.011Z" fill="#B42F50" stroke="#231F20" stroke-width="0.85" stroke-miterlimit="10"/>
<path d="M439.615 51.8732L437.573 47.8714L443.197 49.5262L443.947 49.7478L444.916 50.0336L462.665 84.826L461.173 84.4175L455.422 82.8429L439.615 51.8732Z" fill="#B42F50" stroke="#231F20" stroke-width="0.85" stroke-miterlimit="10"/>
<path d="M374.289 120.773C375.103 113.015 375.918 105.255 376.734 97.4927L396.278 84.183C395.345 92.9876 394.413 101.79 393.482 110.592C393.419 111.333 393.357 112.074 393.295 112.815L388.381 113.538L382.636 120.209L374.289 120.773Z" fill="white"/>
<path d="M352.849 81.6782C353.724 81.4076 353.738 78.9415 352.881 76.17C352.024 73.3985 350.62 71.3711 349.745 71.6417C348.87 71.9123 348.855 74.3784 349.713 77.1499C350.57 79.9214 351.974 81.9488 352.849 81.6782Z" fill="white" stroke="#231F20" stroke-width="0.85" stroke-miterlimit="10"/>
<path d="M352.878 76.1636L373.529 142.928C374.385 145.7 374.37 148.165 373.496 148.436C372.622 148.707 371.217 146.68 370.361 143.908L349.71 77.1434C350.568 79.915 351.971 81.9443 352.847 81.6732C353.723 81.4021 353.731 78.936 352.878 76.1636Z" fill="#808285" stroke="#231F20" stroke-width="0.85" stroke-miterlimit="10"/>
<path d="M344.407 55.1618C348.845 53.7918 351.366 49.1927 350.038 44.8893C348.709 40.586 344.035 38.2081 339.597 39.578C335.159 40.948 332.638 45.5471 333.966 49.8505C335.295 54.1538 339.969 56.5318 344.407 55.1618Z" fill="#FEDB7C" stroke="#231F20" stroke-width="0.848724" stroke-linejoin="round"/>
<path d="M355.711 93.5971C351.504 94.7652 347.785 94.3912 347.261 92.6924L334.004 49.8326C334.25 50.6295 335.198 51.1354 336.57 51.3277L349.227 92.24C349.67 93.6775 352.365 94.1697 355.711 93.5971Z" fill="#FFCC42" stroke="#231F20" stroke-width="0.85" stroke-linejoin="round"/>
<path d="M356.304 93.421C356.107 93.4817 355.91 93.5402 355.714 93.5939C352.368 94.1643 349.673 93.6743 349.231 92.2456L336.574 51.3333C338.127 51.5512 340.224 51.3651 342.456 50.7454C342.655 50.6914 342.852 50.6329 343.051 50.5719C347.494 49.1967 350.65 46.6405 350.101 44.8602L350.786 47.0931L363.348 87.7127C363.905 89.4893 360.749 92.0477 356.304 93.421Z" fill="#FEDB7C" stroke="#231F20" stroke-width="0.85" stroke-linejoin="round"/>
<path d="M348.559 50.9585C348.825 50.7995 349.08 50.6233 349.323 50.4312C349.573 50.2302 349.809 50.0123 350.029 49.7789C353.817 61.9654 357.602 74.1509 361.384 86.3355C361.305 86.6036 361.177 86.8547 361.007 87.0762C360.808 87.3357 360.556 87.55 360.268 87.7049L348.559 50.9585Z" fill="white" stroke="#231F20" stroke-width="0.85" stroke-miterlimit="10"/>
<path d="M357.482 93.8395L372.676 143.804" stroke="white" stroke-width="1.98" stroke-miterlimit="10"/>
</g>
<defs>
<clipPath id="clip0_1380_7559">
<rect width="454" height="168" fill="white"/>
</clipPath>
</defs>
</svg>
